<svg width="24" height="24" viewBox="0 0 24 24" fill="none" xmlns="http://www.w3.org/2000/svg">
<path d="M22.447 7.60798L21.2471 16.189C21.0901 17.282 20.663 18.058 19.99 18.501C19.757 18.621 19.5021 18.5001 19.5021 18.2571V9.66609C19.5021 7.05709 17.9441 5.49909 15.3351 5.49909C15.3351 5.49909 6.22297 5.49909 5.92297 5.49909C5.62297 5.49909 5.61596 5.22896 5.63696 5.10896C5.79496 4.16296 6.16902 3.46295 6.74902 3.02595C7.35602 2.56895 8.17604 2.41005 9.19104 2.55305L19.7521 4.03303C20.7691 4.17703 21.517 4.55809 21.975 5.16609C22.432 5.77309 22.591 6.59498 22.447 7.60798ZM18.0021 9.66511V18.3331C18.0021 20.1111 17.1131 21.0001 15.3351 21.0001H4.66699C2.88899 21.0001 2 20.1111 2 18.3331V9.66511C2 7.88711 2.88899 6.99812 4.66699 6.99812H15.3351C17.1131 6.99812 18.0021 7.88611 18.0021 9.66511ZM3.49902 9.66511V16.8431L4.93201 15.41C5.27201 15.06 5.84202 15.06 6.19202 15.41L7.02197 16.2401C7.19197 16.4101 7.48198 16.4101 7.65198 16.2401L12.042 11.8502C12.382 11.5102 12.952 11.5102 13.302 11.8502L16.5021 15.0582V9.66511C16.5021 8.71611 16.2841 8.49812 15.3351 8.49812H4.66699C3.71699 8.49812 3.49902 8.71611 3.49902 9.66511ZM6.50098 12.5001C7.05198 12.5001 7.49902 12.0521 7.49902 11.5001C7.49902 10.9481 7.05198 10.5001 6.50098 10.5001H6.49304C5.94204 10.5001 5.49902 10.9481 5.49902 11.5001C5.49902 12.0521 5.94998 12.5001 6.50098 12.5001Z" fill="#FEFEFE"/>
</svg>
