<svg width="16" height="16" viewBox="0 0 16 16" fill="none" xmlns="http://www.w3.org/2000/svg">
<path d="M15.7668 4.56496C15.6108 4.72097 15.4059 4.79935 15.2011 4.79935C14.9963 4.79935 14.7915 4.72097 14.6354 4.56496L12.801 2.73048V11.9998C12.801 12.4414 12.4433 12.7998 12.0009 12.7998C11.5585 12.7998 11.2009 12.4414 11.2009 11.9998V2.73048L9.36639 4.56496C9.05357 4.87778 8.54789 4.87778 8.23507 4.56496C7.92226 4.25215 7.92226 3.74647 8.23507 3.43365L11.4345 0.234246C11.5089 0.159842 11.5968 0.101406 11.6952 0.0606035C11.8904 -0.0202012 12.1114 -0.0202012 12.3066 0.0606035C12.405 0.101406 12.493 0.159842 12.5674 0.234246L15.7668 3.43365C16.0796 3.74647 16.0796 4.25215 15.7668 4.56496ZM6.63498 11.4341L4.8005 13.2686V3.99931C4.8005 3.55768 4.44288 3.19926 4.00046 3.19926C3.55803 3.19926 3.20041 3.55768 3.20041 3.99931V13.2686L1.36593 11.4341C1.05311 11.1213 0.547432 11.1213 0.234614 11.4341C-0.0782045 11.7469 -0.0782045 12.2526 0.234614 12.5654L3.43402 15.7648C3.50842 15.8392 3.59637 15.8977 3.69477 15.9385C3.79238 15.9793 3.89645 16 4.00046 16C4.10446 16 4.20853 15.9785 4.30614 15.9385C4.40454 15.8977 4.49249 15.8392 4.56689 15.7648L7.7663 12.5654C8.07912 12.2526 8.07912 11.7469 7.7663 11.4341C7.45348 11.1213 6.9478 11.1213 6.63498 11.4341Z" fill="#777777"/>
</svg>
