<svg width="24" height="24" viewBox="0 0 24 24" fill="none" xmlns="http://www.w3.org/2000/svg">
<path d="M22 10.9736V15.0762V15.8454V18.1531C22 18.5736 21.6513 18.9223 21.2308 18.9223C20.8103 18.9223 20.4615 18.5736 20.4615 18.1531V15.8454H12H3.53846V18.1531C3.53846 18.5777 3.19385 18.9223 2.76923 18.9223C2.34462 18.9223 2 18.5777 2 18.1531V5.8454C2 5.42079 2.34462 5.07617 2.76923 5.07617C3.19385 5.07617 3.53846 5.42079 3.53846 5.8454V14.3069H11.2308V7.89668C11.2308 7.47617 11.5795 7.12745 12 7.12745H18.1538C20.6359 7.12745 22 8.49156 22 10.9736ZM7.38462 12.5121C8.80103 12.5121 9.94872 11.3644 9.94872 9.94797C9.94872 8.53156 8.80103 7.38386 7.38462 7.38386C5.96821 7.38386 4.82051 8.53156 4.82051 9.94797C4.82051 11.3644 5.96821 12.5121 7.38462 12.5121Z" fill="#212121"/>
</svg>
