<svg width="16" height="16" viewBox="0 0 16 16" fill="none" xmlns="http://www.w3.org/2000/svg">
<path d="M13.8 6.5H2.20003C2.08937 6.5 2 6.58937 2 6.70003V12C2 13.3333 2.66667 14 4 14H12C13.3333 14 14 13.3333 14 12V6.70003C14 6.58937 13.9106 6.5 13.8 6.5ZM5.34668 12C4.97868 12 4.6766 11.7013 4.6766 11.3333C4.6766 10.9653 4.97201 10.6667 5.34001 10.6667H5.34668C5.71535 10.6667 6.01335 10.9653 6.01335 11.3333C6.01335 11.7013 5.71468 12 5.34668 12ZM5.34668 9.33333C4.97868 9.33333 4.6766 9.03467 4.6766 8.66667C4.6766 8.29867 4.97201 8 5.34001 8H5.34668C5.71535 8 6.01335 8.29867 6.01335 8.66667C6.01335 9.03467 5.71468 9.33333 5.34668 9.33333ZM8.01335 12C7.64535 12 7.34326 11.7013 7.34326 11.3333C7.34326 10.9653 7.63867 10.6667 8.00667 10.6667H8.01335C8.38201 10.6667 8.68001 10.9653 8.68001 11.3333C8.68001 11.7013 8.38135 12 8.01335 12ZM8.01335 9.33333C7.64535 9.33333 7.34326 9.03467 7.34326 8.66667C7.34326 8.29867 7.63867 8 8.00667 8H8.01335C8.38201 8 8.68001 8.29867 8.68001 8.66667C8.68001 9.03467 8.38135 9.33333 8.01335 9.33333ZM10.68 12C10.312 12 10.0099 11.7013 10.0099 11.3333C10.0099 10.9653 10.3053 10.6667 10.6733 10.6667H10.68C11.0487 10.6667 11.3467 10.9653 11.3467 11.3333C11.3467 11.7013 11.048 12 10.68 12ZM10.68 9.33333C10.312 9.33333 10.0099 9.03467 10.0099 8.66667C10.0099 8.29867 10.3053 8 10.6733 8H10.68C11.0487 8 11.3467 8.29867 11.3467 8.66667C11.3467 9.03467 11.048 9.33333 10.68 9.33333ZM14 5V5.29997C14 5.41063 13.9106 5.5 13.8 5.5H2.20003C2.08937 5.5 2 5.41063 2 5.29997V5C2 3.66667 2.66667 3 4 3H4.83333V2C4.83333 1.72667 5.06 1.5 5.33333 1.5C5.60667 1.5 5.83333 1.72667 5.83333 2V3H10.1667V2C10.1667 1.72667 10.3933 1.5 10.6667 1.5C10.94 1.5 11.1667 1.72667 11.1667 2V3H12C13.3333 3 14 3.66667 14 5Z" fill="#777777"/>
</svg>
