<svg width="24" height="24" viewBox="0 0 24 24" fill="none" xmlns="http://www.w3.org/2000/svg">
<path d="M14.7907 11.6507C14.7907 13.1856 13.5349 14.4414 12 14.4414C10.4651 14.4414 9.2093 13.1856 9.2093 11.6507C9.2093 10.1158 10.4651 8.86001 12 8.86001C13.5349 8.86001 14.7907 10.1158 14.7907 11.6507ZM17.9256 15.0833C18.1023 15.1298 18.186 15.3437 18.093 15.4926C16.8186 17.5112 14.5581 18.86 12 18.86C9.93488 18.86 8.0744 17.9949 6.75347 16.5996C6.70696 16.5437 6.6791 16.4693 6.6791 16.4042V12.0972C6.6791 11.9949 6.7442 11.9019 6.83722 11.8554C8.16745 11.1949 9.03256 9.83675 9.03256 8.30187V5.61349C9.03256 5.53908 9.03254 5.46467 9.01393 5.39025C9.00463 5.29722 9.00465 5.25071 9.03256 5.1856C9.07907 5.09257 9.11628 5.04606 9.2093 5.00885C10.0744 4.64606 11.014 4.44141 12 4.44141C13.8698 4.44141 15.5721 5.15769 16.8558 6.32048C16.9395 6.4042 16.9674 6.52513 16.9209 6.63676C16.6046 7.39955 16.4093 8.32978 16.4093 9.48327V13.1484C16.4093 14.0786 17.0511 14.8693 17.9163 15.0833H17.9256ZM15.7209 11.6507C15.7209 9.59489 14.0558 7.92978 12 7.92978C9.94419 7.92978 8.27907 9.59489 8.27907 11.6507C8.27907 13.7065 9.94419 15.3716 12 15.3716C14.0558 15.3716 15.7209 13.7065 15.7209 11.6507ZM21.3023 4.44141C21.3023 4.44141 18.6419 4.47862 17.693 7.2321C17.4791 7.83676 17.3488 8.58094 17.3488 9.48327V13.1484C17.3488 13.7344 17.8233 14.2088 18.4093 14.2088H20.6047V18.1623C20.6047 18.5437 20.9209 18.86 21.3023 18.86C21.6837 18.86 22 18.5437 22 18.1623V5.13908C22 4.75769 21.6837 4.44141 21.3023 4.44141ZM7.40465 4.90652C7.01395 4.90652 6.70697 5.2228 6.70697 5.6042V8.29257C6.70697 8.29257 6.69766 8.31117 6.69766 8.32047H5.74886V5.6042C5.74886 5.2228 5.43259 4.90652 5.05119 4.90652C4.66979 4.90652 4.35352 5.2228 4.35352 5.6042V8.32047H3.39535V5.6042C3.39535 5.2228 3.07907 4.90652 2.69767 4.90652C2.31628 4.90652 2 5.2228 2 5.6042V8.29257C2 9.73443 3.00468 10.9344 4.35352 11.2507V17.6972C4.35352 18.0786 4.66049 18.3949 5.05119 18.3949C5.44189 18.3949 5.74886 18.0786 5.74886 17.6972V11.2507C7.0884 10.9344 8.10232 9.73443 8.10232 8.29257V5.58559C8.09302 5.2135 7.77674 4.90652 7.40465 4.90652Z" fill="#212121"/>
</svg>
