<svg width="16" height="16" viewBox="0 0 16 16" fill="none" xmlns="http://www.w3.org/2000/svg">
<path d="M13.3066 10.14L10.1333 13.32C9.21997 14.2267 8.28004 14.2267 7.37337 13.32L6.83732 12.778C6.75932 12.7 6.75932 12.5733 6.83732 12.4953L12.488 6.84469C12.566 6.76669 12.6927 6.76669 12.7707 6.84469L13.306 7.38C14.2467 8.32 14.2133 9.22668 13.3066 10.14ZM11.7987 6.15466L6.14803 11.8053C6.07003 11.8833 5.94332 11.8833 5.86532 11.8053L2.57332 8.51335C2.20599 8.14601 2 7.64865 2 7.12931V3.30001C2 2.58201 2.58197 2 3.29997 2H7.12467C7.64334 2 8.14067 2.20599 8.50667 2.57332L11.7987 5.87199C11.8767 5.94999 11.8767 6.07666 11.7987 6.15466ZM5.33333 4.66667C5.33333 4.29867 5.03597 4 4.66797 4H4.6613C4.29463 4 3.99935 4.29867 3.99935 4.66667C3.99935 5.03467 4.30065 5.33333 4.66732 5.33333C5.03598 5.33333 5.33333 5.03467 5.33333 4.66667Z" fill="#FEFEFE"/>
</svg>
