<svg width="24" height="24" viewBox="0 0 24 24" fill="none" xmlns="http://www.w3.org/2000/svg">
<g clip-path="url(#clip0_2244_15721)">
<path fill-rule="evenodd" clip-rule="evenodd" d="M0 3.5V20.5H24V3.5H0Z" fill="#2E42A5"/>
<mask id="mask0_2244_15721" style="mask-type:luminance" maskUnits="userSpaceOnUse" x="0" y="3" width="24" height="18">
<path fill-rule="evenodd" clip-rule="evenodd" d="M0 3.5V20.5H24V3.5H0Z" fill="white"/>
</mask>
<g mask="url(#mask0_2244_15721)">
<path d="M-2.67383 19.2861L2.60744 21.3955L24.1184 5.79403L26.9041 2.65931L21.2566 1.95427L12.4828 8.67739L5.42076 13.2072L-2.67383 19.2861Z" fill="white"/>
<path d="M-1.95117 20.7641L0.73939 21.9883L25.9034 2.3682H22.1256L-1.95117 20.7641Z" fill="#F50100"/>
<path d="M26.6699 19.2861L21.3887 21.3955L-0.122273 5.79403L-2.90802 2.65931L2.73953 1.95427L11.5133 8.67739L18.5753 13.2072L26.6699 19.2861Z" fill="white"/>
<path d="M26.4902 20.3462L23.7997 21.5703L13.0846 13.1699L9.90777 12.2314L-3.17556 2.66945H0.602305L13.6783 12.0044L17.1516 13.1298L26.4902 20.3462Z" fill="#F50100"/>
<mask id="path-8-inside-1_2244_15721" fill="white">
<path fill-rule="evenodd" clip-rule="evenodd" d="M14.8307 2.08398H9.16406V9.16732H-1.48047V14.834H9.16406V21.9173H14.8307V14.834H25.5195V9.16732H14.8307V2.08398Z"/>
</mask>
<path fill-rule="evenodd" clip-rule="evenodd" d="M14.8307 2.08398H9.16406V9.16732H-1.48047V14.834H9.16406V21.9173H14.8307V14.834H25.5195V9.16732H14.8307V2.08398Z" fill="#F50100"/>
<path d="M9.16406 2.08398V1.08398H8.16406V2.08398H9.16406ZM14.8307 2.08398H15.8307V1.08398H14.8307V2.08398ZM9.16406 9.16732V10.1673H10.1641V9.16732H9.16406ZM-1.48047 9.16732V8.16732H-2.48047V9.16732H-1.48047ZM-1.48047 14.834H-2.48047V15.834H-1.48047V14.834ZM9.16406 14.834H10.1641V13.834H9.16406V14.834ZM9.16406 21.9173H8.16406V22.9173H9.16406V21.9173ZM14.8307 21.9173V22.9173H15.8307V21.9173H14.8307ZM14.8307 14.834V13.834H13.8307V14.834H14.8307ZM25.5195 14.834V15.834H26.5195V14.834H25.5195ZM25.5195 9.16732H26.5195V8.16732H25.5195V9.16732ZM14.8307 9.16732H13.8307V10.1673H14.8307V9.16732ZM9.16406 3.08398H14.8307V1.08398H9.16406V3.08398ZM10.1641 9.16732V2.08398H8.16406V9.16732H10.1641ZM-1.48047 10.1673H9.16406V8.16732H-1.48047V10.1673ZM-0.480469 14.834V9.16732H-2.48047V14.834H-0.480469ZM9.16406 13.834H-1.48047V15.834H9.16406V13.834ZM10.1641 21.9173V14.834H8.16406V21.9173H10.1641ZM14.8307 20.9173H9.16406V22.9173H14.8307V20.9173ZM13.8307 14.834V21.9173H15.8307V14.834H13.8307ZM25.5195 13.834H14.8307V15.834H25.5195V13.834ZM24.5195 9.16732V14.834H26.5195V9.16732H24.5195ZM14.8307 10.1673H25.5195V8.16732H14.8307V10.1673ZM13.8307 2.08398V9.16732H15.8307V2.08398H13.8307Z" fill="white" mask="url(#path-8-inside-1_2244_15721)"/>
</g>
</g>
<defs>
<clipPath id="clip0_2244_15721">
<rect y="3.5" width="24" height="17" rx="2" fill="white"/>
</clipPath>
</defs>
</svg>
