
<svg width="24" height="24" viewBox="0 0 24 24" fill="none" xmlns="http://www.w3.org/2000/svg">
<path fill-rule="evenodd" clip-rule="evenodd" d="M24 12C24 5.37133 18.6287 0 12 0C5.37133 0 0 5.37133 0 12C0 18.6287 5.37133 24 12 24C12.0702 24 12.1404 24 12.2106 23.9955V14.6578H9.63294V11.6535H12.2106V9.44034C12.2106 6.87617 13.7766 5.48024 16.0645 5.48024C17.1607 5.48024 18.1031 5.55944 18.3749 5.59724V8.27841H16.7998C15.5578 8.27841 15.3148 8.86882 15.3148 9.73644V11.6481H18.2903L17.9014 14.6533H15.3139V23.5365C20.3297 22.0965 24 17.4793 24 12Z" fill="white"/>
</svg>
