<svg width="24" height="24" viewBox="0 0 24 24" fill="none" xmlns="http://www.w3.org/2000/svg">
<path d="M21.3333 20.5H2.66667C1.95942 20.5 1.28115 20.2245 0.781049 19.734C0.280952 19.2435 0 18.5783 0 17.8846L0 6.11539C0 5.42174 0.280952 4.75651 0.781049 4.26603C1.28115 3.77555 1.95942 3.5 2.66667 3.5H21.3333C22.0406 3.5 22.7189 3.77555 23.219 4.26603C23.719 4.75651 24 5.42174 24 6.11539V17.8846C24 18.5783 23.719 19.2435 23.219 19.734C22.7189 20.2245 22.0406 20.5 21.3333 20.5Z" fill="#DA251D"/>
<path d="M13.1187 10.5967L11.95 7L10.7813 10.5967H7L10.0593 12.8187L8.89067 16.4153L11.95 14.1927L15.0093 16.4153L13.8407 12.8187L16.9 10.5967H13.1187Z" fill="#FFFF00"/>
</svg>
