
<svg width="36" height="38" viewBox="0 0 36 38" fill="none" xmlns="http://www.w3.org/2000/svg">
<path d="M17.9872 37.984C17.9055 37.8144 17.8468 37.6993 17.7945 37.5821C17.281 36.4701 16.6593 35.4112 15.9386 34.4208C15.5825 33.9162 15.2054 33.4263 14.8284 32.9385C14.0816 31.9646 13.4882 30.8823 13.0689 29.7291C12.7922 28.9991 12.6003 28.2397 12.497 27.4659C12.4331 27.0589 12.4078 26.6467 12.4216 26.2349C12.4554 25.2569 12.738 24.3037 13.2427 23.4651C13.5349 23.0073 13.9058 22.6047 14.3382 22.276C14.7164 21.9878 15.1295 21.7486 15.5678 21.5642C15.5979 21.5536 15.6287 21.5452 15.66 21.5391C15.7186 21.5998 15.66 21.6416 15.639 21.6835C15.4794 21.9432 15.3601 22.2255 15.285 22.5209C15.1929 22.9258 15.237 23.3497 15.4107 23.7268C15.5438 24.0252 15.7329 24.2953 15.9679 24.5224C16.5691 25.1002 17.1786 25.6697 17.7861 26.2412C17.8112 26.2649 17.8363 26.2859 17.8615 26.304C17.8783 26.3222 17.8988 26.3366 17.9215 26.3465C17.9442 26.3564 17.9687 26.3615 17.9934 26.3615C18.0182 26.3615 18.0427 26.3564 18.0654 26.3465C18.0881 26.3366 18.1085 26.3222 18.1254 26.304C18.1986 26.2526 18.2686 26.1966 18.3349 26.1365C18.9067 25.5901 19.4807 25.0458 20.0504 24.4973C20.3019 24.2396 20.4929 23.9292 20.6097 23.5887C20.7714 23.1818 20.7788 22.7299 20.6306 22.3179C20.5636 22.1232 20.4714 21.9389 20.3897 21.7505C20.3625 21.6919 20.329 21.6375 20.2787 21.5412C20.3289 21.5415 20.3788 21.5478 20.4275 21.56C21.6298 22.096 22.5619 22.9124 23.0961 24.1393C23.3189 24.6576 23.4534 25.2096 23.4941 25.7723C23.4941 25.8916 23.5171 26.0088 23.5255 26.1282C23.5412 26.2791 23.5475 26.4308 23.5443 26.5825C23.5037 27.4265 23.3631 28.2628 23.1254 29.0738C22.7021 30.4664 22.0324 31.7718 21.148 32.9281C20.5552 33.6901 19.9771 34.4605 19.4555 35.2729C18.9318 36.0819 18.4771 36.9335 18.0961 37.8186C18.0709 37.8563 18.0437 37.894 17.9872 37.984Z" fill="#B88D2E"/>
<path d="M19.8109 12.2747C19.8884 12.0465 19.9638 11.856 20.0204 11.6466C20.0769 11.4475 20.0874 11.2381 20.0511 11.0343C20.0148 10.8304 19.9327 10.6375 19.8109 10.4701C19.6905 10.2881 19.5499 10.1203 19.392 9.96969C19.0736 9.63263 18.7238 9.29138 18.3593 8.95641L18.2651 8.86848C18.0263 8.65912 17.9802 8.64447 17.7477 8.85173C17.4502 9.11971 17.1633 9.40024 16.8742 9.67659C16.7346 9.81616 16.5949 9.95225 16.4553 10.0848C16.2456 10.2902 16.0833 10.5389 15.9798 10.8134C15.8546 11.141 15.8622 11.5045 16.0007 11.8267C16.0573 11.967 16.118 12.103 16.1767 12.2454C16.118 12.3124 16.0678 12.2705 16.0238 12.2454C15.2543 11.9067 14.6233 11.3159 14.2349 10.5705C14.0064 10.1134 13.8718 9.61507 13.839 9.10505C13.7665 7.88848 14.0014 6.67322 14.5219 5.57111C14.8538 4.83959 15.2761 4.15245 15.7787 3.5257C16.4276 2.71005 17.0051 1.8401 17.5047 0.92549C17.5927 0.764285 17.6702 0.5968 17.7498 0.431408C17.8294 0.266017 17.888 0.140403 17.9592 0.0126953C18.0535 0.0126953 18.064 0.0713151 18.0828 0.117374C18.6457 1.32229 19.3533 2.45418 20.1901 3.48801C20.5412 3.92807 20.8551 4.39655 21.1285 4.88861C21.5212 5.60085 21.8137 6.36382 21.9978 7.15594C22.0694 7.48352 22.117 7.81588 22.1402 8.15038C22.1612 8.44241 22.1612 8.73556 22.1402 9.02759C22.048 10.5705 21.2667 11.6362 19.8717 12.2726C19.8516 12.2763 19.8312 12.277 19.8109 12.2747Z" fill="#B88D2E"/>
<path d="M24.5602 21.5208C24.6314 21.6401 24.6837 21.7301 24.7382 21.8244C24.9811 22.227 25.3647 22.5253 25.8149 22.6618C26.1747 22.7886 26.5595 22.8281 26.9376 22.7769C27.698 22.6702 28.4479 22.5027 29.1957 22.3247C29.2767 22.3019 29.3564 22.2747 29.4345 22.2431C29.4739 22.1247 29.4783 21.9975 29.447 21.8767C29.3701 21.4068 29.2573 20.9435 29.1098 20.4908C28.9963 20.1758 28.8561 19.8712 28.6909 19.5801C28.5624 19.3535 28.4007 19.1475 28.2112 18.9687C27.8488 18.6191 27.3679 18.4187 26.8643 18.4077H26.6737C26.724 18.3616 26.7407 18.3344 26.7658 18.3218C26.9113 18.2506 27.061 18.1884 27.2141 18.1355C27.774 17.9619 28.3639 17.9063 28.9464 17.9722C30.1596 18.123 31.2999 18.6335 32.2204 19.4377C33.1478 20.2398 33.9233 21.2021 34.5099 22.2787C34.8874 22.949 35.1955 23.6561 35.4294 24.389C35.6364 25.0275 35.7816 25.6844 35.863 26.3506C35.8861 26.5328 35.9112 26.7149 35.9175 26.8992C35.9238 27.0834 35.8735 27.1085 35.708 27.1211C35.5425 27.1336 35.4043 27.1211 35.2514 27.1211C35.0147 27.1211 34.778 27.0855 34.5392 27.0834C33.8789 27.074 33.2196 27.03 32.5639 26.9515C31.9355 26.874 31.3071 26.8133 30.6955 26.7149C29.9704 26.589 29.2545 26.4148 28.5526 26.1936C27.9621 26.0131 27.3899 25.7775 26.8434 25.4902C26.0527 25.0751 25.3982 24.4414 24.9581 23.6646C24.6024 23.0382 24.4488 22.3173 24.5183 21.6003C24.5162 21.5815 24.5329 21.5669 24.5602 21.5208Z" fill="#B88D2E"/>
<path d="M9.29868 18.386C9.08921 18.4153 8.91117 18.43 8.73521 18.4655C8.25334 18.5712 7.82614 18.8479 7.53287 19.2444C7.31026 19.5264 7.12899 19.8387 6.99454 20.1718C6.7793 20.7272 6.62138 21.3031 6.52324 21.8906C6.46459 22.2277 6.48554 22.2716 6.81231 22.3407C7.5224 22.4894 8.23249 22.638 8.94678 22.7594C9.44538 22.8469 9.95889 22.7736 10.413 22.5501C10.8433 22.3572 11.1846 22.0086 11.3682 21.5745C11.3829 21.5452 11.3954 21.5159 11.4122 21.4887C11.429 21.4614 11.4311 21.4887 11.452 21.474C11.5568 22.0066 11.5007 22.5583 11.2907 23.0588C10.8976 24.149 10.092 25.0414 9.04732 25.5439C8.12099 25.9943 7.14327 26.3303 6.13573 26.5446C5.47037 26.6961 4.79688 26.8093 4.11856 26.8838C3.52577 26.9529 2.93297 27.0094 2.34018 27.0596C2.07206 27.0827 1.79976 27.0596 1.52745 27.0806C1.25514 27.1015 0.987024 27.1141 0.716812 27.1266C0.586942 27.1266 0.457072 27.1266 0.327203 27.1266C0.0925994 27.1266 0.0737474 27.0952 0.0842208 26.8607C0.160816 25.6471 0.45527 24.4572 0.953509 23.3477C1.36333 22.3779 1.91154 21.4724 2.58107 20.6596C3.09793 20.0022 3.71418 19.4294 4.40762 18.9617C5.0948 18.5044 5.86582 18.1878 6.67615 18.0301C7.42397 17.8761 8.19988 17.9327 8.91745 18.1934C9.05305 18.2391 9.18142 18.304 9.29868 18.386Z" fill="#B88D2E"/>
<path d="M12.1946 17.0405C12.0348 17.1577 11.8553 17.2456 11.6647 17.3001C11.3649 17.3933 11.0545 17.4482 10.7409 17.4634C9.41083 17.5471 8.25038 17.0949 7.18 16.3685C6.49219 15.8739 5.88461 15.2766 5.37858 14.5973C4.32852 13.2645 3.58671 11.7159 3.20641 10.0626C3.101 9.58718 3.02683 9.10533 2.98438 8.62018V8.58668C2.98438 8.35849 3.00532 8.31871 3.23992 8.3208C3.82473 8.2995 4.41029 8.31488 4.99317 8.36686C5.01476 8.36893 5.0365 8.36893 5.0581 8.36686C5.7714 8.38989 6.48273 8.45491 7.18838 8.56156C7.92982 8.65446 8.6655 8.78865 9.39197 8.96353C10.2685 9.16784 11.1194 9.46981 11.9286 9.86376C12.7123 10.2461 13.3733 10.8401 13.8369 11.5784C14.2799 12.2557 14.4705 13.0672 14.3752 13.8708C14.3752 13.8708 14.3752 13.8876 14.3543 13.9002C14.2684 13.8813 14.2621 13.7955 14.2307 13.7348C14.0922 13.4583 13.8894 13.219 13.6394 13.0369C13.3894 12.8548 13.0995 12.7351 12.7937 12.688C12.4092 12.6157 12.0141 12.62 11.6312 12.7005C11.0153 12.8157 10.3995 12.9434 9.78368 13.0648C9.73131 13.0774 9.67685 13.0858 9.62658 13.1004C9.44015 13.159 9.39616 13.2177 9.41711 13.4082C9.51022 14.0954 9.69698 14.7667 9.9722 15.4033C10.0844 15.6603 10.2249 15.904 10.3911 16.1298C10.5729 16.3966 10.8158 16.6162 11.0996 16.7702C11.3835 16.9243 11.7 17.0083 12.0229 17.0154C12.0806 17.0198 12.138 17.0282 12.1946 17.0405Z" fill="#B88D2E"/>
<path d="M23.7821 17.0516C23.8205 17.0354 23.8605 17.0234 23.9015 17.016C24.6787 17.016 25.2358 16.6266 25.6611 16.0174C25.9983 15.523 26.236 14.9676 26.3607 14.3823C26.434 14.0557 26.4968 13.727 26.5576 13.3962C26.589 13.2225 26.5576 13.1597 26.3774 13.1094C26.1973 13.0592 25.9794 13.0047 25.7784 12.9671C25.1919 12.8582 24.6074 12.7451 24.0188 12.6551C23.5319 12.5873 23.0359 12.6691 22.5966 12.8896C22.2539 13.06 21.9722 13.332 21.7901 13.6684C21.7587 13.7249 21.7252 13.7794 21.6896 13.8338C21.6896 13.8338 21.6707 13.8338 21.6581 13.8463C21.5723 13.8045 21.5911 13.7186 21.589 13.6496C21.5662 13.106 21.6709 12.5647 21.8948 12.0689C22.3234 11.144 23.0519 10.3908 23.9623 9.93138C24.9688 9.4222 26.042 9.05713 27.1504 8.84691C27.8709 8.69827 28.5978 8.57894 29.3309 8.49938C29.8693 8.43867 30.4076 8.40727 30.948 8.36539C31.5219 8.31934 32.0959 8.32352 32.6698 8.31934C33.0008 8.31934 33.0259 8.33608 33.0008 8.67315C32.9732 9.00751 32.9277 9.34017 32.8646 9.66969C32.5343 11.4346 31.789 13.0957 30.6904 14.5163C30.2733 15.0709 29.7963 15.5778 29.2681 16.0278C28.4353 16.7476 27.421 17.2255 26.3355 17.4096C25.6291 17.5495 24.8979 17.4953 24.2199 17.2526C24.1382 17.2212 24.0586 17.1877 23.979 17.1521C23.9183 17.1312 23.8743 17.1018 23.7821 17.0516Z" fill="#B88D2E"/>
<path d="M21.7886 15.7946C21.6671 15.7444 21.6315 15.6229 21.5791 15.5245C21.187 14.8789 20.6004 14.3739 19.9034 14.0821C19.5644 13.9341 19.1987 13.8572 18.8288 13.856C18.4831 13.8364 18.1364 13.8589 17.7961 13.923C17.3351 14.0297 16.9014 14.2316 16.523 14.5157C16.1446 14.7998 15.8298 15.1598 15.5988 15.5727C15.5129 15.7213 15.4459 15.8825 15.3684 16.0375C15.348 16.072 15.3249 16.1049 15.2993 16.1359C15.1631 16.05 15.2134 15.8469 15.0291 15.7967C14.9894 15.8402 14.9595 15.8916 14.941 15.9476C14.9226 16.0035 14.9162 16.0626 14.9222 16.1212C14.9151 16.4401 14.9803 16.7565 15.1131 17.0466C15.2459 17.3367 15.4428 17.5929 15.6889 17.796C15.9529 18.0056 16.2608 18.153 16.5896 18.2273C17.1387 18.3649 17.7121 18.3742 18.2653 18.2545C18.3826 18.175 17.7826 18.1023 17.9301 17.9924C17.9925 17.9345 18.3565 18.1358 18.324 17.9222C18.324 17.8719 18.2968 17.6872 18.2863 17.6244C18.2861 17.6088 18.2894 17.5934 18.2959 17.5793C18.3024 17.5652 18.312 17.5527 18.324 17.5427C18.3382 17.5366 18.3535 17.5334 18.369 17.5334C18.3845 17.5334 18.3999 17.5366 18.4141 17.5427C18.4679 17.5781 18.5197 17.6165 18.5691 17.6579C18.6298 17.706 18.6843 17.7563 18.7471 17.8002C18.7984 17.8406 18.8602 17.8654 18.9252 17.8717C18.9902 17.878 19.0556 17.8655 19.1137 17.8358C19.4761 17.6621 19.8384 17.4946 20.2008 17.3229C20.2204 17.313 20.2393 17.3018 20.2574 17.2894C20.2718 17.2817 20.2841 17.2704 20.2929 17.2566C20.3018 17.2428 20.307 17.227 20.308 17.2107C20.3091 17.1943 20.306 17.178 20.2989 17.1632C20.2919 17.1484 20.2812 17.1356 20.2678 17.1261C20.1956 17.0794 20.1192 17.0394 20.0395 17.0068C19.8091 16.9105 19.5499 16.8234 19.3116 16.743C19.2487 16.7218 19.0638 16.6717 19.0279 16.6411C19.2548 16.5977 19.432 16.6181 19.5158 16.6411C19.5996 16.6641 19.7551 16.6906 19.8619 16.7179C19.9568 16.7443 20.0366 16.7605 20.1254 16.7179C20.2218 16.6739 20.3568 16.5734 20.4406 16.542C20.5244 16.5106 20.5663 16.5809 20.5768 16.5977C20.6375 16.6961 20.5632 16.877 20.6931 16.9188C20.8465 16.9754 21.0151 16.9754 21.1686 16.9188C21.4094 16.8204 21.6524 16.7262 21.8933 16.6299C21.9624 16.6027 22.0337 16.5734 22.1028 16.542C22.3713 16.4322 22.7338 16.4097 23.0022 16.5196C23.0571 16.542 23.0311 16.6128 22.988 16.6642C22.7932 16.8171 22.4421 17.011 22.2389 17.1554C22.1782 17.1994 22.1049 17.2266 22.042 17.2685C22.0019 17.2859 21.9661 17.3119 21.9372 17.3447C21.9083 17.3775 21.887 17.4163 21.8748 17.4583C21.8392 17.5805 22.0224 17.8014 22.042 17.9258C22.0496 17.9737 22.0472 18.0227 22.0351 18.0696C22.0269 18.0954 22.0089 18.1168 21.985 18.1294C21.961 18.1419 21.9331 18.1445 21.9073 18.1366C21.8297 18.0982 21.7047 17.9932 21.6316 17.9466C21.5688 17.9068 21.4828 17.8379 21.4199 17.796C21.3584 17.7506 21.2866 17.7213 21.2108 17.7107C21.1351 17.7 21.0579 17.7085 20.9863 17.7353C20.9256 17.7584 20.8627 17.7751 20.802 17.8002C20.3255 17.9797 19.8351 18.1197 19.3357 18.2189C19.2508 18.233 19.1668 18.2526 19.0844 18.2776C18.9995 18.3168 19.0988 18.5306 18.94 18.5537C18.7159 18.4901 18.8237 18.3367 18.3051 18.4241C17.521 18.6469 16.6962 18.687 15.8942 18.5414C15.5511 18.4808 15.2244 18.3496 14.9348 18.1561C14.7001 18.0173 14.5056 17.8198 14.3704 17.583C14.2353 17.3462 14.1641 17.0784 14.164 16.8058C14.1568 16.5072 14.1701 16.2086 14.2038 15.9118C14.303 15.32 14.5765 14.7712 14.9893 14.3354C15.5461 13.6738 16.3126 13.2225 17.1615 13.0562C17.9837 12.8789 18.8411 12.9697 19.6079 13.3152C20.3747 13.6607 21.0105 14.2428 21.422 14.976C21.5226 15.154 21.5938 15.3487 21.6776 15.5371C21.7174 15.625 21.753 15.7171 21.7907 15.8072L21.7886 15.7946Z" fill="#B88D2E"/>
<path d="M14.9961 19.3965C15.0485 19.4111 15.0904 19.4153 15.1281 19.43C15.3803 19.53 15.6509 19.5749 15.9219 19.5619C16.2605 19.5345 16.5975 19.6304 16.8708 19.8319C16.8978 19.848 16.9266 19.8606 16.9567 19.8696C17.2751 19.7398 17.2751 19.7398 17.5181 19.9178C17.5432 19.8068 17.5642 19.7084 17.5893 19.6016C17.6144 19.4672 17.6844 19.3453 17.788 19.2559C17.8915 19.1665 18.0223 19.1149 18.159 19.1096C18.2879 19.0977 18.4177 19.1047 18.5445 19.1306C18.6995 19.1641 18.8293 19.2436 18.8147 19.4404C18.8147 19.497 18.8398 19.5451 18.9257 19.5514C18.9497 19.5214 18.9708 19.4891 18.9885 19.4551C19.0237 19.3509 19.0963 19.2634 19.1922 19.2096C19.2882 19.1559 19.4007 19.1396 19.508 19.1641C19.5834 19.1683 19.6589 19.1683 19.7342 19.1641C19.7446 19.1626 19.7544 19.1586 19.7628 19.1524C19.7713 19.1462 19.778 19.138 19.7824 19.1285C19.7824 19.1013 19.7824 19.0552 19.7699 19.0426C19.6965 18.984 19.6148 18.9338 19.5248 18.871C19.5657 18.7523 19.631 18.6435 19.7165 18.5516C19.802 18.4597 19.9058 18.3866 20.0212 18.3371C20.4737 18.1278 21.2026 18.3371 21.4267 18.7014C20.9869 19.7482 19.7321 20.6882 18.2847 20.795C17.4566 20.8589 16.6294 20.6611 15.9198 20.2297C15.5469 20.0337 15.2293 19.7472 14.9961 19.3965Z" fill="#B88D2E"/>
</svg>
