
<svg width="24" height="24" viewBox="0 0 24 24" fill="none" xmlns="http://www.w3.org/2000/svg">
<path fill-rule="evenodd" clip-rule="evenodd" d="M12 0C5.37313 0 0 5.37313 0 12C0 18.6269 5.37313 24 12 24C18.6269 24 24 18.6269 24 12C24 5.37313 18.6269 0 12 0ZM18.8492 14.8414C18.8159 15.574 18.6989 16.0753 18.5288 16.5136C18.3518 16.9715 18.0812 17.3873 17.7342 17.7345C17.3871 18.0817 16.9714 18.3525 16.5136 18.5297C16.0753 18.6989 15.574 18.8159 14.8414 18.8492C14.1061 18.8825 13.8711 18.8906 12 18.8906C10.128 18.8906 9.89395 18.8825 9.15863 18.8492C8.42601 18.8159 7.9247 18.6989 7.48639 18.5288C7.02658 18.3559 6.61006 18.0846 6.26596 17.734C5.91541 17.3899 5.6442 16.9734 5.47124 16.5136C5.30023 16.0753 5.18413 15.574 5.15083 14.8414C5.11663 14.1061 5.10943 13.8711 5.10943 12C5.10943 10.128 5.11663 9.89395 5.15083 9.15953C5.18413 8.42511 5.30023 7.9247 5.47124 7.48549C5.64429 7.02601 5.9155 6.60982 6.26596 6.26596C6.61008 5.91539 7.02659 5.64417 7.48639 5.47124C7.9247 5.30023 8.42511 5.18413 9.15863 5.15083C9.89395 5.11753 10.1289 5.10943 12 5.10943C13.872 5.10943 14.1061 5.11753 14.8414 5.15083C15.574 5.18413 16.0753 5.30113 16.5136 5.47124C16.9726 5.64404 17.3902 5.91495 17.734 6.26596C18.0851 6.60977 18.356 7.02648 18.5288 7.48639C18.6998 7.9247 18.8159 8.42511 18.8492 9.15953C18.8834 9.89395 18.8906 10.1289 18.8906 12C18.8906 13.872 18.8834 14.1061 18.8492 14.8414ZM17.3713 7.9364C17.261 7.63728 17.0851 7.36665 16.8565 7.14438C16.6344 6.91541 16.3638 6.73918 16.0645 6.62867C15.8215 6.53416 15.4561 6.42166 14.7847 6.39106C14.0575 6.35776 13.8396 6.35056 12 6.35056C10.1604 6.35056 9.94165 6.35776 9.21533 6.39106C8.54391 6.42166 8.1785 6.53416 7.9364 6.62867C7.63721 6.73887 7.36655 6.91479 7.14438 7.14348C6.91487 7.36578 6.73937 7.63669 6.62777 7.9355C6.53416 8.1785 6.42076 8.54391 6.39106 9.21533C6.35776 9.94255 6.35056 10.1604 6.35056 12C6.35056 13.8396 6.35776 14.0584 6.39106 14.7847C6.42166 15.4561 6.53416 15.8215 6.62777 16.0645C6.73847 16.3633 6.91487 16.6342 7.14348 16.8565C7.36578 17.0851 7.63669 17.2615 7.9355 17.3722C8.1785 17.4667 8.54391 17.5792 9.21533 17.6089C9.94165 17.6422 10.1604 17.6494 12 17.6494C13.8396 17.6494 14.0584 17.6422 14.7847 17.6089C15.4561 17.5783 15.8215 17.4667 16.0636 17.3722C16.3608 17.2576 16.6307 17.082 16.8559 16.8568C17.0811 16.6316 17.2567 16.3617 17.3713 16.0645C17.4658 15.8215 17.5783 15.457 17.6089 14.7847C17.6422 14.0584 17.6494 13.8396 17.6494 12C17.6494 10.1604 17.6422 9.94255 17.6089 9.21533C17.5783 8.54391 17.4658 8.1785 17.3713 7.9364ZM12 15.5389C11.0615 15.5389 10.1615 15.1661 9.49795 14.5025C8.83436 13.8389 8.46156 12.9389 8.46156 12.0005C8.46156 11.062 8.83436 10.162 9.49795 9.4984C10.1615 8.83481 11.0615 8.46201 12 8.46201C12.9383 8.46201 13.8382 8.83476 14.5017 9.49827C15.1652 10.1618 15.538 11.0617 15.538 12C15.538 12.9383 15.1652 13.8382 14.5017 14.5017C13.8382 15.1652 12.9383 15.5389 12 15.5389ZM14.8513 8.32161C14.8513 8.54097 14.9384 8.75136 15.0935 8.90647C15.2486 9.06159 15.459 9.14873 15.6784 9.14873C15.8978 9.14873 16.1081 9.06159 16.2633 8.90647C16.4184 8.75136 16.5055 8.54097 16.5055 8.32161C16.5055 8.10224 16.4184 7.89186 16.2633 7.73675C16.1081 7.58163 15.8978 7.49449 15.6784 7.49449C15.459 7.49449 15.2486 7.58163 15.0935 7.73675C14.9384 7.89186 14.8513 8.10224 14.8513 8.32161ZM14.2969 12C14.2969 12.6092 14.0549 13.1934 13.6241 13.6241C13.1934 14.0549 12.6092 14.2969 12 14.2969C11.3908 14.2969 10.8066 14.0549 10.3759 13.6241C9.94513 13.1934 9.70314 12.6092 9.70314 12C9.70314 11.3908 9.94513 10.8066 10.3759 10.3759C10.8066 9.94513 11.3908 9.70314 12 9.70314C12.6092 9.70314 13.1934 9.94513 13.6241 10.3759C14.0549 10.8066 14.2969 11.3908 14.2969 12Z" fill="white"/>
</svg>
