<svg width="16" height="16" viewBox="0 0 16 16" fill="none" xmlns="http://www.w3.org/2000/svg">
<path fill-rule="evenodd" clip-rule="evenodd" d="M7.94922 14.5C7.6497 14.91 7.64917 14.9095 7.64917 14.9095L7.6476 14.9085L7.64342 14.9055L7.63035 14.8965C7.5552 14.8446 7.48079 14.7918 7.40715 14.738C7.25765 14.629 7.04647 14.469 6.79399 14.264C6.13184 13.7259 5.51245 13.1415 4.94092 12.5155C3.60431 11.0455 2.19922 8.9305 2.19922 6.5C2.19922 5.04131 2.80502 3.64236 3.88335 2.61091C4.96169 1.57946 6.42422 1 7.94922 1C9.47421 1 10.9367 1.57946 12.0151 2.61091C13.0934 3.64236 13.6992 5.04131 13.6992 6.5C13.6992 8.93 12.2941 11.045 10.9575 12.5155C10.386 13.1415 9.76659 13.7259 9.10445 14.264C8.84862 14.472 8.58572 14.672 8.31617 14.8635L8.26808 14.8965L8.25501 14.9055L8.25083 14.9085L8.24979 14.909C8.14784 14.7739 8.04764 14.6375 7.94922 14.5ZM7.94922 14.5L8.24874 14.91C8.16093 14.9687 8.05637 15.0002 7.94922 15.0002C7.84207 15.0002 7.73699 14.9682 7.64917 14.9095L7.94922 14.5ZM5.69922 6.75C5.69922 6.15326 5.93627 5.58097 6.35823 5.15901C6.78019 4.73705 7.35248 4.5 7.94922 4.5C8.54596 4.5 9.11825 4.73705 9.54021 5.15901C9.96217 5.58097 10.1992 6.15326 10.1992 6.75C10.1992 7.34674 9.96217 7.91903 9.54021 8.34099C9.11825 8.76295 8.54596 9 7.94922 9C7.35248 9 6.78019 8.76295 6.35823 8.34099C5.93627 7.91903 5.69922 7.34674 5.69922 6.75Z" fill="white"/>
</svg>
