<svg width="201" height="56" viewBox="0 0 201 56" fill="none" xmlns="http://www.w3.org/2000/svg">
<path d="M27.9805 54.5776C27.8661 54.3402 27.784 54.179 27.7107 54.0149C26.9918 52.4581 26.1215 50.9757 25.1124 49.5891C24.6139 48.8827 24.0861 48.1969 23.5582 47.5139C22.5127 46.1505 21.682 44.6352 21.0949 43.0207C20.7075 41.9987 20.4389 40.9356 20.2943 39.8523C20.2048 39.2825 20.1694 38.7054 20.1887 38.1289C20.2361 36.7597 20.6317 35.4252 21.3383 34.2512C21.7473 33.6102 22.2665 33.0466 22.872 32.5864C23.4014 32.1829 23.9798 31.8481 24.5934 31.5899C24.6355 31.5751 24.6786 31.5633 24.7224 31.5547C24.8045 31.6397 24.7224 31.6983 24.6931 31.7569C24.4696 32.1205 24.3025 32.5158 24.1975 32.9293C24.0684 33.4961 24.1303 34.0896 24.3734 34.6176C24.5597 35.0353 24.8245 35.4134 25.1535 35.7314C25.9951 36.5403 26.8485 37.3375 27.6989 38.1377C27.7341 38.1709 27.7693 38.2002 27.8045 38.2256C27.8281 38.251 27.8567 38.2713 27.8885 38.2851C27.9203 38.299 27.9546 38.3061 27.9893 38.3061C28.0239 38.3061 28.0582 38.299 28.09 38.2851C28.1218 38.2713 28.1504 38.251 28.174 38.2256C28.2765 38.1536 28.3745 38.0753 28.4673 37.9911C29.2678 37.2262 30.0714 36.4641 30.869 35.6962C31.2211 35.3354 31.4886 34.9009 31.652 34.4241C31.8784 33.8545 31.8888 33.2218 31.6813 32.645C31.5875 32.3724 31.4585 32.1145 31.3441 31.8507C31.306 31.7687 31.259 31.6924 31.1887 31.5576C31.2589 31.5581 31.3288 31.5669 31.3969 31.584C33.0801 32.3343 34.3851 33.4774 35.1329 35.195C35.4449 35.9207 35.6332 36.6934 35.6901 37.4812C35.6901 37.6482 35.7224 37.8124 35.7341 37.9794C35.7561 38.1907 35.7649 38.4031 35.7605 38.6154C35.7036 39.7972 35.5067 40.9679 35.174 42.1033C34.5813 44.0529 33.6437 45.8805 32.4057 47.4993C31.5758 48.5662 30.7664 49.6448 30.0362 50.782C29.303 51.9146 28.6663 53.1069 28.133 54.3461C28.0978 54.3988 28.0596 54.4516 27.9805 54.5776Z" fill="#B88D2E"/>
<path d="M30.5349 18.5828C30.6434 18.2634 30.749 17.9966 30.8282 17.7035C30.9073 17.4247 30.922 17.1315 30.8712 16.8462C30.8204 16.5609 30.7054 16.2908 30.5349 16.0563C30.3663 15.8016 30.1695 15.5667 29.9484 15.3558C29.5027 14.8839 29.0129 14.4062 28.5027 13.9372L28.3707 13.8141C28.0364 13.521 27.9719 13.5005 27.6464 13.7907C27.2299 14.1658 26.8282 14.5586 26.4235 14.9455C26.228 15.1409 26.0325 15.3314 25.837 15.517C25.5435 15.8045 25.3163 16.1526 25.1713 16.537C24.9961 16.9957 25.0066 17.5045 25.2006 17.9556C25.2798 18.152 25.3649 18.3425 25.447 18.5418C25.3649 18.6356 25.2945 18.577 25.2329 18.5418C24.1556 18.0676 23.2722 17.2405 22.7285 16.197C22.4085 15.557 22.2201 14.8593 22.1742 14.1453C22.0728 12.4421 22.4015 10.7408 23.1303 9.1978C23.595 8.17367 24.1861 7.21167 24.8898 6.33422C25.7982 5.19231 26.6067 3.97438 27.3062 2.69393C27.4294 2.46824 27.5379 2.23376 27.6493 2.00221C27.7607 1.77067 27.8428 1.59481 27.9426 1.41602C28.0745 1.41602 28.0892 1.49808 28.1156 1.56257C28.9035 3.24945 29.8942 4.8341 31.0657 6.28146C31.5573 6.89753 31.9967 7.55341 32.3795 8.2423C32.9292 9.23944 33.3387 10.3076 33.5965 11.4166C33.6967 11.8752 33.7634 12.3405 33.7959 12.8088C33.8252 13.2176 33.8252 13.628 33.7959 14.0369C33.6669 16.197 32.573 17.6889 30.62 18.5799C30.5919 18.585 30.5633 18.586 30.5349 18.5828Z" fill="#B88D2E"/>
<path d="M37.1831 31.5291C37.2828 31.6962 37.3561 31.8222 37.4323 31.9541C37.7724 32.5178 38.3094 32.9355 38.9396 33.1265C39.4434 33.3041 39.9822 33.3594 40.5115 33.2877C41.576 33.1382 42.6258 32.9037 43.6728 32.6546C43.7862 32.6227 43.8978 32.5845 44.0071 32.5403C44.0623 32.3746 44.0684 32.1965 44.0247 32.0274C43.9169 31.3695 43.7591 30.7209 43.5525 30.0871C43.3936 29.6462 43.1974 29.2196 42.966 28.8121C42.7861 28.4949 42.5598 28.2064 42.2945 27.9562C41.7871 27.4667 41.1139 27.1862 40.4088 27.1707H40.142C40.2124 27.1062 40.2358 27.0681 40.271 27.0506C40.4747 26.9509 40.6843 26.8638 40.8986 26.7897C41.6825 26.5466 42.5083 26.4688 43.3238 26.5611C45.0223 26.7723 46.6187 27.4868 47.9073 28.6128C49.2058 29.7357 50.2915 31.083 51.1126 32.5901C51.6412 33.5286 52.0726 34.5185 52.4 35.5446C52.6898 36.4385 52.8931 37.3582 53.007 38.2909C53.0393 38.5459 53.0745 38.8009 53.0833 39.0588C53.0921 39.3168 53.0217 39.3519 52.79 39.3695C52.5584 39.3871 52.3648 39.3695 52.1507 39.3695C51.8194 39.3695 51.488 39.3197 51.1537 39.3168C50.2293 39.3036 49.3062 39.242 48.3883 39.1321C47.5085 39.0237 46.6288 38.9387 45.7725 38.8009C44.7573 38.6246 43.7551 38.3808 42.7725 38.0711C41.9458 37.8183 41.1446 37.4886 40.3795 37.0863C39.2725 36.5052 38.3563 35.6179 37.7402 34.5304C37.2422 33.6535 37.0271 32.6442 37.1244 31.6405C37.1215 31.6141 37.1449 31.5936 37.1831 31.5291Z" fill="#B88D2E"/>
<path d="M15.8174 27.1365C15.5241 27.1775 15.2749 27.198 15.0285 27.2479C14.3539 27.3957 13.7558 27.7831 13.3452 28.3382C13.0336 28.733 12.7798 29.1702 12.5916 29.6366C12.2902 30.4142 12.0692 31.2205 11.9318 32.043C11.8496 32.5149 11.879 32.5764 12.3364 32.6731C13.3306 32.8812 14.3247 33.0893 15.3247 33.2593C16.0227 33.3818 16.7417 33.2791 17.3775 32.9662C17.9799 32.6961 18.4576 32.2082 18.7147 31.6004C18.7353 31.5593 18.7528 31.5183 18.7763 31.4802C18.7998 31.4421 18.8027 31.4802 18.832 31.4597C18.9788 32.2053 18.9002 32.9777 18.6062 33.6785C18.0559 35.2047 16.9281 36.454 15.4655 37.1575C14.1686 37.788 12.7998 38.2585 11.3892 38.5586C10.4577 38.7706 9.51485 38.9292 8.5652 39.0334C7.73529 39.1301 6.90538 39.2092 6.07547 39.2796C5.70011 39.3118 5.31888 39.2796 4.93765 39.3089C4.55642 39.3382 4.18105 39.3558 3.80275 39.3734C3.62094 39.3734 3.43912 39.3734 3.2573 39.3734C2.92886 39.3734 2.90247 39.3294 2.91713 39.0011C3.02436 37.302 3.4366 35.6361 4.13413 34.0829C4.70788 32.7251 5.47538 31.4575 6.41272 30.3195C7.13632 29.3992 7.99907 28.5972 8.96989 27.9425C9.93193 27.3023 11.0114 26.859 12.1458 26.6382C13.1928 26.4227 14.279 26.5018 15.2837 26.8668C15.4735 26.9309 15.6532 27.0217 15.8174 27.1365Z" fill="#B88D2E"/>
<path d="M19.8709 25.2557C19.6471 25.4198 19.3959 25.5428 19.129 25.6192C18.7093 25.7497 18.2748 25.8265 17.8358 25.8478C15.9736 25.965 14.349 25.3319 12.8504 24.3149C11.8875 23.6225 11.0369 22.7862 10.3285 21.8353C8.85836 19.9694 7.81983 17.8013 7.28741 15.4867C7.13983 14.8211 7.03599 14.1465 6.97656 13.4673V13.4204C6.97656 13.1009 7.00589 13.0452 7.33433 13.0481C8.15306 13.0183 8.97284 13.0399 9.78887 13.1126C9.8191 13.1155 9.84954 13.1155 9.87978 13.1126C10.8784 13.1449 11.8743 13.2359 12.8622 13.3852C13.9002 13.5153 14.9301 13.7031 15.9472 13.948C17.1744 14.234 18.3656 14.6568 19.4985 15.2083C20.5957 15.7436 21.5211 16.5751 22.1701 17.6088C22.7903 18.557 23.0571 19.6931 22.9237 20.8182C22.9237 20.8182 22.9237 20.8417 22.8944 20.8592C22.7742 20.8329 22.7654 20.7127 22.7214 20.6277C22.5275 20.2406 22.2436 19.9056 21.8936 19.6507C21.5437 19.3957 21.1377 19.2282 20.7096 19.1622C20.1713 19.061 19.6182 19.067 19.0821 19.1798C18.2199 19.341 17.3578 19.5198 16.4956 19.6898C16.4223 19.7074 16.346 19.7191 16.2756 19.7396C16.0147 19.8217 15.9531 19.9037 15.9824 20.1705C16.1127 21.1326 16.3742 22.0724 16.7595 22.9637C16.9166 23.3235 17.1133 23.6646 17.346 23.9807C17.6005 24.3543 17.9406 24.6617 18.3379 24.8774C18.7353 25.093 19.1784 25.2107 19.6305 25.2206C19.7113 25.2267 19.7917 25.2385 19.8709 25.2557Z" fill="#B88D2E"/>
<path d="M36.0923 25.2701C36.146 25.2474 36.202 25.2307 36.2594 25.2203C37.3474 25.2203 38.1274 24.6751 38.7227 23.8222C39.1949 23.13 39.5276 22.3525 39.7022 21.5331C39.8049 21.0758 39.8928 20.6157 39.9779 20.1526C40.0219 19.9093 39.9779 19.8214 39.7257 19.751C39.4735 19.6807 39.1685 19.6045 38.887 19.5517C38.0659 19.3993 37.2477 19.241 36.4236 19.115C35.742 19.02 35.0475 19.1345 34.4324 19.4433C33.9527 19.6818 33.5584 20.0626 33.3034 20.5336C33.2594 20.6127 33.2125 20.6889 33.1626 20.7652C33.1626 20.7652 33.1363 20.7652 33.1187 20.7827C32.9984 20.7241 33.0248 20.604 33.0219 20.5072C32.9899 19.7463 33.1365 18.9885 33.45 18.2943C34.05 16.9994 35.0699 15.9449 36.3445 15.3018C37.7536 14.5889 39.2561 14.0778 40.8078 13.7835C41.8166 13.5754 42.8342 13.4084 43.8606 13.297C44.6142 13.212 45.3679 13.168 46.1245 13.1094C46.928 13.0449 47.7315 13.0508 48.535 13.0449C48.9984 13.0449 49.0336 13.0684 48.9984 13.5403C48.9597 14.0084 48.8961 14.4741 48.8078 14.9354C48.3452 17.4062 47.3019 19.7319 45.7638 21.7207C45.1799 22.4971 44.5121 23.2067 43.7726 23.8368C42.6066 24.8445 41.1867 25.5136 39.667 25.7713C38.678 25.9672 37.6544 25.8912 36.7052 25.5515C36.5908 25.5075 36.4794 25.4606 36.3679 25.4108C36.2829 25.3815 36.2213 25.3404 36.0923 25.2701Z" fill="#B88D2E"/>
<path d="M33.304 23.5103C33.1339 23.4399 33.0841 23.2699 33.0108 23.1322C32.4618 22.2283 31.6405 21.5214 30.6647 21.1127C30.1901 20.9057 29.6782 20.7979 29.1603 20.7962C28.6764 20.7688 28.1909 20.8003 27.7146 20.89C27.0691 21.0394 26.462 21.3221 25.9322 21.7198C25.4025 22.1176 24.9618 22.6216 24.6384 23.1996C24.5181 23.4077 24.4243 23.6334 24.3158 23.8503C24.2872 23.8987 24.2549 23.9447 24.219 23.988C24.0284 23.8679 24.0988 23.5836 23.8407 23.5132C23.7852 23.5742 23.7432 23.6462 23.7175 23.7244C23.6917 23.8027 23.6827 23.8855 23.6911 23.9675C23.6811 24.414 23.7725 24.857 23.9584 25.2631C24.1443 25.6693 24.4199 26.028 24.7645 26.3123C25.1341 26.6056 25.5651 26.812 26.0254 26.9161C26.7941 27.1088 27.5969 27.1218 28.3715 26.9542C28.5357 26.8428 27.6956 26.7411 27.9021 26.5872C27.9895 26.5061 28.499 26.788 28.4536 26.4889C28.4536 26.4186 28.4155 26.1599 28.4008 26.072C28.4006 26.0502 28.4052 26.0286 28.4143 26.0089C28.4234 25.9891 28.4368 25.9716 28.4536 25.9577C28.4735 25.949 28.4949 25.9446 28.5166 25.9446C28.5383 25.9446 28.5598 25.949 28.5797 25.9577C28.6551 26.0071 28.7276 26.061 28.7967 26.1189C28.8817 26.1863 28.958 26.2566 29.046 26.3182C29.1178 26.3746 29.2043 26.4094 29.2953 26.4182C29.3862 26.427 29.4778 26.4096 29.5592 26.368C30.0665 26.1247 30.5738 25.8903 31.0811 25.6499C31.1085 25.636 31.135 25.6204 31.1603 25.603C31.1806 25.5922 31.1977 25.5764 31.2101 25.5571C31.2225 25.5378 31.2298 25.5157 31.2313 25.4928C31.2327 25.4699 31.2283 25.447 31.2185 25.4263C31.2086 25.4056 31.1937 25.3877 31.175 25.3744C31.0738 25.309 30.9668 25.2531 30.8553 25.2073C30.5328 25.0725 30.1698 24.9506 29.8362 24.838C29.7482 24.8083 29.4893 24.7382 29.4391 24.6954C29.7568 24.6346 30.0049 24.6631 30.1222 24.6954C30.2395 24.7276 30.4571 24.7648 30.6067 24.8029C30.7395 24.8398 30.8513 24.8625 30.9756 24.8029C31.1105 24.7413 31.2996 24.6006 31.4169 24.5567C31.5342 24.5127 31.5928 24.6112 31.6075 24.6346C31.6925 24.7724 31.5885 25.0256 31.7703 25.0842C31.9851 25.1634 32.2212 25.1634 32.436 25.0842C32.7732 24.9465 33.1134 24.8146 33.4506 24.6798C33.5474 24.6417 33.6471 24.6006 33.7439 24.5567C34.1198 24.4029 34.6273 24.3715 35.0031 24.5252C35.0799 24.5567 35.0435 24.6557 34.9833 24.7278C34.7105 24.9418 34.219 25.2132 33.9345 25.4154C33.8495 25.477 33.7468 25.5151 33.6588 25.5737C33.6027 25.5981 33.5525 25.6345 33.5121 25.6804C33.4716 25.7264 33.4417 25.7807 33.4247 25.8394C33.3749 26.0105 33.6313 26.3199 33.6588 26.494C33.6694 26.5611 33.6661 26.6296 33.6491 26.6953C33.6376 26.7314 33.6124 26.7614 33.579 26.779C33.5455 26.7965 33.5064 26.8002 33.4702 26.7891C33.3615 26.7353 33.1865 26.5883 33.0842 26.5231C32.9963 26.4674 32.8759 26.3709 32.7879 26.3123C32.7018 26.2487 32.6012 26.2076 32.4952 26.1928C32.3892 26.1779 32.2811 26.1898 32.1808 26.2273C32.0958 26.2596 32.0078 26.283 31.9228 26.3182C31.2557 26.5694 30.5692 26.7654 29.87 26.9044C29.7511 26.9241 29.6335 26.9515 29.5181 26.9864C29.3993 27.0414 29.5383 27.3406 29.3159 27.373C29.0022 27.2839 29.1531 27.0692 28.4272 27.1916C27.3294 27.5035 26.1747 27.5597 25.0518 27.3558C24.5716 27.2709 24.1142 27.0873 23.7087 26.8164C23.3801 26.6221 23.1078 26.3455 22.9186 26.0141C22.7294 25.6826 22.6298 25.3076 22.6296 24.926C22.6196 24.508 22.6382 24.0898 22.6853 23.6744C22.8242 22.8459 23.2071 22.0775 23.785 21.4674C24.5646 20.5412 25.6376 19.9093 26.826 19.6766C27.9771 19.4283 29.1775 19.5554 30.2511 20.0391C31.3246 20.5229 32.2147 21.3378 32.7908 22.3643C32.9316 22.6134 33.0313 22.886 33.1486 23.1498C33.2043 23.2729 33.2542 23.4018 33.3069 23.5279L33.304 23.5103Z" fill="#B88D2E"/>
<path d="M23.793 28.5547C23.8663 28.5752 23.9249 28.581 23.9777 28.6016C24.3308 28.7415 24.7097 28.8045 25.0892 28.7862C25.5631 28.7479 26.0349 28.8822 26.4176 29.1643C26.4554 29.1867 26.4957 29.2045 26.5378 29.2171C26.9836 29.0353 26.9836 29.0353 27.3237 29.2845C27.3589 29.1291 27.3883 28.9914 27.4235 28.8419C27.4586 28.6537 27.5566 28.483 27.7016 28.3579C27.8465 28.2327 28.0297 28.1605 28.2211 28.1531C28.4014 28.1364 28.5832 28.1462 28.7607 28.1824C28.9777 28.2293 29.1595 28.3407 29.139 28.6162C29.139 28.6953 29.1742 28.7628 29.2944 28.7715C29.3281 28.7296 29.3575 28.6844 29.3824 28.6367C29.4316 28.4908 29.5332 28.3684 29.6676 28.2931C29.8019 28.2178 29.9595 28.1951 30.1097 28.2293C30.2152 28.2352 30.3209 28.2352 30.4264 28.2293C30.4409 28.2273 30.4546 28.2217 30.4664 28.213C30.4782 28.2043 30.4876 28.1927 30.4938 28.1795C30.4938 28.1414 30.4938 28.0769 30.4762 28.0593C30.3736 27.9772 30.2592 27.9069 30.1331 27.819C30.1904 27.6529 30.2819 27.5005 30.4016 27.3718C30.5213 27.2431 30.6666 27.1408 30.8281 27.0716C31.4616 26.7785 32.4821 27.0716 32.7959 27.5816C32.18 29.0471 30.4234 30.3631 28.3971 30.5126C27.2377 30.602 26.0796 30.3252 25.0862 29.7212C24.5641 29.4468 24.1194 29.0457 23.793 28.5547Z" fill="#B88D2E"/>
<path d="M68.8792 35.5C68.588 35.5 68.3864 35.388 68.3864 35.1864V35.1192C68.3864 34.6264 69.2376 34.5144 69.2376 33.6408V21.4552C69.2376 20.5592 68.3864 20.4696 68.3864 19.9768V19.9096C68.3864 19.708 68.5656 19.596 68.8344 19.596H78.6232C79.0264 19.596 79.1832 19.7976 79.2504 20.1784L79.788 22.5976C79.8552 22.9336 79.676 23.1128 79.4072 23.1128H79.3176C78.4216 23.1128 77.772 20.7384 76.4728 20.7384H72.732C72.284 20.7384 71.9704 20.9624 71.9704 21.5672V27.4808H75.4872C76.3384 27.4808 76.5624 26.0024 77.0776 26.0024H77.2344C77.436 26.0024 77.5704 26.1592 77.5704 26.428V29.6088C77.5704 29.8552 77.436 30.0344 77.2344 30.0344H77.0776C76.5624 30.0344 76.3384 28.6232 75.4872 28.6232H71.9704V33.6408C71.9704 34.5144 72.8888 34.6264 72.8888 35.1192V35.1864C72.8888 35.388 72.6872 35.5 72.396 35.5H68.8792ZM81.8073 35.5C81.5161 35.5 81.3145 35.388 81.3145 35.1864V35.1192C81.3145 34.6264 82.1657 34.5144 82.1657 33.6408V21.4552C82.1657 20.5816 81.3145 20.4696 81.3145 19.9768V19.9096C81.3145 19.708 81.5161 19.596 81.8073 19.596H86.7353C92.2681 19.596 96.1657 23.0008 96.1657 27.4808C96.1657 32.4312 92.6041 35.5 87.7433 35.5H81.8073ZM86.1753 34.3576H87.5865C90.9241 34.3576 93.3881 32.14 93.3881 28.4888C93.3881 24.0312 90.2745 20.7384 86.2201 20.7384H85.5929C85.1673 20.7384 84.8313 20.9624 84.8313 21.5672V32.7672C84.8313 33.7752 85.3465 34.3576 86.1753 34.3576ZM98.6073 35.5C98.3161 35.5 98.1369 35.3656 98.1369 35.1864V35.1192C98.1369 34.6264 98.9657 34.5144 98.9657 33.6408V21.4552C98.9657 20.5592 98.1369 20.492 98.1369 19.9768V19.9096C98.1369 19.708 98.3161 19.596 98.6073 19.596H102.124C102.415 19.596 102.617 19.708 102.617 19.9096V19.9768C102.617 20.492 101.699 20.5592 101.699 21.4552V33.3048C101.699 33.8872 101.967 34.3576 102.527 34.3576H106.627C108.127 34.3576 108.419 31.6696 109.292 31.6696H109.516C109.763 31.6696 109.897 31.8264 109.83 32.1176L109.27 34.9176C109.18 35.2984 109.023 35.5 108.62 35.5H98.6073ZM119.994 35.5C119.703 35.5 119.524 35.388 119.524 35.1864V35.1192C119.524 34.6264 120.398 34.5144 120.398 33.6408V20.8056H117.956C116.702 20.8056 116.522 23.3144 115.738 23.3144H115.47C115.201 23.3144 115.044 23.1352 115.089 22.7992L115.492 20.156C115.537 19.7752 115.716 19.596 116.119 19.596H127.364C127.767 19.596 127.946 19.7752 128.014 20.156L128.506 22.8216C128.574 23.1352 128.394 23.3144 128.126 23.3144H127.857C127.073 23.3144 126.782 20.8056 125.527 20.8056H123.086V33.6408C123.086 34.5144 123.982 34.6264 123.982 35.1192V35.1864C123.982 35.388 123.802 35.5 123.489 35.5H119.994ZM142.084 33.6408C142.734 34.604 143.585 34.6264 143.585 35.1192V35.1864C143.585 35.388 143.406 35.5 143.114 35.5H139.217C138.926 35.5 138.746 35.388 138.746 35.1864V35.1192C138.746 34.6264 139.754 34.5592 139.217 33.6408L136.372 29.3848H136.17L133.505 29.4296V33.6408C133.505 34.5144 134.423 34.6264 134.423 35.1192V35.1864C134.423 35.388 134.222 35.5 133.93 35.5H130.414C130.122 35.5 129.943 35.388 129.943 35.1864V35.1192C129.943 34.6264 130.772 34.5144 130.772 33.6408V21.4552C130.772 20.5816 129.943 20.4696 129.943 19.9768V19.9096C129.943 19.708 130.122 19.596 130.414 19.596H135.476C139.396 19.596 142.218 21.1864 142.241 24.5688C142.241 26.428 141.098 28.1528 138.903 28.9368L142.084 33.6408ZM135.857 28.2648C137.962 28.2648 139.463 27.1 139.463 24.9048C139.463 22.1272 137.425 20.7384 135.297 20.7384H134.177C133.729 20.7384 133.505 21.0968 133.505 21.6344V26.988C133.505 27.9288 133.886 28.2648 134.602 28.2648H135.857ZM157.832 33.6408C158.235 34.5816 158.974 34.6264 158.974 35.1192V35.1864C158.974 35.388 158.795 35.5 158.504 35.5H154.516C154.225 35.5 154.046 35.388 154.046 35.1864V35.1192C154.046 34.6264 155.211 34.5144 154.875 33.6408L154.001 31.4232H147.236L146.408 33.6408C146.072 34.5144 147.236 34.6264 147.236 35.1192V35.1864C147.236 35.388 147.057 35.5 146.744 35.5H144.212C143.921 35.5 143.742 35.388 143.742 35.1864V35.1192C143.742 34.6264 144.504 34.604 144.884 33.6408L149.588 21.5672C149.88 20.828 148.849 20.4024 148.849 19.9768V19.9096C148.849 19.7304 148.984 19.596 149.23 19.596H151C151.604 19.596 151.963 19.8424 152.209 20.4472L157.832 33.6408ZM147.684 30.2136H153.531L150.529 22.5528L147.684 30.2136ZM172.495 19.596C172.786 19.596 172.965 19.708 172.965 19.9096V19.9768C172.965 20.4472 172.248 20.4472 171.823 21.4552L166.245 34.7384C165.999 35.2984 165.685 35.5 165.17 35.5C164.7 35.5 164.431 35.276 164.207 34.7832L158.092 21.4776C157.644 20.492 156.972 20.4696 156.972 19.9768V19.9096C156.972 19.708 157.173 19.596 157.464 19.596H161.564C161.855 19.596 162.056 19.708 162.056 19.9096V19.9768C162.056 20.4696 160.824 20.604 161.183 21.4776L165.864 32.5432L170.277 21.4552C170.613 20.5816 169.336 20.4472 169.336 19.9768V19.9096C169.336 19.708 169.493 19.596 169.807 19.596H172.495ZM174.645 35.5C174.354 35.5 174.152 35.388 174.152 35.1864V35.1192C174.152 34.6264 175.003 34.5368 175.003 33.6184V21.4776C175.003 20.5592 174.152 20.4472 174.152 19.9768V19.9096C174.152 19.708 174.331 19.596 174.6 19.596H184.344C184.747 19.596 184.904 19.7752 184.971 20.156L185.509 22.5752C185.576 22.9112 185.419 23.0904 185.15 23.0904H185.038C184.142 23.0904 183.515 20.716 182.216 20.716H178.453C178.005 20.716 177.691 20.9624 177.691 21.5896V26.8088H181.141C182.104 26.8088 182.194 25.3304 182.709 25.3304H182.843C183.045 25.3304 183.179 25.4872 183.179 25.756V28.9368C183.179 29.1832 183.045 29.3624 182.843 29.3624H182.709C182.194 29.3624 182.104 27.9512 181.141 27.9512H177.691L177.669 33.1928C177.669 33.7752 177.96 34.38 178.677 34.38H182.91C184.232 34.38 184.68 31.916 185.643 31.916H185.8C186.046 31.916 186.181 32.1624 186.136 32.4312L185.621 34.9176C185.531 35.2984 185.374 35.5 184.971 35.5H174.645ZM188.251 35.5C187.96 35.5 187.781 35.3656 187.781 35.1864V35.1192C187.781 34.6264 188.609 34.5144 188.609 33.6408V21.4552C188.609 20.5592 187.781 20.492 187.781 19.9768V19.9096C187.781 19.708 187.96 19.596 188.251 19.596H191.768C192.059 19.596 192.261 19.708 192.261 19.9096V19.9768C192.261 20.492 191.342 20.5592 191.342 21.4552V33.3048C191.342 33.8872 191.611 34.3576 192.171 34.3576H196.27C197.771 34.3576 198.062 31.6696 198.936 31.6696H199.16C199.406 31.6696 199.541 31.8264 199.473 32.1176L198.913 34.9176C198.824 35.2984 198.667 35.5 198.264 35.5H188.251Z" fill="#0A354E"/>
</svg>
