<svg width="24" height="24" viewBox="0 0 24 24" fill="none" xmlns="http://www.w3.org/2000/svg">
<path fill-rule="evenodd" clip-rule="evenodd" d="M11.924 20.3569C11.5389 20.884 11.5382 20.8834 11.5382 20.8834L11.5362 20.8821L11.5308 20.8782L11.514 20.8666C11.4174 20.8 11.3217 20.732 11.2271 20.6629C11.0348 20.5227 10.7633 20.317 10.4387 20.0534C9.5874 19.3616 8.79105 18.6102 8.05624 17.8054C6.33777 15.9154 4.53125 13.1962 4.53125 10.0713C4.53125 8.19589 5.31013 6.39727 6.69653 5.07114C8.08294 3.74501 9.96331 3 11.924 3C13.8847 3 15.765 3.74501 17.1514 5.07114C18.5379 6.39727 19.3167 8.19589 19.3167 10.0713C19.3167 13.1956 17.5102 15.9148 15.7917 17.8054C15.0569 18.6102 14.2606 19.3616 13.4093 20.0534C13.0803 20.3209 12.7423 20.578 12.3958 20.8242L12.334 20.8666L12.3171 20.8782L12.3118 20.8821L12.3104 20.8827C12.1794 20.709 12.0505 20.5337 11.924 20.3569ZM11.924 20.3569L12.3091 20.884C12.1962 20.9595 12.0617 21 11.924 21C11.7862 21 11.6511 20.9589 11.5382 20.8834L11.924 20.3569ZM9.03102 10.3929C9.03102 9.62566 9.33579 8.88986 9.8783 8.34736C10.4208 7.80485 11.1566 7.50007 11.9238 7.50007C12.691 7.50007 13.4268 7.80485 13.9694 8.34736C14.5119 8.88986 14.8166 9.62566 14.8166 10.3929C14.8166 11.1601 14.5119 11.8959 13.9694 12.4384C13.4268 12.9809 12.691 13.2857 11.9238 13.2857C11.1566 13.2857 10.4208 12.9809 9.8783 12.4384C9.33579 11.8959 9.03102 11.1601 9.03102 10.3929Z" fill="#212121"/>
</svg>
