<svg width="40" height="40" viewBox="0 0 40 40" fill="none" xmlns="http://www.w3.org/2000/svg">
<g clip-path="url(#clip0_1108_18019)">
<path d="M0.00197662 19.3983C0.00197662 8.24833 8.73531 0 20.002 0C31.2686 0 40.0003 8.25 40.0003 19.3983C40.0003 30.5467 31.267 38.795 20.0003 38.795C17.9836 38.795 16.0336 38.5283 14.217 38.0283C13.8624 37.9329 13.4858 37.9623 13.1503 38.1117L9.16698 39.8617C8.92685 39.9686 8.66409 40.0146 8.40193 39.9958C8.13976 39.977 7.88626 39.8939 7.66384 39.7539C7.44142 39.6139 7.25692 39.4212 7.12666 39.1929C6.9964 38.9646 6.92438 38.7077 6.91698 38.445L6.80031 34.8783C6.79127 34.6634 6.73944 34.4525 6.64786 34.2579C6.55628 34.0633 6.42679 33.8889 6.26698 33.745C4.263 31.9367 2.66777 29.7218 1.58771 27.2481C0.507659 24.7744 -0.032375 22.0989 0.00364329 19.4L0.00197662 19.3983Z" fill="white"/>
<path d="M0.00197662 19.3983C0.00197662 8.24833 8.73531 0 20.002 0C31.2686 0 40.0003 8.25 40.0003 19.3983C40.0003 30.5467 31.267 38.795 20.0003 38.795C17.9836 38.795 16.0336 38.5283 14.217 38.0283C13.8624 37.9329 13.4858 37.9623 13.1503 38.1117L9.16698 39.8617C8.92685 39.9685 8.66409 40.0146 8.40193 39.9958C8.13976 39.977 7.88626 39.8939 7.66384 39.7539C7.44142 39.6139 7.25692 39.4212 7.12666 39.1929C6.9964 38.9646 6.92438 38.7077 6.91698 38.445L6.80031 34.8783C6.79127 34.6634 6.73944 34.4525 6.64786 34.2579C6.55628 34.0633 6.42679 33.8889 6.26698 33.745C4.263 31.9367 2.66777 29.7218 1.58771 27.2481C0.507659 24.7744 -0.032375 22.0989 0.00364329 19.4L0.00197662 19.3983ZM13.8686 15.7483L8.00198 25.0817C7.41864 25.965 8.53531 26.98 9.36864 26.3317L15.6853 21.5483C16.1186 21.215 16.6853 21.215 17.1353 21.5483L21.802 25.0483C23.202 26.0983 25.202 25.715 26.1353 24.2483L32.002 14.915C32.5853 14.0317 31.4686 13.0317 30.6353 13.665L24.3186 18.4483C23.902 18.7817 23.3186 18.7817 22.8853 18.4483L18.2186 14.9483C17.8868 14.6976 17.5064 14.5187 17.1017 14.4228C16.697 14.327 16.2767 14.3163 15.8677 14.3915C15.4586 14.4668 15.0697 14.6262 14.7255 14.8598C14.3814 15.0934 14.0896 15.396 13.8686 15.7483Z" fill="url(#paint0_linear_1108_18019)"/>
</g>
<defs>
<linearGradient id="paint0_linear_1108_18019" x1="20.0011" y1="0" x2="20.0011" y2="39.9999" gradientUnits="userSpaceOnUse">
<stop stop-color="#FF6173"/>
<stop offset="0.39" stop-color="#C53FCD"/>
<stop offset="0.665" stop-color="#625AFF"/>
<stop offset="1" stop-color="#1B88FF"/>
</linearGradient>
<clipPath id="clip0_1108_18019">
<rect width="40" height="40" fill="white"/>
</clipPath>
</defs>
</svg>
