<svg width="102" height="26" viewBox="0 0 102 26" fill="none" xmlns="http://www.w3.org/2000/svg">
<path d="M13.7958 25.3494C13.7427 25.2392 13.7045 25.1643 13.6705 25.0881C13.3367 24.3653 12.9327 23.677 12.4642 23.0333C12.2327 22.7053 11.9876 22.3869 11.7426 22.0698C11.2571 21.4368 10.8715 20.7333 10.5989 19.9837C10.419 19.5092 10.2943 19.0156 10.2272 18.5126C10.1856 18.2481 10.1692 17.9801 10.1782 17.7125C10.2001 17.0768 10.3838 16.4572 10.7119 15.9121C10.9018 15.6145 11.1429 15.3528 11.424 15.1392C11.6697 14.9518 11.9383 14.7964 12.2232 14.6765C12.2427 14.6696 12.2628 14.6642 12.2831 14.6602C12.3212 14.6996 12.2831 14.7268 12.2695 14.7541C12.1657 14.9228 12.0881 15.1064 12.0394 15.2984C11.9795 15.5615 12.0082 15.8371 12.1211 16.0822C12.2076 16.2762 12.3305 16.4517 12.4832 16.5993C12.874 16.9749 13.2702 17.345 13.665 17.7166C13.6814 17.732 13.6977 17.7456 13.7141 17.7574C13.725 17.7692 13.7383 17.7786 13.7531 17.785C13.7678 17.7914 13.7837 17.7947 13.7998 17.7947C13.8159 17.7947 13.8319 17.7914 13.8466 17.785C13.8614 17.7786 13.8747 17.7692 13.8856 17.7574C13.9332 17.7239 13.9787 17.6876 14.0218 17.6485C14.3935 17.2933 14.7665 16.9395 15.1369 16.583C15.3003 16.4155 15.4245 16.2138 15.5004 15.9924C15.6055 15.7279 15.6103 15.4342 15.514 15.1664C15.4704 15.0398 15.4105 14.9201 15.3574 14.7976C15.3397 14.7595 15.318 14.7241 15.2853 14.6615C15.3179 14.6617 15.3503 14.6658 15.3819 14.6738C16.1635 15.0221 16.7694 15.5529 17.1165 16.3503C17.2614 16.6872 17.3488 17.046 17.3752 17.4117C17.3752 17.4893 17.3902 17.5655 17.3957 17.6431C17.4059 17.7412 17.4099 17.8398 17.4079 17.9384C17.3815 18.487 17.2901 19.0306 17.1356 19.5577C16.8605 20.4629 16.4251 21.3114 15.8503 22.063C15.465 22.5583 15.0892 23.0591 14.7502 23.5871C14.4098 24.113 14.1142 24.6665 13.8666 25.2419C13.8502 25.2664 13.8325 25.2909 13.7958 25.3494Z" fill="#B88D2E"/>
<path d="M14.9799 8.63437C15.0303 8.48604 15.0793 8.36221 15.1161 8.22613C15.1528 8.09667 15.1596 7.96056 15.1361 7.82808C15.1125 7.6956 15.0591 7.5702 14.9799 7.46135C14.9016 7.3431 14.8103 7.234 14.7076 7.13611C14.5007 6.91702 14.2733 6.69521 14.0364 6.47748L13.9751 6.42032C13.8199 6.28424 13.79 6.27471 13.6388 6.40943C13.4455 6.58362 13.259 6.76597 13.0711 6.9456C12.9803 7.03632 12.8895 7.12477 12.7988 7.21096C12.6625 7.34445 12.557 7.50607 12.4897 7.68452C12.4084 7.89748 12.4132 8.13374 12.5033 8.34316C12.5401 8.43433 12.5796 8.52278 12.6177 8.61532C12.5796 8.65887 12.5469 8.63165 12.5183 8.61532C12.0181 8.39514 11.608 8.01114 11.3555 7.52667C11.207 7.2295 11.1195 6.90561 11.0982 6.57409C11.0511 5.78332 11.2037 4.9934 11.5421 4.27703C11.7578 3.80154 12.0323 3.3549 12.359 2.94751C12.7808 2.41734 13.1561 1.85188 13.4809 1.25738C13.5381 1.1526 13.5885 1.04373 13.6402 0.936226C13.6919 0.828721 13.7301 0.747072 13.7763 0.664062C13.8376 0.664062 13.8444 0.702165 13.8567 0.732103C14.2225 1.5153 14.6825 2.25103 15.2264 2.92302C15.4546 3.20905 15.6586 3.51357 15.8363 3.83341C16.0916 4.29637 16.2817 4.79229 16.4014 5.30717C16.4479 5.5201 16.4789 5.73613 16.494 5.95356C16.5076 6.14338 16.5076 6.33393 16.494 6.52374C16.4341 7.52667 15.9262 8.21932 15.0194 8.63301C15.0064 8.63538 14.9931 8.63584 14.9799 8.63437Z" fill="#B88D2E"/>
<path d="M18.0691 14.6483C18.1154 14.7258 18.1494 14.7844 18.1848 14.8456C18.3427 15.1073 18.592 15.3012 18.8846 15.3899C19.1185 15.4724 19.3687 15.498 19.6144 15.4648C20.1087 15.3954 20.5961 15.2865 21.0822 15.1708C21.1348 15.156 21.1867 15.1383 21.2374 15.1178C21.263 15.0408 21.2659 14.9581 21.2455 14.8796C21.1955 14.5742 21.1223 14.273 21.0263 13.9788C20.9526 13.7741 20.8615 13.576 20.754 13.3868C20.6705 13.2395 20.5654 13.1056 20.4422 12.9894C20.2067 12.7622 19.8941 12.6319 19.5668 12.6247H19.4429C19.4756 12.5948 19.4864 12.5771 19.5028 12.569C19.5973 12.5227 19.6946 12.4822 19.7942 12.4478C20.1581 12.335 20.5415 12.2988 20.9201 12.3417C21.7087 12.4397 22.4499 12.7715 23.0482 13.2943C23.6511 13.8156 24.1551 14.4411 24.5364 15.1409C24.7818 15.5766 24.9821 16.0362 25.1341 16.5126C25.2686 16.9276 25.363 17.3546 25.4159 17.7877C25.4309 17.9061 25.4473 18.0245 25.4513 18.1442C25.4554 18.264 25.4227 18.2803 25.3152 18.2885C25.2076 18.2966 25.1178 18.2885 25.0184 18.2885C24.8645 18.2885 24.7107 18.2653 24.5554 18.264C24.1263 18.2579 23.6977 18.2292 23.2715 18.1782C22.8631 18.1279 22.4546 18.0884 22.057 18.0245C21.5857 17.9426 21.1204 17.8294 20.6642 17.6856C20.2804 17.5682 19.9084 17.4152 19.5532 17.2284C19.0392 16.9586 18.6138 16.5467 18.3278 16.0418C18.0965 15.6346 17.9967 15.166 18.0419 14.7C18.0405 14.6877 18.0514 14.6782 18.0691 14.6483Z" fill="#B88D2E"/>
<path d="M8.14707 12.6107C8.01092 12.6297 7.89519 12.6392 7.78082 12.6624C7.4676 12.731 7.18992 12.9109 6.9993 13.1686C6.8546 13.3519 6.73678 13.5549 6.64938 13.7714C6.50947 14.1325 6.40683 14.5068 6.34304 14.8887C6.30491 15.1078 6.31853 15.1363 6.53093 15.1812C6.99249 15.2779 7.45405 15.3745 7.91833 15.4534C8.24243 15.5103 8.57621 15.4626 8.87141 15.3173C9.15109 15.1919 9.37291 14.9654 9.49227 14.6832C9.5018 14.6641 9.50997 14.6451 9.52086 14.6274C9.53176 14.6097 9.53312 14.6274 9.54673 14.6179C9.61486 14.964 9.57837 15.3226 9.44189 15.648C9.18638 16.3566 8.66275 16.9366 7.98369 17.2633C7.38157 17.556 6.74606 17.7745 6.09115 17.9138C5.65867 18.0122 5.2209 18.0858 4.77999 18.1342C4.39468 18.1791 4.00936 18.2159 3.62405 18.2485C3.44977 18.2635 3.27277 18.2485 3.09577 18.2621C2.91877 18.2757 2.7445 18.2839 2.56886 18.2921C2.48444 18.2921 2.40003 18.2921 2.31561 18.2921C2.16312 18.2921 2.15087 18.2717 2.15767 18.1192C2.20746 17.3304 2.39885 16.5569 2.72271 15.8358C2.98909 15.2054 3.34543 14.6168 3.78062 14.0885C4.11658 13.6612 4.51715 13.2889 4.96788 12.9849C5.41455 12.6877 5.91571 12.4818 6.44243 12.3793C6.92851 12.2792 7.43285 12.316 7.89927 12.4855C7.98741 12.5152 8.07085 12.5574 8.14707 12.6107Z" fill="#B88D2E"/>
<path d="M10.0296 11.7324C9.92571 11.8086 9.80908 11.8657 9.68518 11.9012C9.49032 11.9618 9.28857 11.9974 9.08474 12.0073C8.22016 12.0617 7.46587 11.7678 6.77013 11.2956C6.32305 10.9742 5.92812 10.5859 5.59921 10.1444C4.91666 9.27805 4.43449 8.27145 4.18729 7.19682C4.11877 6.88777 4.07056 6.57457 4.04297 6.25922V6.23745C4.04297 6.08912 4.05658 6.06326 4.20908 6.06462C4.5892 6.05078 4.96981 6.06078 5.34868 6.09456C5.36272 6.09591 5.37685 6.09591 5.39089 6.09456C5.85454 6.10953 6.3169 6.15179 6.77557 6.22112C7.25751 6.2815 7.7357 6.36873 8.20791 6.4824C8.77768 6.6152 9.33075 6.81148 9.85673 7.06755C10.3661 7.3161 10.7958 7.70216 11.0971 8.18206C11.3851 8.62233 11.5089 9.1498 11.447 9.67215C11.447 9.67215 11.447 9.68304 11.4334 9.6912C11.3776 9.67896 11.3735 9.62316 11.3531 9.5837C11.263 9.404 11.1313 9.24846 10.9688 9.13009C10.8063 9.01171 10.6178 8.93394 10.419 8.90329C10.1691 8.85631 9.91229 8.85908 9.66339 8.91146C9.2631 8.9863 8.86281 9.06931 8.46252 9.14824C8.42848 9.1564 8.39308 9.16185 8.3604 9.17137C8.23922 9.20947 8.21063 9.24758 8.22425 9.37141C8.28476 9.81812 8.40616 10.2545 8.58505 10.6683C8.65797 10.8353 8.7493 10.9937 8.85736 11.1405C8.97551 11.3139 9.13339 11.4566 9.31788 11.5568C9.50237 11.6569 9.70812 11.7115 9.918 11.7161C9.95555 11.719 9.99285 11.7244 10.0296 11.7324Z" fill="#B88D2E"/>
<path d="M17.5603 11.7385C17.5853 11.7279 17.6113 11.7202 17.6379 11.7153C18.1431 11.7153 18.5052 11.4622 18.7816 11.0662C19.0009 10.7449 19.1553 10.3839 19.2364 10.0034C19.284 9.79114 19.3249 9.57749 19.3644 9.36248C19.3848 9.24954 19.3644 9.20871 19.2473 9.17605C19.1302 9.14339 18.9886 9.10801 18.8579 9.08352C18.4767 9.01275 18.0968 8.93927 17.7142 8.88075C17.3977 8.83666 17.0753 8.88982 16.7897 9.03317C16.567 9.14392 16.3839 9.32072 16.2655 9.53939C16.2451 9.57613 16.2233 9.61151 16.2002 9.64689C16.2002 9.64689 16.1879 9.64689 16.1797 9.65506C16.1239 9.62784 16.1362 9.57205 16.1348 9.52714C16.12 9.17386 16.188 8.822 16.3336 8.49972C16.6122 7.89851 17.0857 7.40893 17.6774 7.11033C18.3317 6.77936 19.0293 6.54207 19.7497 6.40543C20.2181 6.30881 20.6905 6.23124 21.1671 6.17953C21.517 6.14007 21.8669 6.11965 22.2182 6.09244C22.5912 6.0625 22.9643 6.06522 23.3373 6.0625C23.5525 6.0625 23.5688 6.07339 23.5525 6.29248C23.5345 6.50982 23.505 6.72604 23.464 6.94023C23.2492 8.0874 22.7648 9.16715 22.0507 10.0905C21.7796 10.451 21.4696 10.7805 21.1262 11.073C20.5849 11.5409 19.9256 11.8515 19.2201 11.9712C18.7609 12.0621 18.2856 12.0269 17.8449 11.8691C17.7918 11.8487 17.7401 11.8269 17.6883 11.8038C17.6488 11.7902 17.6202 11.7711 17.5603 11.7385Z" fill="#B88D2E"/>
<path d="M16.2658 10.9234C16.1868 10.8907 16.1637 10.8118 16.1296 10.7478C15.8748 10.3282 15.4935 9.99994 15.0404 9.81023C14.8201 9.71408 14.5824 9.66406 14.3419 9.66326C14.1173 9.65053 13.8919 9.66515 13.6707 9.7068C13.371 9.77619 13.0891 9.90742 12.8432 10.0921C12.5972 10.2768 12.3926 10.5108 12.2425 10.7791C12.1866 10.8757 12.1431 10.9805 12.0927 11.0812C12.0794 11.1037 12.0644 11.1251 12.0478 11.1452C11.9593 11.0894 11.9919 10.9574 11.8721 10.9247C11.8464 10.953 11.8269 10.9865 11.8149 11.0228C11.8029 11.0591 11.7988 11.0976 11.8027 11.1357C11.798 11.343 11.8404 11.5486 11.9267 11.7372C12.0131 11.9258 12.141 12.0923 12.301 12.2243C12.4726 12.3605 12.6727 12.4563 12.8865 12.5046C13.2434 12.5941 13.6161 12.6001 13.9757 12.5223C14.0519 12.4706 13.6619 12.4234 13.7578 12.3519C13.7983 12.3143 14.0349 12.4451 14.0138 12.3063C14.0138 12.2736 13.9961 12.1536 13.9893 12.1127C13.9892 12.1026 13.9913 12.0926 13.9956 12.0834C13.9998 12.0742 14.006 12.0661 14.0138 12.0597C14.0231 12.0556 14.033 12.0536 14.0431 12.0536C14.0532 12.0536 14.0631 12.0556 14.0724 12.0597C14.1074 12.0826 14.141 12.1076 14.1731 12.1345C14.2126 12.1658 14.248 12.1985 14.2888 12.227C14.3222 12.2533 14.3624 12.2694 14.4046 12.2735C14.4468 12.2776 14.4893 12.2695 14.5271 12.2502C14.7627 12.1372 14.9982 12.0284 15.2338 11.9168C15.2465 11.9103 15.2588 11.903 15.2705 11.895C15.2799 11.89 15.2879 11.8826 15.2936 11.8737C15.2994 11.8647 15.3028 11.8544 15.3035 11.8438C15.3041 11.8332 15.3021 11.8226 15.2975 11.8129C15.2929 11.8033 15.286 11.795 15.2773 11.7889C15.2304 11.7585 15.1807 11.7325 15.1289 11.7113C14.9791 11.6487 14.8106 11.5921 14.6557 11.5398C14.6149 11.526 14.4947 11.4935 14.4714 11.4736C14.6189 11.4454 14.734 11.4586 14.7885 11.4736C14.843 11.4886 14.944 11.5058 15.0135 11.5235C15.0751 11.5407 15.127 11.5512 15.1847 11.5235C15.2474 11.4949 15.3352 11.4296 15.3896 11.4092C15.4441 11.3888 15.4713 11.4345 15.4781 11.4454C15.5176 11.5093 15.4693 11.6269 15.5537 11.6541C15.6535 11.6909 15.763 11.6909 15.8628 11.6541C16.0194 11.5902 16.1773 11.5289 16.3339 11.4663C16.3788 11.4487 16.4251 11.4296 16.47 11.4092C16.6445 11.3378 16.8802 11.3232 17.0547 11.3946C17.0903 11.4092 17.0734 11.4552 17.0455 11.4886C16.9188 11.588 16.6906 11.714 16.5585 11.8079C16.519 11.8365 16.4714 11.8542 16.4305 11.8814C16.4045 11.8927 16.3812 11.9096 16.3624 11.9309C16.3436 11.9523 16.3297 11.9775 16.3218 12.0048C16.2987 12.0842 16.4178 12.2278 16.4305 12.3087C16.4355 12.3398 16.4339 12.3716 16.426 12.4022C16.4207 12.4189 16.409 12.4328 16.3934 12.441C16.3779 12.4491 16.3598 12.4508 16.343 12.4457C16.2925 12.4207 16.2112 12.3525 16.1638 12.3222C16.1229 12.2963 16.067 12.2515 16.0262 12.2243C15.9862 12.1948 15.9395 12.1757 15.8903 12.1688C15.841 12.1619 15.7909 12.1674 15.7443 12.1849C15.7048 12.1998 15.664 12.2107 15.6245 12.227C15.3148 12.3437 14.996 12.4347 14.6714 12.4992C14.6162 12.5084 14.5616 12.5211 14.5081 12.5373C14.4529 12.5628 14.5175 12.7018 14.4142 12.7168C14.2685 12.6754 14.3386 12.5757 14.0016 12.6326C13.4919 12.7774 12.9558 12.8035 12.4344 12.7088C12.2115 12.6694 11.9991 12.5841 11.8109 12.4584C11.6583 12.3681 11.5319 12.2397 11.444 12.0858C11.3562 11.9319 11.3099 11.7578 11.3098 11.5806C11.3052 11.3866 11.3138 11.1925 11.3357 10.9996C11.4002 10.6149 11.5779 10.2581 11.8463 9.97488C12.2082 9.54487 12.7064 9.25148 13.2582 9.14343C13.7926 9.02818 14.3499 9.08717 14.8484 9.31176C15.3468 9.53635 15.7601 9.9147 16.0275 10.3913C16.0929 10.507 16.1392 10.6335 16.1936 10.756C16.2195 10.8131 16.2427 10.873 16.2672 10.9315L16.2658 10.9234Z" fill="#B88D2E"/>
<path d="M11.8516 13.2661C11.8856 13.2756 11.9128 13.2783 11.9373 13.2879C12.1013 13.3529 12.2772 13.3821 12.4534 13.3736C12.6734 13.3558 12.8925 13.4182 13.0701 13.5491C13.0877 13.5596 13.1064 13.5678 13.126 13.5736C13.3329 13.4893 13.3329 13.4893 13.4909 13.6049C13.5072 13.5328 13.5208 13.4689 13.5371 13.3995C13.5534 13.3121 13.599 13.2328 13.6663 13.1747C13.7336 13.1166 13.8186 13.0831 13.9075 13.0797C13.9912 13.0719 14.0756 13.0765 14.158 13.0933C14.2588 13.115 14.3432 13.1668 14.3336 13.2947C14.3336 13.3314 14.35 13.3627 14.4058 13.3668C14.4214 13.3473 14.4351 13.3263 14.4467 13.3042C14.4695 13.2365 14.5167 13.1796 14.5791 13.1447C14.6414 13.1097 14.7146 13.0992 14.7843 13.115C14.8333 13.1178 14.8824 13.1178 14.9314 13.115C14.9381 13.1141 14.9445 13.1115 14.95 13.1075C14.9554 13.1034 14.9598 13.0981 14.9627 13.0919C14.9627 13.0742 14.9627 13.0443 14.9545 13.0361C14.9069 12.998 14.8538 12.9654 14.7952 12.9245C14.8218 12.8474 14.8643 12.7767 14.9198 12.7169C14.9754 12.6572 15.0429 12.6097 15.1179 12.5775C15.412 12.4414 15.8858 12.5775 16.0315 12.8143C15.7456 13.4947 14.93 14.1057 13.9892 14.1751C13.4509 14.2167 12.9132 14.0881 12.452 13.8077C12.2096 13.6803 12.0031 13.4941 11.8516 13.2661Z" fill="#B88D2E"/>
<path d="M32.8775 17C32.7254 17 32.6201 16.9415 32.6201 16.8362V16.8011C32.6201 16.5437 33.0647 16.4852 33.0647 16.0289V9.6641C33.0647 9.1961 32.6201 9.1493 32.6201 8.8919V8.8568C32.6201 8.7515 32.7137 8.693 32.8541 8.693H37.967C38.1776 8.693 38.2595 8.7983 38.2946 8.9972L38.5754 10.2608C38.6105 10.4363 38.5169 10.5299 38.3765 10.5299H38.3297C37.8617 10.5299 37.5224 9.2897 36.8438 9.2897H34.8899C34.6559 9.2897 34.4921 9.4067 34.4921 9.7226V12.8114H36.329C36.7736 12.8114 36.8906 12.0392 37.1597 12.0392H37.2416C37.3469 12.0392 37.4171 12.1211 37.4171 12.2615V13.9229C37.4171 14.0516 37.3469 14.1452 37.2416 14.1452H37.1597C36.8906 14.1452 36.7736 13.4081 36.329 13.4081H34.4921V16.0289C34.4921 16.4852 34.9718 16.5437 34.9718 16.8011V16.8362C34.9718 16.9415 34.8665 17 34.7144 17H32.8775ZM39.6301 17C39.478 17 39.3727 16.9415 39.3727 16.8362V16.8011C39.3727 16.5437 39.8173 16.4852 39.8173 16.0289V9.6641C39.8173 9.2078 39.3727 9.1493 39.3727 8.8919V8.8568C39.3727 8.7515 39.478 8.693 39.6301 8.693H42.2041C45.094 8.693 47.1298 10.4714 47.1298 12.8114C47.1298 15.3971 45.2695 17 42.7306 17H39.6301ZM41.9116 16.4033H42.6487C44.392 16.4033 45.679 15.245 45.679 13.3379C45.679 11.0096 44.0527 9.2897 41.935 9.2897H41.6074C41.3851 9.2897 41.2096 9.4067 41.2096 9.7226V15.5726C41.2096 16.0991 41.4787 16.4033 41.9116 16.4033ZM48.4051 17C48.253 17 48.1594 16.9298 48.1594 16.8362V16.8011C48.1594 16.5437 48.5923 16.4852 48.5923 16.0289V9.6641C48.5923 9.1961 48.1594 9.161 48.1594 8.8919V8.8568C48.1594 8.7515 48.253 8.693 48.4051 8.693H50.242C50.3941 8.693 50.4994 8.7515 50.4994 8.8568V8.8919C50.4994 9.161 50.0197 9.1961 50.0197 9.6641V15.8534C50.0197 16.1576 50.1601 16.4033 50.4526 16.4033H52.5937C53.3776 16.4033 53.5297 14.9993 53.986 14.9993H54.103C54.2317 14.9993 54.3019 15.0812 54.2668 15.2333L53.9743 16.6958C53.9275 16.8947 53.8456 17 53.635 17H48.4051ZM59.5761 17C59.424 17 59.3304 16.9415 59.3304 16.8362V16.8011C59.3304 16.5437 59.7867 16.4852 59.7867 16.0289V9.3248H58.5114C57.8562 9.3248 57.7626 10.6352 57.3531 10.6352H57.2127C57.0723 10.6352 56.9904 10.5416 57.0138 10.3661L57.2244 8.9855C57.2478 8.7866 57.3414 8.693 57.552 8.693H63.4254C63.636 8.693 63.7296 8.7866 63.7647 8.9855L64.0221 10.3778C64.0572 10.5416 63.9636 10.6352 63.8232 10.6352H63.6828C63.2733 10.6352 63.1212 9.3248 62.466 9.3248H61.1907V16.0289C61.1907 16.4852 61.6587 16.5437 61.6587 16.8011V16.8362C61.6587 16.9415 61.5651 17 61.4013 17H59.5761ZM71.1139 16.0289C71.4532 16.532 71.8978 16.5437 71.8978 16.8011V16.8362C71.8978 16.9415 71.8042 17 71.6521 17H69.6163C69.4642 17 69.3706 16.9415 69.3706 16.8362V16.8011C69.3706 16.5437 69.8971 16.5086 69.6163 16.0289L68.1304 13.8059H68.0251L66.6328 13.8293V16.0289C66.6328 16.4852 67.1125 16.5437 67.1125 16.8011V16.8362C67.1125 16.9415 67.0072 17 66.8551 17H65.0182C64.8661 17 64.7725 16.9415 64.7725 16.8362V16.8011C64.7725 16.5437 65.2054 16.4852 65.2054 16.0289V9.6641C65.2054 9.2078 64.7725 9.1493 64.7725 8.8919V8.8568C64.7725 8.7515 64.8661 8.693 65.0182 8.693H67.6624C69.7099 8.693 71.1841 9.5237 71.1958 11.2904C71.1958 12.2615 70.5991 13.1624 69.4525 13.5719L71.1139 16.0289ZM67.8613 13.2209C68.9611 13.2209 69.745 12.6125 69.745 11.4659C69.745 10.0151 68.6803 9.2897 67.5688 9.2897H66.9838C66.7498 9.2897 66.6328 9.4769 66.6328 9.7577V12.554C66.6328 13.0454 66.8317 13.2209 67.2061 13.2209H67.8613ZM79.3392 16.0289C79.5498 16.5203 79.9359 16.5437 79.9359 16.8011V16.8362C79.9359 16.9415 79.8423 17 79.6902 17H77.6076C77.4555 17 77.3619 16.9415 77.3619 16.8362V16.8011C77.3619 16.5437 77.9703 16.4852 77.7948 16.0289L77.3385 14.8706H73.8051L73.3722 16.0289C73.1967 16.4852 73.8051 16.5437 73.8051 16.8011V16.8362C73.8051 16.9415 73.7115 17 73.5477 17H72.2256C72.0735 17 71.9799 16.9415 71.9799 16.8362V16.8011C71.9799 16.5437 72.3777 16.532 72.5766 16.0289L75.0336 9.7226C75.1857 9.3365 74.6475 9.1142 74.6475 8.8919V8.8568C74.6475 8.7632 74.7177 8.693 74.8464 8.693H75.7707C76.0866 8.693 76.2738 8.8217 76.4025 9.1376L79.3392 16.0289ZM74.0391 14.2388H77.0928L75.525 10.2374L74.0391 14.2388ZM86.9981 8.693C87.1502 8.693 87.2438 8.7515 87.2438 8.8568V8.8919C87.2438 9.1376 86.8694 9.1376 86.6471 9.6641L83.7338 16.6022C83.6051 16.8947 83.4413 17 83.1722 17C82.9265 17 82.7861 16.883 82.6691 16.6256L79.475 9.6758C79.241 9.161 78.89 9.1493 78.89 8.8919V8.8568C78.89 8.7515 78.9953 8.693 79.1474 8.693H81.2885C81.4406 8.693 81.5459 8.7515 81.5459 8.8568V8.8919C81.5459 9.1493 80.9024 9.2195 81.0896 9.6758L83.5349 15.4556L85.8398 9.6641C86.0153 9.2078 85.3484 9.1376 85.3484 8.8919V8.8568C85.3484 8.7515 85.4303 8.693 85.5941 8.693H86.9981ZM88.1212 17C87.9691 17 87.8638 16.9415 87.8638 16.8362V16.8011C87.8638 16.5437 88.3084 16.4969 88.3084 16.0172V9.6758C88.3084 9.1961 87.8638 9.1376 87.8638 8.8919V8.8568C87.8638 8.7515 87.9574 8.693 88.0978 8.693H93.1873C93.3979 8.693 93.4798 8.7866 93.5149 8.9855L93.7957 10.2491C93.8308 10.4246 93.7489 10.5182 93.6085 10.5182H93.55C93.082 10.5182 92.7544 9.278 92.0758 9.278H90.1102C89.8762 9.278 89.7124 9.4067 89.7124 9.7343V12.4604H91.5142C92.0173 12.4604 92.0641 11.6882 92.3332 11.6882H92.4034C92.5087 11.6882 92.5789 11.7701 92.5789 11.9105V13.5719C92.5789 13.7006 92.5087 13.7942 92.4034 13.7942H92.3332C92.0641 13.7942 92.0173 13.0571 91.5142 13.0571H89.7124L89.7007 15.7949C89.7007 16.0991 89.8528 16.415 90.2272 16.415H92.4385C93.1288 16.415 93.3628 15.128 93.8659 15.128H93.9478C94.0765 15.128 94.1467 15.2567 94.1233 15.3971L93.8542 16.6958C93.8074 16.8947 93.7255 17 93.5149 17H88.1212ZM95.228 17C95.0759 17 94.9823 16.9298 94.9823 16.8362V16.8011C94.9823 16.5437 95.4152 16.4852 95.4152 16.0289V9.6641C95.4152 9.1961 94.9823 9.161 94.9823 8.8919V8.8568C94.9823 8.7515 95.0759 8.693 95.228 8.693H97.0649C97.217 8.693 97.3223 8.7515 97.3223 8.8568V8.8919C97.3223 9.161 96.8426 9.1961 96.8426 9.6641V15.8534C96.8426 16.1576 96.983 16.4033 97.2755 16.4033H99.4166C100.2 16.4033 100.353 14.9993 100.809 14.9993H100.926C101.055 14.9993 101.125 15.0812 101.09 15.2333L100.797 16.6958C100.75 16.8947 100.668 17 100.458 17H95.228Z" fill="#0A354E"/>
</svg>
