<svg width="24" height="24" viewBox="0 0 24 24" fill="none" xmlns="http://www.w3.org/2000/svg">
<path fill-rule="evenodd" clip-rule="evenodd" d="M11.6891 6.07343C10.3318 6.07343 9.03017 6.61257 8.07043 7.57226C7.1107 8.53194 6.57153 9.83356 6.57153 11.1908C6.57153 12.548 7.1107 13.8496 8.07043 14.8093C9.03017 15.7689 10.3318 16.3081 11.6891 16.3081C13.0464 16.3081 14.3481 15.7689 15.3078 14.8093C16.2675 13.8496 16.8067 12.548 16.8067 11.1908C16.8067 9.83356 16.2675 8.53194 15.3078 7.57226C14.3481 6.61257 13.0464 6.07343 11.6891 6.07343ZM5.49414 11.1908C5.49414 7.76969 8.26787 4.99609 11.6891 4.99609C15.1104 4.99609 17.8841 7.76969 17.8841 11.1908C17.8841 14.6118 15.1104 17.3854 11.6891 17.3854C8.26787 17.3854 5.49414 14.6118 5.49414 11.1908Z" fill="#212121"/>
<path fill-rule="evenodd" clip-rule="evenodd" d="M15.3101 14.8101C15.4111 14.7091 15.5481 14.6523 15.6909 14.6523C15.8338 14.6523 15.9708 14.7091 16.0718 14.8101L19.3443 18.0825C19.4425 18.184 19.4968 18.3201 19.4955 18.4614C19.4943 18.6026 19.4377 18.7377 19.3378 18.8376C19.2379 18.9374 19.1028 18.9941 18.9615 18.9953C18.8203 18.9965 18.6842 18.9423 18.5826 18.8441L15.3101 15.5717C15.2091 15.4707 15.1523 15.3337 15.1523 15.1909C15.1523 15.0481 15.2091 14.9111 15.3101 14.8101Z" fill="#212121"/>
</svg>
