<svg width="16" height="16" viewBox="0 0 16 16" fill="none" xmlns="http://www.w3.org/2000/svg">
<path d="M12.8511 8.90647L10.1671 9.74648C9.9658 9.80915 9.80843 9.96714 9.7451 10.1685L8.90582 12.8505C8.73582 13.3938 8.01711 13.5085 7.68911 13.0438L6.07648 10.7591C5.95448 10.5865 5.7551 10.4851 5.54376 10.4885L2.65045 10.5318C2.11845 10.5398 1.81046 9.93446 2.12913 9.50779L3.86643 7.18247C3.9931 7.01314 4.02849 6.79312 3.96116 6.59312L3.06582 3.93781C2.88448 3.39914 3.39914 2.88448 3.93781 3.06582L6.59243 3.96112C6.79243 4.02845 7.01245 3.99314 7.18178 3.86648L9.50649 2.12913C9.93316 1.81046 10.5385 2.11845 10.5305 2.65045L10.4871 5.54445C10.4838 5.75579 10.5851 5.95513 10.7578 6.07713L13.0438 7.69114C13.5078 8.01914 13.3938 8.73647 12.8511 8.90647ZM14.3538 13.6471L12.3538 11.6471C12.1585 11.4518 11.8418 11.4518 11.6465 11.6471C11.4511 11.8424 11.4511 12.1591 11.6465 12.3545L13.6465 14.3545C13.7438 14.4518 13.8718 14.5011 13.9998 14.5011C14.1278 14.5011 14.2558 14.4525 14.3532 14.3545C14.5492 14.1591 14.5492 13.8418 14.3538 13.6471Z" fill="#FEFEFE"/>
</svg>
