
<svg width="24" height="24" viewBox="0 0 24 24" fill="none" xmlns="http://www.w3.org/2000/svg">
<path d="M11.9986 0.570312C5.68831 0.570312 0.570312 5.68746 0.570312 11.9986C0.570312 18.3097 5.68746 23.4269 11.9986 23.4269C18.3097 23.4269 23.4277 18.3097 23.4277 11.9986C23.4277 5.68746 18.3097 0.570312 11.9986 0.570312Z" fill="white"/>
<path fill-rule="evenodd" clip-rule="evenodd" d="M15.3575 4.28516C15.6052 6.41259 16.7923 7.68116 18.8572 7.81658V10.2089C17.6606 10.3263 16.6123 9.93458 15.3943 9.19744V13.6717C15.3943 19.358 9.19546 21.1349 6.70288 17.0592C5.1026 14.4372 6.08317 9.83601 11.22 9.65173V12.1743C10.8152 12.2387 10.4164 12.3365 10.0277 12.4666C8.88517 12.854 8.23717 13.5783 8.41717 14.8554C8.76346 17.3026 13.2523 18.0269 12.8795 13.2449V4.28944H15.3575V4.28516Z" fill="#062435"/>
</svg>
