<svg width="25" height="24" viewBox="0 0 25 24" fill="none" xmlns="http://www.w3.org/2000/svg">
<path d="M18.375 2.25H7.125C4.465 2.25 3 3.715 3 6.375V17.625C3 20.285 4.465 21.75 7.125 21.75H18.375C21.035 21.75 22.5 20.285 22.5 17.625V6.375C22.5 3.715 21.035 2.25 18.375 2.25ZM21 17.625C21 19.465 20.215 20.25 18.375 20.25H7.125C5.285 20.25 4.5 19.465 4.5 17.625V6.375C4.5 4.535 5.285 3.75 7.125 3.75H18.375C20.215 3.75 21 4.535 21 6.375V17.625ZM18 9.5C18 9.914 17.664 10.25 17.25 10.25H13.25C12.836 10.25 12.5 9.914 12.5 9.5C12.5 9.086 12.836 8.75 13.25 8.75H17.25C17.664 8.75 18 9.086 18 9.5ZM18 14.5C18 14.914 17.664 15.25 17.25 15.25H13.25C12.836 15.25 12.5 14.914 12.5 14.5C12.5 14.086 12.836 13.75 13.25 13.75H17.25C17.664 13.75 18 14.086 18 14.5ZM10.78 8.30298C11.073 8.59598 11.073 9.07101 10.78 9.36401L9.44702 10.697C9.30102 10.843 9.10899 10.917 8.91699 10.917C8.72599 10.917 8.53296 10.844 8.38696 10.698L7.71997 10.031C7.42697 9.73801 7.42697 9.26297 7.71997 8.96997C8.01297 8.67797 8.48701 8.67697 8.78101 8.96997L8.91797 9.10699L9.72095 8.30402C10.0129 8.01002 10.487 8.00998 10.78 8.30298ZM10.78 13.303C11.073 13.596 11.073 14.071 10.78 14.364L9.44702 15.697C9.30102 15.843 9.10899 15.917 8.91699 15.917C8.72599 15.917 8.53296 15.844 8.38696 15.698L7.71997 15.031C7.42697 14.738 7.42697 14.263 7.71997 13.97C8.01297 13.678 8.48701 13.677 8.78101 13.97L8.91797 14.107L9.72095 13.304C10.0129 13.01 10.487 13.01 10.78 13.303Z" fill="#b88d2e"/>
</svg>
