<svg width="16" height="16" viewBox="0 0 16 16" fill="none" xmlns="http://www.w3.org/2000/svg">
<path d="M7.9987 1.33301C4.3167 1.33301 1.33203 4.31767 1.33203 7.99967C1.33203 11.6817 4.3167 14.6663 7.9987 14.6663C11.6807 14.6663 14.6654 11.6817 14.6654 7.99967C14.6654 4.31767 11.6807 1.33301 7.9987 1.33301ZM8.4987 10.9997C8.4987 11.2757 8.2747 11.4997 7.9987 11.4997C7.7227 11.4997 7.4987 11.2757 7.4987 10.9997V7.95231C7.4987 7.67631 7.7227 7.45231 7.9987 7.45231C8.2747 7.45231 8.4987 7.67631 8.4987 7.95231V10.9997ZM8.01204 6.33301C7.64404 6.33301 7.34196 6.03434 7.34196 5.66634C7.34196 5.29834 7.63737 4.99967 8.00537 4.99967H8.01204C8.38071 4.99967 8.67871 5.29834 8.67871 5.66634C8.67871 6.03434 8.38004 6.33301 8.01204 6.33301Z" fill="white"/>
</svg>
