<svg width="16" height="16" viewBox="0 0 16 16" fill="none" xmlns="http://www.w3.org/2000/svg">
<path d="M13.9997 2.62087V11.3809C13.9997 11.9009 13.3997 12.1875 12.9997 11.8675L12.313 11.3142C11.991 11.0535 11.6423 10.8309 11.275 10.6475C11.2083 10.6142 11.1663 10.5475 11.1663 10.4735V3.52887C11.1663 3.45421 11.2083 3.38822 11.275 3.35488C11.6416 3.17155 11.991 2.94888 12.313 2.68822L12.9997 2.13487C13.3997 1.8142 13.9997 2.10087 13.9997 2.62087ZM9.92234 10.1575C10.0477 10.1869 10.1663 10.0976 10.1663 9.9689V4.03221C10.1663 3.90354 10.0477 3.8142 9.92234 3.84353C9.47834 3.9482 9.02097 4.00023 8.55963 4.00023H5.13035C3.56635 4.00023 2.16829 5.14022 2.01495 6.69688C1.83895 8.48555 3.23964 10.0002 5.0003 10.0002L6.63564 13.2649C6.86164 13.7155 7.32231 14.0002 7.82631 14.0002H8.66632L7.99965 10.0002H8.55963C9.02163 10.0009 9.47834 10.0529 9.92234 10.1575Z" fill="#777777"/>
</svg>
