<svg width="16" height="16" viewBox="0 0 16 16" fill="none" xmlns="http://www.w3.org/2000/svg">
<path d="M12 9.99939C11.2887 9.99939 10.6673 10.3741 10.3133 10.9334L5.86393 8.70872C5.9486 8.48739 6 8.25005 6 7.99872C6 7.74805 5.9486 7.51005 5.86393 7.28872L10.3133 5.06405C10.668 5.62405 11.2887 5.99805 12 5.99805C13.1047 5.99805 14 5.10271 14 3.99805C14 2.89338 13.1047 1.99805 12 1.99805C10.8953 1.99805 10 2.89338 10 3.99805C10 4.03205 10.0086 4.06406 10.0099 4.09739L5.27197 6.46606C4.92531 6.17806 4.486 5.9974 4 5.9974C2.89533 5.9974 2 6.89273 2 7.9974C2 9.10206 2.89533 9.9974 4 9.9974C4.486 9.9974 4.92531 9.81739 5.27197 9.52873L10.0099 11.8974C10.0086 11.9307 10 11.9627 10 11.9967C10 13.1014 10.8953 13.9967 12 13.9967C13.1047 13.9967 14 13.1014 14 11.9967C14 10.8921 13.1047 9.99939 12 9.99939Z" fill="#777777"/>
</svg>
