<svg width="16" height="16" viewBox="0 0 16 16" fill="none" xmlns="http://www.w3.org/2000/svg">
<path d="M12 4.66667H11.8333V3.33333C11.8333 3.20067 11.7807 3.07331 11.6867 2.97998L10.3534 1.64665C10.2594 1.55265 10.1327 1.5 10 1.5H5.33333C4.69 1.5 4.16667 2.02333 4.16667 2.66667V4.66667H4C2.66667 4.66667 2 5.33333 2 6.66667V10.3333C2 10.8867 2.44667 11.3333 3 11.3333H4.16667V13.3333C4.16667 13.9733 4.69333 14.5 5.33333 14.5H10.6667C11.3067 14.5 11.8333 13.9733 11.8333 13.3333V11.3333H13C13.5533 11.3333 14 10.8867 14 10.3333V6.66667C14 5.33333 13.3333 4.66667 12 4.66667ZM5.16667 2.66667C5.16667 2.57467 5.24133 2.5 5.33333 2.5H9.79264L10.8333 3.54069V4.66667H5.16667V2.66667ZM10.8333 13.3333C10.8333 13.4267 10.76 13.5 10.6667 13.5H5.33333C5.24 13.5 5.16667 13.4267 5.16667 13.3333V11.3333V10.5H10.8333V11.3333V13.3333ZM11.3333 8C10.9653 8 10.6667 7.70133 10.6667 7.33333C10.6667 6.96533 10.9653 6.66667 11.3333 6.66667C11.7013 6.66667 12 6.96533 12 7.33333C12 7.70133 11.7013 8 11.3333 8Z" fill="#777777"/>
</svg>
