<svg width="16" height="16" viewBox="0 0 16 16" fill="none" xmlns="http://www.w3.org/2000/svg">
<path fill-rule="evenodd" clip-rule="evenodd" d="M7.95193 13.5712C7.6952 13.9227 7.69475 13.9222 7.69475 13.9222L7.69341 13.9214L7.68982 13.9188L7.67862 13.9111C7.6142 13.8667 7.55043 13.8214 7.48731 13.7752C7.35917 13.6818 7.17816 13.5447 6.96175 13.369C6.39421 12.9077 5.8633 12.4068 5.37343 11.8703C4.22778 10.6103 3.02344 8.79746 3.02344 6.71421C3.02344 5.46392 3.54269 4.26485 4.46696 3.38076C5.39123 2.49667 6.64481 2 7.95193 2C9.25905 2 10.5126 2.49667 11.4369 3.38076C12.3612 4.26485 12.8804 5.46392 12.8804 6.71421C12.8804 8.79704 11.6761 10.6099 10.5304 11.8703C10.0406 12.4068 9.50965 12.9077 8.94211 13.369C8.72284 13.5473 8.4975 13.7186 8.26646 13.8828L8.22524 13.9111L8.21404 13.9188L8.21045 13.9214L8.20956 13.9218C8.12218 13.806 8.03629 13.6891 7.95193 13.5712ZM7.95193 13.5712L8.20866 13.9227C8.13339 13.973 8.04377 14 7.95193 14C7.86009 14 7.77002 13.9726 7.69475 13.9222L7.95193 13.5712ZM6.02339 6.92849C6.02339 6.41701 6.22657 5.92648 6.58825 5.56481C6.94992 5.20314 7.44045 4.99995 7.95193 4.99995C8.46341 4.99995 8.95394 5.20314 9.31561 5.56481C9.67729 5.92648 9.88047 6.41701 9.88047 6.92849C9.88047 7.43997 9.67729 7.93051 9.31561 8.29218C8.95394 8.65385 8.46341 8.85703 7.95193 8.85703C7.44045 8.85703 6.94992 8.65385 6.58825 8.29218C6.22657 7.93051 6.02339 7.43997 6.02339 6.92849Z" fill="#777777"/>
</svg>
