<svg width="16" height="16" viewBox="0 0 16 16" fill="none" xmlns="http://www.w3.org/2000/svg">
<path fill-rule="evenodd" clip-rule="evenodd" d="M5.5013 2C5.5013 1.724 5.7253 1.5 6.0013 1.5H9.33464C9.61064 1.5 9.83464 1.724 9.83464 2C9.83464 2.276 9.61064 2.5 9.33464 2.5H6.0013C5.7253 2.5 5.5013 2.276 5.5013 2ZM12.668 9C12.668 11.7613 10.4293 14 7.66797 14C4.90664 14 2.66797 11.7613 2.66797 9C2.66797 6.23867 4.90664 4 7.66797 4C8.7833 4 9.80928 4.36932 10.6413 4.98665L11.6479 3.97998C11.8413 3.78665 12.1613 3.78665 12.3547 3.97998C12.548 4.17331 12.548 4.49335 12.3547 4.68669L11.3813 5.65999C12.1787 6.54599 12.668 7.71467 12.668 9ZM9.30127 9.60002L8.16797 8.75V6.66667C8.16797 6.39067 7.94397 6.16667 7.66797 6.16667C7.39197 6.16667 7.16797 6.39067 7.16797 6.66667V9C7.16797 9.15733 7.242 9.30532 7.368 9.39998L8.70133 10.4C8.79133 10.4673 8.89665 10.5 9.00065 10.5C9.15332 10.5 9.30337 10.4306 9.40137 10.3C9.56737 10.0793 9.52194 9.76535 9.30127 9.60002Z" fill="#777777"/>
</svg>
