<svg width="24" height="24" viewBox="0 0 24 24" fill="none" xmlns="http://www.w3.org/2000/svg">
<path fill-rule="evenodd" clip-rule="evenodd" d="M18 20.9993H14.8C14.634 20.9993 14.5 20.8652 14.5 20.6992V16.4993C14.5 15.1183 13.381 13.9993 12 13.9993C10.619 13.9993 9.5 15.1183 9.5 16.4993V20.6992C9.5 20.8652 9.36595 20.9993 9.19995 20.9993H6C4 20.9993 3 19.9993 3 17.9993V11.6503C3 9.65229 3.52305 9.34535 4.43005 8.58535L10.394 3.58425C11.323 2.80525 12.6781 2.80525 13.6071 3.58425L19.571 8.58535C20.477 9.34535 21.001 9.65229 21.001 11.6503V17.9993C21 19.9993 20 20.9993 18 20.9993Z" fill="#B88D2E"/>
</svg>