<svg width="24" height="24" viewBox="0 0 24 24" fill="none" xmlns="http://www.w3.org/2000/svg">
<path d="M4.91175 9.16021L4.91196 9.16004L10.8759 4.15894C10.8759 4.15894 10.8759 4.15894 10.8759 4.15894C11.5262 3.61369 12.4749 3.61369 13.1252 4.15894L19.089 9.15995C19.1432 9.20535 19.194 9.24782 19.2419 9.2878C19.6402 9.62025 19.8328 9.781 19.9768 10.0296C20.1239 10.2834 20.251 10.7037 20.251 11.6503V17.9989C20.2505 18.8834 20.0298 19.409 19.7198 19.7189C19.41 20.0287 18.8844 20.2493 18 20.2493H15.25V16.4993C15.25 14.7041 13.7952 13.2493 12 13.2493C10.2048 13.2493 8.75 14.7041 8.75 16.4993V20.2493H6C5.11561 20.2493 4.59007 20.0287 4.28033 19.719C3.97059 19.4092 3.75 18.8837 3.75 17.9993V11.6503C3.75 10.7035 3.87689 10.2833 4.02389 10.0295C4.16803 9.78065 4.36099 9.61972 4.76096 9.28617C4.80824 9.24674 4.85842 9.2049 4.91175 9.16021Z" stroke="#b88d2e" stroke-width="1.5"/>
</svg>
