<svg width="25" height="24" viewBox="0 0 25 24" fill="none" xmlns="http://www.w3.org/2000/svg">
<path d="M12.25 10.751C13.583 10.751 14.667 9.66698 14.667 8.33398C14.667 7.00098 13.583 5.91699 12.25 5.91699C10.917 5.91699 9.83304 7.00098 9.83304 8.33398C9.83304 9.66698 10.917 10.751 12.25 10.751ZM12.25 7.41699C12.755 7.41699 13.167 7.82798 13.167 8.33398C13.167 8.83998 12.756 9.25098 12.25 9.25098C11.744 9.25098 11.333 8.83998 11.333 8.33398C11.333 7.82798 11.745 7.41699 12.25 7.41699ZM21.214 7.37598C20.706 7.05998 20.052 7.04108 19.464 7.33008L18.311 7.90698C18.09 4.75198 15.459 2.25 12.249 2.25C9.12402 2.25 6.54502 4.61903 6.20602 7.65503L3.90503 8.81006C3.03803 9.24506 2.49902 10.1181 2.49902 11.0891V19.5C2.49902 20.113 2.80903 20.6709 3.32703 20.9939C3.84403 21.3159 4.48204 21.347 5.03604 21.074L8.43903 19.3621C8.52003 19.3241 8.59402 19.303 8.68802 19.302C8.78902 19.296 8.86104 19.3059 8.93704 19.3359L15.028 21.613C15.268 21.706 15.511 21.752 15.712 21.752C15.761 21.752 15.807 21.7499 15.85 21.7439C16.133 21.7439 16.411 21.6779 16.717 21.5339L20.596 19.584C21.462 19.148 22 18.2749 22 17.3059V8.89111C22 8.23911 21.714 7.68698 21.214 7.37598ZM12.25 3.75C14.777 3.75 16.833 5.80698 16.833 8.33398C16.833 8.53298 16.815 8.72506 16.788 8.91406V8.91504C16.447 11.302 14.06 12.906 12.25 14.103C10.296 12.812 7.66702 11.047 7.66702 8.33398C7.66702 5.80698 9.72303 3.75 12.25 3.75ZM4.36902 19.731C4.25802 19.786 4.16503 19.749 4.12003 19.72C4.07503 19.692 4.00003 19.626 4.00003 19.5V11.0891C4.00003 10.6901 4.22204 10.3299 4.57904 10.1509L6.25903 9.30811C6.47803 10.5661 7.10202 11.623 7.90002 12.52V17.9719C7.86102 17.9879 7.82302 17.9949 7.78302 18.0139L4.36902 19.731ZM9.47104 17.9341C9.44804 17.9251 9.42302 17.923 9.40002 17.915V13.9199C10.114 14.4879 10.847 14.9731 11.482 15.3931L11.834 15.626C11.96 15.71 12.105 15.752 12.25 15.752C12.395 15.752 12.54 15.71 12.666 15.626L13.018 15.3931C13.653 14.9741 14.386 14.4879 15.1 13.9199V20.0381L9.47104 17.9341ZM20.5 17.3059C20.5 17.7049 20.278 18.0649 19.922 18.2439L16.6 19.9141V12.52C17.325 11.706 17.911 10.7599 18.177 9.65088L20.131 8.6731C20.259 8.6101 20.369 8.61593 20.422 8.64893C20.492 8.69293 20.5 8.83311 20.5 8.89111V17.3059Z" fill="#b88d2e"/>
</svg>
