<svg width="16" height="16" viewBox="0 0 16 16" fill="none" xmlns="http://www.w3.org/2000/svg">
<path d="M8.0013 12.4993H6.66797C5.2893 12.4993 4.16797 11.378 4.16797 9.99935C4.16797 8.62068 5.2893 7.49935 6.66797 7.49935H9.33464C10.162 7.49935 10.8346 6.82668 10.8346 5.99935C10.8346 5.17202 10.162 4.49935 9.33464 4.49935H8.0013C7.7253 4.49935 7.5013 4.27535 7.5013 3.99935C7.5013 3.72335 7.7253 3.49935 8.0013 3.49935H9.33464C10.7133 3.49935 11.8346 4.62068 11.8346 5.99935C11.8346 7.37802 10.7133 8.49935 9.33464 8.49935H6.66797C5.84064 8.49935 5.16797 9.17202 5.16797 9.99935C5.16797 10.8267 5.84064 11.4993 6.66797 11.4993H8.0013C8.2773 11.4993 8.5013 11.7233 8.5013 11.9993C8.5013 12.2753 8.2773 12.4993 8.0013 12.4993ZM6.33464 3.99935C6.33464 5.35735 5.12129 6.15862 4.31795 6.68929L4.18595 6.77669C4.12995 6.81403 4.0653 6.83268 4.0013 6.83268C3.9373 6.83268 3.87265 6.81403 3.81665 6.77669L3.68465 6.68929C2.88132 6.15862 1.66797 5.35735 1.66797 3.99935C1.66797 2.71268 2.71464 1.66602 4.0013 1.66602C5.28797 1.66602 6.33464 2.71268 6.33464 3.99935ZM4.68132 3.99935C4.68132 3.63135 4.38265 3.33268 4.01465 3.33268H4.00798C3.63998 3.33268 3.34465 3.63135 3.34465 3.99935C3.34465 4.36735 3.64665 4.66602 4.01465 4.66602C4.38265 4.66602 4.68132 4.36735 4.68132 3.99935ZM14.3346 11.4993C14.3346 12.8573 13.1213 13.6586 12.318 14.1893L12.186 14.2767C12.13 14.314 12.0653 14.3327 12.0013 14.3327C11.9373 14.3327 11.8727 14.314 11.8167 14.2767L11.6847 14.1893C10.8813 13.6586 9.66797 12.8573 9.66797 11.4993C9.66797 10.2127 10.7146 9.16602 12.0013 9.16602C13.288 9.16602 14.3346 10.2127 14.3346 11.4993ZM12.6813 11.4993C12.6813 11.1313 12.3826 10.8327 12.0146 10.8327H12.008C11.64 10.8327 11.3446 11.1313 11.3446 11.4993C11.3446 11.8673 11.6466 12.166 12.0146 12.166C12.3826 12.166 12.6813 11.8673 12.6813 11.4993Z" fill="#777777"/>
</svg>
