<svg width="25" height="24" viewBox="0 0 25 24" fill="none" xmlns="http://www.w3.org/2000/svg">
<path d="M21.3689 4.1804C21.3679 4.1804 21.3679 4.18042 21.3669 4.17942C19.6649 3.37242 17.7781 3.08941 15.7581 3.33641C14.3041 3.51541 13.074 4.34636 12.333 5.51036C11.591 4.34736 10.362 3.51541 8.90796 3.33641C6.88496 3.08941 5.00007 3.37242 3.29907 4.17942C3.29907 4.17942 3.2991 4.17942 3.2981 4.17942C2.8641 4.38542 2.58301 4.83234 2.58301 5.31834V18.3233C2.58301 18.7173 2.76293 19.0784 3.07593 19.3154C3.38793 19.5524 3.80411 19.6273 4.18311 19.5213C7.09111 18.6953 9.55002 19.0454 11.916 20.6224C11.926 20.6294 11.938 20.6314 11.948 20.6374C11.959 20.6434 11.967 20.6534 11.979 20.6594C11.99 20.6654 12.0029 20.6624 12.0139 20.6684C12.1149 20.7164 12.222 20.7484 12.332 20.7484C12.442 20.7484 12.5489 20.7164 12.6499 20.6684C12.6609 20.6634 12.6741 20.6654 12.6851 20.6594C12.6961 20.6534 12.7051 20.6444 12.7151 20.6374C12.7251 20.6314 12.7371 20.6294 12.7471 20.6224C15.1131 19.0444 17.571 18.6944 20.48 19.5204C20.86 19.6284 21.2739 19.5524 21.5869 19.3154C21.8999 19.0794 22.0801 18.7173 22.0801 18.3233V5.31834C22.0831 4.83434 21.8029 4.3874 21.3689 4.1804ZM7.06592 17.5914C6.10492 17.5914 5.11201 17.7264 4.08301 17.9934V5.46837C5.50301 4.82537 7.0261 4.61444 8.7251 4.82444C10.3551 5.02444 11.583 6.41438 11.583 8.05638V18.6874C10.148 17.9564 8.64992 17.5914 7.06592 17.5914ZM20.583 17.9944C17.855 17.2854 15.389 17.5124 13.083 18.6894V8.05845C13.083 6.41545 14.3119 5.0264 15.9409 4.8264C16.3629 4.7744 16.774 4.74839 17.175 4.74839C18.39 4.74839 19.515 4.98744 20.582 5.47044V17.9944H20.583ZM15.333 8.24839H18.333C18.747 8.24839 19.083 8.58439 19.083 8.99839C19.083 9.41239 18.747 9.74839 18.333 9.74839H15.333C14.919 9.74839 14.583 9.41239 14.583 8.99839C14.583 8.58439 14.919 8.24839 15.333 8.24839ZM18.083 11.9984C18.083 12.4124 17.747 12.7484 17.333 12.7484H15.333C14.919 12.7484 14.583 12.4124 14.583 11.9984C14.583 11.5844 14.919 11.2484 15.333 11.2484H17.333C17.747 11.2484 18.083 11.5844 18.083 11.9984Z" fill="#777777"/>
</svg>
