<svg width="16" height="16" viewBox="0 0 16 16" fill="none" xmlns="http://www.w3.org/2000/svg">
<path d="M9.89872 3.67405V13.6067C9.89872 13.746 9.75939 13.8427 9.62872 13.794L6.22872 12.5173C6.15072 12.488 6.09871 12.4133 6.09871 12.33V2.39736C6.09871 2.25802 6.23805 2.16135 6.36871 2.21002L9.76872 3.48671C9.84738 3.51604 9.89872 3.59071 9.89872 3.67405ZM4.80872 2.31467L2.73206 3.35862C2.28206 3.58462 1.99805 4.04539 1.99805 4.54872V13.002C1.99805 13.502 2.51806 13.8219 2.96472 13.6019L4.98806 12.584C5.05539 12.55 5.09804 12.4807 5.09804 12.4053V2.49273C5.09871 2.34407 4.94205 2.24734 4.80872 2.31467ZM13.032 2.40208L11.0087 3.41998C10.9414 3.45398 10.8987 3.52336 10.8987 3.59869V13.5113C10.8987 13.66 11.0554 13.7567 11.1887 13.69L13.2587 12.6487C13.7127 12.4207 13.9987 11.956 13.9987 11.448V3.00201C13.9987 2.50201 13.4787 2.18208 13.032 2.40208Z" fill="#777777"/>
</svg>
