<svg width="25" height="24" viewBox="0 0 25 24" fill="none" xmlns="http://www.w3.org/2000/svg">
<path d="M5.064 9.73999L4.23801 10.1528C3.63201 10.4558 3.24899 11.075 3.24899 11.752V20.1719C3.24899 20.9219 4.02901 21.402 4.69901 21.072L7.73401 19.5449C7.83501 19.4939 7.89899 19.3899 7.89899 19.2769V14.385C7.89899 14.306 7.86801 14.232 7.81201 14.177C6.69101 13.069 5.74601 11.6899 5.48801 9.9729C5.45801 9.7679 5.248 9.64799 5.064 9.73999ZM13.07 16.9219L12.24 17.4819L11.41 16.9219C11.41 16.9219 10.53 16.3429 9.87 15.8809C9.672 15.7419 9.39999 15.8859 9.39999 16.1279V19.1641C9.39999 19.2891 9.478 19.4011 9.595 19.4451L14.695 21.3599C14.891 21.4329 15.1 21.2879 15.1 21.0789V16.1108C15.1 15.8688 14.829 15.726 14.631 15.863C13.963 16.327 13.07 16.9219 13.07 16.9219ZM19.8 8.67188L19.249 8.94702C19.076 9.02002 19.077 9.20404 19.073 9.29004C18.983 11.319 17.944 12.912 16.686 14.167C16.631 14.222 16.599 14.296 16.599 14.375V20.936C16.599 21.159 16.834 21.3039 17.034 21.2039L20.259 19.583C20.869 19.273 21.249 18.6529 21.249 17.9729V9.56299C21.25 8.67199 20.47 8.34188 19.8 8.67188ZM12.24 3.67188C9.29999 3.67188 6.91 6.05195 6.91 9.00195C6.91 12.332 10.24 14.3319 12.24 15.6719C14.24 14.3319 17.58 12.332 17.58 9.00195C17.58 6.05195 15.19 3.67188 12.24 3.67188ZM12.24 10.6719C11.32 10.6719 10.58 9.92195 10.58 9.00195C10.58 8.08195 11.32 7.33203 12.24 7.33203C13.16 7.33203 13.91 8.08195 13.91 9.00195C13.91 9.92195 13.16 10.6719 12.24 10.6719Z" fill="#B88D2E"/>
</svg>