<svg width="24" height="24" viewBox="0 0 24 24" fill="none" xmlns="http://www.w3.org/2000/svg">
<path d="M11.9919 23.3943C11.9429 23.2926 11.9077 23.2235 11.8763 23.1531C11.5682 22.4859 11.1952 21.8506 10.7628 21.2564C10.5491 20.9536 10.3229 20.6597 10.0966 20.367C9.64857 19.7827 9.29255 19.1333 9.04093 18.4414C8.87493 18.0034 8.75981 17.5477 8.69783 17.0835C8.65946 16.8392 8.64431 16.5919 8.65258 16.3449C8.67288 15.7581 8.84243 15.1861 9.14525 14.683C9.32055 14.4083 9.54308 14.1667 9.80256 13.9695C10.0294 13.7966 10.2773 13.6531 10.5403 13.5424C10.5583 13.5361 10.5768 13.531 10.5956 13.5273C10.6308 13.5638 10.5956 13.5889 10.583 13.614C10.4873 13.7698 10.4156 13.9392 10.3706 14.1165C10.3153 14.3594 10.3418 14.6137 10.446 14.84C10.5259 15.019 10.6394 15.1811 10.7803 15.3173C11.1411 15.664 11.5068 16.0057 11.8713 16.3486C11.8863 16.3629 11.9014 16.3754 11.9165 16.3863C11.9266 16.3972 11.9389 16.4059 11.9525 16.4118C11.9661 16.4177 11.9808 16.4208 11.9957 16.4208C12.0105 16.4208 12.0252 16.4177 12.0389 16.4118C12.0525 16.4059 12.0647 16.3972 12.0749 16.3863C12.1188 16.3555 12.1608 16.3219 12.2005 16.2858C12.5436 15.958 12.888 15.6314 13.2299 15.3023C13.3808 15.1477 13.4954 14.9614 13.5654 14.7571C13.6624 14.513 13.6669 14.2418 13.578 13.9946C13.5378 13.8778 13.4825 13.7673 13.4335 13.6542C13.4171 13.619 13.397 13.5864 13.3668 13.5286C13.3969 13.5288 13.4269 13.5326 13.4561 13.5399C14.1775 13.8615 14.7368 14.3514 15.0572 15.0875C15.1909 15.3985 15.2716 15.7296 15.296 16.0673C15.296 16.1389 15.3099 16.2092 15.3149 16.2808C15.3243 16.3713 15.3281 16.4624 15.3262 16.5534C15.3018 17.0598 15.2174 17.5616 15.0748 18.0482C14.8209 18.8837 14.419 19.667 13.8884 20.3607C13.5327 20.818 13.1859 21.2802 12.8729 21.7676C12.5587 22.253 12.2859 22.764 12.0573 23.2951C12.0422 23.3177 12.0258 23.3403 11.9919 23.3943Z" fill="#777777"/>
<path d="M13.085 7.96658C13.1315 7.82966 13.1767 7.71535 13.2107 7.58974C13.2446 7.47024 13.2509 7.3446 13.2291 7.22231C13.2073 7.10002 13.1581 6.98427 13.085 6.88379C13.0127 6.77464 12.9284 6.67393 12.8336 6.58357C12.6426 6.38134 12.4327 6.17658 12.214 5.9756L12.1575 5.92284C12.0142 5.79723 11.9866 5.78844 11.847 5.9128C11.6686 6.07358 11.4964 6.2419 11.323 6.40771C11.2392 6.49146 11.1554 6.57311 11.0716 6.65266C10.9458 6.77589 10.8484 6.92507 10.7863 7.0898C10.7112 7.28638 10.7157 7.50446 10.7989 7.69777C10.8328 7.78193 10.8693 7.86358 10.9044 7.949C10.8693 7.98919 10.8391 7.96407 10.8127 7.949C10.351 7.74576 9.97242 7.3913 9.73939 6.94409C9.60226 6.66978 9.5215 6.3708 9.50185 6.06479C9.45837 5.33484 9.59926 4.60569 9.91157 3.94442C10.1107 3.50551 10.3641 3.09323 10.6657 2.71718C11.055 2.22779 11.4015 1.70582 11.7013 1.15705C11.754 1.06033 11.8005 0.959838 11.8483 0.860603C11.8961 0.761368 11.9313 0.685999 11.974 0.609375C12.0305 0.609375 12.0368 0.644547 12.0481 0.672182C12.3858 1.39513 12.8104 2.07427 13.3125 2.69457C13.5232 2.9586 13.7115 3.23969 13.8755 3.53492C14.1111 3.96227 14.2866 4.42005 14.3971 4.89532C14.4401 5.09187 14.4686 5.29129 14.4826 5.49199C14.4951 5.6672 14.4951 5.8431 14.4826 6.01831C14.4273 6.94409 13.9585 7.58346 13.1214 7.96533C13.1094 7.96751 13.0971 7.96794 13.085 7.96658Z" fill="#777777"/>
<path d="M15.9373 13.5164C15.98 13.588 16.0114 13.642 16.0441 13.6985C16.1899 13.9401 16.42 14.1191 16.6901 14.201C16.906 14.2771 17.1369 14.3008 17.3637 14.2701C17.82 14.206 18.2699 14.1055 18.7186 13.9987C18.7672 13.9851 18.815 13.9687 18.8618 13.9498C18.8855 13.8787 18.8881 13.8024 18.8694 13.7299C18.8232 13.448 18.7556 13.17 18.667 12.8984C18.5989 12.7094 18.5149 12.5266 18.4157 12.3519C18.3386 12.216 18.2416 12.0924 18.1279 11.9851C17.9104 11.7753 17.6219 11.6551 17.3198 11.6485H17.2054C17.2355 11.6209 17.2456 11.6045 17.2607 11.597C17.348 11.5543 17.4378 11.5169 17.5296 11.4852C17.8656 11.381 18.2195 11.3477 18.569 11.3872C19.297 11.4777 19.9811 11.784 20.5334 12.2665C21.0899 12.7478 21.5552 13.3252 21.9071 13.9711C22.1336 14.3733 22.3185 14.7976 22.4588 15.2373C22.583 15.6204 22.6701 16.0145 22.719 16.4143C22.7328 16.5236 22.7479 16.6329 22.7517 16.7434C22.7554 16.8539 22.7253 16.869 22.626 16.8766C22.5267 16.8841 22.4437 16.8766 22.352 16.8766C22.21 16.8766 22.068 16.8552 21.9247 16.8539C21.5285 16.8483 21.1329 16.8219 20.7395 16.7748C20.3625 16.7283 19.9854 16.6919 19.6184 16.6329C19.1834 16.5573 18.7539 16.4528 18.3327 16.3201C17.9784 16.2117 17.6351 16.0704 17.3072 15.898C16.8328 15.649 16.4401 15.2687 16.1761 14.8027C15.9626 14.4268 15.8704 13.9943 15.9121 13.5641C15.9109 13.5528 15.9209 13.544 15.9373 13.5164Z" fill="#777777"/>
<path d="M6.77804 11.6355C6.65236 11.6531 6.54553 11.6619 6.43996 11.6832C6.15083 11.7466 5.89451 11.9126 5.71855 12.1505C5.58498 12.3197 5.47622 12.5071 5.39555 12.707C5.26641 13.0402 5.17166 13.3858 5.11277 13.7383C5.07758 13.9405 5.09015 13.9669 5.28621 14.0083C5.71227 14.0975 6.13832 14.1867 6.56689 14.2596C6.86606 14.312 7.17416 14.2681 7.44666 14.134C7.70482 14.0182 7.90958 13.8091 8.01976 13.5486C8.02856 13.531 8.0361 13.5134 8.04615 13.4971C8.05621 13.4808 8.05746 13.4971 8.07003 13.4883C8.13292 13.8078 8.09923 14.1389 7.97326 14.4392C7.7374 15.0933 7.25405 15.6287 6.62722 15.9302C6.07142 16.2005 5.48479 16.4021 4.88026 16.5307C4.48105 16.6216 4.07696 16.6895 3.66996 16.7342C3.31429 16.7756 2.95861 16.8095 2.60294 16.8397C2.44207 16.8535 2.27868 16.8397 2.1153 16.8522C1.95191 16.8648 1.79104 16.8723 1.62892 16.8799C1.55099 16.8799 1.47307 16.8799 1.39515 16.8799C1.25439 16.8799 1.24308 16.861 1.24936 16.7204C1.29532 15.9922 1.47199 15.2782 1.77093 14.6126C2.01683 14.0306 2.34575 13.4874 2.74747 12.9997C3.05759 12.6052 3.42734 12.2615 3.8434 11.9809C4.25571 11.7066 4.71832 11.5166 5.20452 11.422C5.65321 11.3296 6.11875 11.3635 6.5493 11.5199C6.63066 11.5474 6.70768 11.5863 6.77804 11.6355Z" fill="#777777"/>
<path d="M8.5164 10.8272C8.42046 10.8975 8.3128 10.9503 8.19843 10.983C8.01856 11.0389 7.83232 11.0718 7.64418 11.081C6.84611 11.1312 6.14984 10.8599 5.50761 10.424C5.09492 10.1273 4.73037 9.76886 4.42676 9.36132C3.79672 8.56165 3.35164 7.63248 3.12346 6.64052C3.06021 6.35524 3.0157 6.06613 2.99023 5.77504V5.75494C2.99023 5.61802 3.0028 5.59415 3.14356 5.59541C3.49445 5.58263 3.84578 5.59186 4.19551 5.62305C4.20847 5.62429 4.22151 5.62429 4.23447 5.62305C4.66245 5.63687 5.08925 5.67587 5.51264 5.73987C5.9575 5.7956 6.39891 5.87612 6.83479 5.98105C7.36074 6.10364 7.87126 6.28482 8.35678 6.52118C8.827 6.75062 9.2236 7.10698 9.50173 7.54996C9.76755 7.95637 9.88189 8.44327 9.82473 8.92544C9.82473 8.92544 9.82473 8.93548 9.81216 8.94302C9.76063 8.93172 9.75686 8.88021 9.73801 8.84379C9.6549 8.67791 9.53326 8.53433 9.38327 8.42507C9.23327 8.3158 9.05928 8.24401 8.87584 8.21572C8.6451 8.17235 8.40807 8.17491 8.17832 8.22325C7.80882 8.29234 7.43932 8.36897 7.06982 8.44182C7.0384 8.44936 7.00572 8.45438 6.97556 8.46318C6.8637 8.49835 6.83731 8.53352 6.84988 8.64783C6.90574 9.06018 7.0178 9.46295 7.18293 9.84493C7.25023 9.99912 7.33454 10.1453 7.43429 10.2808C7.54335 10.4409 7.68909 10.5727 7.85939 10.6651C8.02968 10.7575 8.2196 10.8079 8.41334 10.8122C8.448 10.8148 8.48243 10.8198 8.5164 10.8272Z" fill="#777777"/>
<path d="M15.4681 10.8331C15.4911 10.8234 15.5152 10.8162 15.5397 10.8118C16.006 10.8118 16.3403 10.5781 16.5955 10.2126C16.7978 9.91592 16.9404 9.5827 17.0152 9.23153C17.0592 9.03557 17.0969 8.83836 17.1334 8.63989C17.1522 8.53563 17.1334 8.49794 17.0253 8.4678C16.9172 8.43765 16.7865 8.40499 16.6658 8.38238C16.3139 8.31706 15.9633 8.24923 15.6101 8.19521C15.318 8.15452 15.0204 8.20358 14.7568 8.3359C14.5512 8.43814 14.3822 8.60133 14.2729 8.80319C14.254 8.8371 14.2339 8.86976 14.2126 8.90242C14.2126 8.90242 14.2013 8.90242 14.1937 8.90996C14.1422 8.88484 14.1535 8.83333 14.1522 8.79188C14.1385 8.46577 14.2014 8.14098 14.3357 7.8435C14.5929 7.28853 15.03 6.83661 15.5762 6.56098C16.1801 6.25547 16.824 6.03643 17.489 5.9103C17.9214 5.82111 18.3575 5.74951 18.7974 5.70178C19.1204 5.66535 19.4434 5.64651 19.7676 5.62139C20.112 5.59375 20.4564 5.59626 20.8007 5.59375C20.9993 5.59375 21.0144 5.6038 20.9993 5.80604C20.9827 6.00666 20.9555 6.20625 20.9176 6.40396C20.7194 7.46289 20.2722 8.45958 19.613 9.31192C19.3628 9.64466 19.0766 9.94881 18.7597 10.2189C18.26 10.6507 17.6514 10.9375 17.0002 11.0479C16.5763 11.1319 16.1376 11.0993 15.7308 10.9537C15.6818 10.9349 15.634 10.9148 15.5862 10.8934C15.5498 10.8808 15.5234 10.8633 15.4681 10.8331Z" fill="#777777"/>
<path d="M14.2731 10.0789C14.2003 10.0488 14.1789 9.9759 14.1475 9.91687C13.9122 9.52948 13.5602 9.22651 13.142 9.05139C12.9386 8.96264 12.7192 8.91647 12.4973 8.91572C12.2899 8.90397 12.0818 8.91747 11.8777 8.95592C11.601 9.01997 11.3409 9.14111 11.1138 9.31157C10.8868 9.48203 10.6979 9.69805 10.5593 9.94576C10.5078 10.0349 10.4675 10.1317 10.421 10.2246C10.4088 10.2454 10.3949 10.2651 10.3796 10.2837C10.2979 10.2322 10.328 10.1103 10.2174 10.0802C10.1937 10.1063 10.1757 10.1371 10.1646 10.1707C10.1536 10.2042 10.1497 10.2397 10.1533 10.2749C10.149 10.4662 10.1882 10.6561 10.2679 10.8301C10.3475 11.0042 10.4657 11.1579 10.6133 11.2798C10.7718 11.4055 10.9565 11.4939 11.1538 11.5385C11.4832 11.6211 11.8273 11.6267 12.1592 11.5549C12.2296 11.5071 11.8695 11.4635 11.958 11.3976C11.9955 11.3628 12.2139 11.4836 12.1944 11.3555C12.1944 11.3253 12.1781 11.2145 12.1718 11.1768C12.1717 11.1674 12.1736 11.1582 12.1776 11.1497C12.1815 11.1413 12.1872 11.1338 12.1944 11.1278C12.2029 11.1241 12.2121 11.1222 12.2214 11.1222C12.2307 11.1222 12.2399 11.1241 12.2484 11.1278C12.2808 11.149 12.3118 11.172 12.3414 11.1969C12.3779 11.2258 12.4106 11.2559 12.4483 11.2823C12.4791 11.3065 12.5161 11.3214 12.5551 11.3251C12.5941 11.3289 12.6333 11.3215 12.6682 11.3036C12.8856 11.1994 13.1031 11.0989 13.3205 10.9959C13.3322 10.9899 13.3436 10.9832 13.3544 10.9758C13.3631 10.9712 13.3704 10.9644 13.3758 10.9561C13.3811 10.9478 13.3842 10.9384 13.3848 10.9285C13.3855 10.9187 13.3836 10.9089 13.3794 10.9001C13.3751 10.8912 13.3687 10.8835 13.3607 10.8778C13.3174 10.8498 13.2715 10.8258 13.2237 10.8062C13.0855 10.7484 12.9299 10.6962 12.7869 10.6479C12.7492 10.6352 12.6383 10.6052 12.6167 10.5868C12.7529 10.5608 12.8592 10.573 12.9095 10.5868C12.9598 10.6006 13.0531 10.6165 13.1171 10.6329C13.1741 10.6487 13.222 10.6584 13.2752 10.6329C13.3331 10.6065 13.4141 10.5462 13.4644 10.5274C13.5146 10.5085 13.5398 10.5507 13.5461 10.5608C13.5825 10.6198 13.5379 10.7283 13.6158 10.7535C13.7079 10.7874 13.8091 10.7874 13.9011 10.7535C14.0457 10.6944 14.1915 10.6379 14.336 10.5801C14.3775 10.5638 14.4202 10.5462 14.4617 10.5274C14.6228 10.4615 14.8403 10.448 15.0013 10.5139C15.0342 10.5274 15.0186 10.5698 14.9928 10.6007C14.8759 10.6924 14.6653 10.8087 14.5434 10.8954C14.5069 10.9218 14.4629 10.9381 14.4252 10.9632C14.4011 10.9737 14.3797 10.9893 14.3623 11.009C14.345 11.0287 14.3322 11.0519 14.3249 11.0771C14.3035 11.1504 14.4134 11.283 14.4252 11.3577C14.4298 11.3864 14.4283 11.4158 14.4211 11.4439C14.4161 11.4594 14.4053 11.4722 14.391 11.4798C14.3766 11.4873 14.3599 11.4889 14.3444 11.4841C14.2978 11.461 14.2228 11.3981 14.179 11.3701C14.1413 11.3462 14.0897 11.3049 14.052 11.2798C14.0151 11.2525 13.9719 11.2349 13.9265 11.2285C13.8811 11.2222 13.8348 11.2273 13.7918 11.2433C13.7553 11.2572 13.7176 11.2672 13.6812 11.2823C13.3953 11.3899 13.1011 11.474 12.8014 11.5335C12.7505 11.542 12.7001 11.5537 12.6506 11.5687C12.5997 11.5922 12.6593 11.7205 12.564 11.7344C12.4295 11.6962 12.4942 11.6042 12.1831 11.6566C11.7126 11.7903 11.2177 11.8144 10.7365 11.727C10.5307 11.6906 10.3347 11.6119 10.1609 11.4958C10.0201 11.4125 9.90336 11.294 9.82227 11.152C9.74117 11.0099 9.69848 10.8492 9.69839 10.6856C9.69411 10.5065 9.70209 10.3273 9.72226 10.1493C9.78181 9.79415 9.9459 9.46485 10.1936 9.20338C10.5277 8.80644 10.9876 8.53562 11.4969 8.43588C11.9902 8.32949 12.5047 8.38395 12.9647 8.59127C13.4248 8.79858 13.8063 9.14783 14.0532 9.58776C14.1135 9.69453 14.1563 9.81135 14.2065 9.9244C14.2304 9.97716 14.2518 10.0324 14.2744 10.0864L14.2731 10.0789Z" fill="#777777"/>
<path d="M10.1973 12.2402C10.2287 12.249 10.2538 12.2515 10.2764 12.2603C10.4278 12.3203 10.5902 12.3473 10.7528 12.3395C10.9559 12.3231 11.1581 12.3806 11.3221 12.5015C11.3383 12.5111 11.3556 12.5187 11.3736 12.5241C11.5647 12.4462 11.5647 12.4462 11.7105 12.553C11.7255 12.4864 11.7381 12.4274 11.7532 12.3633C11.7682 12.2827 11.8103 12.2095 11.8724 12.1559C11.9345 12.1022 12.013 12.0713 12.095 12.0681C12.1723 12.0609 12.2502 12.0652 12.3263 12.0807C12.4193 12.1008 12.4972 12.1485 12.4884 12.2666C12.4884 12.3005 12.5035 12.3294 12.555 12.3332C12.5694 12.3152 12.5821 12.2958 12.5927 12.2754C12.6138 12.2129 12.6574 12.1604 12.715 12.1281C12.7725 12.0959 12.8401 12.0861 12.9044 12.1008C12.9496 12.1033 12.9949 12.1033 13.0402 12.1008C13.0464 12.0999 13.0523 12.0975 13.0573 12.0938C13.0624 12.09 13.0664 12.0851 13.0691 12.0794C13.0691 12.0631 13.0691 12.0355 13.0615 12.0279C13.0175 11.9928 12.9685 11.9626 12.9145 11.9249C12.939 11.8537 12.9782 11.7885 13.0295 11.7333C13.0808 11.6781 13.1431 11.6343 13.2123 11.6046C13.4838 11.479 13.9212 11.6046 14.0557 11.8232C13.7917 12.4513 13.0389 13.0153 12.1704 13.0793C11.6736 13.1177 11.1773 12.999 10.7515 12.7402C10.5278 12.6226 10.3372 12.4507 10.1973 12.2402Z" fill="#777777"/>
</svg>
