<svg width="25" height="24" viewBox="0 0 25 24" fill="none" xmlns="http://www.w3.org/2000/svg">
<path d="M17.2188 21.7534C16.7598 21.7534 16.2979 21.6914 15.8419 21.5664C9.67686 19.8744 4.79584 14.9964 3.10284 8.83539C2.71784 7.43439 2.92879 5.97438 3.69879 4.72638C4.47179 3.47238 5.74285 2.58738 7.18585 2.29938C8.14585 2.10738 9.09485 2.53539 9.58185 3.35639L11.1448 5.99637C11.9038 7.27837 11.5267 8.92937 10.2857 9.75537L9.15484 10.5074C10.2118 12.6774 11.9897 14.4604 14.1507 15.5164L14.9129 14.3794C15.7439 13.1404 17.3948 12.7694 18.6758 13.5324L21.3189 15.1084C22.1369 15.5964 22.5598 16.5514 22.3738 17.4834C22.0858 18.9264 21.2008 20.1974 19.9478 20.9704C19.1058 21.4884 18.1688 21.7534 17.2188 21.7534ZM7.64483 3.75138C7.59584 3.75138 7.54586 3.75639 7.49786 3.76639C6.44386 3.97739 5.53087 4.61237 4.97687 5.51337C4.42787 6.40337 4.27684 7.44238 4.55084 8.43738C6.10384 14.0904 10.5828 18.5674 16.2388 20.1194C17.2348 20.3924 18.2707 20.2404 19.1597 19.6924C20.0597 19.1374 20.6959 18.2234 20.9029 17.1874C20.9649 16.8764 20.8239 16.5574 20.5499 16.3944L17.9078 14.8184C17.3128 14.4644 16.5448 14.6374 16.1588 15.2124L15.0438 16.8774C14.8438 17.1754 14.4579 17.2894 14.1319 17.1514C11.1689 15.9124 8.75788 13.4964 7.51788 10.5224C7.37988 10.1904 7.49574 9.80838 7.79474 9.60938L9.45587 8.50437C10.0319 8.12137 10.2068 7.35437 9.85382 6.75937L8.29083 4.12036C8.15383 3.88836 7.90584 3.75138 7.64483 3.75138Z" fill="#777777"/>
</svg>
