<svg width="16" height="16" viewBox="0 0 16 16" fill="none" xmlns="http://www.w3.org/2000/svg">
<path d="M7.83268 2V4.66667C7.83268 6.06 6.82602 7.21333 5.49935 7.44667V14C5.49935 14.2733 5.27268 14.5 4.99935 14.5C4.72602 14.5 4.49935 14.2733 4.49935 14V7.44667C3.17268 7.20667 2.16602 6.05333 2.16602 4.66667V2C2.16602 1.72667 2.39268 1.5 2.66602 1.5C2.93935 1.5 3.16602 1.72667 3.16602 2V4.66667H3.66602V2C3.66602 1.72667 3.89268 1.5 4.16602 1.5C4.43935 1.5 4.66602 1.72667 4.66602 2V4.66667H5.21934V2C5.21934 1.72667 5.44601 1.5 5.71934 1.5C5.99267 1.5 6.21934 1.72667 6.21934 2V4.66667H6.83268V2C6.83268 1.72667 7.05935 1.5 7.33268 1.5C7.60602 1.5 7.83268 1.72667 7.83268 2ZM13.6393 4.98L13.4727 3.61333C13.3393 2.5 12.4193 1.66667 11.3327 1.66667C10.246 1.66667 9.32602 2.50667 9.19269 3.61333L9.02602 4.98C8.92602 5.8 9.09935 6.49334 9.52602 6.97334C9.85935 7.34667 10.3194 7.56667 10.8994 7.64V14.0067C10.8994 14.28 11.126 14.5067 11.3994 14.5067C11.6727 14.5067 11.8994 14.28 11.8994 14.0067V7.62667C12.4194 7.54 12.8327 7.32 13.1393 6.97334C13.566 6.49334 13.7393 5.80667 13.6393 4.98Z" fill="#777777"/>
</svg>
