<svg width="16" height="16" viewBox="0 0 16 16" fill="none" xmlns="http://www.w3.org/2000/svg">
<path d="M7.9987 1.33398C4.3167 1.33398 1.33203 4.31865 1.33203 8.00065C1.33203 11.6827 4.3167 14.6673 7.9987 14.6673C11.6807 14.6673 14.6654 11.6827 14.6654 8.00065C14.6654 4.31865 11.6807 1.33398 7.9987 1.33398ZM8.4987 11.0007C8.4987 11.2767 8.2747 11.5007 7.9987 11.5007C7.7227 11.5007 7.4987 11.2767 7.4987 11.0007V7.95329C7.4987 7.67729 7.7227 7.45329 7.9987 7.45329C8.2747 7.45329 8.4987 7.67729 8.4987 7.95329V11.0007ZM8.01204 6.33398C7.64404 6.33398 7.34196 6.03532 7.34196 5.66732C7.34196 5.29932 7.63737 5.00065 8.00537 5.00065H8.01204C8.38071 5.00065 8.67871 5.29932 8.67871 5.66732C8.67871 6.03532 8.38004 6.33398 8.01204 6.33398Z" fill="#777777"/>
</svg>
