<svg width="25" height="24" viewBox="0 0 25 24" fill="none" xmlns="http://www.w3.org/2000/svg">
<path d="M17.75 3H7.75C5.75 3 4.75 4 4.75 6V18C4.75 20 5.75 21 7.75 21H17.75C19.75 21 20.75 20 20.75 18V6C20.75 4 19.75 3 17.75 3ZM10.78 15.864L9.44702 17.197C9.30102 17.343 9.10899 17.417 8.91699 17.417C8.72599 17.417 8.53296 17.344 8.38696 17.198L7.71997 16.531C7.42697 16.238 7.42697 15.763 7.71997 15.47C8.01197 15.178 8.48701 15.177 8.78101 15.47L8.91797 15.607L9.72095 14.804C10.0139 14.511 10.489 14.511 10.782 14.804C11.075 15.097 11.073 15.571 10.78 15.864ZM10.78 11.864L9.44702 13.197C9.30102 13.343 9.10899 13.417 8.91699 13.417C8.72599 13.417 8.53296 13.344 8.38696 13.198L7.71997 12.531C7.42697 12.238 7.42697 11.763 7.71997 11.47C8.01197 11.178 8.48701 11.177 8.78101 11.47L8.91797 11.607L9.72095 10.804C10.0139 10.511 10.489 10.511 10.782 10.804C11.075 11.097 11.073 11.571 10.78 11.864ZM10.78 7.86401L9.44702 9.19702C9.30102 9.34302 9.10899 9.41699 8.91699 9.41699C8.72599 9.41699 8.53296 9.344 8.38696 9.198L7.71997 8.53101C7.42697 8.23801 7.42697 7.76297 7.71997 7.46997C8.01197 7.17797 8.48701 7.17697 8.78101 7.46997L8.91797 7.60699L9.72095 6.80402C10.0139 6.51102 10.489 6.51102 10.782 6.80402C11.075 7.09702 11.073 7.57101 10.78 7.86401ZM17.25 16.75H13.25C12.836 16.75 12.5 16.414 12.5 16C12.5 15.586 12.836 15.25 13.25 15.25H17.25C17.664 15.25 18 15.586 18 16C18 16.414 17.664 16.75 17.25 16.75ZM17.25 12.75H13.25C12.836 12.75 12.5 12.414 12.5 12C12.5 11.586 12.836 11.25 13.25 11.25H17.25C17.664 11.25 18 11.586 18 12C18 12.414 17.664 12.75 17.25 12.75ZM17.25 8.75H13.25C12.836 8.75 12.5 8.414 12.5 8C12.5 7.586 12.836 7.25 13.25 7.25H17.25C17.664 7.25 18 7.586 18 8C18 8.414 17.664 8.75 17.25 8.75Z" fill="#B88D2E"/>
</svg>