<svg width="17" height="16" viewBox="0 0 17 16" fill="none" xmlns="http://www.w3.org/2000/svg">
<path d="M11.1667 1.5H5.83333C4.22 1.5 3.33333 2.38667 3.33333 4V11.3333C3.33333 12.4987 3.802 13.278 4.66667 13.6247V14C4.66667 14.2733 4.89333 14.5 5.16667 14.5C5.44 14.5 5.66667 14.2733 5.66667 14V13.8213C5.72333 13.824 5.77467 13.8333 5.83333 13.8333H11.1667C11.2253 13.8333 11.2767 13.8233 11.3333 13.8213V14C11.3333 14.2733 11.56 14.5 11.8333 14.5C12.1067 14.5 12.3333 14.2733 12.3333 14V13.6247C13.198 13.278 13.6667 12.4987 13.6667 11.3333V4C13.6667 2.38667 12.78 1.5 11.1667 1.5ZM6.51333 12C6.14666 12 5.84666 11.7 5.84666 11.3333C5.84666 10.9667 6.14001 10.6667 6.50667 10.6667H6.51333C6.87999 10.6667 7.17999 10.9667 7.17999 11.3333C7.17999 11.7 6.87999 12 6.51333 12ZM10.5133 12C10.1467 12 9.84666 11.7 9.84666 11.3333C9.84666 10.9667 10.14 10.6667 10.5067 10.6667H10.5133C10.88 10.6667 11.18 10.9667 11.18 11.3333C11.18 11.7 10.88 12 10.5133 12ZM4.33333 8.83333V4C4.33333 2.94667 4.78 2.5 5.83333 2.5H11.1667C12.22 2.5 12.6667 2.94667 12.6667 4V8.83333H4.33333ZM9.66667 4C9.66667 4.276 9.44267 4.5 9.16667 4.5H7.83333C7.55733 4.5 7.33333 4.276 7.33333 4C7.33333 3.724 7.55733 3.5 7.83333 3.5H9.16667C9.44267 3.5 9.66667 3.724 9.66667 4ZM15 6.66667V8.66667C15 8.94267 14.776 9.16667 14.5 9.16667C14.224 9.16667 14 8.94267 14 8.66667V6.66667C14 6.39067 14.224 6.16667 14.5 6.16667C14.776 6.16667 15 6.39067 15 6.66667ZM3 6.66667V8.66667C3 8.94267 2.776 9.16667 2.5 9.16667C2.224 9.16667 2 8.94267 2 8.66667V6.66667C2 6.39067 2.224 6.16667 2.5 6.16667C2.776 6.16667 3 6.39067 3 6.66667Z" fill="#777777"/>
</svg>
