<svg width="25" height="24" viewBox="0 0 25 24" fill="none" xmlns="http://www.w3.org/2000/svg">
<path d="M10.25 11V7C10.25 6.586 10.586 6.25 11 6.25C11.414 6.25 11.75 6.586 11.75 7V8.25H13.25V7C13.25 6.586 13.586 6.25 14 6.25C14.414 6.25 14.75 6.586 14.75 7V11C14.75 11.414 14.414 11.75 14 11.75C13.586 11.75 13.25 11.414 13.25 11V9.75H11.75V11C11.75 11.414 11.414 11.75 11 11.75C10.586 11.75 10.25 11.414 10.25 11ZM23.25 21C23.25 21.414 22.914 21.75 22.5 21.75H2.5C2.086 21.75 1.75 21.414 1.75 21C1.75 20.586 2.086 20.25 2.5 20.25H2.75V11C2.75 9.252 3.752 8.25 5.5 8.25H5.75V6C5.75 3.582 7.082 2.25 9.5 2.25H15.5C17.918 2.25 19.25 3.582 19.25 6V8.25H19.5C21.248 8.25 22.25 9.252 22.25 11V20.25H22.5C22.914 20.25 23.25 20.586 23.25 21ZM7.25 20.25H9.75V17C9.75 15.483 10.983 14.25 12.5 14.25C14.017 14.25 15.25 15.483 15.25 17V20.25H17.75V6C17.75 4.423 17.077 3.75 15.5 3.75H9.5C7.923 3.75 7.25 4.423 7.25 6V20.25ZM13.75 17C13.75 16.311 13.189 15.75 12.5 15.75C11.811 15.75 11.25 16.311 11.25 17V20.25H13.75V17ZM4.25 20.25H5.75V9.75H5.5C4.589 9.75 4.25 10.089 4.25 11V20.25ZM20.75 20.25V11C20.75 10.089 20.411 9.75 19.5 9.75H19.25V20.25H20.75Z" fill="#777777"/>
</svg>
