<svg width="16" height="16" viewBox="0 0 16 16" fill="none" xmlns="http://www.w3.org/2000/svg">
<path d="M3.21 6.49268L2.65934 6.7679C2.25534 6.9699 2 7.38265 2 7.83398V13.4473C2 13.9473 2.52001 14.2674 2.96667 14.0474L4.99001 13.0293C5.05734 12.9953 5.1 12.9259 5.1 12.8506V9.58936C5.1 9.53669 5.07935 9.48735 5.04201 9.45068C4.29468 8.71202 3.66468 7.79262 3.49268 6.64795C3.47268 6.51128 3.33267 6.43134 3.21 6.49268ZM8.54734 11.2806L7.994 11.654L7.44067 11.2806C7.44067 11.2806 6.854 10.8946 6.414 10.5866C6.282 10.4939 6.10067 10.59 6.10067 10.7513V12.7754C6.10067 12.8587 6.15267 12.9334 6.23067 12.9627L9.63068 14.2393C9.76134 14.2879 9.90068 14.1913 9.90068 14.0519V10.7399C9.90068 10.5786 9.72001 10.4834 9.58801 10.5747C9.14268 10.884 8.54734 11.2806 8.54734 11.2806ZM13.034 5.7806L12.6667 5.96403C12.5513 6.0127 12.552 6.13538 12.5493 6.19271C12.4893 7.54538 11.7967 8.60734 10.958 9.44401C10.9213 9.48068 10.9 9.53002 10.9 9.58268V13.9567C10.9 14.1054 11.0567 14.2019 11.19 14.1353L13.34 13.0547C13.7467 12.848 14 12.4346 14 11.9813V6.37467C14.0007 5.78067 13.4807 5.5606 13.034 5.7806ZM7.994 2.44727C6.034 2.44727 4.44067 4.03398 4.44067 6.00065C4.44067 8.22065 6.66067 9.55393 7.994 10.4473C9.32733 9.55393 11.554 8.22065 11.554 6.00065C11.554 4.03398 9.96067 2.44727 7.994 2.44727ZM7.994 7.11393C7.38066 7.11393 6.88733 6.61398 6.88733 6.00065C6.88733 5.38732 7.38066 4.88737 7.994 4.88737C8.60733 4.88737 9.10734 5.38732 9.10734 6.00065C9.10734 6.61398 8.60733 7.11393 7.994 7.11393Z" fill="#777777"/>
</svg>
