<svg width="16" height="16" viewBox="0 0 16 16" fill="none" xmlns="http://www.w3.org/2000/svg">
<path d="M14.6654 13.5H14.332V7.33333C14.332 6.52133 13.9574 6.07861 13.2134 6.00928C13.0987 5.99861 12.9987 6.09674 12.9987 6.21208V13.5H11.9987V4C11.9987 2.66667 11.332 2 9.9987 2H5.9987C4.66536 2 3.9987 2.66667 3.9987 4V13.5H2.9987V6.21208C2.9987 6.09674 2.89868 5.99861 2.78402 6.00928C2.04002 6.07861 1.66536 6.52133 1.66536 7.33333V13.5H1.33203C1.05603 13.5 0.832031 13.724 0.832031 14C0.832031 14.276 1.05603 14.5 1.33203 14.5H14.6654C14.9414 14.5 15.1654 14.276 15.1654 14C15.1654 13.724 14.9414 13.5 14.6654 13.5ZM6.4987 4.66667C6.4987 4.39067 6.7227 4.16667 6.9987 4.16667C7.2747 4.16667 7.4987 4.39067 7.4987 4.66667V5.5H8.4987V4.66667C8.4987 4.39067 8.7227 4.16667 8.9987 4.16667C9.2747 4.16667 9.4987 4.39067 9.4987 4.66667V7.33333C9.4987 7.60933 9.2747 7.83333 8.9987 7.83333C8.7227 7.83333 8.4987 7.60933 8.4987 7.33333V6.5H7.4987V7.33333C7.4987 7.60933 7.2747 7.83333 6.9987 7.83333C6.7227 7.83333 6.4987 7.60933 6.4987 7.33333V4.66667ZM6.66536 11.3333C6.66536 10.5973 7.2627 10 7.9987 10C8.7347 10 9.33203 10.5973 9.33203 11.3333V13.5H6.66536V11.3333Z" fill="#777777"/>
</svg>
