<svg width="155" height="40" viewBox="0 0 155 40" fill="none" xmlns="http://www.w3.org/2000/svg">
<path d="M19.9872 38.985C19.9055 38.8154 19.8468 38.7003 19.7945 38.583C19.281 37.471 18.6593 36.4122 17.9386 35.4217C17.5825 34.9172 17.2054 34.4273 16.8284 33.9395C16.0816 32.9656 15.4882 31.8833 15.0689 30.7301C14.7922 30.0001 14.6003 29.2407 14.497 28.4669C14.4331 28.0599 14.4078 27.6477 14.4216 27.2359C14.4554 26.2579 14.738 25.3047 15.2427 24.4661C15.5349 24.0083 15.9058 23.6057 16.3382 23.277C16.7164 22.9888 17.1295 22.7496 17.5678 22.5652C17.5979 22.5546 17.6287 22.5462 17.66 22.54C17.7186 22.6008 17.66 22.6426 17.639 22.6845C17.4794 22.9442 17.3601 23.2265 17.285 23.5219C17.1929 23.9267 17.237 24.3507 17.4107 24.7278C17.5438 25.0262 17.7329 25.2963 17.9679 25.5234C18.5691 26.1012 19.1786 26.6706 19.7861 27.2422C19.8112 27.2659 19.8363 27.2869 19.8615 27.305C19.8783 27.3231 19.8988 27.3376 19.9215 27.3475C19.9442 27.3574 19.9687 27.3625 19.9934 27.3625C20.0182 27.3625 20.0427 27.3574 20.0654 27.3475C20.0881 27.3376 20.1085 27.3231 20.1254 27.305C20.1986 27.2536 20.2686 27.1976 20.3349 27.1375C20.9067 26.5911 21.4807 26.0468 22.0504 25.4982C22.3019 25.2406 22.4929 24.9302 22.6097 24.5896C22.7714 24.1827 22.7788 23.7308 22.6306 23.3188C22.5636 23.1241 22.4714 22.9399 22.3897 22.7515C22.3625 22.6929 22.329 22.6384 22.2787 22.5421C22.3289 22.5425 22.3788 22.5488 22.4275 22.561C23.6298 23.0969 24.5619 23.9134 25.0961 25.1402C25.3189 25.6586 25.4534 26.2105 25.4941 26.7732C25.4941 26.8926 25.5171 27.0098 25.5255 27.1291C25.5412 27.28 25.5475 27.4318 25.5443 27.5834C25.5037 28.4275 25.3631 29.2638 25.1254 30.0748C24.7021 31.4673 24.0324 32.7727 23.148 33.929C22.5552 34.6911 21.9771 35.4615 21.4555 36.2738C20.9318 37.0829 20.4771 37.9344 20.0961 38.8196C20.0709 38.8573 20.0437 38.895 19.9872 38.985Z" fill="#B88D2E"/>
<path d="M21.8109 13.2747C21.8884 13.0465 21.9638 12.856 22.0204 12.6466C22.0769 12.4475 22.0874 12.2381 22.0511 12.0343C22.0148 11.8304 21.9327 11.6375 21.8109 11.4701C21.6905 11.2881 21.5499 11.1203 21.392 10.9697C21.0736 10.6326 20.7238 10.2914 20.3593 9.95641L20.2651 9.86848C20.0263 9.65912 19.9802 9.64447 19.7477 9.85173C19.4502 10.1197 19.1633 10.4002 18.8742 10.6766C18.7346 10.8162 18.5949 10.9522 18.4553 11.0848C18.2456 11.2902 18.0833 11.5389 17.9798 11.8134C17.8546 12.141 17.8622 12.5045 18.0007 12.8267C18.0573 12.967 18.118 13.103 18.1767 13.2454C18.118 13.3124 18.0678 13.2705 18.0238 13.2454C17.2543 12.9067 16.6233 12.3159 16.2349 11.5705C16.0064 11.1134 15.8718 10.6151 15.839 10.1051C15.7665 8.88848 16.0014 7.67322 16.5219 6.57111C16.8538 5.83959 17.2761 5.15245 17.7787 4.5257C18.4276 3.71005 19.0051 2.8401 19.5047 1.92549C19.5927 1.76429 19.6702 1.5968 19.7498 1.43141C19.8294 1.26602 19.888 1.1404 19.9592 1.0127C20.0535 1.0127 20.064 1.07132 20.0828 1.11737C20.6457 2.32229 21.3533 3.45418 22.1901 4.48801C22.5412 4.92807 22.8551 5.39655 23.1285 5.88861C23.5212 6.60085 23.8137 7.36382 23.9978 8.15594C24.0694 8.48352 24.117 8.81588 24.1402 9.15038C24.1612 9.44241 24.1612 9.73556 24.1402 10.0276C24.048 11.5705 23.2667 12.6362 21.8717 13.2726C21.8516 13.2763 21.8312 13.277 21.8109 13.2747Z" fill="#B88D2E"/>
<path d="M26.5602 22.5208C26.6314 22.6401 26.6837 22.7301 26.7382 22.8244C26.9811 23.227 27.3647 23.5253 27.8149 23.6618C28.1747 23.7886 28.5595 23.8281 28.9376 23.7769C29.698 23.6702 30.4479 23.5027 31.1957 23.3247C31.2767 23.3019 31.3564 23.2747 31.4345 23.2431C31.4739 23.1247 31.4783 22.9975 31.447 22.8767C31.3701 22.4068 31.2573 21.9435 31.1098 21.4908C30.9963 21.1758 30.8561 20.8712 30.6909 20.5801C30.5624 20.3535 30.4007 20.1475 30.2112 19.9687C29.8488 19.6191 29.3679 19.4187 28.8643 19.4077H28.6737C28.724 19.3616 28.7407 19.3344 28.7658 19.3218C28.9113 19.2506 29.061 19.1884 29.2141 19.1355C29.774 18.9619 30.3639 18.9063 30.9464 18.9722C32.1596 19.123 33.2999 19.6335 34.2204 20.4377C35.1478 21.2398 35.9233 22.2021 36.5099 23.2787C36.8874 23.949 37.1955 24.6561 37.4294 25.389C37.6364 26.0275 37.7816 26.6844 37.863 27.3506C37.8861 27.5328 37.9112 27.7149 37.9175 27.8992C37.9238 28.0834 37.8735 28.1085 37.708 28.1211C37.5425 28.1336 37.4043 28.1211 37.2514 28.1211C37.0147 28.1211 36.778 28.0855 36.5392 28.0834C35.8789 28.074 35.2196 28.03 34.5639 27.9515C33.9355 27.874 33.3071 27.8133 32.6955 27.7149C31.9704 27.589 31.2545 27.4148 30.5526 27.1936C29.9621 27.0131 29.3899 26.7775 28.8434 26.4902C28.0527 26.0751 27.3982 25.4414 26.9581 24.6646C26.6024 24.0382 26.4488 23.3173 26.5183 22.6003C26.5162 22.5815 26.5329 22.5669 26.5602 22.5208Z" fill="#B88D2E"/>
<path d="M11.2987 19.386C11.0892 19.4153 10.9112 19.43 10.7352 19.4655C10.2533 19.5712 9.82614 19.8479 9.53287 20.2444C9.31026 20.5264 9.12899 20.8387 8.99454 21.1718C8.7793 21.7272 8.62138 22.3031 8.52324 22.8906C8.46459 23.2277 8.48554 23.2716 8.81231 23.3407C9.5224 23.4894 10.2325 23.638 10.9468 23.7594C11.4454 23.8469 11.9589 23.7736 12.413 23.5501C12.8433 23.3572 13.1846 23.0086 13.3682 22.5745C13.3829 22.5452 13.3954 22.5159 13.4122 22.4887C13.429 22.4614 13.4311 22.4887 13.452 22.474C13.5568 23.0066 13.5007 23.5583 13.2907 24.0588C12.8976 25.149 12.092 26.0414 11.0473 26.5439C10.121 26.9943 9.14327 27.3303 8.13573 27.5446C7.47037 27.6961 6.79688 27.8093 6.11856 27.8838C5.52577 27.9529 4.93297 28.0094 4.34018 28.0596C4.07206 28.0827 3.79976 28.0596 3.52745 28.0806C3.25514 28.1015 2.98702 28.1141 2.71681 28.1266C2.58694 28.1266 2.45707 28.1266 2.3272 28.1266C2.0926 28.1266 2.07375 28.0952 2.08422 27.8607C2.16082 26.6471 2.45527 25.4572 2.95351 24.3477C3.36333 23.3779 3.91154 22.4724 4.58107 21.6596C5.09793 21.0022 5.71418 20.4294 6.40762 19.9617C7.0948 19.5044 7.86582 19.1878 8.67615 19.0301C9.42397 18.8761 10.1999 18.9327 10.9175 19.1934C11.053 19.2391 11.1814 19.304 11.2987 19.386Z" fill="#B88D2E"/>
<path d="M14.1946 18.0405C14.0348 18.1577 13.8553 18.2456 13.6647 18.3001C13.3649 18.3933 13.0545 18.4482 12.7409 18.4634C11.4108 18.5471 10.2504 18.0949 9.18 17.3685C8.49219 16.8739 7.88461 16.2766 7.37858 15.5973C6.32852 14.2645 5.58671 12.7159 5.20641 11.0626C5.101 10.5872 5.02683 10.1053 4.98438 9.62018V9.58668C4.98438 9.35849 5.00532 9.31871 5.23992 9.3208C5.82473 9.2995 6.41029 9.31488 6.99317 9.36686C7.01476 9.36893 7.0365 9.36893 7.0581 9.36686C7.7714 9.38989 8.48273 9.45491 9.18838 9.56156C9.92982 9.65446 10.6655 9.78865 11.392 9.96353C12.2685 10.1678 13.1194 10.4698 13.9286 10.8638C14.7123 11.2461 15.3733 11.8401 15.8369 12.5784C16.2799 13.2557 16.4705 14.0672 16.3752 14.8708C16.3752 14.8708 16.3752 14.8876 16.3543 14.9002C16.2684 14.8813 16.2621 14.7955 16.2307 14.7348C16.0922 14.4583 15.8894 14.219 15.6394 14.0369C15.3894 13.8548 15.0995 13.7351 14.7937 13.688C14.4092 13.6157 14.0141 13.62 13.6312 13.7005C13.0153 13.8157 12.3995 13.9434 11.7837 14.0648C11.7313 14.0774 11.6769 14.0858 11.6266 14.1004C11.4402 14.159 11.3962 14.2177 11.4171 14.4082C11.5102 15.0954 11.697 15.7667 11.9722 16.4033C12.0844 16.6603 12.2249 16.904 12.3911 17.1298C12.5729 17.3966 12.8158 17.6162 13.0996 17.7702C13.3835 17.9243 13.7 18.0083 14.0229 18.0154C14.0806 18.0198 14.138 18.0282 14.1946 18.0405Z" fill="#B88D2E"/>
<path d="M25.7821 18.0516C25.8205 18.0354 25.8605 18.0234 25.9015 18.016C26.6787 18.016 27.2358 17.6266 27.6611 17.0174C27.9983 16.523 28.236 15.9676 28.3607 15.3823C28.434 15.0557 28.4968 14.727 28.5576 14.3962C28.589 14.2225 28.5576 14.1597 28.3774 14.1094C28.1973 14.0592 27.9794 14.0047 27.7784 13.9671C27.1919 13.8582 26.6074 13.7451 26.0188 13.6551C25.5319 13.5873 25.0359 13.6691 24.5966 13.8896C24.2539 14.06 23.9722 14.332 23.7901 14.6684C23.7587 14.7249 23.7252 14.7794 23.6896 14.8338C23.6896 14.8338 23.6707 14.8338 23.6581 14.8463C23.5723 14.8045 23.5911 14.7186 23.589 14.6496C23.5662 14.106 23.6709 13.5647 23.8948 13.0689C24.3234 12.144 25.0519 11.3908 25.9623 10.9314C26.9688 10.4222 28.042 10.0571 29.1504 9.84691C29.8709 9.69827 30.5978 9.57894 31.3309 9.49938C31.8693 9.43867 32.4076 9.40727 32.948 9.36539C33.5219 9.31934 34.0959 9.32352 34.6698 9.31934C35.0008 9.31934 35.0259 9.33608 35.0008 9.67315C34.9732 10.0075 34.9277 10.3402 34.8646 10.6697C34.5343 12.4346 33.789 14.0957 32.6904 15.5163C32.2733 16.0709 31.7963 16.5778 31.2681 17.0278C30.4353 17.7476 29.421 18.2255 28.3355 18.4096C27.6291 18.5495 26.8979 18.4953 26.2199 18.2526C26.1382 18.2212 26.0586 18.1877 25.979 18.1521C25.9183 18.1312 25.8743 18.1018 25.7821 18.0516Z" fill="#B88D2E"/>
<path d="M23.7886 16.7946C23.6671 16.7444 23.6315 16.6229 23.5791 16.5245C23.187 15.8789 22.6004 15.3739 21.9034 15.0821C21.5644 14.9341 21.1987 14.8572 20.8288 14.856C20.4831 14.8364 20.1364 14.8589 19.7961 14.923C19.3351 15.0297 18.9014 15.2316 18.523 15.5157C18.1446 15.7998 17.8298 16.1598 17.5988 16.5727C17.5129 16.7213 17.4459 16.8825 17.3684 17.0375C17.348 17.072 17.3249 17.1049 17.2993 17.1359C17.1631 17.05 17.2134 16.8469 17.0291 16.7967C16.9894 16.8402 16.9595 16.8916 16.941 16.9476C16.9226 17.0035 16.9162 17.0626 16.9222 17.1212C16.9151 17.4401 16.9803 17.7565 17.1131 18.0466C17.2459 18.3367 17.4428 18.5929 17.6889 18.796C17.9529 19.0056 18.2608 19.153 18.5896 19.2273C19.1387 19.3649 19.7121 19.3742 20.2653 19.2545C20.3826 19.175 19.7826 19.1023 19.9301 18.9924C19.9925 18.9345 20.3565 19.1358 20.324 18.9222C20.324 18.8719 20.2968 18.6872 20.2863 18.6244C20.2861 18.6088 20.2894 18.5934 20.2959 18.5793C20.3024 18.5652 20.312 18.5527 20.324 18.5427C20.3382 18.5366 20.3535 18.5334 20.369 18.5334C20.3845 18.5334 20.3999 18.5366 20.4141 18.5427C20.4679 18.5781 20.5197 18.6165 20.5691 18.6579C20.6298 18.706 20.6843 18.7563 20.7471 18.8002C20.7984 18.8406 20.8602 18.8654 20.9252 18.8717C20.9902 18.878 21.0556 18.8655 21.1137 18.8358C21.4761 18.6621 21.8384 18.4946 22.2008 18.3229C22.2204 18.313 22.2393 18.3018 22.2574 18.2894C22.2718 18.2817 22.2841 18.2704 22.2929 18.2566C22.3018 18.2428 22.307 18.227 22.308 18.2107C22.3091 18.1943 22.306 18.178 22.2989 18.1632C22.2919 18.1484 22.2812 18.1356 22.2678 18.1261C22.1956 18.0794 22.1192 18.0394 22.0395 18.0068C21.8091 17.9105 21.5499 17.8234 21.3116 17.743C21.2487 17.7218 21.0638 17.6717 21.0279 17.6411C21.2548 17.5977 21.432 17.6181 21.5158 17.6411C21.5996 17.6641 21.7551 17.6906 21.8619 17.7179C21.9568 17.7443 22.0366 17.7605 22.1254 17.7179C22.2218 17.6739 22.3568 17.5734 22.4406 17.542C22.5244 17.5106 22.5663 17.5809 22.5768 17.5977C22.6375 17.6961 22.5632 17.877 22.6931 17.9188C22.8465 17.9754 23.0151 17.9754 23.1686 17.9188C23.4094 17.8204 23.6524 17.7262 23.8933 17.6299C23.9624 17.6027 24.0337 17.5734 24.1028 17.542C24.3713 17.4322 24.7338 17.4097 25.0022 17.5196C25.0571 17.542 25.0311 17.6128 24.988 17.6642C24.7932 17.8171 24.4421 18.011 24.2389 18.1554C24.1782 18.1994 24.1049 18.2266 24.042 18.2685C24.0019 18.2859 23.9661 18.3119 23.9372 18.3447C23.9083 18.3775 23.887 18.4163 23.8748 18.4583C23.8392 18.5805 24.0224 18.8014 24.042 18.9258C24.0496 18.9737 24.0472 19.0227 24.0351 19.0696C24.0269 19.0954 24.0089 19.1168 23.985 19.1294C23.961 19.1419 23.9331 19.1445 23.9073 19.1366C23.8297 19.0982 23.7047 18.9932 23.6316 18.9466C23.5688 18.9068 23.4828 18.8379 23.4199 18.796C23.3584 18.7506 23.2866 18.7213 23.2108 18.7107C23.1351 18.7 23.0579 18.7085 22.9863 18.7353C22.9256 18.7584 22.8627 18.7751 22.802 18.8002C22.3255 18.9797 21.8351 19.1197 21.3357 19.2189C21.2508 19.233 21.1668 19.2526 21.0844 19.2776C20.9995 19.3168 21.0988 19.5306 20.94 19.5537C20.7159 19.4901 20.8237 19.3367 20.3051 19.4241C19.521 19.6469 18.6962 19.687 17.8942 19.5414C17.5511 19.4808 17.2244 19.3496 16.9348 19.1561C16.7001 19.0173 16.5056 18.8198 16.3704 18.583C16.2353 18.3462 16.1641 18.0784 16.164 17.8058C16.1568 17.5072 16.1701 17.2086 16.2038 16.9118C16.303 16.32 16.5765 15.7712 16.9893 15.3354C17.5461 14.6738 18.3126 14.2225 19.1615 14.0562C19.9837 13.8789 20.8411 13.9697 21.6079 14.3152C22.3747 14.6607 23.0105 15.2428 23.422 15.976C23.5226 16.154 23.5938 16.3487 23.6776 16.5371C23.7174 16.625 23.753 16.7171 23.7907 16.8072L23.7886 16.7946Z" fill="#B88D2E"/>
<path d="M16.9961 20.3974C17.0485 20.4121 17.0904 20.4163 17.1281 20.4309C17.3803 20.5309 17.6509 20.5759 17.9219 20.5628C18.2605 20.5355 18.5975 20.6314 18.8708 20.8329C18.8978 20.8489 18.9266 20.8616 18.9567 20.8706C19.2751 20.7408 19.2751 20.7408 19.5181 20.9187C19.5432 20.8078 19.5642 20.7094 19.5893 20.6026C19.6144 20.4682 19.6844 20.3463 19.788 20.2569C19.8915 20.1675 20.0223 20.1159 20.159 20.1106C20.2879 20.0986 20.4177 20.1057 20.5445 20.1316C20.6995 20.1651 20.8293 20.2446 20.8147 20.4414C20.8147 20.4979 20.8398 20.5461 20.9257 20.5524C20.9497 20.5224 20.9708 20.4901 20.9885 20.4561C21.0237 20.3519 21.0963 20.2644 21.1922 20.2106C21.2882 20.1569 21.4007 20.1406 21.508 20.1651C21.5834 20.1693 21.6589 20.1693 21.7342 20.1651C21.7446 20.1636 21.7544 20.1596 21.7628 20.1534C21.7713 20.1472 21.778 20.1389 21.7824 20.1295C21.7824 20.1022 21.7824 20.0562 21.7699 20.0436C21.6965 19.985 21.6148 19.9348 21.5248 19.872C21.5657 19.7533 21.631 19.6445 21.7165 19.5526C21.802 19.4606 21.9058 19.3876 22.0212 19.3381C22.4737 19.1287 23.2026 19.3381 23.4267 19.7024C22.9869 20.7492 21.7321 21.6892 20.2847 21.7959C19.4566 21.8598 18.6294 21.6621 17.9198 21.2307C17.5469 21.0347 17.2293 20.7482 16.9961 20.3974Z" fill="#B88D2E"/>
<path d="M49.35 26C49.116 26 48.954 25.91 48.954 25.748V25.694C48.954 25.298 49.638 25.208 49.638 24.506V14.714C49.638 13.994 48.954 13.922 48.954 13.526V13.472C48.954 13.31 49.098 13.22 49.314 13.22H57.18C57.504 13.22 57.63 13.382 57.684 13.688L58.116 15.632C58.17 15.902 58.026 16.046 57.81 16.046H57.738C57.018 16.046 56.496 14.138 55.452 14.138H52.446C52.086 14.138 51.834 14.318 51.834 14.804V19.556H54.66C55.344 19.556 55.524 18.368 55.938 18.368H56.064C56.226 18.368 56.334 18.494 56.334 18.71V21.266C56.334 21.464 56.226 21.608 56.064 21.608H55.938C55.524 21.608 55.344 20.474 54.66 20.474H51.834V24.506C51.834 25.208 52.572 25.298 52.572 25.694V25.748C52.572 25.91 52.41 26 52.176 26H49.35ZM59.7387 26C59.5047 26 59.3427 25.91 59.3427 25.748V25.694C59.3427 25.298 60.0267 25.208 60.0267 24.506V14.714C60.0267 14.012 59.3427 13.922 59.3427 13.526V13.472C59.3427 13.31 59.5047 13.22 59.7387 13.22H63.6987C68.1447 13.22 71.2767 15.956 71.2767 19.556C71.2767 23.534 68.4147 26 64.5087 26H59.7387ZM63.2487 25.082H64.3827C67.0647 25.082 69.0447 23.3 69.0447 20.366C69.0447 16.784 66.5427 14.138 63.2847 14.138H62.7807C62.4387 14.138 62.1687 14.318 62.1687 14.804V23.804C62.1687 24.614 62.5827 25.082 63.2487 25.082ZM73.2387 26C73.0047 26 72.8607 25.892 72.8607 25.748V25.694C72.8607 25.298 73.5267 25.208 73.5267 24.506V14.714C73.5267 13.994 72.8607 13.94 72.8607 13.526V13.472C72.8607 13.31 73.0047 13.22 73.2387 13.22H76.0647C76.2987 13.22 76.4607 13.31 76.4607 13.472V13.526C76.4607 13.94 75.7227 13.994 75.7227 14.714V24.236C75.7227 24.704 75.9387 25.082 76.3887 25.082H79.6827C80.8887 25.082 81.1227 22.922 81.8247 22.922H82.0047C82.2027 22.922 82.3107 23.048 82.2567 23.282L81.8067 25.532C81.7347 25.838 81.6087 26 81.2847 26H73.2387ZM90.4247 26C90.1907 26 90.0467 25.91 90.0467 25.748V25.694C90.0467 25.298 90.7487 25.208 90.7487 24.506V14.192H88.7867C87.7787 14.192 87.6347 16.208 87.0047 16.208H86.7887C86.5727 16.208 86.4467 16.064 86.4827 15.794L86.8067 13.67C86.8427 13.364 86.9867 13.22 87.3107 13.22H96.3467C96.6707 13.22 96.8147 13.364 96.8687 13.67L97.2647 15.812C97.3187 16.064 97.1747 16.208 96.9587 16.208H96.7427C96.1127 16.208 95.8787 14.192 94.8707 14.192H92.9087V24.506C92.9087 25.208 93.6287 25.298 93.6287 25.694V25.748C93.6287 25.91 93.4847 26 93.2327 26H90.4247ZM108.175 24.506C108.697 25.28 109.381 25.298 109.381 25.694V25.748C109.381 25.91 109.237 26 109.003 26H105.871C105.637 26 105.493 25.91 105.493 25.748V25.694C105.493 25.298 106.303 25.244 105.871 24.506L103.585 21.086H103.423L101.281 21.122V24.506C101.281 25.208 102.019 25.298 102.019 25.694V25.748C102.019 25.91 101.857 26 101.623 26H98.7973C98.5633 26 98.4193 25.91 98.4193 25.748V25.694C98.4193 25.298 99.0853 25.208 99.0853 24.506V14.714C99.0853 14.012 98.4193 13.922 98.4193 13.526V13.472C98.4193 13.31 98.5633 13.22 98.7973 13.22H102.865C106.015 13.22 108.283 14.498 108.301 17.216C108.301 18.71 107.383 20.096 105.619 20.726L108.175 24.506ZM103.171 20.186C104.863 20.186 106.069 19.25 106.069 17.486C106.069 15.254 104.431 14.138 102.721 14.138H101.821C101.461 14.138 101.281 14.426 101.281 14.858V19.16C101.281 19.916 101.587 20.186 102.163 20.186H103.171ZM120.83 24.506C121.154 25.262 121.748 25.298 121.748 25.694V25.748C121.748 25.91 121.604 26 121.37 26H118.166C117.932 26 117.788 25.91 117.788 25.748V25.694C117.788 25.298 118.724 25.208 118.454 24.506L117.752 22.724H112.316L111.65 24.506C111.38 25.208 112.316 25.298 112.316 25.694V25.748C112.316 25.91 112.172 26 111.92 26H109.886C109.652 26 109.508 25.91 109.508 25.748V25.694C109.508 25.298 110.12 25.28 110.426 24.506L114.206 14.804C114.44 14.21 113.612 13.868 113.612 13.526V13.472C113.612 13.328 113.72 13.22 113.918 13.22H115.34C115.826 13.22 116.114 13.418 116.312 13.904L120.83 24.506ZM112.676 21.752H117.374L114.962 15.596L112.676 21.752ZM132.613 13.22C132.847 13.22 132.991 13.31 132.991 13.472V13.526C132.991 13.904 132.415 13.904 132.073 14.714L127.591 25.388C127.393 25.838 127.141 26 126.727 26C126.349 26 126.133 25.82 125.953 25.424L121.039 14.732C120.679 13.94 120.139 13.922 120.139 13.526V13.472C120.139 13.31 120.301 13.22 120.535 13.22H123.829C124.063 13.22 124.225 13.31 124.225 13.472V13.526C124.225 13.922 123.235 14.03 123.523 14.732L127.285 23.624L130.831 14.714C131.101 14.012 130.075 13.904 130.075 13.526V13.472C130.075 13.31 130.201 13.22 130.453 13.22H132.613ZM134.34 26C134.106 26 133.944 25.91 133.944 25.748V25.694C133.944 25.298 134.628 25.226 134.628 24.488V14.732C134.628 13.994 133.944 13.904 133.944 13.526V13.472C133.944 13.31 134.088 13.22 134.304 13.22H142.134C142.458 13.22 142.584 13.364 142.638 13.67L143.07 15.614C143.124 15.884 142.998 16.028 142.782 16.028H142.692C141.972 16.028 141.468 14.12 140.424 14.12H137.4C137.04 14.12 136.788 14.318 136.788 14.822V19.016H139.56C140.334 19.016 140.406 17.828 140.82 17.828H140.928C141.09 17.828 141.198 17.954 141.198 18.17V20.726C141.198 20.924 141.09 21.068 140.928 21.068H140.82C140.406 21.068 140.334 19.934 139.56 19.934H136.788L136.77 24.146C136.77 24.614 137.004 25.1 137.58 25.1H140.982C142.044 25.1 142.404 23.12 143.178 23.12H143.304C143.502 23.12 143.61 23.318 143.574 23.534L143.16 25.532C143.088 25.838 142.962 26 142.638 26H134.34ZM145.274 26C145.04 26 144.896 25.892 144.896 25.748V25.694C144.896 25.298 145.562 25.208 145.562 24.506V14.714C145.562 13.994 144.896 13.94 144.896 13.526V13.472C144.896 13.31 145.04 13.22 145.274 13.22H148.1C148.334 13.22 148.496 13.31 148.496 13.472V13.526C148.496 13.94 147.758 13.994 147.758 14.714V24.236C147.758 24.704 147.974 25.082 148.424 25.082H151.718C152.924 25.082 153.158 22.922 153.86 22.922H154.04C154.238 22.922 154.346 23.048 154.292 23.282L153.842 25.532C153.77 25.838 153.644 26 153.32 26H145.274Z" fill="white"/>
</svg>
