<?xml version="1.0" standalone="no"?>
<!DOCTYPE svg PUBLIC "-//W3C//DTD SVG 1.1//EN" "http://www.w3.org/Graphics/SVG/1.1/DTD/svg11.dtd" >
<svg xmlns="http://www.w3.org/2000/svg" xmlns:xlink="http://www.w3.org/1999/xlink" version="1.1">
<metadata>
Created by FontForge 20201107 at Sat Nov 16 07:34:41 2024
 By 
Copyright (c) 2018 by Jorge Cisterna. All rights reserved.
</metadata>
<defs>
<font id="SVN-Recoleta-Light" horiz-adv-x="1228" >
  <font-face 
    font-family="SVN-Recoleta Light"
    font-weight="300"
    font-stretch="normal"
    units-per-em="2048"
    panose-1="0 0 4 0 0 0 0 0 0 0"
    ascent="1638"
    descent="-410"
    x-height="983"
    cap-height="1454"
    bbox="-1425 -589.333 2767 2267"
    underline-thickness="102"
    underline-position="-204"
    unicode-range="U+0020-FB02"
  />
<missing-glyph horiz-adv-x="1085" 
d="M102 1495h881v-1495h-881v1495zM236 1423l307 -587l307 587h-614zM498 748l-314 598v-1196zM590 748l311 -598v1196zM543 659l-307 -587h614z" />
    <glyph glyph-name="fi" unicode="fi" horiz-adv-x="1155" 
d="M610 1458q-113 2 -193.5 -80.5t-80.5 -218.5v-176h311q10 0 17.5 -6.5t7.5 -15.5v-19q0 -9 -7.5 -15.5t-17.5 -6.5h-311v-801q0 -23 14 -38.5t30 -21.5t30 -14.5t14 -19.5v-5q0 -8 -7.5 -14t-17.5 -6h-231q-12 0 -19.5 6t-7.5 14v5q0 11 12 19.5t27 14.5t27 21.5t12 38.5
v801h-182q-10 0 -17.5 6.5t-7.5 15.5v19q0 9 7.5 15.5t17.5 6.5h182v164q0 169 115 267.5t293 98.5q82 0 152.5 -25t112 -61.5t64.5 -73.5t23 -65q0 -25 -15 -40t-38 -15q-25 0 -45 16.5t-32.5 41.5t-32.5 54t-42.5 54t-65 42t-98.5 17zM995 119q0 -21 12 -35.5t26 -20.5
t26 -14t12 -18v-8q0 -9 -11.5 -16t-29.5 -7h-190q-18 0 -28.5 6.5t-10.5 16.5v8q0 10 11 18t24.5 14t24.5 20.5t11 35.5v686q0 25 -11 44t-23.5 28.5t-23.5 19t-11 16.5v7q0 10 24 22l113 55q28 11 41.5 4t13.5 -28v-854z" />
    <glyph glyph-name="fl" unicode="fl" horiz-adv-x="1155" 
d="M995 117q0 -22 12 -36.5t26 -20t26 -13t12 -18.5v-6q0 -9 -11.5 -16t-29.5 -7h-190q-18 0 -28.5 6.5t-10.5 16.5v6q0 11 11 18.5t24.5 13t24.5 20t11 36.5v1138q-13 14 -35.5 54t-42.5 68.5t-68 54t-116 26.5q-113 2 -193.5 -80.5t-80.5 -218.5v-176h311q10 0 17.5 -6.5
t7.5 -15.5v-19q0 -9 -7.5 -15.5t-17.5 -6.5h-311v-801q0 -23 14 -38.5t30 -21.5t30 -14.5t14 -19.5v-5q0 -8 -7.5 -14t-17.5 -6h-231q-12 0 -19.5 6t-7.5 14v5q0 11 12 19.5t27 14.5t27 21.5t12 38.5v801h-182q-10 0 -17.5 6.5t-7.5 15.5v19q0 9 7.5 15.5t17.5 6.5h182v164
q0 169 115 267.5t293 98.5q141 0 239 -67l72 39q28 13 42.5 4.5t14.5 -29.5v-1343z" />
    <glyph glyph-name=".notdef" horiz-adv-x="1085" 
d="M102 1495h881v-1495h-881v1495zM236 1423l307 -587l307 587h-614zM498 748l-314 598v-1196zM590 748l311 -598v1196zM543 659l-307 -587h614z" />
    <glyph glyph-name=".null" horiz-adv-x="0" 
 />
    <glyph glyph-name="nonmarkingreturn" horiz-adv-x="682" 
 />
    <glyph glyph-name="space" unicode=" " horiz-adv-x="479" 
 />
    <glyph glyph-name="exclam" unicode="!" horiz-adv-x="475" 
d="M205 340q-8 140 -15.5 369t-13.5 454t-8 269q0 36 36 52t72 2t35 -52q-3 -147 -18 -511t-27 -583q-2 -15 -16.5 -21t-29 -0.5t-15.5 21.5zM240 -23q-43 0 -72 27.5t-29 71.5q0 46 28.5 73t72.5 27t72 -27t28 -73q0 -44 -28.5 -71.5t-71.5 -27.5z" />
    <glyph glyph-name="quotedbl" unicode="&#x22;" horiz-adv-x="679" 
d="M141 944q-13 121 -30 475q0 33 21.5 52.5t49.5 19.5q30 0 50.5 -18t19.5 -52q-3 -86 -16.5 -249t-22.5 -228q-6 -29 -36 -29t-36 29zM463 944q-12 95 -31 475q-1 33 21 52.5t51 19.5q30 0 50 -17.5t19 -52.5q-3 -87 -16.5 -250.5t-21.5 -226.5q-6 -29 -36 -29t-36 29z
" />
    <glyph glyph-name="numbersign" unicode="#" horiz-adv-x="1390" 
d="M1305 983q24 0 24 -18v-35q0 -19 -24 -19h-281l-90 -344h293q24 0 24 -16v-39q0 -16 -24 -16h-312l-127 -482q-3 -14 -26 -14h-43q-21 0 -14 29l124 467h-411l-127 -482q-3 -14 -27 -14h-43q-25 0 -14 29l125 467h-242q-24 0 -24 16v39q0 16 24 16h260l92 344h-274
q-10 0 -17.5 5.5t-7.5 13.5v35q0 18 25 18h293l98 369q3 14 27 14h37q22 0 16 -29l-94 -354h413l99 369q6 14 26 14h37q23 0 17 -29l-95 -354h263zM848 567l92 344h-414l-90 -344h412z" />
    <glyph glyph-name="dollar" unicode="$" horiz-adv-x="1093" 
d="M1016 373q0 -141 -124.5 -253t-305.5 -122v-193q0 -22 -17 -22h-32q-19 0 -19 22v191q-109 5 -200.5 43.5t-143.5 89.5t-80 98.5t-28 79.5q0 66 59 66q23 0 44 -22t37.5 -55.5t43.5 -73.5t58.5 -75.5t86.5 -62t123 -31.5v635q-168 60 -237 101q-153 91 -172 250
q-3 25 -3 51q0 152 116.5 254t299.5 108v141q0 10 5.5 17.5t13.5 7.5h30q19 0 19 -25v-143q93 -6 171 -36t125 -71.5t73 -86.5t26 -85q0 -33 -16.5 -52t-46.5 -19q-22 0 -40 20t-30 50.5t-32.5 67t-46 69t-73 57.5t-110.5 31v-600q169 -59 239 -100q160 -94 183 -258
q4 -31 4 -64zM231 1122q0 -64 22 -113.5t65.5 -85t90 -58.5t113.5 -46v578q-127 -7 -209 -84.5t-82 -190.5zM586 53q124 10 214.5 96t90.5 193q0 55 -16.5 100.5t-43 77t-68 59.5t-82 46.5t-95.5 38.5v-611z" />
    <glyph glyph-name="percent" unicode="%" horiz-adv-x="1761" 
d="M408 696q-147 0 -247 114t-100 280q0 169 92 277t246 108q140 0 238 -115.5t98 -276.5q0 -170 -93 -278.5t-234 -108.5zM444 0q-13 0 -17.5 8.5t3.5 20.5l819 1411q11 14 27 14h43q12 0 16.5 -8.5t-2.5 -20.5l-815 -1411q-11 -14 -29 -14h-45zM418 750q96 0 153.5 83.5
t57.5 210.5q0 100 -30 185t-88 138.5t-132 53.5q-99 0 -158 -85t-59 -214q0 -154 71 -263t185 -109zM1372 -20q-147 0 -246.5 113.5t-99.5 279.5q0 169 92 277t246 108q140 0 238 -115t98 -276q0 -170 -93.5 -278.5t-234.5 -108.5zM1382 31q96 0 153.5 84.5t57.5 212.5
q0 100 -30 185t-88 138.5t-132 53.5q-99 0 -158 -85t-59 -214q0 -100 31 -185t90 -137.5t135 -52.5z" />
    <glyph glyph-name="ampersand" unicode="&#x26;" horiz-adv-x="1423" 
d="M1389 72q28 0 28 -21v-6q0 -22 -34 -43.5t-83 -21.5q-57 0 -106.5 29.5t-108.5 94.5l-59 66q-187 -190 -471 -190q-220 0 -348.5 101.5t-128.5 278.5q0 124 94 224t283 202q-98 107 -146.5 190.5t-48.5 182.5q0 139 94.5 227.5t247.5 88.5q141 0 230.5 -84t89.5 -213
q0 -63 -25.5 -122t-70.5 -107.5t-98.5 -87t-117.5 -70.5l434 -467q127 225 127 526q0 21 24 30.5t48.5 1t24.5 -31.5q0 -352 -166 -588l86 -92q51 -57 85.5 -77.5t67.5 -20.5h48zM592 1419q-93 0 -152 -67t-59 -170q0 -48 12 -91t40.5 -87t54 -76t73.5 -86q242 128 242 338
q0 105 -58.5 172t-152.5 67zM569 33q245 0 406 192l-475 512q-156 -88 -227.5 -180t-71.5 -207q0 -138 101.5 -227.5t266.5 -89.5z" />
    <glyph glyph-name="quotesingle" unicode="'" horiz-adv-x="358" 
d="M141 944q-13 121 -30 475q0 33 21.5 52.5t49.5 19.5q30 0 50.5 -18t19.5 -52q-3 -86 -16.5 -249t-22.5 -228q-6 -29 -36 -29t-36 29z" />
    <glyph glyph-name="parenleft" unicode="(" horiz-adv-x="503" 
d="M410 -186q-322 348 -322 876q0 526 324 877q26 26 44.5 9t-1.5 -46q-252 -337 -252 -840t252 -840q20 -30 1.5 -46t-46.5 10z" />
    <glyph glyph-name="parenright" unicode=")" horiz-adv-x="503" 
d="M94 -186q-27 -26 -46.5 -10t-0.5 46q256 342 256 840t-256 840q-19 30 -1 46.5t44 -9.5q328 -351 328 -877q0 -525 -324 -876z" />
    <glyph glyph-name="asterisk" unicode="*" horiz-adv-x="768" 
d="M283 866q-22 -44 -67 -30q-34 10 -45 42q-11 29 13 52l166 168l-223 47q-44 6 -50 42q-5 33 21.5 53.5t61.5 2.5l200 -98l-32 227q-7 33 9.5 53.5t47.5 20.5q31 2 47.5 -18.5t9.5 -55.5l-32 -227l198 98q43 23 69 -11q22 -29 8 -59q-11 -24 -42 -28l-223 -47l166 -170
q31 -31 6 -67q-23 -31 -58 -29q-31 2 -47 36l-102 201z" />
    <glyph glyph-name="plus" unicode="+" 
d="M588 137q-19 0 -19 25v336h-331q-22 0 -25 16l2 49q0 17 23 17h331v335q0 25 19 25h53q18 0 18 -25v-335l332 2q10 0 17.5 -5.5t7.5 -11.5v-51q0 -16 -25 -16h-332v-336q0 -25 -18 -25h-53z" />
    <glyph glyph-name="comma" unicode="," horiz-adv-x="385" 
d="M115 -266q-11 -7 -24 -1.5t-15.5 15.5t8.5 21q54 50 77.5 91t37.5 95q7 25 -17 25q-37 0 -61.5 28t-24.5 72t27 73t70 29q44 0 73 -32t29 -87q0 -92 -46.5 -178t-133.5 -151z" />
    <glyph glyph-name="hyphen" unicode="-" horiz-adv-x="935" 
d="M145 606q-22 0 -22 21v32q0 19 22 19h648q20 0 20 -19v-32q0 -21 -20 -21h-648z" />
    <glyph glyph-name="period" unicode="." horiz-adv-x="423" 
d="M213 -20q-44 0 -72 26t-28 70q0 46 28 74t72 28q42 0 71 -28t29 -74q0 -43 -29 -69.5t-71 -26.5z" />
    <glyph glyph-name="slash" unicode="/" horiz-adv-x="724" 
d="M84 -217q-28 0 -21 29l515 1808q3 16 26 16h41q24 0 17 -28l-508 -1805q-3 -20 -29 -20h-41z" />
    <glyph glyph-name="zero" unicode="0" horiz-adv-x="1327" 
d="M680 -20q-166 0 -297.5 90.5t-208 264.5t-76.5 404q0 346 150 541t416 195q160 0 289 -93.5t203.5 -264.5t74.5 -388q0 -175 -41 -317t-114 -236t-174 -145t-222 -51zM698 43q181 0 295.5 170t114.5 463q0 211 -60.5 378.5t-168 261t-242.5 93.5q-187 0 -302.5 -166.5
t-115.5 -456.5q0 -219 60.5 -388.5t169.5 -262t249 -92.5z" />
    <glyph glyph-name="one" unicode="1" horiz-adv-x="557" 
d="M172 0q-33 0 -33 20v3q0 11 13.5 19.5t30.5 14.5t30.5 24t13.5 44v1114q0 40 -19.5 56.5t-43 14t-43 1.5t-19.5 22v4q0 17 33 33l201 82q29 11 45 4t16 -26q0 -11 -8.5 -23t-18 -22t-18 -31.5t-8.5 -50.5v-1178q0 -34 23 -52t46 -28t23 -22v-3q0 -20 -33 -20h-231z" />
    <glyph glyph-name="two" unicode="2" horiz-adv-x="1128" 
d="M1042 274q14 0 22.5 -8t4.5 -24l-57 -201q-14 -41 -47 -41h-854q-15 0 -26 9t-11 24v14q0 73 33.5 146.5t88.5 135t125.5 127.5t143.5 124t143.5 123.5t125.5 127t88.5 133.5t33.5 144q0 136 -90 219.5t-209 83.5q-66 0 -118.5 -18.5t-85 -47.5t-57 -64.5t-40 -71
t-28.5 -64.5t-29 -47.5t-35 -18.5q-33 0 -51.5 17t-18.5 49q0 35 18 77t56 87t90.5 82t129 60.5t163.5 23.5q184 0 305 -100.5t121 -274.5q0 -69 -26 -136.5t-70 -124.5t-101 -112.5t-121 -106.5t-128.5 -101t-124.5 -101.5t-107.5 -102t-78.5 -108t-38 -115.5h682
q38 0 66 28.5t41.5 62.5t29 62.5t31.5 28.5h10z" />
    <glyph glyph-name="three" unicode="3" horiz-adv-x="1112" 
d="M524 844q220 -3 359 -120.5t139 -311.5q0 -188 -134 -310t-366 -122q-91 0 -168 17.5t-126 44.5t-83.5 59.5t-49.5 62t-15 53.5q0 32 16 50t45 18q21 0 39.5 -18t32 -45t38 -58t55.5 -58t87.5 -45t130.5 -18q169 0 272 97.5t103 252.5q0 181 -118.5 283t-297.5 102h-14
q-29 0 -37.5 22.5t6.5 39.5l426 510h-745q-33 0 -33 30v47q0 27 33 27h846q36 0 36 -31v-14q0 -25 -22 -49z" />
    <glyph glyph-name="four" unicode="4" horiz-adv-x="1128" 
d="M1057 414q26 0 26 -21v-24q0 -23 -26 -23h-183v-225q0 -26 13 -43t29 -23t29 -13.5t13 -18.5v-5q0 -18 -34 -18h-222q-32 0 -32 18v5q0 11 12.5 18.5t27.5 13.5t27.5 23t12.5 43v225h-691q-41 0 -41 33v8q0 26 15 47l688 975q16 24 30 34.5t35 10.5h58q13 0 21.5 -8.5
t8.5 -22.5v-1009h183zM104 414h646l2 919z" />
    <glyph glyph-name="five" unicode="5" horiz-adv-x="1126" 
d="M575 897q205 0 338.5 -123t133.5 -309q0 -213 -138 -349t-366 -136q-98 0 -179.5 17.5t-133.5 43.5t-88.5 59t-52 63t-15.5 56q0 32 18.5 49t46.5 17q18 0 32.5 -13t27.5 -34t29 -46.5t42 -51t60 -46.5t89 -34t124 -13q169 0 275 111.5t106 287.5q0 168 -100.5 276.5
t-274.5 108.5q-89 0 -162.5 -27t-167.5 -85q-25 -19 -52.5 -2t-23.5 49l95 670q0 18 22 18h723q21 0 21 -20v-58q0 -20 -21 -20h-676l-92 -568q151 109 360 109z" />
    <glyph glyph-name="six" unicode="6" horiz-adv-x="1198" 
d="M641 922q207 0 334 -136t127 -346q0 -197 -137 -328.5t-342 -131.5q-244 0 -384.5 198t-140.5 539q0 120 20.5 230t64 206.5t106.5 168t153.5 112.5t198.5 41q93 0 171.5 -25.5t128.5 -63.5t85.5 -83.5t50.5 -84t15 -67.5q0 -33 -17.5 -49.5t-44.5 -16.5q-28 0 -50 24
t-35.5 60t-37.5 78t-53.5 78.5t-86 61t-132.5 24.5q-102 0 -182.5 -57t-130 -154t-75.5 -218t-26 -257v-23q57 102 169 161t251 59zM625 43q161 0 258.5 106t97.5 277q0 119 -42.5 215.5t-130 156.5t-206.5 60q-75 0 -143 -28.5t-115.5 -75t-77 -106t-33.5 -120.5
q31 -228 133.5 -356.5t258.5 -128.5z" />
    <glyph glyph-name="seven" unicode="7" horiz-adv-x="1028" 
d="M979 1454q33 0 33 -29v-14q0 -11 -19 -59l-581 -1325q-10 -27 -37 -27h-66q-16 0 -22.5 11.5t0.5 23.5l635 1323h-703q-31 0 -56 -29.5t-37.5 -65t-29 -65t-33.5 -29.5h-14q-28 0 -20 35l43 209q10 41 47 41h860z" />
    <glyph glyph-name="eight" unicode="8" horiz-adv-x="1222" 
d="M762 766q67 -26 115 -49t100 -58t84 -74t53 -94t21 -120q0 -175 -141.5 -283t-362.5 -108q-249 0 -397 107.5t-148 266.5q0 276 395 408q-74 31 -125.5 61t-100 73t-73 100t-24.5 128q0 154 127.5 252.5t335.5 98.5q205 0 328.5 -100.5t123.5 -246.5q0 -242 -311 -362z
M274 1149q0 -37 8 -69t25.5 -59t36 -49t51 -43.5t57.5 -36t68 -33t70 -29.5t76 -29q37 15 72 32.5t78.5 49t75 67t53.5 86.5t22 107q0 112 -99 191t-254 79q-149 0 -244.5 -76t-95.5 -188zM641 43q165 0 271 85.5t106 215.5q0 62 -24.5 113.5t-59.5 86t-96 68.5t-109.5 54.5
t-125.5 49.5q-27 10 -40 15q-68 -22 -128.5 -55t-115.5 -79t-87.5 -109.5t-32.5 -135.5q0 -134 123.5 -221.5t318.5 -87.5z" />
    <glyph glyph-name="nine" unicode="9" horiz-adv-x="1193" 
d="M567 1475q165 0 285.5 -93.5t182 -259t61.5 -385.5q0 -168 -32 -304.5t-95.5 -238.5t-165.5 -158t-236 -56q-94 0 -172.5 24.5t-127.5 62t-83.5 82.5t-48.5 84t-14 70q0 30 17.5 47t45.5 17q21 0 36.5 -18t28 -46.5t27 -63t38 -69t55 -63t84 -46.5t120.5 -18
q107 0 186 52.5t125 148t67.5 216t21.5 269.5v39q-52 -106 -162 -166.5t-264 -60.5q-206 0 -332.5 135t-126.5 342q0 187 136.5 322t342.5 135zM586 606q160 0 263 93t109 233q-33 220 -135.5 349.5t-263.5 129.5q-155 0 -253.5 -108.5t-98.5 -274.5q0 -82 25.5 -157.5
t72 -134.5t119.5 -94.5t162 -35.5z" />
    <glyph glyph-name="colon" unicode=":" horiz-adv-x="444" 
d="M221 737q-43 0 -71.5 26.5t-28.5 70.5q0 46 28 73t72 27t72.5 -27t28.5 -73q0 -44 -28.5 -70.5t-72.5 -26.5zM221 -20q-44 0 -72 26t-28 70q0 46 28 74t72 28t72.5 -28t28.5 -74q0 -43 -28.5 -69.5t-72.5 -26.5z" />
    <glyph glyph-name="semicolon" unicode=";" horiz-adv-x="495" 
d="M254 737q-42 0 -71 27t-29 70q0 46 28.5 73t71.5 27q44 0 72 -27t28 -73q0 -44 -28.5 -70.5t-71.5 -26.5zM174 -266q-11 -7 -23.5 -1.5t-14.5 15.5t9 21q53 50 76 91t37 95q7 25 -14 25q-38 0 -63 28t-25 72q0 45 27 73.5t71 28.5q43 0 71.5 -32t28.5 -87
q0 -92 -46.5 -178t-133.5 -151z" />
    <glyph glyph-name="less" unicode="&#x3c;" 
d="M918 244q22 -13 22 -29v-59q0 -13 -9 -18.5t-24 1.5l-637 326q-30 17 -30 39v69q0 16 6.5 23t25.5 18l635 347q11 7 19 -0.5t8 -18.5v-63q0 -18 -23 -31l-594 -311z" />
    <glyph glyph-name="equal" unicode="=" 
d="M242 680q-25 0 -25 16v52q0 6 7.5 11t17.5 5h745q10 0 16.5 -5t6.5 -11v-52q0 -16 -23 -16h-745zM242 319q-25 0 -25 17v51q0 16 25 16h745q23 0 23 -16v-51q0 -17 -23 -17h-745z" />
    <glyph glyph-name="greater" unicode="&#x3e;" 
d="M954 614q14 -7 20 -11t10.5 -11.5t4.5 -18.5v-69q0 -24 -33 -41l-637 -324q-15 -7 -23.5 -1.5t-8.5 16.5v61q0 18 24 27l600 293l-587 313q-25 11 -25 29v65q0 11 8.5 18.5t20.5 0.5z" />
    <glyph glyph-name="question" unicode="?" horiz-adv-x="1005" 
d="M395 360q-4 74 17 138.5t58 112t82 91.5t91 87.5t84 88.5t62 105t24 129q0 136 -88.5 217.5t-210.5 81.5q-77 0 -135.5 -24.5t-90 -61.5t-56 -80t-37.5 -80t-31.5 -61.5t-40.5 -24.5q-31 0 -49.5 17t-18.5 49q0 34 18 76t56.5 87t90.5 82t128.5 61t161.5 24
q186 0 306 -96.5t120 -276.5q0 -73 -24.5 -136.5t-64 -111t-87.5 -91.5t-95.5 -87t-87 -88t-64 -103.5t-24.5 -124.5q0 -19 -22 -27.5t-45.5 -0.5t-26.5 28zM442 -23q-42 0 -70 26.5t-28 68.5q0 46 28 73t70 27q43 0 71 -27t28 -73q0 -42 -28.5 -68.5t-70.5 -26.5z" />
    <glyph glyph-name="at" unicode="@" horiz-adv-x="1849" 
d="M1030 1513q170 0 315.5 -55.5t244.5 -151t154.5 -223.5t55.5 -272q0 -111 -25.5 -210.5t-72.5 -176.5t-122.5 -122.5t-168.5 -45.5q-81 0 -145 44.5t-78 121.5q-58 -77 -149 -123.5t-203 -46.5q-152 0 -251.5 99t-99.5 251q0 142 61.5 258.5t176.5 185t262 68.5
q93 0 172.5 -36.5t122.5 -102.5l20 106q3 19 23 19h61q25 0 19 -25l-109 -565q-18 -87 25.5 -136.5t112.5 -49.5q82 0 147 68.5t99 177t34 233.5q0 134 -51 252t-141 204.5t-222 136.5t-286 50q-174 0 -332 -66.5t-270 -178t-178 -262.5t-66 -314q0 -139 48 -261t135.5 -213
t219 -143.5t289.5 -52.5q217 0 397 78q18 7 24.5 -2t0.5 -25l-8 -18q-1 -6 -5 -11t-6 -7t-10 -6l-10 -5q-172 -72 -397 -72q-173 0 -318.5 57.5t-242.5 157t-151 233.5t-54 286q0 178 69.5 340.5t192 284.5t302.5 194.5t388 72.5zM858 307q116 0 213.5 77t124.5 185h4l17 80
l28 146h-2q22 119 -53 191.5t-191 72.5q-109 0 -200 -66t-141.5 -172.5t-51.5 -226.5q0 -125 70 -206t182 -81z" />
    <glyph glyph-name="A" unicode="A" horiz-adv-x="1343" 
d="M1249 115q10 -22 26.5 -37.5t30.5 -21t24.5 -14t10.5 -19.5v-3q0 -20 -38 -20h-209q-39 0 -39 20v3q0 11 13.5 19.5t28 15t23 21t-1.5 36.5l-117 282h-704l-109 -282q-9 -22 -0.5 -36.5t23 -21t28 -15t13.5 -19.5v-3q0 -20 -39 -20h-160q-37 0 -37 20v3q0 11 10.5 19.5
t24.5 14t30 21t25 37.5l478 1218q10 24 -5.5 42t-36 32t-20.5 25v4q0 18 25 18h78q30 0 48 -13t32 -44zM322 465h651l-338 817z" />
    <glyph glyph-name="B" unicode="B" horiz-adv-x="1318" 
d="M811 780q210 -27 320 -128t110 -259q0 -129 -70 -219t-186.5 -132t-269.5 -42h-541q-37 0 -37 20v5q0 10 11 18.5t24 14.5t24 21t11 36v1222q0 22 -11 38t-24 22t-24 15t-11 20v2q0 20 37 20h397q238 0 383.5 -99.5t145.5 -258.5q0 -120 -77 -203.5t-212 -112.5z
M330 1331v-457q0 -32 18 -51.5t49 -19.5l242 2q155 1 251.5 75.5t96.5 188.5q0 150 -114 236t-304 84h-188q-51 0 -51 -58zM705 66q118 0 208.5 31t146.5 100t56 170q0 169 -131 271.5t-371 102.5h-284v-604q0 -33 18 -52t47 -19h310z" />
    <glyph glyph-name="C" unicode="C" horiz-adv-x="1400" 
d="M766 -20q-130 0 -254.5 60.5t-219 161.5t-152.5 243t-58 296q0 159 52 296.5t142 233t215 150t269 54.5q116 0 222.5 -41t175.5 -100.5t110 -123.5t41 -114q0 -28 -17.5 -45t-46.5 -17q-22 0 -41 16t-34 42.5t-35 60t-41 69t-55.5 69t-75.5 60t-103 42.5t-137 16
q-103 0 -197.5 -45t-166 -124t-114 -193t-42.5 -244q0 -153 49.5 -288t132.5 -227.5t192.5 -146t227.5 -53.5q94 0 175.5 34t138.5 91.5t96.5 120t66.5 133.5q9 19 27 24.5t30.5 -7t6.5 -38.5q-22 -90 -68.5 -170t-116.5 -148t-172.5 -108t-222.5 -40z" />
    <glyph glyph-name="D" unicode="D" horiz-adv-x="1499" 
d="M174 0q-39 0 -39 20v3q0 11 11.5 19.5t24.5 15t24.5 21.5t11.5 36v1222q0 22 -11.5 38t-24.5 22.5t-24.5 15.5t-11.5 19v2q0 20 39 20h447q121 0 236.5 -30.5t216 -91t176.5 -144t119.5 -197t43.5 -243.5q0 -173 -59 -316.5t-160.5 -236.5t-235 -144t-284.5 -51h-500z
M395 66h271q98 0 189 26t169.5 79.5t136.5 129t91.5 180.5t33.5 228q0 128 -40 239.5t-107.5 190.5t-156 136.5t-186 85.5t-196.5 28h-225q-45 0 -45 -56v-1188q0 -38 17.5 -58.5t47.5 -20.5z" />
    <glyph glyph-name="E" unicode="E" horiz-adv-x="1212" 
d="M172 0q-37 0 -37 20v3q0 11 11.5 19t24.5 14t24.5 22.5t11.5 40.5v1216q0 24 -11.5 41t-24.5 23.5t-24.5 15t-11.5 17.5v4q0 18 31 18h846q22 0 32 -9.5t15 -29.5l49 -184q4 -18 -1.5 -27.5t-16.5 -9.5h-9q-16 0 -36 31t-38 67.5t-47 67.5t-61 31h-524q-47 0 -47 -60
v-551h434q22 0 36.5 16.5t20 36t14 36t19.5 16.5h8q21 0 21 -29v-213q0 -14 -6 -23.5t-15 -9.5h-8q-11 0 -19.5 16.5t-14 36t-20 36t-36.5 16.5h-434l-2 -582q0 -30 17 -50t44 -20h576q32 0 61 31t45.5 68.5t36.5 68.5t37 31h8q11 0 16.5 -9.5t1.5 -25.5l-47 -186
q-13 -41 -47 -41h-903z" />
    <glyph glyph-name="F" unicode="F" horiz-adv-x="1128" 
d="M174 0q-39 0 -39 20v3q0 11 11.5 19.5t24.5 15t24.5 21.5t11.5 36v1222q0 23 -11.5 39t-24.5 22.5t-24.5 15t-11.5 18.5v2q0 20 33 20h827q37 0 47 -41l50 -184q4 -16 -2.5 -25.5t-18.5 -9.5h-6q-17 0 -37 30.5t-37.5 67t-46.5 67t-61 30.5h-504q-47 0 -47 -56l-2 -622
h434q21 0 36 16.5t21 36.5t15 36.5t20 16.5h8q21 0 21 -31v-211q0 -32 -21 -32h-8q-11 0 -20 16.5t-15 35.5t-21 35.5t-36 16.5h-432v-532q0 -21 11.5 -36t25.5 -21.5t25.5 -15t11.5 -19.5v-3q0 -20 -37 -20h-195z" />
    <glyph glyph-name="G" unicode="G" horiz-adv-x="1488" 
d="M782 -20q-132 0 -259 59.5t-223.5 158t-156 237t-59.5 286.5q0 164 53 305.5t145 239.5t218 153.5t268 55.5q99 0 189.5 -27t155 -69t113 -93t72 -100t23.5 -88q0 -29 -16.5 -46.5t-44.5 -17.5q-24 0 -44.5 20.5t-40 54t-42.5 73.5t-57.5 79.5t-78.5 73t-113.5 54
t-154.5 20.5q-105 0 -201 -48t-166.5 -130t-112.5 -198.5t-42 -246.5q0 -150 51.5 -284.5t136 -229t196 -149.5t228.5 -55q119 0 220.5 31t166.5 85v373q0 26 -23 42t-50.5 21t-50.5 11.5t-23 15.5v8q0 25 41 25l313 -2q37 0 37 -23v-8q0 -8 -20 -14.5t-43.5 -12t-43.5 -22
t-20 -43.5v-344q0 -26 -8.5 -42.5t-32.5 -37.5q-185 -151 -500 -151z" />
    <glyph glyph-name="H" unicode="H" horiz-adv-x="1552" 
d="M174 0q-37 0 -37 20v3q0 11 11 19.5t24 15t24 21.5t11 36v1224q0 21 -11 36.5t-24 22t-24 15.5t-11 19v2q0 20 37 20h193q39 0 39 -20v-2q0 -10 -11.5 -19t-25.5 -15.5t-25.5 -22t-11.5 -36.5l-2 -561h891l-2 561q0 21 -11 36.5t-24 22t-24 15.5t-11 19v2q0 20 37 20h194
q37 0 37 -20v-2q0 -10 -11.5 -19t-25.5 -15.5t-25.5 -22t-11.5 -36.5v-1224q0 -21 11.5 -36t25.5 -21.5t25.5 -15t11.5 -19.5v-3q0 -20 -37 -20h-194q-37 0 -37 20v3q0 11 11 19.5t24 15t24 21.5t11 36l2 596h-889l-2 -596q0 -21 12 -36t26 -21.5t26 -15t12 -19.5v-3
q0 -20 -39 -20h-193z" />
    <glyph glyph-name="I" unicode="I" horiz-adv-x="538" 
d="M137 18v5q0 10 11 18.5t24 14.5t24 21t11 36v1226q0 21 -11 36.5t-24 22t-24 15.5t-11 19v2q0 20 37 20h193q39 0 39 -20v-2q0 -10 -12 -19t-26 -15.5t-26 -22t-12 -36.5v-1226q0 -21 12 -36t26 -21t26 -14.5t12 -18.5v-5q0 -20 -39 -20h-193q-37 0 -37 20z" />
    <glyph glyph-name="J" unicode="J" horiz-adv-x="1019" 
d="M711 1339q0 21 -11.5 36.5t-24.5 22t-24.5 15.5t-11.5 19v2q0 20 39 20h192q39 0 39 -20v-2q0 -10 -11.5 -19t-25 -15.5t-25 -22t-11.5 -36.5l-5 -860q-1 -136 -32.5 -235.5t-88.5 -155.5t-128 -82t-158 -26q-81 0 -150 22t-114 56t-77 76.5t-46 83.5t-14 77
q0 30 16 47.5t45 17.5t48 -23.5t28.5 -58.5t28 -75.5t43.5 -75.5t79 -58.5t131 -23.5q114 0 191.5 101.5t77.5 293.5v899z" />
    <glyph glyph-name="K" unicode="K" horiz-adv-x="1361" 
d="M1288 119q18 -27 38.5 -44.5t33 -23t21 -12t8.5 -16.5v-3q0 -20 -33 -20h-219q-35 0 -35 20v3q0 12 21 25t32 24t-4 41l-485 727l-336 -330v-391q0 -22 12 -38t27 -22.5t27 -15.5t12 -20v-3q0 -20 -41 -20h-193q-37 0 -37 20v3q0 11 11 20t24 15.5t24 22.5t11 38v1220
q0 21 -11 36.5t-24 22t-24 15.5t-11 19v2q0 20 37 20h193q39 0 39 -20v-2q0 -10 -12 -19t-26 -15.5t-26 -22t-12 -36.5v-737l739 727q21 20 21.5 37t-11 26t-23.5 20t-12 20v2q0 20 39 20h172q41 0 41 -20v-2q0 -12 -19 -24.5t-53.5 -33t-58.5 -45.5l-417 -409z" />
    <glyph glyph-name="L" unicode="L" horiz-adv-x="1155" 
d="M174 0q-37 0 -37 20v3q0 11 11 19.5t24 15t24 22t11 37.5v1220q0 24 -11 40t-24 21.5t-24 14t-11 19.5v2q0 20 37 20h195q37 0 37 -20v-2q0 -11 -11.5 -19.5t-25.5 -14t-25.5 -21.5t-11.5 -40v-1212q0 -59 53 -59h537q28 0 51.5 20.5t39.5 50t30.5 59t30 50t32.5 20.5h12
q25 0 17 -30l-50 -195q-7 -21 -17 -31t-30 -10h-864z" />
    <glyph glyph-name="M" unicode="M" horiz-adv-x="1828" 
d="M1702 125q4 -25 18 -42.5t28 -24t25 -15.5t11 -20v-3q0 -20 -39 -20h-195q-39 0 -39 20v3q0 10 12 19.5t26.5 16t24 24t5.5 42.5l-201 1122l-446 -1208q-12 -39 -43 -39q-32 0 -47 37l-434 1233l-199 -1145q-4 -25 7.5 -42.5t28 -24t30.5 -16t14 -19.5v-3q0 -20 -41 -20
h-160q-41 0 -41 20v3q0 11 11 20t24.5 15.5t27.5 24t19 42.5l213 1208q4 21 -4.5 36.5t-21.5 22t-24 16.5t-11 22v2q0 22 28 22h90q55 0 70 -45l434 -1249l453 1251q15 43 63 43h99q26 0 26 -18v-4q0 -12 -12 -22.5t-26 -19.5t-23 -29.5t-4 -49.5z" />
    <glyph glyph-name="N" unicode="N" horiz-adv-x="1527" 
d="M1366 1454q39 0 39 -22v-2q0 -9 -12.5 -17.5t-27.5 -15t-27.5 -22.5t-12.5 -38v-1294q0 -43 -37 -43h-28q-23 0 -56 47l-919 1258v-1180q0 -24 13 -41.5t29 -24.5t29 -16t13 -20v-3q0 -20 -39 -20h-160q-39 0 -39 20v3q0 11 12 20t26 16t26 24.5t12 41.5v1210
q0 22 -12 37t-26 20.5t-26 13t-12 17.5v9q0 22 39 22h109q38 0 61 -33l907 -1251v1167q0 22 -13 38t-28 22.5t-28 15t-13 17.5v2q0 22 41 22h160z" />
    <glyph glyph-name="O" unicode="O" horiz-adv-x="1589" 
d="M815 -20q-156 0 -293.5 63t-232 167.5t-149 241t-54.5 281.5q0 155 53 292t145.5 236t225.5 156.5t287 57.5q201 0 363.5 -102t252.5 -274t90 -378q0 -194 -89 -364t-248.5 -273.5t-350.5 -103.5zM840 47q115 0 217.5 51.5t173 135.5t111 194t40.5 225q0 155 -46.5 293.5
t-127.5 240t-199 161t-253 59.5q-158 0 -283.5 -80.5t-194.5 -218.5t-69 -307q0 -146 47 -282.5t128.5 -241t201 -167.5t254.5 -63z" />
    <glyph glyph-name="P" unicode="P" horiz-adv-x="1208" 
d="M172 0q-39 0 -39 23v2q0 9 11.5 17.5t25.5 14.5t25.5 21.5t11.5 36.5v1222q0 20 -11.5 35.5t-25.5 22.5t-25.5 16.5t-11.5 18.5v4q0 20 39 20h340q103 0 195.5 -16t175 -52.5t142.5 -90.5t95 -134.5t35 -179.5q0 -234 -156.5 -354.5t-445.5 -120.5h-225v-391
q0 -21 11.5 -36.5t26 -21.5t26 -14.5t11.5 -17.5v-2q0 -23 -36 -23h-195zM393 569h160q221 0 348 98.5t127 282.5q0 112 -42 198.5t-115 138.5t-164 78t-195 26h-139q-45 0 -45 -58v-700q0 -31 17 -47.5t48 -16.5z" />
    <glyph glyph-name="Q" unicode="Q" horiz-adv-x="1589" 
d="M1513 -127q14 9 27.5 -2.5t-4.5 -30.5q-38 -55 -123 -87t-186 -32q-76 0 -151 26.5t-136.5 64t-121.5 75t-129 64t-136 26.5q-136 0 -266 -71q-29 -16 -41 8.5t10 42.5q112 80 242 96q-188 95 -300 281t-112 399q0 155 53 292t145.5 236t225.5 156.5t287 57.5
q201 0 363.5 -102t252.5 -274t90 -378q0 -144 -52.5 -279t-142 -236t-217.5 -163t-270 -63q25 -14 75.5 -45t82.5 -48.5t78 -38.5t93 -31t97 -10q177 0 266 66zM209 801q0 -146 47 -282.5t128.5 -241t201 -167.5t254.5 -63q115 0 217.5 51.5t173 135.5t111 194t40.5 225
q0 155 -46.5 293.5t-127.5 240t-199 161t-253 59.5q-158 0 -283.5 -80.5t-194.5 -218.5t-69 -307z" />
    <glyph glyph-name="R" unicode="R" horiz-adv-x="1290" 
d="M1147 115q17 -22 40 -37.5t39 -21.5t28 -14t12 -19v-3q0 -20 -37 -20h-213q-37 0 -37 20v3q0 10 12 19.5t23.5 15.5t15 20.5t-13.5 36.5l-354 460q-54 -4 -82 -4l-248 -2v-454q0 -21 11.5 -36t25.5 -21.5t25.5 -15t11.5 -19.5v-3q0 -20 -37 -20h-195q-37 0 -37 20v3
q0 11 11 19.5t24 15t24 21.5t11 36v1224q0 21 -11 36.5t-24 22t-24 15.5t-11 19v2q0 20 37 20h377q130 0 240 -27t195 -80t133.5 -139.5t49.5 -199.5q0 -154 -101.5 -264.5t-287.5 -151.5zM571 635q212 0 341.5 95t129.5 255q0 103 -40 182.5t-109.5 127t-157 71
t-190.5 23.5h-168q-25 0 -35 -14.5t-10 -43.5v-620q0 -76 69 -76h170z" />
    <glyph glyph-name="S" unicode="S" horiz-adv-x="1224" 
d="M637 -20q-114 0 -212 27t-161 68t-108 90.5t-64.5 93.5t-19.5 77q0 27 14 43t41 16q21 0 39 -20t34.5 -51t36.5 -68.5t52.5 -75t76.5 -68t115 -50t160 -19.5q167 0 271 83.5t104 215.5q0 88 -31 150t-83 95.5t-119 54.5t-142 33.5t-149.5 26t-141.5 38t-119 63.5
t-83 109.5t-31 168.5q0 174 132 283t359 109q100 0 186.5 -21.5t144.5 -56t100 -78t61.5 -86t19.5 -80.5q0 -59 -57 -59q-26 0 -46 23.5t-33.5 59t-40.5 77t-63.5 77t-108 59t-167.5 23.5q-169 0 -265.5 -86t-96.5 -223q0 -81 31 -138.5t83 -88.5t119 -50.5t142 -33
t149.5 -28t141.5 -42t119 -69t83 -115.5t31 -175q0 -170 -144 -276t-360 -106z" />
    <glyph glyph-name="T" unicode="T" horiz-adv-x="1222" 
d="M506 0q-37 0 -37 20v3q0 11 11.5 19.5t24.5 15t24.5 21.5t11.5 36v1271h-338q-31 0 -55 -33t-36 -72t-27 -72t-30 -33h-14q-23 0 -18 34l32 205q6 39 45 39h1006q38 0 47 -39l47 -207q8 -32 -18 -32h-15q-14 0 -31.5 33t-33 72t-42.5 72t-59 33h-337v-1271
q0 -21 11.5 -36t25 -21.5t25 -15t11.5 -19.5v-3q0 -20 -39 -20h-192z" />
    <glyph glyph-name="U" unicode="U" horiz-adv-x="1472" 
d="M748 -20q-166 0 -294.5 74.5t-199 208.5t-70.5 306v768q0 22 -11.5 38t-25 22.5t-25 15t-11.5 17.5v4q0 20 41 20h192q39 0 39 -20v-4q0 -9 -12 -17.5t-26 -15t-26 -22.5t-12 -38v-768q0 -231 128 -376.5t329 -145.5q123 0 223.5 62.5t160.5 182.5t60 277v768
q0 22 -11.5 38t-26 22.5t-26 15t-11.5 17.5v4q0 20 38 20h156q41 0 41 -20v-4q0 -9 -12.5 -17.5t-27.5 -15t-27.5 -22.5t-12.5 -38v-768q0 -261 -151 -425t-389 -164z" />
    <glyph glyph-name="V" unicode="V" horiz-adv-x="1417" 
d="M1372 1454q35 0 35 -18v-4q0 -9 -9.5 -17t-22.5 -14t-29.5 -22t-26.5 -40l-547 -1302q-14 -37 -51 -37q-33 0 -47 37l-588 1298q-11 26 -27 43t-28 23t-20.5 13.5t-8.5 17.5v2q0 20 39 20h213q39 0 39 -20v-2q0 -12 -24 -23t-41.5 -28t-4.5 -46l522 -1198l490 1202
q12 27 -8 44t-46 27.5t-26 21.5v4q0 18 37 18h180z" />
    <glyph glyph-name="W" unicode="W" horiz-adv-x="1980" 
d="M1927 1454q35 0 35 -18v-4q0 -11 -11 -19t-25.5 -14t-30 -22t-23.5 -40l-412 -1300q-12 -37 -59 -37q-35 0 -49 37l-322 924l-342 -924q-13 -37 -57 -37q-34 0 -49 37l-490 1298q-10 27 -27.5 44t-32 22t-25.5 13t-11 20v4q0 16 33 16h217q35 0 35 -20v-2
q0 -12 -13.5 -21t-27.5 -14.5t-22 -21t3 -40.5l434 -1173l338 907l-94 268q-8 26 -24.5 43t-31 23t-25.5 13.5t-11 17.5v4q0 16 31 16h225q31 0 31 -16v-4q0 -10 -14.5 -18t-30 -13.5t-25 -22.5t-0.5 -43l401 -1177l365 1177q7 22 -2 37t-24 21t-28.5 14t-13.5 18v5
q0 22 37 22h168z" />
    <glyph glyph-name="X" unicode="X" horiz-adv-x="1314" 
d="M1208 115q19 -24 46 -41t42 -27t15 -24v-3q0 -20 -37 -20h-215q-39 0 -39 20v3q0 10 13.5 20t27 17t19.5 21.5t-9 33.5l-434 575l-440 -575q-17 -31 -8 -42t28 -24.5t19 -25.5v-3q0 -20 -39 -20h-170q-37 0 -37 20v3q0 14 18.5 24t48.5 26.5t49 41.5l492 628l-451 596
q-20 28 -47 45t-43 26t-16 22v2q0 20 39 20h211q37 0 37 -20v-2q0 -11 -21 -25t-31 -25.5t7 -42.5l405 -538l404 538q15 20 9.5 34.5t-19 22t-27 17t-13.5 19.5v2q0 20 39 20h172q37 0 37 -20v-2q0 -13 -17.5 -22.5t-46 -27t-48.5 -43.5l-449 -591z" />
    <glyph glyph-name="Y" unicode="Y" horiz-adv-x="1329" 
d="M1268 1454q37 0 37 -18v-4q0 -10 -9.5 -17.5t-23 -13.5t-32 -22t-32.5 -40l-473 -753v-471q0 -21 12 -36t26 -21.5t26 -15t12 -19.5v-3q0 -20 -39 -20h-192q-39 0 -39 20v3q0 11 11 19.5t24.5 15t24.5 21.5t11 36v465l-493 759q-16 26 -43 43t-44.5 27t-17.5 23v2
q0 20 39 20h217q39 0 39 -20v-2q0 -10 -14 -19.5t-27.5 -17t-20.5 -22t7 -34.5l442 -702l437 702q15 22 6.5 37t-24.5 21.5t-32 15.5t-16 19v2q0 20 35 20h166z" />
    <glyph glyph-name="Z" unicode="Z" horiz-adv-x="1216" 
d="M1165 264q16 0 24.5 -8.5t2.5 -24.5l-55 -190q-14 -41 -47 -41h-1006q-15 0 -25 9.5t-10 23.5v8q0 17 21 45l923 1305h-729q-30 0 -56.5 -31t-42.5 -67.5t-35 -67.5t-36 -31h-8q-28 0 -20 39l51 182q10 39 47 39h932q15 0 24.5 -9.5t9.5 -23.5v-14q0 -14 -20 -47
l-920 -1297h785q35 0 65.5 31.5t47.5 69t37 69t36 31.5h4z" />
    <glyph glyph-name="bracketleft" unicode="[" horiz-adv-x="569" 
d="M209 -213q-12 0 -20.5 7.5t-8.5 19.5v1753q0 12 8.5 19t20.5 7h313q23 0 23 -20v-27q0 -20 -23 -20h-231v-1671h231q23 0 23 -21v-27q0 -20 -23 -20h-313z" />
    <glyph glyph-name="backslash" unicode="\" horiz-adv-x="716" 
d="M596 -217q-26 0 -29 20l-504 1805q-7 28 17 28h37q22 0 28 -16l508 -1808q7 -29 -20 -29h-37z" />
    <glyph glyph-name="bracketright" unicode="]" horiz-adv-x="569" 
d="M47 -213q-20 0 -20 20v27q0 21 20 21h232v1671h-232q-20 0 -20 20v27q0 20 20 20h313q12 0 20.5 -7t8.5 -19v-1753q0 -12 -8.5 -19.5t-20.5 -7.5h-313z" />
    <glyph glyph-name="asciicircum" unicode="^" 
d="M905 1292q21 -26 7 -47q-13 -20 -37 -2q-2 2 -5 4l-262 264l-250 -264q-18 -19 -36 -4q-20 16 -3 44q1 2 3 5l225 293q17 25 51 25h27q31 0 51 -23z" />
    <glyph glyph-name="underscore" unicode="_" horiz-adv-x="1013" 
d="M90 -74q-22 0 -22 23v31q0 20 22 20h836q20 0 20 -20v-31q0 -23 -20 -23h-836z" />
    <glyph glyph-name="grave" unicode="`" 
d="M672 1143l-389 198q-17 7 -24 22t1 28l23 41q19 39 57 12l365 -254q20 -16 10 -37q-13 -21 -43 -10z" />
    <glyph glyph-name="a" unicode="a" horiz-adv-x="1005" 
d="M881 145q3 -41 22.5 -63t41 -26t39 -11t17.5 -22q0 -35 -100 -35q-66 0 -97 30t-34 121q-36 -74 -115 -116.5t-192 -42.5q-172 0 -275.5 83t-103.5 224q-1 143 103.5 223t273.5 80q175 0 268 -96l-6 69q-18 192 -86 289.5t-201 97.5q-66 0 -113 -23t-70.5 -55
t-39.5 -64.5t-31.5 -55.5t-36.5 -23q-57 0 -57 55q0 35 23 72.5t64.5 71t110 55t150.5 21.5q180 0 284.5 -115t123.5 -324zM485 35q119 0 193 67.5t72 169.5l-7 62q-2 83 -75 142t-189 59q-123 0 -198.5 -63t-75.5 -165q0 -120 77 -196t203 -76z" />
    <glyph glyph-name="b" unicode="b" horiz-adv-x="1146" 
d="M604 1004q197 0 332 -141t135 -357q0 -147 -61 -268t-168 -189.5t-236 -68.5q-106 0 -194.5 49t-143.5 135l2 -139q0 -11 -7 -19t-19 -8l-138 2q-24 0 -24 16v7q0 10 11.5 18.5t25.5 15.5t25.5 23t11.5 39v1218q0 27 -12 46t-26 27t-26 17t-12 19v4q0 12 29 27l112 53
q51 23 51 -25v-667q52 76 140 121t192 45zM586 35q164 0 264 123.5t100 322.5q0 204 -105.5 335.5t-271.5 131.5q-119 0 -210 -85.5t-91 -196.5v-86l-2 -209h4q0 -131 95.5 -233.5t216.5 -102.5z" />
    <glyph glyph-name="c" unicode="c" horiz-adv-x="1026" 
d="M569 -20q-134 0 -247.5 65.5t-181.5 185t-68 267.5q0 226 139.5 366t353.5 140q77 0 151 -24.5t123.5 -61t80 -77.5t30.5 -75q0 -26 -14.5 -41.5t-42.5 -15.5q-20 1 -39 19t-33.5 44.5t-39 57.5t-53.5 57t-78 43.5t-111 17.5q-147 1 -246.5 -114.5t-99.5 -286.5
q0 -216 117.5 -346.5t297.5 -130.5q108 0 186 59.5t117 155.5q6 14 21 18t26.5 -5t6.5 -26q-31 -118 -135 -205t-261 -87z" />
    <glyph glyph-name="d" unicode="d" horiz-adv-x="1148" 
d="M997 117q0 -22 11.5 -38t25.5 -23t25.5 -15.5t11.5 -17.5v-7q0 -16 -24 -16h-134q-12 0 -19 8t-7 19l-4 139q-51 -89 -142.5 -137.5t-193.5 -48.5q-94 0 -179.5 38.5t-149.5 105.5t-102 164t-38 208q0 222 134 365t343 143q101 0 187.5 -45.5t138.5 -120.5v512
q0 29 -12 47.5t-27 25t-27 15t-12 18.5v4q0 18 26 27l115 43q53 20 53 -25v-1388zM580 35q51 0 102.5 21.5t96.5 61.5t73.5 104.5t28.5 142.5v286q0 50 -26 102.5t-69.5 96t-107 71t-133.5 27.5q-151 0 -249.5 -118t-100.5 -298q-1 -140 47.5 -253t137 -178t200.5 -66z" />
    <glyph glyph-name="e" unicode="e" horiz-adv-x="1017" 
d="M903 279q11 23 35 18.5t20 -31.5q-13 -51 -44.5 -99.5t-81 -91.5t-125 -69t-164.5 -26q-95 0 -179.5 36.5t-148 102.5t-100.5 165t-37 218q0 140 61.5 255t171 181t244.5 66q82 0 154.5 -28t120.5 -72t76 -98t28 -106q0 -40 -21 -63t-67 -37l-635 -190
q29 -158 129.5 -249t241.5 -91q123 0 203.5 57.5t117.5 151.5zM537 948q-149 0 -243.5 -119t-94.5 -290q0 -26 4 -72l569 174q45 13 45 57q0 82 -83.5 166t-196.5 84z" />
    <glyph glyph-name="f" unicode="f" horiz-adv-x="667" 
d="M524 1513q99 0 173.5 -54t74.5 -128q0 -22 -14.5 -37.5t-38.5 -15.5q-28 0 -44 13t-21 33t-13 43t-18.5 43t-39 34t-73.5 14q-98 1 -144 -95t-28 -241v-139h309q10 0 17.5 -6.5t7.5 -15.5v-19q0 -9 -7.5 -15.5t-17.5 -6.5h-309v-801q0 -23 14 -38.5t30 -21.5t30 -14.5
t14 -19.5v-5q0 -8 -7.5 -14t-17.5 -6h-233q-12 0 -19.5 6t-7.5 14v5q0 11 12 19.5t27 14.5t27 21.5t12 38.5v801h-182q-10 0 -17.5 6.5t-7.5 15.5v19q0 9 7.5 15.5t17.5 6.5h182v203q0 147 81.5 237t223.5 90z" />
    <glyph glyph-name="g" unicode="g" horiz-adv-x="1071" 
d="M948 983q40 0 46 -21q5 -16 -15 -24q-22 -11 -50.5 -16.5t-67 -8.5t-58.5 -6q72 -46 115 -127.5t43 -165.5q0 -131 -70 -229.5t-191 -144.5q133 -27 207 -101t74 -172q0 -148 -124 -232.5t-329 -84.5q-93 0 -172.5 22.5t-131.5 58t-89 80t-53 87t-16 79.5q0 25 13.5 41.5
t41.5 16.5q18 0 31 -14t21.5 -37.5t21.5 -53t27.5 -60.5t41.5 -60.5t62 -53t91.5 -37.5t127.5 -14q138 0 226.5 69t88.5 179q0 114 -82.5 183.5t-220.5 72.5q-16 -2 -49 -2q-174 0 -297 114.5t-123 276.5q0 177 119.5 291.5t316.5 114.5q54 0 160 -10.5t264 -10.5zM532 262
q137 0 222.5 89.5t85.5 221.5q0 157 -96 266t-244 109q-129 0 -210 -88.5t-81 -218.5q0 -156 92 -267.5t231 -111.5z" />
    <glyph glyph-name="h" unicode="h" horiz-adv-x="1136" 
d="M1004 121q1 -23 13 -38.5t25 -21t24 -13.5t11 -19v-9q0 -20 -39 -20h-190q-39 0 -39 20v9q0 11 12 19t26 13.5t25.5 20.5t10.5 37l-21 430q-7 189 -86.5 291t-202.5 102q-117 0 -199.5 -76.5t-94.5 -193.5v-555q0 -22 11.5 -36.5t26 -20t26 -13t11.5 -18.5v-6
q0 -9 -11 -16t-28 -7h-192q-18 0 -28.5 6.5t-10.5 16.5v6q0 11 11.5 18.5t25.5 13t25.5 20t11.5 36.5v1224q0 26 -11.5 44.5t-25.5 26.5t-25.5 17t-11.5 17v4q0 16 25 29l116 51q25 11 38 3.5t13 -28.5l-2 -686q48 85 133.5 135t188.5 50q163 0 269 -116.5t118 -340.5z" />
    <glyph glyph-name="i" unicode="i" horiz-adv-x="450" 
d="M135 0q-17 0 -28 7t-11 16v8q0 10 11.5 18t25.5 14t25.5 20.5t11.5 35.5v686q0 25 -11 44t-25 28.5t-25 19t-11 16.5v7q0 3 1 5t4 4.5t5 4t7.5 4.5t7.5 4l110 55q28 11 42 4t14 -28v-854q0 -21 12 -35.5t26 -20.5t26 -14t12 -18v-8q0 -9 -11 -16t-28 -7h-191zM233 1188
q-43 0 -70.5 26t-27.5 68q0 43 27.5 69.5t70.5 26.5q41 0 68 -27t27 -69t-26.5 -68t-68.5 -26z" />
    <glyph glyph-name="j" unicode="j" horiz-adv-x="454" 
d="M102 -367q-85 0 -138.5 42t-53.5 104q0 27 15 43t42 16q24 0 38 -15t21 -37t15 -43.5t27.5 -36.5t50.5 -15q44 0 72 33t28 86q0 42 -16.5 114.5t-16.5 110.5v770q0 26 -11 44.5t-23.5 26.5t-23.5 17.5t-11 19.5v5q0 13 24 24l115 55q26 11 39.5 4t13.5 -28v-959
q0 -126 -18 -219q-14 -74 -63 -118t-126 -44zM250 1188q-43 0 -70.5 26t-27.5 68q0 43 27.5 69.5t70.5 26.5q41 0 67.5 -26.5t26.5 -69.5q0 -42 -26 -68t-68 -26z" />
    <glyph glyph-name="k" unicode="k" horiz-adv-x="1019" 
d="M938 98q13 -16 32 -28t33 -16.5t24.5 -12.5t10.5 -18v-5q0 -18 -24 -18h-215q-10 0 -17.5 5t-7.5 13v5q0 11 11 19.5t21 13.5t14 16t-11 26l-358 430l-175 -159v-252q0 -22 12 -36.5t26 -20t26 -13t12 -18.5v-6q0 -10 -10.5 -16.5t-28.5 -6.5h-190q-37 0 -37 23v6
q0 11 11 18.5t24 13t24 20t11 36.5v1222q0 26 -11.5 45t-25.5 27t-25.5 17.5t-11.5 17.5v4q0 16 24 25l115 55q26 11 40.5 3t14.5 -28v-1048l457 409q19 15 15.5 29t-15.5 22t-25.5 19.5t-13.5 21.5v7q0 18 27 18h199q24 0 24 -18v-4q0 -13 -18.5 -25.5t-51.5 -31t-55 -38.5
l-287 -264z" />
    <glyph glyph-name="l" unicode="l" horiz-adv-x="440" 
d="M127 0q-18 0 -28.5 6.5t-10.5 16.5v6q0 11 11 18.5t25 13t25 20t11 36.5v1222q0 26 -11 45t-25 27t-25 17.5t-11 17.5v4q0 14 25 25l110 55q28 11 43 3t15 -28v-1388q0 -22 11.5 -36.5t26 -20t26 -13t11.5 -18.5v-6q0 -9 -11.5 -16t-29.5 -7h-188z" />
    <glyph glyph-name="m" unicode="m" horiz-adv-x="1830" 
d="M1700 119q1 -23 12.5 -38.5t25 -21.5t25 -14t11.5 -18v-9q0 -18 -37 -18h-193q-37 0 -37 18v9q0 10 11.5 18t25 14t25 21t10.5 37l-20 411q-22 414 -293 414q-114 0 -196.5 -84.5t-86.5 -212.5q8 -44 8 -102v-426q0 -22 11.5 -37t24.5 -21t24.5 -14t11.5 -18v-9
q0 -18 -39 -18h-186q-39 0 -39 18v9q0 10 11 18t23.5 14t23.5 21t11 37v430q0 180 -82.5 287.5t-207.5 107.5q-120 0 -202.5 -89t-88.5 -218l2 -518q0 -22 11.5 -37t25 -21t25 -14t11.5 -18v-9q0 -18 -36 -18h-193q-41 0 -41 18v9q0 10 12 18t26 14t26 21t12 37v692
q0 26 -12 44.5t-26 26t-26 16.5t-12 19v5q0 12 27 26l110 51q26 11 39 4t13 -30v-176q44 94 128.5 151.5t186.5 57.5q119 0 214 -64.5t142 -181.5q35 115 127 180.5t209 65.5q172 0 274 -115.5t115 -362.5z" />
    <glyph glyph-name="n" unicode="n" horiz-adv-x="1146" 
d="M1016 121q1 -23 12.5 -38.5t25 -21.5t25 -14t11.5 -18v-9q0 -20 -41 -20h-191q-37 0 -37 20v9q0 10 11.5 18t25 14t25 21t10.5 37l-19 426q-9 193 -87.5 295t-202.5 102q-117 0 -200 -76.5t-95 -193.5v-555q0 -21 12 -35.5t26 -20.5t26 -14t12 -18v-9q0 -20 -39 -20h-193
q-39 0 -39 20v9q0 10 11.5 18t25.5 14t25.5 20.5t11.5 35.5v692q0 29 -12 48t-26 25.5t-26 14.5t-12 18v5q0 14 27 26l108 51q25 11 38.5 3.5t13.5 -29.5v-166q47 91 133.5 145t193.5 54q163 0 269 -117t118 -344z" />
    <glyph glyph-name="o" unicode="o" horiz-adv-x="1142" 
d="M590 -18q-147 0 -265.5 72.5t-183.5 193t-65 262.5q0 210 139 350.5t350 140.5q214 0 357 -149.5t143 -370.5q0 -216 -133 -357.5t-342 -141.5zM610 35q142 0 238 115.5t96 291.5q0 143 -50.5 258.5t-141.5 181.5t-205 66q-151 0 -250.5 -113.5t-99.5 -289.5
q0 -135 51 -251t147 -187.5t215 -71.5z" />
    <glyph glyph-name="p" unicode="p" horiz-adv-x="1155" 
d="M610 1004q195 0 331 -141.5t136 -356.5q0 -223 -134.5 -374.5t-330.5 -151.5q-105 0 -193 48t-143 132v-518q0 -22 12 -37.5t27 -21.5t27 -14.5t12 -19.5v-6q0 -20 -41 -20h-190q-39 0 -39 20v6q0 11 11.5 19.5t25.5 14.5t25.5 21.5t11.5 37.5v1169q0 23 -12 39t-27 23
t-27 16t-12 20v6q0 18 26 31l107 49q51 22 51 -22l-2 -160q48 87 141 139t207 52zM590 35q162 0 263 124t101 322q0 204 -105 335.5t-271 131.5q-118 0 -210 -86t-92 -196v-295q0 -130 97 -233t217 -103z" />
    <glyph glyph-name="q" unicode="q" horiz-adv-x="1150" 
d="M1073 928q0 -9 -11.5 -18.5t-25.5 -18t-25.5 -26.5t-11.5 -42v-1183q0 -21 11.5 -36.5t25.5 -22.5t25.5 -16t11.5 -20v-4q0 -18 -39 -18h-190q-39 0 -39 18v4q0 11 12 20t27 16t27 22.5t12 36.5v526q-51 -89 -142.5 -137.5t-193.5 -48.5q-94 0 -179.5 38.5t-149.5 105.5
t-102 164t-38 208q0 222 134.5 365t346.5 143q103 0 191 -50.5t141 -132.5v148q0 22 13.5 30t39.5 -2l103 -34q26 -12 26 -31v-4zM580 35q51 0 103 21.5t97.5 61.5t74 104.5t28.5 142.5v286q0 50 -26 102.5t-70 96t-107.5 71t-132.5 27.5q-152 0 -251 -118t-101 -298
q-1 -140 47.5 -253t137 -178t200.5 -66z" />
    <glyph glyph-name="r" unicode="r" horiz-adv-x="731" 
d="M537 1004q87 0 135.5 -42t48.5 -102q0 -28 -14.5 -45.5t-42.5 -17.5q-21 0 -34.5 13.5t-22.5 32t-20 37.5t-36 32.5t-62 13.5q-92 0 -149 -89.5t-57 -224.5v-495q0 -22 13 -37t28 -20.5t28 -13.5t13 -19v-7q0 -20 -41 -20h-191q-39 0 -39 20v7q0 11 11.5 19t25.5 13.5
t25.5 20.5t11.5 37v692q0 25 -12 43t-26 25.5t-26 16.5t-12 19v7q0 14 27 26l110 51q45 19 45 -24v-172q34 98 103 150.5t160 52.5z" />
    <glyph glyph-name="s" unicode="s" horiz-adv-x="944" 
d="M473 -20q-99 0 -180 24.5t-127.5 61.5t-71 75.5t-24.5 71.5q0 55 57 55q23 0 39.5 -17.5t26 -43.5t29 -56.5t46 -56.5t79.5 -43.5t126 -17.5q121 0 200 53.5t79 146.5q0 52 -22.5 89.5t-60.5 59t-87 37t-103.5 26.5t-109 23t-103.5 32t-87 48t-60.5 75t-22.5 110
q0 114 103.5 192.5t263.5 78.5q173 0 280 -77.5t107 -162.5q0 -25 -14 -39t-37 -14q-24 0 -40.5 24.5t-33 59.5t-42 70.5t-81 60t-135.5 24.5q-103 0 -176.5 -56.5t-73.5 -141.5q0 -63 36 -104t94 -61t127.5 -33.5t139.5 -31.5t128 -46t94 -84.5t36 -139.5
q0 -115 -110 -193.5t-289 -78.5z" />
    <glyph glyph-name="t" unicode="t" horiz-adv-x="698" 
d="M432 -18q-111 0 -174 71t-63 213v654h-158q-11 0 -18 7t-7 17v14q0 25 25 25h86q64 0 92 49.5t33 141.5q3 38 28 38h13q14 0 19 -9t5 -29l4 -191h306q10 0 17 -7t7 -18v-14q0 -10 -6.5 -17t-17.5 -7h-306v-654q0 -94 37.5 -143t102.5 -49q69 0 110.5 37t44.5 98
q4 15 18 20.5t27 -1t13 -23.5q0 -91 -66 -157t-172 -66z" />
    <glyph glyph-name="u" unicode="u" horiz-adv-x="1134" 
d="M963 158q0 -49 19 -74t42 -28t42 -9.5t19 -21.5q0 -22 -21.5 -29.5t-76.5 -7.5q-140 0 -135 151l-6 33q-44 -91 -129 -141.5t-195 -50.5q-175 0 -277 129.5t-102 359.5v369q0 24 -11.5 41t-25 24t-25 16.5t-11.5 20.5v2q0 20 24 27l127 28q20 6 31.5 2t11.5 -22l-2 -516
q0 -197 74 -307.5t207 -110.5q129 0 215 95.5t86 250.5v449q0 24 -12 40.5t-27 23.5t-27 17t-12 21v2q0 22 22 27l134 28q20 6 30.5 2t10.5 -22v-819z" />
    <glyph glyph-name="v" unicode="v" horiz-adv-x="1036" 
d="M1006 983q26 0 26 -18v-4q0 -13 -18 -24t-41.5 -28.5t-34.5 -42.5l-342 -829q-15 -37 -49 -37h-39q-34 0 -49 37l-369 829q-12 27 -33 44.5t-35 27.5t-14 23v4q0 18 27 18h225q25 0 25 -18v-7q0 -8 -13 -18t-26.5 -18.5t-22.5 -23t0 -32.5l326 -780l317 772q11 25 1.5 42
t-25 24.5t-30.5 16t-15 17.5v7q0 18 26 18h183z" />
    <glyph glyph-name="w" unicode="w" horiz-adv-x="1523" 
d="M1491 983q25 0 25 -20v-5q0 -11 -9 -18.5t-21.5 -12.5t-27.5 -21t-24 -42l-297 -827q-8 -21 -17 -29t-28 -8h-25q-40 0 -49 37l-252 784l-254 -784q-12 -37 -45 -37h-16q-37 0 -52 37l-321 827q-9 24 -22.5 40.5t-24 22t-18 13.5t-7.5 18v5q0 20 27 20h198q25 0 25 -20
v-5q0 -10 -12.5 -17.5t-25.5 -13.5t-20.5 -21.5t3.5 -41.5l270 -749l270 837q9 29 29 29h41q9 0 14 -4t7 -8.5t6 -16.5l264 -843l264 749q10 27 0.5 43.5t-24.5 23t-29.5 15t-14.5 18.5v5q0 20 25 20h168z" />
    <glyph glyph-name="x" unicode="x" horiz-adv-x="989" 
d="M862 127q21 -25 47.5 -45t40 -32t13.5 -25v-5q0 -20 -25 -20h-219q-25 0 -25 20v5q0 10 12 20t22.5 18t13 24.5t-16.5 39.5l-250 317l-264 -317q-23 -28 -23 -46t13.5 -25t28 -15t14.5 -16v-5q0 -20 -27 -20h-190q-27 0 -27 20v5q0 10 10 18t25.5 15t41 27t48.5 48
l309 363l-280 354q-25 33 -54 53.5t-42 29.5t-13 25v5q0 20 25 20h209q26 0 26 -20v-5q0 -11 -10.5 -22.5t-20 -20t-8.5 -25.5t19 -40l241 -301l258 301q20 23 20 41t-11 27t-23 20t-12 20v5q0 20 24 20h154q25 0 25 -20v-5q0 -13 -9.5 -22.5t-36 -32t-51.5 -53.5l-301 -350
z" />
    <glyph glyph-name="y" unicode="y" horiz-adv-x="1042" 
d="M1014 983q24 0 24 -20v-5q0 -15 -13 -24t-35.5 -28.5t-39.5 -55.5l-387 -862q-78 -178 -119 -244q-103 -168 -241 -176h-13q-94 0 -159.5 54.5t-65.5 109.5q0 27 14.5 43t40.5 16q21 0 36.5 -17t27 -41.5t26 -49t41.5 -41.5t66 -17q133 0 268 344l-387 881
q-12 27 -28.5 46t-29.5 25.5t-22.5 15.5t-9.5 21v5q0 20 25 20h207q24 0 24 -20v-5q0 -14 -17 -27t-25 -26t5 -55l322 -766l330 758q15 32 6 51.5t-26.5 27t-34.5 16.5t-17 21v5q0 20 27 20h180z" />
    <glyph glyph-name="z" unicode="z" horiz-adv-x="948" 
d="M903 250q13 0 19 -9.5t0 -27.5l-56 -172q-14 -41 -47 -41h-729q-15 0 -25 9.5t-10 23.5v8q0 12 19 45l649 844h-444q-32 0 -60.5 -30t-44.5 -65.5t-35 -65.5t-35 -30h-8q-30 0 -18 39l51 166q7 20 16.5 29.5t28.5 9.5h643q15 0 25 -9.5t10 -23.5v-14q0 -15 -25 -47
l-645 -836h520q36 0 66 31t47 67.5t38 67.5t40 31h10z" />
    <glyph glyph-name="braceleft" unicode="{" horiz-adv-x="552" 
d="M485 -121q22 0 32 -15.5t1.5 -31.5t-29.5 -16q-132 0 -211 79t-79 228v264q0 128 -35 190t-82 62q-21 0 -31 22t-1.5 44t32.5 22q47 0 82 59.5t35 176.5v309q0 148 81 227.5t216 77.5q20 1 29.5 -15t1 -32.5t-30.5 -16.5q-81 0 -131.5 -63t-51.5 -174l-2 -311
q0 -72 -14 -127.5t-37 -86.5t-45 -47t-45 -22q24 -6 45 -21.5t44.5 -47t37.5 -90.5t14 -138v-266q0 -113 47 -176.5t127 -63.5z" />
    <glyph glyph-name="bar" unicode="|" horiz-adv-x="452" 
d="M199 -184q-19 0 -19 24v1592q0 24 19 24h55q18 0 18 -24v-1592q0 -24 -18 -24h-55z" />
    <glyph glyph-name="braceright" unicode="}" horiz-adv-x="555" 
d="M471 727q25 0 34 -22t-1.5 -44t-32.5 -22q-46 0 -80.5 -62t-34.5 -190v-264q0 -149 -79 -228t-211 -79q-22 0 -30.5 16t1.5 31.5t33 15.5q79 0 126.5 64t47.5 176v266q-1 80 12.5 138.5t37 90t45.5 47t46 21.5q-24 6 -46 22t-45.5 47t-37.5 86t-14 128v311
q-1 111 -51.5 174t-131.5 63q-23 0 -32 16.5t1 32.5t31 15q134 2 215.5 -78t81.5 -227v-309q0 -116 35 -176t80 -60z" />
    <glyph glyph-name="asciitilde" unicode="~" 
d="M391 745q57 0 118.5 -22.5t106.5 -49t103 -49t108 -22.5q53 0 100 26.5t66 80.5q12 24 31 24h25q24 0 18 -31q-18 -89 -86.5 -140.5t-155.5 -51.5q-68 0 -133 22.5t-107.5 50t-95 50t-98.5 22.5q-50 0 -90 -28.5t-61 -83.5q-12 -29 -37 -29h-19q-8 0 -14.5 9t-3.5 22
q19 85 76.5 142.5t148.5 57.5z" />
    <glyph glyph-name="exclamdown" unicode="&#xa1;" horiz-adv-x="421" 
d="M211 709q-43 0 -71.5 27t-28.5 69q0 48 28 75t72 27t72 -27t28 -75q0 -42 -28.5 -69t-71.5 -27zM287 -367q1 -23 -14 -38t-36 -18t-42.5 1.5t-36.5 19.5t-15 37q14 594 35 922q3 24 31.5 24t30.5 -24q35 -410 47 -924z" />
    <glyph glyph-name="cent" unicode="&#xa2;" horiz-adv-x="1060" 
d="M934 537q7 15 23 19t27.5 -5.5t6.5 -26.5q-14 -55 -40.5 -106t-71 -102t-117 -84t-162.5 -37v-168q0 -27 -20 -27h-25q-20 0 -20 27v170q-89 9 -171 54.5t-144 115.5t-99 166t-37 202q0 223 129 370.5t322 162.5v168q0 11 5.5 18.5t14.5 7.5h27q18 0 18 -26v-166
q72 -4 140.5 -30t116 -62t76 -76.5t28.5 -75.5q0 -26 -16 -41.5t-42 -15.5t-47 21.5t-39.5 53.5t-42.5 65t-68.5 60.5t-105.5 36.5v-917h21q210 0 313 248zM207 793q0 -194 92.5 -327.5t235.5 -166.5v911q-131 -6 -229.5 -128t-98.5 -289z" />
    <glyph glyph-name="sterling" unicode="&#xa3;" horiz-adv-x="1320" 
d="M1194 272q6 15 22.5 18.5t28.5 -7t6 -29.5q-88 -279 -401 -279q-63 0 -129 20.5t-105 41t-102 57.5q-13 8 -20 12q-83 -126 -220 -126q-75 0 -118 38.5t-43 98.5q0 59 48 96t126 37q75 0 159 -33q13 57 13 111q0 86 -23 155.5t-67 155.5h-271q-24 0 -24 14v39q0 15 24 15
h238q-82 160 -82 315q0 204 129 330.5t367 126.5q86 0 167.5 -24t138.5 -60.5t91.5 -80t34.5 -83.5q0 -29 -17.5 -48.5t-48.5 -19.5q-20 0 -37 14t-31.5 36t-31.5 48.5t-41.5 53t-56.5 48.5t-83 36t-114 14q-113 0 -193 -54t-115.5 -138.5t-35.5 -190.5q0 -94 20 -167
t58 -156h424q24 0 24 -17v-37q0 -14 -24 -14h-394q68 -154 70 -309q0 -76 -27 -150q11 -5 44 -21t47 -22.5t44 -19t50 -18.5t47.5 -13.5t54 -10.5t53.5 -3q118 0 205.5 55t120.5 145zM272 39q96 0 148 106q-74 41 -139 41q-48 0 -75.5 -19.5t-27.5 -51.5q0 -33 26.5 -54.5
t67.5 -21.5z" />
    <glyph glyph-name="currency" unicode="&#xa4;" horiz-adv-x="1275" 
d="M997 442l146 -145q6 -8 6.5 -17t-6.5 -14l-25 -26q-17 -11 -33 2l-145 147q-134 -100 -309 -100q-174 0 -297 96l-141 -143q-14 -14 -33 -2l-27 26q-6 4 -5.5 14t7.5 17l141 141q-100 117 -100 271q0 150 100 264l-141 139q-6 6 -7 15t5 14l29 26q15 12 31 0l139 -141
q128 100 299 100q183 0 313 -100l141 141q17 14 33 0l25 -26q16 -9 0 -29l-142 -139q101 -115 101 -264q0 -152 -105 -267zM635 367q156 0 259 101t103 243q0 139 -103.5 238.5t-258.5 99.5t-254.5 -99t-99.5 -239q0 -143 99.5 -243.5t254.5 -100.5z" />
    <glyph glyph-name="yen" unicode="&#xa5;" horiz-adv-x="1419" 
d="M1307 1454q36 0 36 -18v-4q0 -10 -9.5 -17.5t-23 -13.5t-32.5 -22t-33 -40l-438 -702h444q25 0 25 -16v-27q0 -16 -25 -16h-477v-140h438q25 0 25 -14v-29q0 -16 -25 -16h-438v-264q0 -21 11.5 -36t25.5 -21.5t25.5 -15t11.5 -19.5v-3q0 -20 -37 -20h-195q-36 0 -36 20v3
q0 11 11 19.5t23.5 15t23.5 21.5t11 36v264h-393q-25 0 -25 16v29q0 14 25 14h393v140h-432q-24 0 -24 16v27q0 16 24 16h397l-458 702q-16 26 -43 43t-44.5 27t-17.5 23v2q0 20 39 20h219q37 0 37 -20v-2q0 -10 -13.5 -19.5t-27 -17t-20 -22t7.5 -34.5l440 -702l438 702
q15 22 6.5 37t-24.5 21.5t-31.5 15.5t-15.5 19v2q0 20 35 20h166z" />
    <glyph glyph-name="brokenbar" unicode="&#xa6;" horiz-adv-x="452" 
d="M199 707q-19 0 -19 22v701q0 24 19 24h55q18 0 18 -24v-701q0 -22 -18 -22h-55zM199 -184q-19 0 -19 24v645q0 21 19 25h55q8 0 13 -7.5t5 -17.5v-645q0 -24 -18 -24h-55z" />
    <glyph glyph-name="section" unicode="&#xa7;" 
d="M979 307q139 -88 139 -262q0 -138 -136 -241t-345 -103q-113 0 -210.5 26t-161.5 66t-110 88.5t-66.5 92.5t-20.5 79q0 28 16 45t45 17q20 0 37 -19.5t33 -50.5t37 -68.5t55 -75.5t79 -69t117 -50.5t162 -19.5q149 0 249.5 78t100.5 178q0 68 -30 117.5t-81 78.5
t-117 49.5t-139 35t-145.5 30.5t-138.5 41.5t-117 62t-80.5 97t-29.5 142.5q1 98 46 167.5t109 104.5q-131 87 -131 250q0 160 133.5 254t331.5 94q99 0 185.5 -21.5t145.5 -55.5t101.5 -77.5t62 -86.5t19.5 -82q0 -64 -61 -64q-23 0 -41 18t-32 46.5t-30.5 63t-44.5 69
t-65.5 63t-101 46.5t-144.5 18q-136 0 -238 -73t-102 -187q0 -66 30 -115.5t80.5 -79.5t116 -52t138 -38.5t144.5 -34.5t137.5 -44.5t116 -63t80.5 -96t30 -138.5q0 -76 -43 -140.5t-115 -109.5zM242 707q0 -69 31.5 -119.5t80.5 -78.5t121 -51t139 -36t149 -33.5t138 -42.5
q63 47 92 89.5t29 103.5q0 74 -42.5 125t-119.5 81t-157 50.5t-181.5 47t-167.5 56.5q-46 -24 -79 -79t-33 -113z" />
    <glyph glyph-name="dieresis" unicode="&#xa8;" 
d="M391 1206q-45 0 -72.5 26t-27.5 68q0 44 28 71.5t72 27.5q43 0 68.5 -27.5t25.5 -71.5q0 -43 -25.5 -68.5t-68.5 -25.5zM739 1206q-43 0 -69.5 25.5t-26.5 68.5q0 44 26.5 71.5t69.5 27.5q42 0 69.5 -27.5t27.5 -71.5q0 -42 -27.5 -68t-69.5 -26z" />
    <glyph glyph-name="copyright" unicode="&#xa9;" horiz-adv-x="1804" 
d="M903 -121q-168 0 -321 65t-263.5 175t-175.5 262.5t-65 320.5t65 320.5t175.5 262.5t263.5 174.5t321 64.5t320 -65t262.5 -175t175.5 -262t65 -320t-65 -320.5t-175 -262.5t-262.5 -175t-320.5 -65zM903 -51q149 0 286 60.5t235.5 162t157 240.5t58.5 290t-58.5 290
t-157 240t-235.5 161.5t-286 60.5q-200 0 -371 -102t-270.5 -275t-99.5 -375q0 -152 58.5 -291t157.5 -240.5t236.5 -161.5t288.5 -60zM915 248q-128 0 -235 66t-167 173.5t-60 229.5q0 201 127.5 326.5t334.5 125.5q96 0 186.5 -39.5t141.5 -95t51 -104.5q0 -22 -13 -34.5
t-36 -12.5q-26 0 -48.5 24t-45 57.5t-51.5 67.5t-82.5 58t-124.5 24q-146 0 -234 -102t-88 -256q0 -179 105.5 -296.5t281.5 -117.5q106 0 177.5 56t109.5 149q9 21 34 14t21 -33q-13 -56 -42.5 -104.5t-75.5 -88.5t-115 -63.5t-152 -23.5z" />
    <glyph glyph-name="ordfeminine" unicode="&#xaa;" horiz-adv-x="839" 
d="M688 877q3 -30 17 -45t28.5 -16t26.5 -7.5t12 -22.5q0 -34 -92 -34q-40 0 -60.5 19.5t-21.5 78.5q-30 -51 -89.5 -81t-135.5 -30q-125 0 -202 63.5t-77 162.5q0 101 76 161t205 60q122 0 190 -68l-4 45q-12 133 -60.5 195.5t-144.5 62.5q-40 0 -68.5 -11t-42.5 -28
t-25.5 -36.5t-18.5 -36.5t-20 -28t-31 -11q-21 0 -34.5 12.5t-13.5 36.5q0 60 74 108t180 48q128 0 208.5 -78t97.5 -234zM393 793q78 0 133 43.5t54 109.5l-7 80q-15 44 -67 74t-119 30q-84 0 -136 -42t-52 -113q0 -79 53 -130.5t141 -51.5z" />
    <glyph glyph-name="guillemotleft" unicode="&#xab;" horiz-adv-x="1038" 
d="M428 981q11 18 37.5 9.5t19.5 -29.5q-39 -101 -112 -189.5t-189 -179.5q223 -205 287 -342q2 -8 -10 -17.5t-28.5 -10.5t-33.5 16q-83 104 -154.5 177.5t-154.5 135.5q-13 11 -12.5 44t12.5 42q97 66 187 156.5t151 187.5zM934 961q-39 -101 -112 -189.5t-189 -179.5
q221 -207 287 -342q2 -8 -10 -17.5t-28.5 -10.5t-33.5 16q-83 104 -154.5 177.5t-154.5 135.5q-13 11 -12.5 44t12.5 42q96 65 186 155.5t152 188.5q11 18 37.5 9.5t19.5 -29.5z" />
    <glyph glyph-name="registered" unicode="&#xae;" horiz-adv-x="1804" 
d="M903 1524q168 0 320 -65t262.5 -175t175.5 -262t65 -320t-65 -321t-175 -263.5t-262.5 -175.5t-320.5 -65t-321 65t-263.5 175.5t-175.5 263.5t-65 321t65 320.5t175.5 262.5t263.5 174.5t321 64.5zM903 -47q199 0 369 101t269 273.5t99 374.5q0 151 -58.5 290t-157 240
t-235.5 161.5t-286 60.5q-200 0 -371 -102t-270.5 -275t-99.5 -375q0 -152 58.5 -290.5t157.5 -239t236.5 -160t288.5 -59.5zM1223 375q11 -16 23.5 -27t20 -14.5t12.5 -9t5 -13.5v-6q0 -18 -22 -18h-164q-25 0 -25 16v8q0 9 14.5 17t21.5 15t-5 32l-174 266h-8l-183 -6
v-262q0 -22 27 -37t27 -23v-10q0 -6 -6.5 -11t-16.5 -5h-168q-24 0 -24 16v10q0 8 26.5 23t26.5 37v725q0 22 -26.5 36t-26.5 25v6q0 17 24 17h281q172 0 276.5 -73.5t106.5 -195.5q2 -91 -62 -161.5t-176 -96.5zM907 692q105 0 172.5 58.5t67.5 148.5q0 103 -68 165
t-180 62h-123q-16 0 -26.5 -9.5t-10.5 -26.5v-355q0 -20 13.5 -31.5t33.5 -11.5h121z" />
    <glyph glyph-name="macron" unicode="&#xaf;" 
d="M350 1257q-14 0 -22.5 7.5t-8.5 19.5v35q0 22 31 22h527q30 0 30 -22v-35q0 -12 -8.5 -19.5t-21.5 -7.5h-527z" />
    <glyph glyph-name="degree" unicode="&#xb0;" horiz-adv-x="815" 
d="M406 803q-144 0 -236 97.5t-92 236.5q0 140 92.5 238t237.5 98q144 0 236.5 -97.5t92.5 -234.5q0 -141 -92.5 -239.5t-238.5 -98.5zM408 856q104 0 169.5 82t65.5 201q0 118 -65.5 198t-169.5 80t-170 -80t-66 -198q0 -119 66 -201t170 -82z" />
    <glyph glyph-name="plusminus" unicode="&#xb1;" 
d="M588 248q-19 0 -19 24v336h-331q-22 0 -25 17l2 49q0 16 23 16h331v336q0 21 19 25l53 -2q18 0 18 -23v-336h332q25 0 25 -16v-49q0 -17 -25 -17h-332v-336q0 -10 -5 -17t-13 -7h-53zM238 0q-23 0 -23 16v50q0 16 23 16h753q25 0 25 -16v-50q0 -16 -25 -16h-753z" />
    <glyph glyph-name="acute" unicode="&#xb4;" horiz-adv-x="751" 
d="M176 1145q-28 -11 -41 10q-5 9 -2.5 20t10.5 17l365 252q38 27 59 -10l21 -41q8 -13 1.5 -28.5t-24.5 -21.5z" />
    <glyph glyph-name="paragraph" unicode="&#xb6;" horiz-adv-x="1253" 
d="M649 -381q-96 -1 -178.5 33t-131 84t-76 101.5t-27.5 92.5q0 33 17 53.5t48 20.5q25 0 42 -18t28 -46.5t23 -63t32 -68.5t48.5 -62.5t78.5 -46.5t117 -18q54 0 101 20t87 63t63 121.5t23 184.5v1316h-199v-849q0 -37 -34 -37h-176q-203 0 -338.5 135.5t-135.5 351.5
q0 207 135.5 337t338.5 130h565q41 0 41 -24v-5q0 -14 -13 -22t-29 -11.5t-29 -20t-13 -44.5l-2 -1216q0 -124 -32 -220.5t-88.5 -154.5t-128.5 -87.5t-157 -29.5z" />
    <glyph glyph-name="periodcentered" unicode="&#xb7;" horiz-adv-x="438" 
d="M219 690q-45 0 -73.5 26.5t-28.5 71.5q0 50 28 77.5t74 27.5t75.5 -28t29.5 -77q0 -45 -30 -71.5t-75 -26.5z" />
    <glyph glyph-name="cedilla" unicode="&#xb8;" 
d="M668 -119q88 0 145 -38t57 -101q0 -64 -59 -104.5t-149 -40.5q-96 0 -164 45q-22 13 -15 39q6 23 23 20q5 -1 10 -4q22 -14 59.5 -26.5t69.5 -12.5q52 0 90 23t37 63q-1 25 -14.5 42t-36.5 25.5t-44 11.5t-44 3q-25 0 -36.5 16.5t-6.5 44.5l24 113h60z" />
    <glyph glyph-name="ordmasculine" unicode="&#xba;" horiz-adv-x="868" 
d="M446 743q-159 0 -264.5 107.5t-105.5 267.5q0 155 99 256t259 101q148 0 252.5 -111t104.5 -266t-99 -255t-246 -100zM455 795q100 0 165.5 80.5t65.5 203.5q0 143 -77.5 242.5t-192.5 99.5q-108 0 -173 -79t-65 -199q0 -149 78 -248.5t199 -99.5z" />
    <glyph glyph-name="guillemotright" unicode="&#xbb;" horiz-adv-x="1044" 
d="M502 637q12 -9 12.5 -42t-12.5 -44q-83 -62 -154.5 -135.5t-154.5 -177.5q-17 -17 -34 -16.5t-29 10.5t-9 18q64 137 287 342q-116 91 -189.5 179.5t-112.5 189.5q-5 14 7 23t28 8.5t23 -11.5q61 -98 151 -188.5t187 -155.5zM954 637q14 -9 14.5 -42t-14.5 -44
q-139 -104 -309 -313q-17 -17 -33.5 -16t-28.5 10.5t-10 17.5q68 138 289 342q-117 91 -190.5 179.5t-112.5 189.5q-7 21 19.5 29.5t37.5 -9.5q62 -98 152 -188.5t186 -155.5z" />
    <glyph glyph-name="onequarter" unicode="&#xbc;" horiz-adv-x="1372" 
d="M354 737q0 -16 -37 -16h-174q-34 0 -34 16v8q0 9 11.5 15t25 10.5t25 19t11.5 37.5v465q0 35 -17.5 46.5t-38.5 6.5t-38.5 -4.5t-17.5 15.5v4q0 17 28 26l197 74q33 10 33 -12v-6q0 -10 -13 -21t-26 -31.5t-13 -54.5v-508q0 -23 12 -37.5t27 -19t27 -10.5t12 -15v-8z
M1092 1141q18 -15 -2 -35l-783 -760q-19 -19 -39 -2l-24 21q-17 17 -2 32l786 762q22 18 39 4zM1292 254q21 0 21 -14v-25q0 -16 -21 -16h-123v-101q0 -21 11 -34t24 -17t24 -10.5t11 -16.5v-4q0 -16 -27 -16h-172q-28 0 -28 16v4q0 10 11 16.5t23.5 10.5t23.5 17t11 34v101
h-376q-31 0 -31 24v6q0 20 14 39l371 488q25 28 47 28h43q20 0 20 -24v-506h123zM752 254h329v444z" />
    <glyph glyph-name="onehalf" unicode="&#xbd;" horiz-adv-x="1443" 
d="M340 737q0 -16 -35 -16h-160q-34 0 -34 16v8q0 9 10 15t21.5 10.5t21.5 19t10 37.5v471q0 33 -16 43t-35 4.5t-35 -5t-16 15.5v4q0 17 26 26l191 74q30 10 30 -12v-6q0 -9 -7.5 -17.5t-17 -16t-17 -25.5t-7.5 -42v-514q0 -23 11 -37.5t24 -19t24 -10.5t11 -15v-8z
M1083 1141q18 -15 -2 -35l-780 -760q-20 -20 -41 -2l-24 21q-16 19 -3 32l789 762q19 19 37 4zM1370 199q7 0 12 -6t2 -13l-49 -155q-7 -21 -24 -21h-512q-19 0 -19 16v7q0 54 33.5 104t83.5 87t108.5 77.5t108.5 75.5t83.5 81t33.5 93q0 67 -44 107t-114 40q-49 0 -84 -19
t-53 -46.5t-31 -55t-27 -46.5t-32 -19q-43 0 -43 51q0 66 81.5 126t190.5 60q114 0 182 -57.5t68 -146.5q0 -63 -42 -118t-105 -97t-128 -80t-121.5 -82.5t-74.5 -89.5h377q25 0 45.5 20t31.5 43.5t24 43.5t26 20h12z" />
    <glyph glyph-name="threequarters" unicode="&#xbe;" horiz-adv-x="1429" 
d="M643 938q0 -92 -80 -157.5t-203 -65.5q-70 0 -130 20t-96 50.5t-56.5 62.5t-20.5 59q0 19 10.5 30t26.5 11q17 0 30.5 -13.5t23 -34t26 -44.5t37 -44.5t58.5 -34t89 -13.5q81 0 137 47t56 115q0 79 -59 125.5t-158 46.5h-15q-19 0 -25 16t7 31l205 237h-375q-22 0 -22 23
v29q0 20 24 20h477q7 0 13 -4.5t6 -9.5v-8q0 -11 -11 -25l-249 -264q120 -5 197 -58.5t77 -146.5zM1251 1141q20 -16 -2 -35l-780 -760q-20 -20 -41 -2l-22 21q-18 19 -5 32l789 762q19 19 37 4zM1335 254q23 0 23 -14v-25q0 -16 -23 -16h-123v-101q0 -21 11 -34t24 -17
t24 -10.5t11 -16.5v-4q0 -16 -27 -16h-170q-28 0 -28 16v4q0 10 10.5 16.5t23 10.5t23 17t10.5 34v101h-374q-31 0 -31 24v6q0 23 14 39l371 488q22 28 47 28h43q18 0 18 -24v-506h123zM795 254h329v442z" />
    <glyph glyph-name="questiondown" unicode="&#xbf;" horiz-adv-x="991" 
d="M547 809q-42 0 -69 26t-27 68q0 46 27 73.5t69 27.5q44 0 72 -27.5t28 -73.5q0 -42 -28.5 -68t-71.5 -26zM489 -481q-186 0 -306 96t-120 276q0 73 24.5 137t64 112t87 92t95.5 86.5t87.5 87.5t64 103t24.5 124q0 20 22 29t45.5 0.5t26.5 -29.5q4 -74 -17.5 -138
t-58 -111.5t-82 -91.5t-91.5 -87t-84.5 -88.5t-62.5 -106t-24 -129.5q0 -135 89.5 -216t211.5 -81q77 0 135 24.5t89 61.5t55.5 80t38 80t32.5 61.5t42 24.5q65 0 65 -68q0 -41 -30 -95.5t-84 -107.5t-144 -89.5t-195 -36.5z" />
    <glyph glyph-name="Agrave" unicode="&#xc0;" horiz-adv-x="1343" 
d="M1249 115q10 -22 26.5 -37.5t30.5 -21t24.5 -14t10.5 -19.5v-3q0 -20 -38 -20h-209q-39 0 -39 20v3q0 11 13.5 19.5t28 15t23 21t-1.5 36.5l-117 282h-704l-109 -282q-9 -22 -0.5 -36.5t23 -21t28 -15t13.5 -19.5v-3q0 -20 -39 -20h-160q-37 0 -37 20v3q0 11 10.5 19.5
t24.5 14t30 21t25 37.5l478 1218q10 24 -5.5 42t-36 32t-20.5 25v4q0 18 25 18h78q30 0 48 -13t32 -44zM322 465h651l-338 817zM422 1817q-17 7 -23 21.5t2 27.5l21 41q21 37 59 12l365 -254q8 -6 10.5 -17t-2.5 -20q-13 -21 -41 -10z" />
    <glyph glyph-name="Aacute" unicode="&#xc1;" horiz-adv-x="1343" 
d="M1249 115q10 -22 26.5 -37.5t30.5 -21t24.5 -14t10.5 -19.5v-3q0 -20 -38 -20h-209q-39 0 -39 20v3q0 11 13.5 19.5t28 15t23 21t-1.5 36.5l-117 282h-704l-109 -282q-9 -22 -0.5 -36.5t23 -21t28 -15t13.5 -19.5v-3q0 -20 -39 -20h-160q-37 0 -37 20v3q0 11 10.5 19.5
t24.5 14t30 21t25 37.5l478 1218q10 24 -5.5 42t-36 32t-20.5 25v4q0 18 25 18h78q30 0 48 -13t32 -44zM322 465h651l-338 817zM485 1618q-29 -11 -41 8q-12 20 9 37l364 254q39 25 60 -12l20 -41q8 -13 1.5 -27.5t-24.5 -21.5z" />
    <glyph glyph-name="Acircumflex" unicode="&#xc2;" horiz-adv-x="1343" 
d="M412 1569q-24 -16 -42.5 3t5.5 42l225 194q25 25 51 25h25q23 0 51 -25l231 -194q24 -22 9 -42.5t-45 -2.5l-260 170zM1249 115q10 -22 26.5 -37.5t30.5 -21t24.5 -14t10.5 -19.5v-3q0 -20 -38 -20h-209q-39 0 -39 20v3q0 11 13.5 19.5t28 15t23 21t-1.5 36.5l-117 282
h-704l-109 -282q-9 -22 -0.5 -36.5t23 -21t28 -15t13.5 -19.5v-3q0 -20 -39 -20h-160q-37 0 -37 20v3q0 11 10.5 19.5t24.5 14t30 21t25 37.5l478 1218q10 24 -5.5 42t-36 32t-20.5 25v4q0 18 25 18h78q30 0 48 -13t32 -44zM322 465h651l-338 817z" />
    <glyph glyph-name="Atilde" unicode="&#xc3;" horiz-adv-x="1343" 
d="M352 1610q-10 0 -15.5 8.5t-2.5 21.5q16 77 62 126t120 49q42 0 89 -19t80.5 -42.5t72.5 -42.5t67 -19q39 0 68.5 23t44.5 63q8 22 29 22h10q24 0 18 -28q-44 -168 -184 -168q-41 0 -85.5 19.5t-77 43t-72.5 43t-72 19.5q-38 0 -68 -24.5t-45 -66.5q-11 -28 -26 -28h-13z
M1249 115q10 -22 26.5 -37.5t30.5 -21t24.5 -14t10.5 -19.5v-3q0 -20 -38 -20h-209q-39 0 -39 20v3q0 11 13.5 19.5t28 15t23 21t-1.5 36.5l-117 282h-704l-109 -282q-9 -22 -0.5 -36.5t23 -21t28 -15t13.5 -19.5v-3q0 -20 -39 -20h-160q-37 0 -37 20v3q0 11 10.5 19.5
t24.5 14t30 21t25 37.5l478 1218q10 24 -5.5 42t-36 32t-20.5 25v4q0 18 25 18h78q30 0 48 -13t32 -44zM322 465h651l-338 817z" />
    <glyph glyph-name="Adieresis" unicode="&#xc4;" horiz-adv-x="1343" 
d="M494 1636q-44 0 -72.5 27t-28.5 70q0 44 28 71t73 27q43 0 68.5 -27t25.5 -71q0 -43 -26 -70t-68 -27zM844 1636q-44 0 -71.5 27t-27.5 70q0 44 27.5 71t71.5 27q42 0 68 -27t26 -71q0 -43 -26.5 -70t-67.5 -27zM1249 115q10 -22 26.5 -37.5t30.5 -21t24.5 -14
t10.5 -19.5v-3q0 -20 -38 -20h-209q-39 0 -39 20v3q0 11 13.5 19.5t28 15t23 21t-1.5 36.5l-117 282h-704l-109 -282q-9 -22 -0.5 -36.5t23 -21t28 -15t13.5 -19.5v-3q0 -20 -39 -20h-160q-37 0 -37 20v3q0 11 10.5 19.5t24.5 14t30 21t25 37.5l478 1218q10 24 -5.5 42
t-36 32t-20.5 25v4q0 18 25 18h78q30 0 48 -13t32 -44zM322 465h651l-338 817z" />
    <glyph glyph-name="Aring" unicode="&#xc5;" horiz-adv-x="1343" 
d="M659 1565q-94 0 -155.5 57.5t-61.5 138.5q0 85 61.5 143t158.5 58q95 0 157 -58t62 -139q0 -86 -62.5 -143t-159.5 -57zM662 1905q-60 0 -97 -40t-37 -102q0 -60 37.5 -101.5t96.5 -41.5t96 40.5t37 102.5q0 60 -37 101t-96 41zM1249 115q10 -22 26.5 -37.5t30.5 -21
t24.5 -14t10.5 -19.5v-3q0 -20 -38 -20h-209q-39 0 -39 20v3q0 11 13.5 19.5t28 15t23 21t-1.5 36.5l-117 282h-704l-109 -282q-9 -22 -0.5 -36.5t23 -21t28 -15t13.5 -19.5v-3q0 -20 -39 -20h-160q-37 0 -37 20v3q0 11 10.5 19.5t24.5 14t30 21t25 37.5l478 1218
q10 24 -5.5 42t-36 32t-20.5 25v4q0 18 25 18h78q30 0 48 -13t32 -44zM322 465h651l-338 817z" />
    <glyph glyph-name="AE" unicode="&#xc6;" horiz-adv-x="1878" 
d="M1817 258q24 0 16 -31l-49 -188q-10 -39 -47 -39h-832q-39 0 -39 20v3q0 13 11.5 22.5t25.5 15.5t25.5 21t11.5 37v282h-559l-172 -286q-14 -20 -7 -34.5t20.5 -21t27.5 -15.5t14 -19v-2q0 -23 -41 -23h-194q-39 0 -39 23v2q0 10 10 17.5t24 13.5t33 22t33 39l729 1196
q18 26 13.5 46t-16.5 30t-25 21t-13 20v4q0 20 35 20h862q38 0 47 -39l47 -182q9 -35 -16 -35h-10q-16 0 -35.5 30t-36.5 66.5t-46.5 66.5t-61.5 30h-461q-47 0 -47 -64v-545h463q29 0 46.5 26t27.5 52.5t22 26.5h6q25 0 25 -41v-195q0 -16 -7 -27.5t-18 -11.5h-6
q-12 0 -22 26t-27.5 51.5t-46.5 25.5h-463v-586q0 -30 16 -48t43 -18h512q34 0 63.5 30.5t46.5 67t36.5 67t35.5 30.5h9zM420 467h520v866z" />
    <glyph glyph-name="Ccedilla" unicode="&#xc7;" horiz-adv-x="1400" 
d="M1282 467q9 19 27 24.5t30.5 -7t6.5 -38.5q-21 -87 -65.5 -166t-111.5 -145.5t-164.5 -108.5t-211.5 -46l-7 -99q88 0 145.5 -38t57.5 -101q0 -64 -59.5 -104.5t-149.5 -40.5q-96 0 -164 45q-22 13 -14 39q6 23 23 20q5 -1 10 -4q20 -14 58 -26.5t71 -12.5q51 0 88.5 23
t36.5 63q-1 25 -14.5 42t-35.5 25.5t-43 11.5t-44 3q-25 0 -36.5 16.5t-6.5 44.5l20 95q-125 9 -243 72t-207 162.5t-143 237.5t-54 287q0 159 52 296.5t142 233t215 150t269 54.5q116 0 222.5 -41t175.5 -100.5t110 -123.5t41 -114q0 -28 -17.5 -45t-46.5 -17q-22 0 -41 16
t-34 42.5t-35 60t-41 69t-55.5 69t-75.5 60t-103 42.5t-137 16q-103 0 -197.5 -45t-166 -124t-114 -193t-42.5 -244q0 -153 49.5 -288t132.5 -227.5t192.5 -146t227.5 -53.5q94 0 175.5 34t138.5 91.5t96.5 120t66.5 133.5z" />
    <glyph glyph-name="Egrave" unicode="&#xc8;" horiz-adv-x="1212" 
d="M172 0q-37 0 -37 20v3q0 11 11.5 19t24.5 14t24.5 22.5t11.5 40.5v1216q0 24 -11.5 41t-24.5 23.5t-24.5 15t-11.5 17.5v4q0 18 31 18h846q22 0 32 -9.5t15 -29.5l49 -184q4 -18 -1.5 -27.5t-16.5 -9.5h-9q-16 0 -36 31t-38 67.5t-47 67.5t-61 31h-524q-47 0 -47 -60
v-551h434q22 0 36.5 16.5t20 36t14 36t19.5 16.5h8q21 0 21 -29v-213q0 -14 -6 -23.5t-15 -9.5h-8q-11 0 -19.5 16.5t-14 36t-20 36t-36.5 16.5h-434l-2 -582q0 -30 17 -50t44 -20h576q32 0 61 31t45.5 68.5t36.5 68.5t37 31h8q11 0 16.5 -9.5t1.5 -25.5l-47 -186
q-13 -41 -47 -41h-903zM367 1817q-17 7 -23 21.5t2 27.5l21 41q21 37 59 12l365 -254q8 -6 10.5 -17t-2.5 -20q-13 -21 -41 -10z" />
    <glyph glyph-name="Eacute" unicode="&#xc9;" horiz-adv-x="1212" 
d="M172 0q-37 0 -37 20v3q0 11 11.5 19t24.5 14t24.5 22.5t11.5 40.5v1216q0 24 -11.5 41t-24.5 23.5t-24.5 15t-11.5 17.5v4q0 18 31 18h846q22 0 32 -9.5t15 -29.5l49 -184q4 -18 -1.5 -27.5t-16.5 -9.5h-9q-16 0 -36 31t-38 67.5t-47 67.5t-61 31h-524q-47 0 -47 -60
v-551h434q22 0 36.5 16.5t20 36t14 36t19.5 16.5h8q21 0 21 -29v-213q0 -14 -6 -23.5t-15 -9.5h-8q-11 0 -19.5 16.5t-14 36t-20 36t-36.5 16.5h-434l-2 -582q0 -30 17 -50t44 -20h576q32 0 61 31t45.5 68.5t36.5 68.5t37 31h8q11 0 16.5 -9.5t1.5 -25.5l-47 -186
q-13 -41 -47 -41h-903zM444 1618q-29 -11 -41 8q-12 20 9 37l364 254q39 25 60 -12l20 -41q8 -13 2 -27.5t-24 -21.5z" />
    <glyph glyph-name="Ecircumflex" unicode="&#xca;" horiz-adv-x="1212" 
d="M358 1569q-24 -16 -42 3t6 42l225 194q25 25 51 25h27q21 0 49 -25l231 -194q24 -22 9 -42.5t-46 -2.5l-260 170zM1151 262q11 0 16.5 -9.5t1.5 -25.5l-47 -186q-13 -41 -47 -41h-903q-37 0 -37 20v3q0 11 11.5 19t24.5 14t24.5 22.5t11.5 40.5v1216q0 24 -11.5 41
t-24.5 23.5t-24.5 15t-11.5 17.5v4q0 18 31 18h846q22 0 32 -9.5t15 -29.5l49 -184q4 -18 -1.5 -27.5t-16.5 -9.5h-9q-16 0 -36 31t-38 67.5t-47 67.5t-61 31h-524q-47 0 -47 -60v-551h434q22 0 36.5 16.5t20 36t14 36t19.5 16.5h8q21 0 21 -29v-213q0 -14 -6 -23.5
t-15 -9.5h-8q-11 0 -19.5 16.5t-14 36t-20 36t-36.5 16.5h-434l-2 -582q0 -30 17 -50t44 -20h576q32 0 61 31t45.5 68.5t36.5 68.5t37 31h8z" />
    <glyph glyph-name="Edieresis" unicode="&#xcb;" horiz-adv-x="1212" 
d="M434 1636q-44 0 -72 27t-28 70q0 44 28 71t72 27q43 0 68.5 -27t25.5 -71q0 -43 -26 -70t-68 -27zM782 1636q-43 0 -69.5 27t-26.5 70q0 44 26.5 71t69.5 27t70 -27t27 -71q0 -43 -27 -70t-70 -27zM172 0q-37 0 -37 20v3q0 11 11.5 19t24.5 14t24.5 22.5t11.5 40.5v1216
q0 24 -11.5 41t-24.5 23.5t-24.5 15t-11.5 17.5v4q0 18 31 18h846q22 0 32 -9.5t15 -29.5l49 -184q4 -18 -1.5 -27.5t-16.5 -9.5h-9q-16 0 -36 31t-38 67.5t-47 67.5t-61 31h-524q-47 0 -47 -60v-551h434q22 0 36.5 16.5t20 36t14 36t19.5 16.5h8q21 0 21 -29v-213
q0 -14 -6 -23.5t-15 -9.5h-8q-11 0 -19.5 16.5t-14 36t-20 36t-36.5 16.5h-434l-2 -582q0 -30 17 -50t44 -20h576q32 0 61 31t45.5 68.5t36.5 68.5t37 31h8q11 0 16.5 -9.5t1.5 -25.5l-47 -186q-13 -41 -47 -41h-903z" />
    <glyph glyph-name="Igrave" unicode="&#xcc;" horiz-adv-x="538" 
d="M137 18v5q0 10 11 18.5t24 14.5t24 21t11 36v1226q0 21 -11 36.5t-24 22t-24 15.5t-11 19v2q0 20 37 20h193q39 0 39 -20v-2q0 -10 -12 -19t-26 -15.5t-26 -22t-12 -36.5v-1226q0 -21 12 -36t26 -21t26 -14.5t12 -18.5v-5q0 -20 -39 -20h-193q-37 0 -37 20zM18 1817
q-17 7 -22.5 21.5t2.5 27.5l20 41q21 37 60 12l364 -254q8 -7 11 -17t-2 -20q-13 -21 -41 -10z" />
    <glyph glyph-name="Iacute" unicode="&#xcd;" horiz-adv-x="538" 
d="M137 18v5q0 10 11 18.5t24 14.5t24 21t11 36v1226q0 21 -11 36.5t-24 22t-24 15.5t-11 19v2q0 20 37 20h193q39 0 39 -20v-2q0 -10 -12 -19t-26 -15.5t-26 -22t-12 -36.5v-1226q0 -21 12 -36t26 -21t26 -14.5t12 -18.5v-5q0 -20 -39 -20h-193q-37 0 -37 20zM84 1618
q-29 -11 -41 8q-12 21 8 37l365 254q38 25 59 -12l21 -41q8 -13 1.5 -27.5t-24.5 -21.5z" />
    <glyph glyph-name="Icircumflex" unicode="&#xce;" horiz-adv-x="538" 
d="M555 1614q24 -22 8.5 -42.5t-45.5 -2.5l-260 168l-252 -168q-24 -16 -42 3t7 42l226 194q25 25 49 25h26q24 0 52 -25zM367 1454q39 0 39 -20v-2q0 -10 -12 -19t-26 -15.5t-26 -22t-12 -36.5v-1226q0 -21 12 -36t26 -21t26 -14.5t12 -18.5v-5q0 -20 -39 -20h-193
q-37 0 -37 20v5q0 10 11 18.5t24 14.5t24 21t11 36v1226q0 21 -11 36.5t-24 22t-24 15.5t-11 19v2q0 20 37 20h193z" />
    <glyph glyph-name="Idieresis" unicode="&#xcf;" horiz-adv-x="538" 
d="M90 1636q-44 0 -72 27t-28 70q0 44 28 71t72 27q43 0 68.5 -27t25.5 -71q0 -43 -26 -70t-68 -27zM438 1636q-43 0 -69.5 27t-26.5 70q0 44 26.5 71t69.5 27q42 0 69.5 -27t27.5 -71q0 -42 -27.5 -69.5t-69.5 -27.5zM137 18v5q0 10 11 18.5t24 14.5t24 21t11 36v1226
q0 21 -11 36.5t-24 22t-24 15.5t-11 19v2q0 20 37 20h193q39 0 39 -20v-2q0 -10 -12 -19t-26 -15.5t-26 -22t-12 -36.5v-1226q0 -21 12 -36t26 -21t26 -14.5t12 -18.5v-5q0 -20 -39 -20h-193q-37 0 -37 20z" />
    <glyph glyph-name="Eth" unicode="&#xd0;" horiz-adv-x="1505" 
d="M627 1454q121 0 236.5 -30.5t216 -91t176.5 -144t119.5 -197t43.5 -243.5q0 -173 -59 -316.5t-160.5 -236.5t-235 -144t-284.5 -51h-500q-39 0 -39 20v3q0 11 11.5 19.5t24.5 15t24.5 21.5t11.5 36v585h-121q-29 0 -29 21v22q0 21 29 21h121v573q0 22 -11.5 38
t-24.5 22.5t-24.5 15.5t-11.5 19v2q0 20 39 20h447zM672 66q98 0 189 26t169.5 79.5t136.5 129t91.5 180.5t33.5 228q0 128 -40 239.5t-107.5 190.5t-156 136.5t-186 85.5t-196.5 28h-225q-45 0 -45 -56v-569h313q13 0 21 -7t8 -16v-18q0 -23 -29 -23h-313v-555
q0 -38 17.5 -58.5t47.5 -20.5h271z" />
    <glyph glyph-name="Ntilde" unicode="&#xd1;" horiz-adv-x="1527" 
d="M483 1610q-9 0 -15 8.5t-3 21.5q16 77 62 126t120 49q42 0 88.5 -19t80.5 -42.5t73 -42.5t67 -19q81 0 113 86q8 22 29 22h10q24 0 18 -28q-44 -168 -184 -168q-41 0 -85.5 19.5t-77 43t-72.5 43t-72 19.5q-38 0 -68 -24.5t-45 -66.5l-7.5 -16.5t-6.5 -8.5t-10 -3h-15z
M1366 1454q39 0 39 -22v-2q0 -9 -12.5 -17.5t-27.5 -15t-27.5 -22.5t-12.5 -38v-1294q0 -43 -37 -43h-28q-23 0 -56 47l-919 1258v-1180q0 -24 13 -41.5t29 -24.5t29 -16t13 -20v-3q0 -20 -39 -20h-160q-39 0 -39 20v3q0 11 12 20t26 16t26 24.5t12 41.5v1210q0 22 -12 37
t-26 20.5t-26 13t-12 17.5v9q0 22 39 22h109q38 0 61 -33l907 -1251v1167q0 22 -13 38t-28 22.5t-28 15t-13 17.5v2q0 22 41 22h160z" />
    <glyph glyph-name="Ograve" unicode="&#xd2;" horiz-adv-x="1589" 
d="M815 -20q-156 0 -293.5 63t-232 167.5t-149 241t-54.5 281.5q0 155 53 292t145.5 236t225.5 156.5t287 57.5q201 0 363.5 -102t252.5 -274t90 -378q0 -194 -89 -364t-248.5 -273.5t-350.5 -103.5zM840 47q115 0 217.5 51.5t173 135.5t111 194t40.5 225q0 155 -46.5 293.5
t-127.5 240t-199 161t-253 59.5q-158 0 -283.5 -80.5t-194.5 -218.5t-69 -307q0 -146 47 -282.5t128.5 -241t201 -167.5t254.5 -63zM545 1817q-17 7 -23 21.5t2 27.5l21 41q21 37 59 12l365 -254q8 -6 10.5 -17t-2.5 -20q-13 -21 -41 -10z" />
    <glyph glyph-name="Oacute" unicode="&#xd3;" horiz-adv-x="1589" 
d="M815 -20q-156 0 -293.5 63t-232 167.5t-149 241t-54.5 281.5q0 155 53 292t145.5 236t225.5 156.5t287 57.5q201 0 363.5 -102t252.5 -274t90 -378q0 -194 -89 -364t-248.5 -273.5t-350.5 -103.5zM840 47q115 0 217.5 51.5t173 135.5t111 194t40.5 225q0 155 -46.5 293.5
t-127.5 240t-199 161t-253 59.5q-158 0 -283.5 -80.5t-194.5 -218.5t-69 -307q0 -146 47 -282.5t128.5 -241t201 -167.5t254.5 -63zM610 1618q-29 -11 -41 8q-12 20 9 37l364 254q38 25 59 -12l21 -41q8 -13 1.5 -27.5t-24.5 -21.5z" />
    <glyph glyph-name="Ocircumflex" unicode="&#xd4;" horiz-adv-x="1589" 
d="M537 1569q-24 -16 -42.5 3t5.5 42l225 194q25 25 51 25h27q21 0 49 -25l231 -194q24 -22 9.5 -42.5t-45.5 -2.5l-261 170zM797 1475q201 0 363.5 -102t252.5 -274t90 -378q0 -194 -89 -364t-248.5 -273.5t-350.5 -103.5q-156 0 -293.5 63t-232 167.5t-149 241
t-54.5 281.5q0 155 53 292t145.5 236t225.5 156.5t287 57.5zM840 47q115 0 217.5 51.5t173 135.5t111 194t40.5 225q0 155 -46.5 293.5t-127.5 240t-199 161t-253 59.5q-158 0 -283.5 -80.5t-194.5 -218.5t-69 -307q0 -146 47 -282.5t128.5 -241t201 -167.5t254.5 -63z" />
    <glyph glyph-name="Otilde" unicode="&#xd5;" horiz-adv-x="1589" 
d="M651 1815q42 0 89 -19t81 -42.5t73 -42.5t67 -19q80 0 112 86q8 22 29 22h10q24 0 18 -28q-44 -168 -184 -168q-41 0 -85.5 19.5t-77 43t-72.5 43t-72 19.5q-38 0 -68 -24.5t-45 -66.5q-11 -28 -26 -28h-13q-9 0 -15 8.5t-3 21.5q16 77 62 126t120 49zM815 -20
q-156 0 -293.5 63t-232 167.5t-149 241t-54.5 281.5q0 155 53 292t145.5 236t225.5 156.5t287 57.5q201 0 363.5 -102t252.5 -274t90 -378q0 -194 -89 -364t-248.5 -273.5t-350.5 -103.5zM840 47q115 0 217.5 51.5t173 135.5t111 194t40.5 225q0 155 -46.5 293.5t-127.5 240
t-199 161t-253 59.5q-158 0 -283.5 -80.5t-194.5 -218.5t-69 -307q0 -146 47 -282.5t128.5 -241t201 -167.5t254.5 -63z" />
    <glyph glyph-name="Odieresis" unicode="&#xd6;" horiz-adv-x="1589" 
d="M618 1636q-44 0 -71 27t-27 70q0 44 27 71t71 27q43 0 69 -27t26 -71q0 -43 -26 -70t-69 -27zM969 1636q-44 0 -71.5 27t-27.5 70q0 44 27.5 71t71.5 27q42 0 69 -27t27 -71q0 -43 -27.5 -70t-68.5 -27zM815 -20q-156 0 -293.5 63t-232 167.5t-149 241t-54.5 281.5
q0 155 53 292t145.5 236t225.5 156.5t287 57.5q201 0 363.5 -102t252.5 -274t90 -378q0 -194 -89 -364t-248.5 -273.5t-350.5 -103.5zM840 47q115 0 217.5 51.5t173 135.5t111 194t40.5 225q0 155 -46.5 293.5t-127.5 240t-199 161t-253 59.5q-158 0 -283.5 -80.5
t-194.5 -218.5t-69 -307q0 -146 47 -282.5t128.5 -241t201 -167.5t254.5 -63z" />
    <glyph glyph-name="multiply" unicode="&#xd7;" 
d="M348 238l-35 34q-10 13 6 29l234 236l-234 239q-16 16 -6 29l35 35q15 11 29 -6l239 -234l236 234q16 19 29 6l34 -35q11 -15 -6 -29l-233 -235l233 -240q17 -14 6 -29l-34 -34q-13 -10 -29 6l-240 233l-235 -233q-16 -16 -29 -6z" />
    <glyph glyph-name="Oslash" unicode="&#xd8;" horiz-adv-x="1624" 
d="M1362 1208q162 -211 162 -487q0 -194 -89 -364t-249 -273.5t-352 -103.5q-155 0 -290 61.5t-235 169.5l-164 -156q-15 -12 -28 -2l-23 23q-14 11 8 30l164 156q-160 213 -160 471q0 155 53 292t145.5 236t225.5 156.5t287 57.5q149 0 277.5 -57t224.5 -161l127 121
q21 24 37 8l18 -18q16 -13 -6 -35zM227 801q0 -250 127 -455l881 832q-85 108 -203 168.5t-256 60.5q-158 0 -284 -80.5t-195.5 -218.5t-69.5 -307zM858 47q116 0 219 51.5t173.5 135.5t111.5 194t41 225q0 266 -129 469l-881 -831q88 -114 207.5 -179t257.5 -65z" />
    <glyph glyph-name="Ugrave" unicode="&#xd9;" horiz-adv-x="1472" 
d="M748 -20q-166 0 -294.5 74.5t-199 208.5t-70.5 306v768q0 22 -11.5 38t-25 22.5t-25 15t-11.5 17.5v4q0 20 41 20h192q39 0 39 -20v-4q0 -9 -12 -17.5t-26 -15t-26 -22.5t-12 -38v-768q0 -231 128 -376.5t329 -145.5q123 0 223.5 62.5t160.5 182.5t60 277v768
q0 22 -11.5 38t-26 22.5t-26 15t-11.5 17.5v4q0 20 38 20h156q41 0 41 -20v-4q0 -9 -12.5 -17.5t-27.5 -15t-27.5 -22.5t-12.5 -38v-768q0 -261 -151 -425t-389 -164zM514 1817q-17 7 -22.5 21.5t2.5 27.5l20 41q21 37 59 12l365 -254q8 -6 10.5 -17t-2.5 -20
q-13 -21 -41 -10z" />
    <glyph glyph-name="Uacute" unicode="&#xda;" horiz-adv-x="1472" 
d="M748 -20q-166 0 -294.5 74.5t-199 208.5t-70.5 306v768q0 22 -11.5 38t-25 22.5t-25 15t-11.5 17.5v4q0 20 41 20h192q39 0 39 -20v-4q0 -9 -12 -17.5t-26 -15t-26 -22.5t-12 -38v-768q0 -231 128 -376.5t329 -145.5q123 0 223.5 62.5t160.5 182.5t60 277v768
q0 22 -11.5 38t-26 22.5t-26 15t-11.5 17.5v4q0 20 38 20h156q41 0 41 -20v-4q0 -9 -12.5 -17.5t-27.5 -15t-27.5 -22.5t-12.5 -38v-768q0 -261 -151 -425t-389 -164zM561 1618q-29 -11 -41 8q-12 21 8 37l365 254q38 25 59 -12l21 -41q8 -13 1.5 -27.5t-24.5 -21.5z" />
    <glyph glyph-name="Ucircumflex" unicode="&#xdb;" horiz-adv-x="1472" 
d="M487 1569q-24 -16 -42 3t6 42l225 194q25 25 51 25h25q23 0 51 -25l231 -194q24 -22 8.5 -42.5t-45.5 -2.5l-260 170zM1327 1454q41 0 41 -20v-4q0 -9 -12.5 -17.5t-27.5 -15t-27.5 -22.5t-12.5 -38v-768q0 -261 -151 -425t-389 -164q-166 0 -294.5 74.5t-199 208.5
t-70.5 306v768q0 22 -11.5 38t-25 22.5t-25 15t-11.5 17.5v4q0 20 41 20h192q39 0 39 -20v-4q0 -9 -12 -17.5t-26 -15t-26 -22.5t-12 -38v-768q0 -231 128 -376.5t329 -145.5q123 0 223.5 62.5t160.5 182.5t60 277v768q0 22 -11.5 38t-26 22.5t-26 15t-11.5 17.5v4
q0 20 38 20h156z" />
    <glyph glyph-name="Udieresis" unicode="&#xdc;" horiz-adv-x="1472" 
d="M571 1636q-44 0 -71 27t-27 70q0 44 27 71t71 27q43 0 69 -27t26 -71q0 -43 -26 -70t-69 -27zM922 1636q-44 0 -71.5 27t-27.5 70q0 44 27.5 71t71.5 27q42 0 69 -27t27 -71q0 -43 -27 -70t-69 -27zM748 -20q-166 0 -294.5 74.5t-199 208.5t-70.5 306v768q0 22 -11.5 38
t-25 22.5t-25 15t-11.5 17.5v4q0 20 41 20h192q39 0 39 -20v-4q0 -9 -12 -17.5t-26 -15t-26 -22.5t-12 -38v-768q0 -231 128 -376.5t329 -145.5q123 0 223.5 62.5t160.5 182.5t60 277v768q0 22 -11.5 38t-26 22.5t-26 15t-11.5 17.5v4q0 20 38 20h156q41 0 41 -20v-4
q0 -9 -12.5 -17.5t-27.5 -15t-27.5 -22.5t-12.5 -38v-768q0 -261 -151 -425t-389 -164z" />
    <glyph glyph-name="Yacute" unicode="&#xdd;" horiz-adv-x="1329" 
d="M1268 1454q37 0 37 -18v-4q0 -10 -9.5 -17.5t-23 -13.5t-32 -22t-32.5 -40l-473 -753v-471q0 -21 12 -36t26 -21.5t26 -15t12 -19.5v-3q0 -20 -39 -20h-192q-39 0 -39 20v3q0 11 11 19.5t24.5 15t24.5 21.5t11 36v465l-493 759q-16 26 -43 43t-44.5 27t-17.5 23v2
q0 20 39 20h217q39 0 39 -20v-2q0 -10 -14 -19.5t-27.5 -17t-20.5 -22t7 -34.5l442 -702l437 702q15 22 6.5 37t-24.5 21.5t-32 15.5t-16 19v2q0 20 35 20h166zM506 1618q-29 -11 -41 8q-12 21 8 37l365 254q38 25 59 -12l21 -41q8 -13 1.5 -27.5t-24.5 -21.5z" />
    <glyph glyph-name="Thorn" unicode="&#xde;" horiz-adv-x="1249" 
d="M174 0q-37 0 -37 23v4q0 10 11 18.5t24 14.5t24 21.5t11 37.5v1216q0 24 -11 41t-24 23t-24 14.5t-11 18.5v2q0 20 37 20h193q39 0 39 -20v-2q0 -10 -12 -18.5t-26 -14.5t-26 -23t-12 -41v-114h217q176 0 316 -49t226.5 -154t86.5 -252q0 -232 -157.5 -357.5
t-436.5 -125.5h-252v-164q0 -22 12 -37.5t26 -21.5t26 -14.5t12 -18.5v-4q0 -10 -10.5 -16.5t-28.5 -6.5h-193zM385 346h203q214 0 337.5 103.5t123.5 291.5q0 102 -40.5 182.5t-110.5 130.5t-159 75.5t-190 25.5h-164q-26 0 -40.5 -17t-14.5 -44v-691q0 -26 14.5 -41.5
t40.5 -15.5z" />
    <glyph glyph-name="germandbls" unicode="&#xdf;" horiz-adv-x="1118" 
d="M711 805q144 -29 238.5 -138t94.5 -276q0 -182 -122 -286.5t-304 -104.5q-19 0 -27.5 15t-1.5 30.5t25 15.5q84 0 151.5 32t112 106t44.5 182q0 166 -91 275.5t-249 109.5q-10 0 -16 10t-6.5 21.5t5.5 21.5t17 10q84 0 159.5 89t75.5 219q0 148 -74.5 235t-203.5 88
q-120 1 -192.5 -83.5t-72.5 -219.5v-1032q0 -25 13.5 -42t29.5 -23.5t29.5 -16t13.5 -20.5v-7q0 -16 -24 -16h-232q-26 0 -26 16v7q0 11 12 20t27 15.5t27 24t12 42.5v1001q0 172 107 281t282 109q166 0 277.5 -103.5t111.5 -265.5q0 -114 -64 -207t-159 -135z" />
    <glyph glyph-name="agrave" unicode="&#xe0;" horiz-adv-x="1005" 
d="M238 1341q-17 7 -23 22t2 28l21 41q21 37 59 12l365 -254q8 -6 10.5 -17t-2.5 -20q-13 -21 -41 -10zM881 145q3 -41 22.5 -63t41 -26t39 -11t17.5 -22q0 -35 -100 -35q-66 0 -97 30t-34 121q-36 -74 -115 -116.5t-192 -42.5q-172 0 -275.5 83t-103.5 224
q-1 143 103.5 223t273.5 80q175 0 268 -96l-6 69q-18 192 -86 289.5t-201 97.5q-66 0 -113 -23t-70.5 -55t-39.5 -64.5t-31.5 -55.5t-36.5 -23q-57 0 -57 55q0 35 23 72.5t64.5 71t110 55t150.5 21.5q180 0 284.5 -115t123.5 -324zM485 35q119 0 193 67.5t72 169.5l-7 62
q-2 83 -75 142t-189 59q-123 0 -198.5 -63t-75.5 -165q0 -120 77 -196t203 -76z" />
    <glyph glyph-name="aacute" unicode="&#xe1;" horiz-adv-x="1005" 
d="M281 1149q-29 -11 -41 8q-12 21 8 37l364 254q39 25 60 -12l20 -41q8 -13 2 -27.5t-24 -21.5zM881 145q3 -41 22.5 -63t41 -26t39 -11t17.5 -22q0 -35 -100 -35q-66 0 -97 30t-34 121q-36 -74 -115 -116.5t-192 -42.5q-172 0 -275.5 83t-103.5 224q-1 143 103.5 223
t273.5 80q175 0 268 -96l-6 69q-18 192 -86 289.5t-201 97.5q-66 0 -113 -23t-70.5 -55t-39.5 -64.5t-31.5 -55.5t-36.5 -23q-57 0 -57 55q0 35 23 72.5t64.5 71t110 55t150.5 21.5q180 0 284.5 -115t123.5 -324zM485 35q119 0 193 67.5t72 169.5l-7 62q-2 83 -75 142
t-189 59q-123 0 -198.5 -63t-75.5 -165q0 -120 77 -196t203 -76z" />
    <glyph glyph-name="acircumflex" unicode="&#xe2;" horiz-adv-x="1005" 
d="M881 145q3 -41 22.5 -63t41 -26t39 -11t17.5 -22q0 -35 -100 -35q-66 0 -97 30t-34 121q-36 -74 -115 -116.5t-192 -42.5q-172 0 -275.5 83t-103.5 224q-1 143 103.5 223t273.5 80q175 0 268 -96l-6 69q-18 192 -86 289.5t-201 97.5q-66 0 -113 -23t-70.5 -55
t-39.5 -64.5t-31.5 -55.5t-36.5 -23q-57 0 -57 55q0 35 23 72.5t64.5 71t110 55t150.5 21.5q180 0 284.5 -115t123.5 -324zM485 35q119 0 193 67.5t72 169.5l-7 62q-2 83 -75 142t-189 59q-123 0 -198.5 -63t-75.5 -165q0 -120 77 -196t203 -76zM195 1151q-24 -16 -42.5 3
t5.5 42l225 195q24 24 51 24h25q24 0 51 -24l231 -195q24 -22 9 -42.5t-45 -2.5l-261 170z" />
    <glyph glyph-name="atilde" unicode="&#xe3;" horiz-adv-x="1005" 
d="M121 1229q-10 0 -16 9t-3 22q16 76 63 125t122 49q42 0 88.5 -19t80 -42.5t72 -42.5t66.5 -19q81 0 113 86q8 22 28 22h13q22 0 16 -28q-44 -168 -184 -168q-41 0 -85 19.5t-76.5 43t-72.5 43t-72 19.5q-76 0 -114 -91q-11 -28 -25 -28h-14zM881 145q3 -41 22.5 -63
t41 -26t39 -11t17.5 -22q0 -35 -100 -35q-66 0 -97 30t-34 121q-36 -74 -115 -116.5t-192 -42.5q-172 0 -275.5 83t-103.5 224q-1 143 103.5 223t273.5 80q175 0 268 -96l-6 69q-18 192 -86 289.5t-201 97.5q-66 0 -113 -23t-70.5 -55t-39.5 -64.5t-31.5 -55.5t-36.5 -23
q-57 0 -57 55q0 35 23 72.5t64.5 71t110 55t150.5 21.5q180 0 284.5 -115t123.5 -324zM485 35q119 0 193 67.5t72 169.5l-7 62q-2 83 -75 142t-189 59q-123 0 -198.5 -63t-75.5 -165q0 -120 77 -196t203 -76z" />
    <glyph glyph-name="adieresis" unicode="&#xe4;" horiz-adv-x="1005" 
d="M279 1206q-45 0 -73 26t-28 68q0 44 28.5 71.5t72.5 27.5q43 0 68.5 -27.5t25.5 -71.5q0 -43 -25.5 -68.5t-68.5 -25.5zM627 1206q-43 0 -70 26t-27 68q0 44 27 71.5t70 27.5t69.5 -27.5t26.5 -71.5q0 -43 -26.5 -68.5t-69.5 -25.5zM881 145q3 -41 22.5 -63t41 -26
t39 -11t17.5 -22q0 -35 -100 -35q-66 0 -97 30t-34 121q-36 -74 -115 -116.5t-192 -42.5q-172 0 -275.5 83t-103.5 224q-1 143 103.5 223t273.5 80q175 0 268 -96l-6 69q-18 192 -86 289.5t-201 97.5q-66 0 -113 -23t-70.5 -55t-39.5 -64.5t-31.5 -55.5t-36.5 -23
q-57 0 -57 55q0 35 23 72.5t64.5 71t110 55t150.5 21.5q180 0 284.5 -115t123.5 -324zM485 35q119 0 193 67.5t72 169.5l-7 62q-2 83 -75 142t-189 59q-123 0 -198.5 -63t-75.5 -165q0 -120 77 -196t203 -76z" />
    <glyph glyph-name="aring" unicode="&#xe5;" horiz-adv-x="1005" 
d="M446 1124q-94 0 -155.5 57t-61.5 140q0 84 62 141.5t158 57.5q95 0 157 -57t62 -140q0 -84 -62.5 -141.5t-159.5 -57.5zM449 1464q-59 0 -96.5 -40t-37.5 -101t37.5 -103t96.5 -42t96 40.5t37 104.5q0 59 -37 100t-96 41zM881 145q3 -41 22.5 -63t41 -26t39 -11t17.5 -22
q0 -35 -100 -35q-66 0 -97 30t-34 121q-36 -74 -115 -116.5t-192 -42.5q-172 0 -275.5 83t-103.5 224q-1 143 103.5 223t273.5 80q175 0 268 -96l-6 69q-18 192 -86 289.5t-201 97.5q-66 0 -113 -23t-70.5 -55t-39.5 -64.5t-31.5 -55.5t-36.5 -23q-57 0 -57 55q0 35 23 72.5
t64.5 71t110 55t150.5 21.5q180 0 284.5 -115t123.5 -324zM485 35q119 0 193 67.5t72 169.5l-7 62q-2 83 -75 142t-189 59q-123 0 -198.5 -63t-75.5 -165q0 -120 77 -196t203 -76z" />
    <glyph glyph-name="ae" unicode="&#xe6;" horiz-adv-x="1667" 
d="M1550 307q9 22 34.5 16t19.5 -32q-30 -131 -138 -220t-274 -89q-131 0 -234.5 69t-162.5 185q-20 -109 -108.5 -182.5t-223.5 -73.5q-170 0 -274.5 84t-104.5 223q0 138 102 220.5t275 82.5t270 -94l-6 67q-18 192 -87 289.5t-202 97.5q-66 0 -111 -23t-67 -56t-37 -65.5
t-32 -55.5t-42 -23q-28 0 -43.5 16.5t-15.5 44.5q0 78 105.5 147t242.5 69q129 0 220 -61.5t139 -176.5q60 112 166 177t241 65q161 0 271 -100.5t110 -219.5q0 -74 -78 -96l-641 -191q35 -148 133 -237.5t238 -89.5q106 0 191.5 62.5t123.5 170.5zM1174 952
q-95 0 -170.5 -56.5t-115.5 -149.5t-40 -203q0 -45 6 -88l563 176q49 15 49 65q0 37 -22 81t-59.5 83t-93.5 65.5t-117 26.5zM485 35q114 0 188 79t77 177l-5 43v2l-2 12q-9 78 -81.5 131t-182.5 53q-123 0 -198.5 -60t-75.5 -157q0 -124 77 -202t203 -78z" />
    <glyph glyph-name="ccedilla" unicode="&#xe7;" horiz-adv-x="1026" 
d="M911 285q6 14 21 18t26.5 -5t6.5 -26q-31 -116 -132.5 -202.5t-254.5 -89.5l-7 -99q88 0 145.5 -38t57.5 -101q0 -64 -59 -104.5t-148 -40.5q-94 0 -166 45q-22 13 -14 39q6 23 25 20q5 -1 10 -4q20 -14 58 -26.5t71 -12.5q51 0 88.5 23t36.5 63q-1 25 -14.5 42
t-36.5 25.5t-44 11.5t-44 3q-24 0 -35.5 17t-5.5 44l18 95q-189 22 -315.5 165t-126.5 351q0 226 139.5 366t353.5 140q77 0 151 -24.5t123.5 -61t80 -77.5t30.5 -75q0 -26 -14.5 -41.5t-42.5 -15.5q-20 1 -39 19t-33.5 44.5t-39 57.5t-53.5 57t-78 43.5t-111 17.5
q-147 1 -246.5 -114.5t-99.5 -286.5q0 -216 117.5 -346.5t297.5 -130.5q108 0 186 59.5t117 155.5z" />
    <glyph glyph-name="egrave" unicode="&#xe8;" horiz-adv-x="1017" 
d="M297 1341q-17 7 -23 22t2 28l21 41q21 37 59 12l365 -254q8 -6 10.5 -17t-2.5 -20q-13 -21 -41 -10zM903 279q11 23 35 18.5t20 -31.5q-13 -51 -44.5 -99.5t-81 -91.5t-125 -69t-164.5 -26q-95 0 -179.5 36.5t-148 102.5t-100.5 165t-37 218q0 140 61.5 255t171 181
t244.5 66q82 0 154.5 -28t120.5 -72t76 -98t28 -106q0 -40 -21 -63t-67 -37l-635 -190q29 -158 129.5 -249t241.5 -91q123 0 203.5 57.5t117.5 151.5zM537 948q-149 0 -243.5 -119t-94.5 -290q0 -26 4 -72l569 174q45 13 45 57q0 82 -83.5 166t-196.5 84z" />
    <glyph glyph-name="eacute" unicode="&#xe9;" horiz-adv-x="1017" 
d="M340 1149q-31 -12 -43 8q-9 22 10 37l365 254q38 27 57 -12l23 -41q7 -14 0.5 -27.5t-23.5 -21.5zM903 279q11 23 35 18.5t20 -31.5q-13 -51 -44.5 -99.5t-81 -91.5t-125 -69t-164.5 -26q-95 0 -179.5 36.5t-148 102.5t-100.5 165t-37 218q0 140 61.5 255t171 181
t244.5 66q82 0 154.5 -28t120.5 -72t76 -98t28 -106q0 -40 -21 -63t-67 -37l-635 -190q29 -158 129.5 -249t241.5 -91q123 0 203.5 57.5t117.5 151.5zM537 948q-149 0 -243.5 -119t-94.5 -290q0 -26 4 -72l569 174q45 13 45 57q0 82 -83.5 166t-196.5 84z" />
    <glyph glyph-name="ecircumflex" unicode="&#xea;" horiz-adv-x="1017" 
d="M903 279q11 23 35 18.5t20 -31.5q-13 -51 -44.5 -99.5t-81 -91.5t-125 -69t-164.5 -26q-95 0 -179.5 36.5t-148 102.5t-100.5 165t-37 218q0 140 61.5 255t171 181t244.5 66q82 0 154.5 -28t120.5 -72t76 -98t28 -106q0 -40 -21 -63t-67 -37l-635 -190
q29 -158 129.5 -249t241.5 -91q123 0 203.5 57.5t117.5 151.5zM537 948q-149 0 -243.5 -119t-94.5 -290q0 -26 4 -72l569 174q45 13 45 57q0 82 -83.5 166t-196.5 84zM287 1151q-24 -16 -42.5 3t5.5 42l225 195q24 24 51 24h25q24 0 51 -24l232 -195q24 -22 8.5 -42.5
t-45.5 -2.5l-260 170z" />
    <glyph glyph-name="edieresis" unicode="&#xeb;" horiz-adv-x="1017" 
d="M336 1206q-43 0 -70.5 26t-27.5 68q0 44 27.5 71.5t70.5 27.5q44 0 69 -27t25 -72q0 -43 -25 -68.5t-69 -25.5zM686 1206q-44 0 -70 25.5t-26 68.5q0 45 26 72t70 27q42 0 69 -27.5t27 -71.5q0 -42 -27 -68t-69 -26zM903 279q11 23 35 18.5t20 -31.5q-13 -51 -44.5 -99.5
t-81 -91.5t-125 -69t-164.5 -26q-95 0 -179.5 36.5t-148 102.5t-100.5 165t-37 218q0 140 61.5 255t171 181t244.5 66q82 0 154.5 -28t120.5 -72t76 -98t28 -106q0 -40 -21 -63t-67 -37l-635 -190q29 -158 129.5 -249t241.5 -91q123 0 203.5 57.5t117.5 151.5zM537 948
q-149 0 -243.5 -119t-94.5 -290q0 -26 4 -72l569 174q45 13 45 57q0 82 -83.5 166t-196.5 84z" />
    <glyph glyph-name="igrave" unicode="&#xec;" horiz-adv-x="450" 
d="M420 1143l-391 198q-17 7 -24 22t1 28l23 41q21 37 59 12l363 -254q9 -6 12.5 -17t-2.5 -20q-14 -22 -41 -10zM135 0q-17 0 -28 7t-11 16v8q0 10 11.5 18t25.5 14t25.5 20.5t11.5 35.5v686q0 25 -11 44t-25 28.5t-25 19t-11 16.5v7q0 3 1 5t4 4.5t5 4t7.5 4.5t7.5 4
l110 55q28 11 42 4t14 -28v-854q0 -21 12 -35.5t26 -20.5t26 -14t12 -18v-8q0 -9 -11 -16t-28 -7h-191z" />
    <glyph glyph-name="iacute" unicode="&#xed;" horiz-adv-x="450" 
d="M72 1149q-31 -12 -43 8q-9 22 10 37l364 254q38 27 60 -12l20 -41q8 -13 1.5 -27.5t-23.5 -21.5zM135 0q-17 0 -28 7t-11 16v8q0 10 11.5 18t25.5 14t25.5 20.5t11.5 35.5v686q0 25 -11 44t-25 28.5t-25 19t-11 16.5v7q0 3 1 5t4 4.5t5 4t7.5 4.5t7.5 4l110 55
q28 11 42 4t14 -28v-854q0 -21 12 -35.5t26 -20.5t26 -14t12 -18v-8q0 -9 -11 -16t-28 -7h-191z" />
    <glyph glyph-name="icircumflex" unicode="&#xee;" horiz-adv-x="450" 
d="M530 1194q16 -13 15 -28.5t-15 -20t-36 5.5l-261 168l-249 -168q-24 -16 -42.5 2t5.5 41l225 197q27 24 51 24h27q24 0 51 -24zM289 119q0 -21 12 -35.5t26 -20.5t26 -14t12 -18v-8q0 -9 -11 -16t-28 -7h-191q-17 0 -28 7t-11 16v8q0 10 11.5 18t25.5 14t25.5 20.5
t11.5 35.5v686q0 25 -11 44t-25 28.5t-25 19t-11 16.5v7q0 3 1 5t4 4.5t5 4t7.5 4.5t7.5 4l110 55q28 11 42 4t14 -28v-854z" />
    <glyph glyph-name="idieresis" unicode="&#xef;" horiz-adv-x="450" 
d="M68 1206q-44 0 -71.5 25.5t-27.5 68.5q0 44 27.5 71.5t71.5 27.5q43 0 68.5 -27.5t25.5 -71.5q0 -43 -25.5 -68.5t-68.5 -25.5zM418 1206q-44 0 -71.5 25.5t-27.5 68.5q0 44 27.5 71.5t71.5 27.5q42 0 69 -27.5t27 -71.5q0 -42 -27 -68t-69 -26zM135 0q-17 0 -28 7
t-11 16v8q0 10 11.5 18t25.5 14t25.5 20.5t11.5 35.5v686q0 25 -11 44t-25 28.5t-25 19t-11 16.5v7q0 3 1 5t4 4.5t5 4t7.5 4.5t7.5 4l110 55q28 11 42 4t14 -28v-854q0 -21 12 -35.5t26 -20.5t26 -14t12 -18v-8q0 -9 -11 -16t-28 -7h-191z" />
    <glyph glyph-name="eth" unicode="&#xf0;" horiz-adv-x="1146" 
d="M725 1251q161 -156 250.5 -357.5t89.5 -410.5q0 -225 -138.5 -364t-344.5 -139q-211 0 -357.5 154t-146.5 376q0 139 59 251.5t168 177.5t248 65q199 0 321 -160q-78 210 -249 375l-283 -95q-24 -9 -33 9l-10 20q-10 23 18 33l250 82q-111 91 -239 157q-18 11 -20.5 29.5
t9.5 30t31 4.5q169 -64 320 -189l217 72q23 10 33 -6l10 -23q3 -9 -2.5 -18.5t-18.5 -13.5zM940 434v47q-23 228 -128.5 347.5t-264.5 119.5q-152 0 -250 -114.5t-98 -288.5q0 -142 52 -258.5t145.5 -184t209.5 -67.5q140 0 237 116t97 283z" />
    <glyph glyph-name="ntilde" unicode="&#xf1;" horiz-adv-x="1146" 
d="M250 1229q-8 0 -14 9t-3 22q16 76 62.5 125t120.5 49q42 0 89 -19t80.5 -42.5t72.5 -42.5t67 -19q76 0 113 86q8 22 28 22h11q25 0 16 -28q-40 -168 -182 -168q-41 0 -85.5 19.5t-77 43t-73 43t-72.5 19.5q-38 0 -67.5 -24.5t-44.5 -66.5q-11 -28 -27 -28h-14zM1016 121
q1 -23 12.5 -38.5t25 -21.5t25 -14t11.5 -18v-9q0 -20 -41 -20h-191q-37 0 -37 20v9q0 10 11.5 18t25 14t25 21t10.5 37l-19 426q-9 193 -87.5 295t-202.5 102q-117 0 -200 -76.5t-95 -193.5v-555q0 -21 12 -35.5t26 -20.5t26 -14t12 -18v-9q0 -20 -39 -20h-193
q-39 0 -39 20v9q0 10 11.5 18t25.5 14t25.5 20.5t11.5 35.5v692q0 29 -12 48t-26 25.5t-26 14.5t-12 18v5q0 14 27 26l108 51q25 11 38.5 3.5t13.5 -29.5v-166q47 91 133.5 145t193.5 54q163 0 269 -117t118 -344z" />
    <glyph glyph-name="ograve" unicode="&#xf2;" horiz-adv-x="1142" 
d="M748 1143l-390 198q-18 7 -24 22t2 28l22 41q18 38 58 12l364 -254q8 -6 10.5 -17t-2.5 -20q-13 -20 -40 -10zM590 -18q-147 0 -265.5 72.5t-183.5 193t-65 262.5q0 210 139 350.5t350 140.5q214 0 357 -149.5t143 -370.5q0 -216 -133 -357.5t-342 -141.5zM610 35
q142 0 238 115.5t96 291.5q0 143 -50.5 258.5t-141.5 181.5t-205 66q-151 0 -250.5 -113.5t-99.5 -289.5q0 -135 51 -251t147 -187.5t215 -71.5z" />
    <glyph glyph-name="oacute" unicode="&#xf3;" horiz-adv-x="1142" 
d="M399 1149q-29 -11 -41 8q-10 18 9 37l366 254q37 26 58 -12l20 -41q9 -14 3 -27.5t-23 -21.5zM590 -18q-147 0 -265.5 72.5t-183.5 193t-65 262.5q0 210 139 350.5t350 140.5q214 0 357 -149.5t143 -370.5q0 -216 -133 -357.5t-342 -141.5zM610 35q142 0 238 115.5
t96 291.5q0 143 -50.5 258.5t-141.5 181.5t-205 66q-151 0 -250.5 -113.5t-99.5 -289.5q0 -135 51 -251t147 -187.5t215 -71.5z" />
    <glyph glyph-name="ocircumflex" unicode="&#xf4;" horiz-adv-x="1142" 
d="M565 1001q214 0 357 -149.5t143 -370.5q0 -216 -133 -357.5t-342 -141.5q-147 0 -265.5 72.5t-183.5 193t-65 262.5q0 210 139 350.5t350 140.5zM610 35q142 0 238 115.5t96 291.5q0 143 -50.5 258.5t-141.5 181.5t-205 66q-151 0 -250.5 -113.5t-99.5 -289.5
q0 -135 51 -251t147 -187.5t215 -71.5zM313 1151q-24 -16 -42.5 3t5.5 42l226 195q24 24 51 24h25q24 0 51 -24l231 -195q24 -22 8.5 -42.5t-45.5 -2.5l-260 170z" />
    <glyph glyph-name="otilde" unicode="&#xf5;" horiz-adv-x="1142" 
d="M403 1434q53 0 112.5 -31t111 -61.5t86.5 -30.5q80 0 112 86q8 22 29 22h10q25 0 19 -28q-44 -168 -185 -168q-41 0 -85.5 19.5t-77 43t-72.5 43t-72 19.5q-38 0 -67.5 -24.5t-44.5 -66.5q-11 -28 -27 -28h-12q-10 0 -16 9t-3 22q16 77 62 125.5t120 48.5zM590 -18
q-147 0 -265.5 72.5t-183.5 193t-65 262.5q0 210 139 350.5t350 140.5q214 0 357 -149.5t143 -370.5q0 -216 -133 -357.5t-342 -141.5zM610 35q142 0 238 115.5t96 291.5q0 143 -50.5 258.5t-141.5 181.5t-205 66q-151 0 -250.5 -113.5t-99.5 -289.5q0 -135 51 -251
t147 -187.5t215 -71.5z" />
    <glyph glyph-name="odieresis" unicode="&#xf6;" horiz-adv-x="1142" 
d="M397 1206q-45 0 -72.5 26t-27.5 68q0 44 28 71.5t72 27.5q42 0 67 -27t25 -72q0 -43 -24.5 -68.5t-67.5 -25.5zM745 1206q-44 0 -70 25.5t-26 68.5q0 45 26 72t70 27q42 0 69.5 -27.5t27.5 -71.5q0 -42 -27.5 -68t-69.5 -26zM590 -18q-147 0 -265.5 72.5t-183.5 193
t-65 262.5q0 210 139 350.5t350 140.5q214 0 357 -149.5t143 -370.5q0 -216 -133 -357.5t-342 -141.5zM610 35q142 0 238 115.5t96 291.5q0 143 -50.5 258.5t-141.5 181.5t-205 66q-151 0 -250.5 -113.5t-99.5 -289.5q0 -135 51 -251t147 -187.5t215 -71.5z" />
    <glyph glyph-name="divide" unicode="&#xf7;" 
d="M616 836q-47 0 -75.5 28t-28.5 74q0 47 28.5 76.5t75.5 29.5q46 0 74.5 -29.5t28.5 -76.5q0 -46 -28.5 -74t-74.5 -28zM242 498q-23 0 -23 16v51q0 6 6.5 11.5t16.5 5.5h745q10 0 17.5 -5.5t7.5 -11.5v-51q0 -16 -25 -16h-745zM616 -20q-47 0 -75.5 28.5t-28.5 75.5
t28.5 76.5t75.5 29.5q46 0 74.5 -29.5t28.5 -76.5t-28.5 -75.5t-74.5 -28.5z" />
    <glyph glyph-name="oslash" unicode="&#xf8;" horiz-adv-x="1165" 
d="M1085 956q14 -14 -6 -34l-112 -109q108 -139 108 -332q0 -216 -133 -357.5t-342 -141.5q-207 0 -352 139l-129 -123q-15 -12 -29 0l-18 20q-16 12 6 31l125 121q-117 145 -117 340q0 210 139 350.5t350 140.5q208 0 347 -139l110 107q8 9 19 10t20 -6zM209 545
q0 -164 76 -297l565 547q-112 153 -293 153q-150 0 -249 -113.5t-99 -289.5zM954 442q0 167 -67 295l-565 -544q56 -74 132.5 -116t166.5 -42q142 0 237.5 115.5t95.5 291.5z" />
    <glyph glyph-name="ugrave" unicode="&#xf9;" horiz-adv-x="1134" 
d="M352 1341q-17 7 -23.5 22t1.5 28l22 41q19 39 58 12l364 -254q20 -16 10 -37q-13 -21 -43 -10zM963 158q0 -49 19 -74t42 -28t42 -9.5t19 -21.5q0 -22 -21.5 -29.5t-76.5 -7.5q-140 0 -135 151l-6 33q-44 -91 -129 -141.5t-195 -50.5q-175 0 -277 129.5t-102 359.5v369
q0 24 -11.5 41t-25 24t-25 16.5t-11.5 20.5v2q0 20 24 27l127 28q20 6 31.5 2t11.5 -22l-2 -516q0 -197 74 -307.5t207 -110.5q129 0 215 95.5t86 250.5v449q0 24 -12 40.5t-27 23.5t-27 17t-12 21v2q0 22 22 27l134 28q20 6 30.5 2t10.5 -22v-819z" />
    <glyph glyph-name="uacute" unicode="&#xfa;" horiz-adv-x="1134" 
d="M393 1149q-29 -11 -41 8q-11 18 8 37l367 254q36 25 57 -12l21 -41q9 -14 2.5 -27.5t-23.5 -21.5zM963 158q0 -49 19 -74t42 -28t42 -9.5t19 -21.5q0 -22 -21.5 -29.5t-76.5 -7.5q-140 0 -135 151l-6 33q-44 -91 -129 -141.5t-195 -50.5q-175 0 -277 129.5t-102 359.5
v369q0 24 -11.5 41t-25 24t-25 16.5t-11.5 20.5v2q0 20 24 27l127 28q20 6 31.5 2t11.5 -22l-2 -516q0 -197 74 -307.5t207 -110.5q129 0 215 95.5t86 250.5v449q0 24 -12 40.5t-27 23.5t-27 17t-12 21v2q0 22 22 27l134 28q20 6 30.5 2t10.5 -22v-819z" />
    <glyph glyph-name="ucircumflex" unicode="&#xfb;" horiz-adv-x="1134" 
d="M307 1151q-24 -16 -42.5 2t5.5 41l226 197q27 24 51 24h26q23 0 50 -24l231 -197q15 -13 14 -28.5t-15 -20.5t-36 6l-260 168zM963 158q0 -49 19 -74t42 -28t42 -9.5t19 -21.5q0 -22 -21.5 -29.5t-76.5 -7.5q-140 0 -135 151l-6 33q-44 -91 -129 -141.5t-195 -50.5
q-175 0 -277 129.5t-102 359.5v369q0 24 -11.5 41t-25 24t-25 16.5t-11.5 20.5v2q0 20 24 27l127 28q20 6 31.5 2t11.5 -22l-2 -516q0 -197 74 -307.5t207 -110.5q129 0 215 95.5t86 250.5v449q0 24 -12 40.5t-27 23.5t-27 17t-12 21v2q0 22 22 27l134 28q20 6 30.5 2
t10.5 -22v-819z" />
    <glyph glyph-name="udieresis" unicode="&#xfc;" horiz-adv-x="1134" 
d="M391 1206q-45 0 -72.5 26t-27.5 68q0 44 28 71.5t72 27.5q43 0 68.5 -27.5t25.5 -71.5q0 -43 -25.5 -68.5t-68.5 -25.5zM741 1206q-44 0 -71 25.5t-27 68.5q0 44 27 71.5t71 27.5q42 0 68.5 -27.5t26.5 -71.5q0 -42 -26.5 -68t-68.5 -26zM963 158q0 -49 19 -74t42 -28
t42 -9.5t19 -21.5q0 -22 -21.5 -29.5t-76.5 -7.5q-140 0 -135 151l-6 33q-44 -91 -129 -141.5t-195 -50.5q-175 0 -277 129.5t-102 359.5v369q0 24 -11.5 41t-25 24t-25 16.5t-11.5 20.5v2q0 20 24 27l127 28q20 6 31.5 2t11.5 -22l-2 -516q0 -197 74 -307.5t207 -110.5
q129 0 215 95.5t86 250.5v449q0 24 -12 40.5t-27 23.5t-27 17t-12 21v2q0 22 22 27l134 28q20 6 30.5 2t10.5 -22v-819z" />
    <glyph glyph-name="yacute" unicode="&#xfd;" horiz-adv-x="1042" 
d="M379 1149q-31 -12 -43 8q-9 22 10 37l365 254q38 27 57 -12l23 -41q7 -14 0.5 -27.5t-23.5 -21.5zM1014 983q24 0 24 -20v-5q0 -15 -13 -24t-35.5 -28.5t-39.5 -55.5l-387 -862q-78 -178 -119 -244q-103 -168 -241 -176h-13q-94 0 -159.5 54.5t-65.5 109.5q0 27 14.5 43
t40.5 16q21 0 36.5 -17t27 -41.5t26 -49t41.5 -41.5t66 -17q133 0 268 344l-387 881q-12 27 -28.5 46t-29.5 25.5t-22.5 15.5t-9.5 21v5q0 20 25 20h207q24 0 24 -20v-5q0 -14 -17 -27t-25 -26t5 -55l322 -766l330 758q15 32 6 51.5t-26.5 27t-34.5 16.5t-17 21v5
q0 20 27 20h180z" />
    <glyph glyph-name="thorn" unicode="&#xfe;" horiz-adv-x="1138" 
d="M590 1004q129 0 237 -64.5t171 -178.5t63 -253q0 -143 -61.5 -264t-170 -192.5t-237.5 -71.5q-98 0 -186.5 48.5t-143.5 133.5v-520q0 -21 12 -36t27 -21t27 -15.5t12 -20.5v-6q0 -20 -39 -20h-190q-41 0 -41 20v6q0 11 11.5 20.5t26 15.5t26 21t11.5 36v1695
q0 22 -11.5 38.5t-26 24.5t-26 17.5t-11.5 20.5v6q0 17 24 29l117 53q53 24 53 -23v-665q50 78 139 122t187 44zM567 35q167 0 269 125t102 325q0 199 -107.5 331t-273.5 132q-104 0 -193.5 -74.5t-99.5 -183.5l-2 -342q9 -128 103.5 -220.5t201.5 -92.5z" />
    <glyph glyph-name="ydieresis" unicode="&#xff;" horiz-adv-x="1042" 
d="M375 1206q-43 0 -71 26t-28 68q0 44 28 71.5t71 27.5q44 0 69 -27t25 -72q0 -43 -25 -68.5t-69 -25.5zM725 1206q-44 0 -70 25.5t-26 68.5q0 45 26 72t70 27q42 0 69 -27.5t27 -71.5q0 -42 -27 -68t-69 -26zM1014 983q24 0 24 -20v-5q0 -15 -13 -24t-35.5 -28.5
t-39.5 -55.5l-387 -862q-78 -178 -119 -244q-103 -168 -241 -176h-13q-94 0 -159.5 54.5t-65.5 109.5q0 27 14.5 43t40.5 16q21 0 36.5 -17t27 -41.5t26 -49t41.5 -41.5t66 -17q133 0 268 344l-387 881q-12 27 -28.5 46t-29.5 25.5t-22.5 15.5t-9.5 21v5q0 20 25 20h207
q24 0 24 -20v-5q0 -14 -17 -27t-25 -26t5 -55l322 -766l330 758q15 32 6 51.5t-26.5 27t-34.5 16.5t-17 21v5q0 20 27 20h180z" />
    <glyph glyph-name="Amacron" unicode="&#x100;" horiz-adv-x="1343" 
d="M401 1675q-13 0 -21.5 7.5t-8.5 19.5v35q0 24 30 24h527q30 0 30 -24v-35q0 -12 -8.5 -19.5t-21.5 -7.5h-527zM1249 115q10 -22 26.5 -37.5t30.5 -21t24.5 -14t10.5 -19.5v-3q0 -20 -38 -20h-209q-39 0 -39 20v3q0 11 13.5 19.5t28 15t23 21t-1.5 36.5l-117 282h-704
l-109 -282q-9 -22 -0.5 -36.5t23 -21t28 -15t13.5 -19.5v-3q0 -20 -39 -20h-160q-37 0 -37 20v3q0 11 10.5 19.5t24.5 14t30 21t25 37.5l478 1218q10 24 -5.5 42t-36 32t-20.5 25v4q0 18 25 18h78q30 0 48 -13t32 -44zM322 465h651l-338 817z" />
    <glyph glyph-name="amacron" unicode="&#x101;" horiz-adv-x="1005" 
d="M184 1257q-30 0 -30 25v35q0 24 30 24h527q30 0 30 -24v-35q0 -25 -30 -25h-527zM881 145q3 -41 22.5 -63t41 -26t39 -11t17.5 -22q0 -35 -100 -35q-66 0 -97 30t-34 121q-36 -74 -115 -116.5t-192 -42.5q-172 0 -275.5 83t-103.5 224q-1 143 103.5 223t273.5 80
q175 0 268 -96l-6 69q-18 192 -86 289.5t-201 97.5q-66 0 -113 -23t-70.5 -55t-39.5 -64.5t-31.5 -55.5t-36.5 -23q-57 0 -57 55q0 35 23 72.5t64.5 71t110 55t150.5 21.5q180 0 284.5 -115t123.5 -324zM485 35q119 0 193 67.5t72 169.5l-7 62q-2 83 -75 142t-189 59
q-123 0 -198.5 -63t-75.5 -165q0 -120 77 -196t203 -76z" />
    <glyph glyph-name="Abreve" unicode="&#x102;" horiz-adv-x="1343" 
d="M666 1608q-117 0 -201.5 68.5t-99.5 166.5q-3 20 9.5 31t27 8.5t18.5 -14.5q22 -78 89.5 -125t156.5 -47t157 47t90 125q5 12 20 14.5t27 -8.5t9 -31q-14 -98 -98 -166.5t-205 -68.5zM1249 115q10 -22 26.5 -37.5t30.5 -21t24.5 -14t10.5 -19.5v-3q0 -20 -38 -20h-209
q-39 0 -39 20v3q0 11 13.5 19.5t28 15t23 21t-1.5 36.5l-117 282h-704l-109 -282q-9 -22 -0.5 -36.5t23 -21t28 -15t13.5 -19.5v-3q0 -20 -39 -20h-160q-37 0 -37 20v3q0 11 10.5 19.5t24.5 14t30 21t25 37.5l478 1218q10 24 -5.5 42t-36 32t-20.5 25v4q0 18 25 18h78
q30 0 48 -13t32 -44zM322 465h651l-338 817z" />
    <glyph glyph-name="abreve" unicode="&#x103;" horiz-adv-x="1005" 
d="M449 1178q-119 0 -203 67.5t-99 165.5q-4 20 8.5 31.5t28 9t19.5 -15.5q22 -78 89.5 -125t156.5 -47q88 0 156 47t91 125q5 12 20 14.5t27 -8.5t9 -31q-14 -98 -98.5 -165.5t-204.5 -67.5zM881 145q3 -41 22.5 -63t41 -26t39 -11t17.5 -22q0 -35 -100 -35q-66 0 -97 30
t-34 121q-36 -74 -115 -116.5t-192 -42.5q-172 0 -275.5 83t-103.5 224q-1 143 103.5 223t273.5 80q175 0 268 -96l-6 69q-18 192 -86 289.5t-201 97.5q-66 0 -113 -23t-70.5 -55t-39.5 -64.5t-31.5 -55.5t-36.5 -23q-57 0 -57 55q0 35 23 72.5t64.5 71t110 55t150.5 21.5
q180 0 284.5 -115t123.5 -324zM485 35q119 0 193 67.5t72 169.5l-7 62q-2 83 -75 142t-189 59q-123 0 -198.5 -63t-75.5 -165q0 -120 77 -196t203 -76z" />
    <glyph glyph-name="Aogonek" unicode="&#x104;" horiz-adv-x="1343" 
d="M1249 115q10 -22 26.5 -37.5t30.5 -21t24.5 -14t10.5 -19.5v-3q0 -20 -38 -20h-60q-65 -57 -109 -126.5t-44 -127.5q0 -48 24.5 -76t63.5 -28q26 0 61 14q17 7 26.5 -5t6.5 -29t-15 -23q-44 -23 -94 -23q-69 0 -119.5 42t-50.5 110q0 71 54 145t133 127h-86q-39 0 -39 20
v3q0 11 13.5 19.5t28 15t23 21t-1.5 36.5l-117 282h-704l-109 -282q-9 -22 -0.5 -36.5t23 -21t28 -15t13.5 -19.5v-3q0 -20 -39 -20h-160q-37 0 -37 20v3q0 11 10.5 19.5t24.5 14t30 21t25 37.5l478 1218q10 24 -5.5 42t-36 32t-20.5 25v4q0 18 25 18h78q30 0 48 -13t32 -44
zM322 465h651l-338 817z" />
    <glyph glyph-name="aogonek" unicode="&#x105;" horiz-adv-x="1005" 
d="M893 -12q-123 -123 -123 -226q0 -48 24.5 -76t63.5 -28q22 0 62 14q17 7 26.5 -5t6.5 -29t-15 -23q-40 -21 -94 -21q-69 0 -119.5 41t-50.5 109q0 65 45 133t115 121q-61 25 -64 141q-36 -74 -115 -116.5t-192 -42.5q-172 0 -275.5 83t-103.5 224q-1 143 103.5 223
t273.5 80q175 0 268 -96l-6 69q-18 192 -86 289.5t-201 97.5q-66 0 -113 -23t-70.5 -55t-39.5 -64.5t-31.5 -55.5t-36.5 -23q-57 0 -57 55q0 35 23 72.5t64.5 71t110 55t150.5 21.5q180 0 284.5 -115t123.5 -324l37 -420q3 -41 22.5 -63t41 -26t39 -11t17.5 -22
q0 -35 -100 -35h-8zM485 35q119 0 193 67.5t72 169.5l-7 62q-2 83 -75 142t-189 59q-123 0 -198.5 -63t-75.5 -165q0 -120 77 -196t203 -76z" />
    <glyph glyph-name="Cacute" unicode="&#x106;" horiz-adv-x="1400" 
d="M549 1610q-31 -8 -39 16q-6 23 18 35l410 168q40 19 53 -23l13 -45q5 -15 -4 -27.5t-27 -15.5zM766 -20q-130 0 -254.5 60.5t-219 161.5t-152.5 243t-58 296q0 159 52 296.5t142 233t215 150t269 54.5q116 0 222.5 -41t175.5 -100.5t110 -123.5t41 -114q0 -28 -17.5 -45
t-46.5 -17q-22 0 -41 16t-34 42.5t-35 60t-41 69t-55.5 69t-75.5 60t-103 42.5t-137 16q-103 0 -197.5 -45t-166 -124t-114 -193t-42.5 -244q0 -153 49.5 -288t132.5 -227.5t192.5 -146t227.5 -53.5q94 0 175.5 34t138.5 91.5t96.5 120t66.5 133.5q9 19 27 24.5t30.5 -7
t6.5 -38.5q-22 -90 -68.5 -170t-116.5 -148t-172.5 -108t-222.5 -40z" />
    <glyph glyph-name="cacute" unicode="&#x107;" horiz-adv-x="1026" 
d="M377 1149q-28 -12 -41 8q-11 20 10 37l365 254q36 25 57 -12l20 -41q9 -14 3 -27.5t-23 -21.5zM569 -20q-134 0 -247.5 65.5t-181.5 185t-68 267.5q0 226 139.5 366t353.5 140q77 0 151 -24.5t123.5 -61t80 -77.5t30.5 -75q0 -26 -14.5 -41.5t-42.5 -15.5q-20 1 -39 19
t-33.5 44.5t-39 57.5t-53.5 57t-78 43.5t-111 17.5q-147 1 -246.5 -114.5t-99.5 -286.5q0 -216 117.5 -346.5t297.5 -130.5q108 0 186 59.5t117 155.5q6 14 21 18t26.5 -5t6.5 -26q-31 -118 -135 -205t-261 -87z" />
    <glyph glyph-name="Cdotaccent" unicode="&#x10a;" horiz-adv-x="1400" 
d="M737 1606q-47 0 -75.5 27t-28.5 73t28.5 74t75.5 28q44 0 71.5 -28t27.5 -74t-27 -73t-72 -27zM766 -20q-130 0 -254.5 60.5t-219 161.5t-152.5 243t-58 296q0 159 52 296.5t142 233t215 150t269 54.5q116 0 222.5 -41t175.5 -100.5t110 -123.5t41 -114q0 -28 -17.5 -45
t-46.5 -17q-22 0 -41 16t-34 42.5t-35 60t-41 69t-55.5 69t-75.5 60t-103 42.5t-137 16q-103 0 -197.5 -45t-166 -124t-114 -193t-42.5 -244q0 -153 49.5 -288t132.5 -227.5t192.5 -146t227.5 -53.5q94 0 175.5 34t138.5 91.5t96.5 120t66.5 133.5q9 19 27 24.5t30.5 -7
t6.5 -38.5q-22 -90 -68.5 -170t-116.5 -148t-172.5 -108t-222.5 -40z" />
    <glyph glyph-name="cdotaccent" unicode="&#x10b;" horiz-adv-x="1026" 
d="M547 1202q-49 0 -78 27.5t-29 73.5q0 47 29 75.5t78 28.5q45 0 72.5 -28.5t27.5 -75.5q0 -45 -27.5 -73t-72.5 -28zM569 -20q-134 0 -247.5 65.5t-181.5 185t-68 267.5q0 226 139.5 366t353.5 140q77 0 151 -24.5t123.5 -61t80 -77.5t30.5 -75q0 -26 -14.5 -41.5
t-42.5 -15.5q-20 1 -39 19t-33.5 44.5t-39 57.5t-53.5 57t-78 43.5t-111 17.5q-147 1 -246.5 -114.5t-99.5 -286.5q0 -216 117.5 -346.5t297.5 -130.5q108 0 186 59.5t117 155.5q6 14 21 18t26.5 -5t6.5 -26q-31 -118 -135 -205t-261 -87z" />
    <glyph glyph-name="Ccaron" unicode="&#x10c;" horiz-adv-x="1400" 
d="M469 1774q-19 18 0 34q21 16 43 2l262 -194l262 194q24 16 43 0t3 -33q-1 -2 -3 -3l-241 -220q-25 -22 -52 -22h-26q-26 0 -51 22zM1282 467q9 19 27 24.5t30.5 -7t6.5 -38.5q-22 -90 -68.5 -170t-116.5 -148t-172.5 -108t-222.5 -40q-130 0 -254.5 60.5t-219 161.5
t-152.5 243t-58 296q0 159 52 296.5t142 233t215 150t269 54.5q116 0 222.5 -41t175.5 -100.5t110 -123.5t41 -114q0 -28 -17.5 -45t-46.5 -17q-22 0 -41 16t-34 42.5t-35 60t-41 69t-55.5 69t-75.5 60t-103 42.5t-137 16q-103 0 -197.5 -45t-166 -124t-114 -193t-42.5 -244
q0 -153 49.5 -288t132.5 -227.5t192.5 -146t227.5 -53.5q94 0 175.5 34t138.5 91.5t96.5 120t66.5 133.5z" />
    <glyph glyph-name="ccaron" unicode="&#x10d;" horiz-adv-x="1026" 
d="M479 1167l-239 222q-13 13 -7.5 26.5t20.5 16.5t30 -5l262 -196l262 196q16 11 32 6t19 -18t-8 -26l-242 -222q-25 -22 -51 -22h-27q-26 0 -51 22zM911 285q6 14 21 18t26.5 -5t6.5 -26q-31 -118 -135 -205t-261 -87q-134 0 -247.5 65.5t-181.5 185t-68 267.5
q0 226 139.5 366t353.5 140q77 0 151 -24.5t123.5 -61t80 -77.5t30.5 -75q0 -26 -14.5 -41.5t-42.5 -15.5q-20 1 -39 19t-33.5 44.5t-39 57.5t-53.5 57t-78 43.5t-111 17.5q-147 1 -246.5 -114.5t-99.5 -286.5q0 -216 117.5 -346.5t297.5 -130.5q108 0 186 59.5t117 155.5z
" />
    <glyph glyph-name="Dcaron" unicode="&#x10e;" horiz-adv-x="1499" 
d="M414 1774q-19 18 0 34q21 16 43 2l262 -194l262 194q24 16 43 0t3 -33q-1 -2 -3 -3l-242 -220q-25 -22 -51 -22h-29q-27 0 -49 22zM621 1454q121 0 236.5 -30.5t216 -91t176.5 -144t119.5 -197t43.5 -243.5q0 -173 -59 -316.5t-160.5 -236.5t-235 -144t-284.5 -51h-500
q-39 0 -39 20v3q0 11 11.5 19.5t24.5 15t24.5 21.5t11.5 36v1222q0 22 -11.5 38t-24.5 22.5t-24.5 15.5t-11.5 19v2q0 20 39 20h447zM666 66q98 0 189 26t169.5 79.5t136.5 129t91.5 180.5t33.5 228q0 128 -40 239.5t-107.5 190.5t-156 136.5t-186 85.5t-196.5 28h-225
q-45 0 -45 -56v-1188q0 -38 17.5 -58.5t47.5 -20.5h271z" />
    <glyph glyph-name="dcaron" unicode="&#x10f;" horiz-adv-x="1185" 
d="M1272 1655q26 0 26 -37q0 -253 -176 -436q-10 -10 -22.5 -13t-22.5 5l-8 6q-15 13 6 45q127 169 127 393q0 15 7.5 26t17.5 11h45zM997 117q0 -22 11.5 -38t25.5 -23t25.5 -15.5t11.5 -17.5v-7q0 -16 -24 -16h-134q-12 0 -19 8t-7 19l-4 139q-51 -89 -142.5 -137.5
t-193.5 -48.5q-94 0 -179.5 38.5t-149.5 105.5t-102 164t-38 208q0 222 134 365t343 143q101 0 187.5 -45.5t138.5 -120.5v512q0 29 -12 47.5t-27 25t-27 15t-12 18.5v4q0 18 26 27l115 43q53 20 53 -25v-1388zM580 35q51 0 102.5 21.5t96.5 61.5t73.5 104.5t28.5 142.5v286
q0 50 -26 102.5t-69.5 96t-107 71t-133.5 27.5q-151 0 -249.5 -118t-100.5 -298q-1 -140 47.5 -253t137 -178t200.5 -66z" />
    <glyph glyph-name="Dcroat" unicode="&#x110;" horiz-adv-x="1505" 
d="M627 1454q121 0 236.5 -30.5t216 -91t176.5 -144t119.5 -197t43.5 -243.5q0 -173 -59 -316.5t-160.5 -236.5t-235 -144t-284.5 -51h-500q-39 0 -39 20v3q0 11 11.5 19.5t24.5 15t24.5 21.5t11.5 36v585h-121q-29 0 -29 21v22q0 21 29 21h121v573q0 22 -11.5 38
t-24.5 22.5t-24.5 15.5t-11.5 19v2q0 20 39 20h447zM672 66q98 0 189 26t169.5 79.5t136.5 129t91.5 180.5t33.5 228q0 128 -40 239.5t-107.5 190.5t-156 136.5t-186 85.5t-196.5 28h-225q-45 0 -45 -56v-569h313q13 0 21 -7t8 -16v-18q0 -23 -29 -23h-313v-555
q0 -38 17.5 -58.5t47.5 -20.5h271z" />
    <glyph glyph-name="dcroat" unicode="&#x111;" horiz-adv-x="1148" 
d="M1122 1194q27 0 27 -23v-18q0 -23 -27 -23h-125v-1013q0 -22 11.5 -38t25.5 -23t25.5 -15.5t11.5 -17.5v-7q0 -16 -24 -16h-134q-12 0 -19 8t-7 19l-4 139q-51 -89 -142.5 -137.5t-193.5 -48.5q-94 0 -179.5 38.5t-149.5 105.5t-102 164t-38 208q0 222 134 365t343 143
q101 0 187.5 -45.5t138.5 -120.5v292h-316q-28 0 -28 21v23q0 20 28 20h316v156q0 29 -12 47.5t-27 25t-27 15t-12 18.5v4q0 18 26 27l115 43q53 20 53 -25v-311h125zM580 35q51 0 102.5 21.5t96.5 61.5t73.5 104.5t28.5 142.5v286q0 50 -26 102.5t-69.5 96t-107 71
t-133.5 27.5q-151 0 -249.5 -118t-100.5 -298q-1 -140 47.5 -253t137 -178t200.5 -66z" />
    <glyph glyph-name="Emacron" unicode="&#x112;" horiz-adv-x="1212" 
d="M350 1675q-31 0 -31 27v35q0 24 31 24h524q31 0 31 -24v-35q0 -12 -8.5 -19.5t-22.5 -7.5h-524zM172 0q-37 0 -37 20v3q0 11 11.5 19t24.5 14t24.5 22.5t11.5 40.5v1216q0 24 -11.5 41t-24.5 23.5t-24.5 15t-11.5 17.5v4q0 18 31 18h846q22 0 32 -9.5t15 -29.5l49 -184
q4 -18 -1.5 -27.5t-16.5 -9.5h-9q-16 0 -36 31t-38 67.5t-47 67.5t-61 31h-524q-47 0 -47 -60v-551h434q22 0 36.5 16.5t20 36t14 36t19.5 16.5h8q21 0 21 -29v-213q0 -14 -6 -23.5t-15 -9.5h-8q-11 0 -19.5 16.5t-14 36t-20 36t-36.5 16.5h-434l-2 -582q0 -30 17 -50
t44 -20h576q32 0 61 31t45.5 68.5t36.5 68.5t37 31h8q11 0 16.5 -9.5t1.5 -25.5l-47 -186q-13 -41 -47 -41h-903z" />
    <glyph glyph-name="emacron" unicode="&#x113;" horiz-adv-x="1017" 
d="M244 1257q-31 0 -31 25v35q0 24 31 24h526q31 0 31 -24v-35q0 -25 -31 -25h-526zM903 279q11 23 35 18.5t20 -31.5q-13 -51 -44.5 -99.5t-81 -91.5t-125 -69t-164.5 -26q-95 0 -179.5 36.5t-148 102.5t-100.5 165t-37 218q0 140 61.5 255t171 181t244.5 66
q82 0 154.5 -28t120.5 -72t76 -98t28 -106q0 -40 -21 -63t-67 -37l-635 -190q29 -158 129.5 -249t241.5 -91q123 0 203.5 57.5t117.5 151.5zM537 948q-149 0 -243.5 -119t-94.5 -290q0 -26 4 -72l569 174q45 13 45 57q0 82 -83.5 166t-196.5 84z" />
    <glyph glyph-name="Edotaccent" unicode="&#x116;" horiz-adv-x="1212" 
d="M618 1606q-47 0 -75.5 27t-28.5 73t28.5 74t75.5 28q44 0 71.5 -28t27.5 -74t-27.5 -73t-71.5 -27zM172 0q-37 0 -37 20v3q0 11 11.5 19t24.5 14t24.5 22.5t11.5 40.5v1216q0 24 -11.5 41t-24.5 23.5t-24.5 15t-11.5 17.5v4q0 18 31 18h846q22 0 32 -9.5t15 -29.5
l49 -184q4 -18 -1.5 -27.5t-16.5 -9.5h-9q-16 0 -36 31t-38 67.5t-47 67.5t-61 31h-524q-47 0 -47 -60v-551h434q22 0 36.5 16.5t20 36t14 36t19.5 16.5h8q21 0 21 -29v-213q0 -14 -6 -23.5t-15 -9.5h-8q-11 0 -19.5 16.5t-14 36t-20 36t-36.5 16.5h-434l-2 -582
q0 -30 17 -50t44 -20h576q32 0 61 31t45.5 68.5t36.5 68.5t37 31h8q11 0 16.5 -9.5t1.5 -25.5l-47 -186q-13 -41 -47 -41h-903z" />
    <glyph glyph-name="edotaccent" unicode="&#x117;" horiz-adv-x="1017" 
d="M508 1202q-47 0 -76 27.5t-29 73.5q0 47 29 75.5t76 28.5q46 0 74 -28.5t28 -75.5q0 -46 -28 -73.5t-74 -27.5zM903 279q11 23 35 18.5t20 -31.5q-13 -51 -44.5 -99.5t-81 -91.5t-125 -69t-164.5 -26q-95 0 -179.5 36.5t-148 102.5t-100.5 165t-37 218q0 140 61.5 255
t171 181t244.5 66q82 0 154.5 -28t120.5 -72t76 -98t28 -106q0 -40 -21 -63t-67 -37l-635 -190q29 -158 129.5 -249t241.5 -91q123 0 203.5 57.5t117.5 151.5zM537 948q-149 0 -243.5 -119t-94.5 -290q0 -26 4 -72l569 174q45 13 45 57q0 82 -83.5 166t-196.5 84z" />
    <glyph glyph-name="Eogonek" unicode="&#x118;" horiz-adv-x="1212" 
d="M1096 4q-64 -58 -108 -126.5t-44 -127.5q0 -49 23.5 -76.5t62.5 -27.5q24 0 64 14q16 7 25 -5t6 -29t-15 -23q-38 -21 -94 -21q-69 0 -118.5 41t-49.5 109q0 70 51 142.5t127 125.5h-854q-37 0 -37 20v3q0 11 11.5 19t24.5 14t24.5 22.5t11.5 40.5v1216q0 24 -11.5 41
t-24.5 23.5t-24.5 15t-11.5 17.5v4q0 18 31 18h846q22 0 32 -9.5t15 -29.5l49 -184q4 -18 -1.5 -27.5t-16.5 -9.5h-9q-16 0 -36 31t-38 67.5t-47 67.5t-61 31h-524q-47 0 -47 -60v-551h434q22 0 36.5 16.5t20 36t14 36t19.5 16.5h8q21 0 21 -29v-213q0 -14 -6 -23.5
t-15 -9.5h-8q-11 0 -19.5 16.5t-14 36t-20 36t-36.5 16.5h-434l-2 -582q0 -30 17 -50t44 -20h576q32 0 61 31t45.5 68.5t36.5 68.5t37 31h8q11 0 16.5 -9.5t1.5 -25.5l-47 -186q-10 -29 -26 -37z" />
    <glyph glyph-name="eogonek" unicode="&#x119;" horiz-adv-x="1017" 
d="M903 279q11 23 35 18.5t20 -31.5q-19 -71 -70 -135.5t-132 -103.5q-64 -59 -105 -125.5t-41 -124.5q0 -47 24.5 -75t63.5 -28q19 0 62 15q17 7 26.5 -5.5t6 -29.5t-16.5 -23q-39 -22 -92 -22q-70 0 -120 41.5t-50 109.5q0 58 35.5 118.5t93.5 109.5q-62 -8 -100 -8
q-95 0 -179.5 36.5t-148 102.5t-100.5 165t-37 218q0 140 61.5 255t171 181t244.5 66q82 0 154.5 -28t120.5 -72t76 -98t28 -106q0 -40 -21 -63t-67 -37l-635 -190q29 -158 129.5 -249t241.5 -91q123 0 203.5 57.5t117.5 151.5zM537 948q-149 0 -243.5 -119t-94.5 -290
q0 -26 4 -72l569 174q45 13 45 57q0 82 -83.5 166t-196.5 84z" />
    <glyph glyph-name="Ecaron" unicode="&#x11a;" horiz-adv-x="1212" 
d="M309 1774q-21 18 -2 34q21 16 45 2l262 -194l260 194q24 17 44 -1q18 -15 3 -32q-1 -2 -3 -3l-242 -220q-22 -22 -49 -22h-29q-26 0 -51 22zM1151 262q11 0 16.5 -9.5t1.5 -25.5l-47 -186q-13 -41 -47 -41h-903q-37 0 -37 20v3q0 11 11.5 19t24.5 14t24.5 22.5t11.5 40.5
v1216q0 24 -11.5 41t-24.5 23.5t-24.5 15t-11.5 17.5v4q0 18 31 18h846q22 0 32 -9.5t15 -29.5l49 -184q4 -18 -1.5 -27.5t-16.5 -9.5h-9q-16 0 -36 31t-38 67.5t-47 67.5t-61 31h-524q-47 0 -47 -60v-551h434q22 0 36.5 16.5t20 36t14 36t19.5 16.5h8q21 0 21 -29v-213
q0 -14 -6 -23.5t-15 -9.5h-8q-11 0 -19.5 16.5t-14 36t-20 36t-36.5 16.5h-434l-2 -582q0 -30 17 -50t44 -20h576q32 0 61 31t45.5 68.5t36.5 68.5t37 31h8z" />
    <glyph glyph-name="ecaron" unicode="&#x11b;" horiz-adv-x="1017" 
d="M442 1167l-239 222q-13 13 -7.5 26.5t20.5 16.5t30 -5l262 -196l262 196q16 11 32 6t19 -18t-8 -26l-242 -222q-25 -22 -51 -22h-28q-28 0 -50 22zM903 279q11 23 35 18.5t20 -31.5q-13 -51 -44.5 -99.5t-81 -91.5t-125 -69t-164.5 -26q-95 0 -179.5 36.5t-148 102.5
t-100.5 165t-37 218q0 140 61.5 255t171 181t244.5 66q82 0 154.5 -28t120.5 -72t76 -98t28 -106q0 -40 -21 -63t-67 -37l-635 -190q29 -158 129.5 -249t241.5 -91q123 0 203.5 57.5t117.5 151.5zM537 948q-149 0 -243.5 -119t-94.5 -290q0 -26 4 -72l569 174q45 13 45 57
q0 82 -83.5 166t-196.5 84z" />
    <glyph glyph-name="Gbreve" unicode="&#x11e;" horiz-adv-x="1490" 
d="M782 1608q-118 0 -202 68.5t-99 166.5q-4 20 8.5 31t28 8.5t19.5 -14.5q22 -78 89 -125t156 -47q88 0 156.5 47t91.5 125q5 12 19.5 14.5t26.5 -8.5t9 -31q-14 -98 -98.5 -166.5t-204.5 -68.5zM784 -20q-132 0 -259.5 59.5t-224 158.5t-155.5 237t-59 286q0 164 53 305.5
t145 239.5t218 153.5t268 55.5q98 0 188.5 -27t154.5 -69.5t112.5 -93t72 -99.5t23.5 -88q0 -30 -16 -47t-45 -17q-23 0 -43.5 20.5t-40 54t-42 73.5t-57.5 79.5t-79 73t-113.5 54t-155.5 20.5q-105 0 -201 -48t-166.5 -130t-112.5 -198.5t-42 -246.5q0 -150 52 -284.5
t137 -229t196.5 -149.5t228.5 -55q118 0 220 31t167 85v373q0 26 -23 42t-50.5 21t-50.5 11.5t-23 15.5v8q0 25 39 25l313 -2q39 0 39 -23v-8q0 -8 -20 -14.5t-43.5 -12t-43.5 -22t-20 -43.5v-344q0 -25 -9 -42t-32 -38q-185 -151 -500 -151z" />
    <glyph glyph-name="gbreve" unicode="&#x11f;" horiz-adv-x="1071" 
d="M516 1159q-118 0 -203 69t-100 167q-3 20 10 31t28 8.5t19 -15.5q22 -78 89.5 -125t156.5 -47q88 0 156.5 47t91.5 125q4 12 18.5 14.5t27 -8t9.5 -30.5q-14 -98 -98.5 -167t-204.5 -69zM948 983q40 0 46 -21q5 -16 -15 -24q-22 -11 -50.5 -16.5t-67 -8.5t-58.5 -6
q72 -46 115 -127.5t43 -165.5q0 -131 -70 -229.5t-191 -144.5q133 -27 207 -101t74 -172q0 -148 -124 -232.5t-329 -84.5q-93 0 -172.5 22.5t-131.5 58t-89 80t-53 87t-16 79.5q0 25 13.5 41.5t41.5 16.5q18 0 31 -14t21.5 -37.5t21.5 -53t27.5 -60.5t41.5 -60.5t62 -53
t91.5 -37.5t127.5 -14q138 0 226.5 69t88.5 179q0 114 -82.5 183.5t-220.5 72.5q-16 -2 -49 -2q-174 0 -297 114.5t-123 276.5q0 177 119.5 291.5t316.5 114.5q54 0 160 -10.5t264 -10.5zM532 262q137 0 222.5 89.5t85.5 221.5q0 157 -96 266t-244 109q-129 0 -210 -88.5
t-81 -218.5q0 -156 92 -267.5t231 -111.5z" />
    <glyph glyph-name="Gdotaccent" unicode="&#x120;" horiz-adv-x="1490" 
d="M788 1606q-47 0 -75.5 27t-28.5 73t28.5 74t75.5 28q44 0 71.5 -28t27.5 -74t-27.5 -73t-71.5 -27zM784 -20q-132 0 -259.5 59.5t-224 158.5t-155.5 237t-59 286q0 164 53 305.5t145 239.5t218 153.5t268 55.5q98 0 188.5 -27t154.5 -69.5t112.5 -93t72 -99.5t23.5 -88
q0 -30 -16 -47t-45 -17q-23 0 -43.5 20.5t-40 54t-42 73.5t-57.5 79.5t-79 73t-113.5 54t-155.5 20.5q-105 0 -201 -48t-166.5 -130t-112.5 -198.5t-42 -246.5q0 -150 52 -284.5t137 -229t196.5 -149.5t228.5 -55q118 0 220 31t167 85v373q0 26 -23 42t-50.5 21t-50.5 11.5
t-23 15.5v8q0 25 39 25l313 -2q39 0 39 -23v-8q0 -8 -20 -14.5t-43.5 -12t-43.5 -22t-20 -43.5v-344q0 -25 -9 -42t-32 -38q-185 -151 -500 -151z" />
    <glyph glyph-name="gdotaccent" unicode="&#x121;" horiz-adv-x="1071" 
d="M518 1186q-49 0 -77.5 27t-28.5 73q0 48 28.5 76.5t77.5 28.5q44 0 72 -29t28 -76q0 -45 -27.5 -72.5t-72.5 -27.5zM948 983q40 0 46 -21q5 -16 -15 -24q-22 -11 -50.5 -16.5t-67 -8.5t-58.5 -6q72 -46 115 -127.5t43 -165.5q0 -131 -70 -229.5t-191 -144.5
q133 -27 207 -101t74 -172q0 -148 -124 -232.5t-329 -84.5q-93 0 -172.5 22.5t-131.5 58t-89 80t-53 87t-16 79.5q0 25 13.5 41.5t41.5 16.5q18 0 31 -14t21.5 -37.5t21.5 -53t27.5 -60.5t41.5 -60.5t62 -53t91.5 -37.5t127.5 -14q138 0 226.5 69t88.5 179
q0 114 -82.5 183.5t-220.5 72.5q-16 -2 -49 -2q-174 0 -297 114.5t-123 276.5q0 177 119.5 291.5t316.5 114.5q54 0 160 -10.5t264 -10.5zM532 262q137 0 222.5 89.5t85.5 221.5q0 157 -96 266t-244 109q-129 0 -210 -88.5t-81 -218.5q0 -156 92 -267.5t231 -111.5z" />
    <glyph glyph-name="uni0122" unicode="&#x122;" horiz-adv-x="1490" 
d="M784 -20q-132 0 -259.5 59.5t-224 158.5t-155.5 237t-59 286q0 164 53 305.5t145 239.5t218 153.5t268 55.5q98 0 188.5 -27t154.5 -69.5t112.5 -93t72 -99.5t23.5 -88q0 -30 -16 -47t-45 -17q-23 0 -43.5 20.5t-40 54t-42 73.5t-57.5 79.5t-79 73t-113.5 54t-155.5 20.5
q-105 0 -201 -48t-166.5 -130t-112.5 -198.5t-42 -246.5q0 -150 52 -284.5t137 -229t196.5 -149.5t228.5 -55q118 0 220 31t167 85v373q0 26 -23 42t-50.5 21t-50.5 11.5t-23 15.5v8q0 25 39 25l313 -2q39 0 39 -23v-8q0 -8 -20 -14.5t-43.5 -12t-43.5 -22t-20 -43.5v-344
q0 -25 -9 -42t-32 -38q-185 -151 -500 -151zM741 -584q-10 -8 -21.5 -3t-13.5 15t9 21q51 48 72.5 87t35.5 93q6 25 -14 25q-37 0 -60.5 26.5t-23.5 69.5q0 45 26 74t68 29q43 0 71 -31.5t28 -85.5q0 -90 -46 -174t-131 -146z" />
    <glyph glyph-name="uni0123" unicode="&#x123;" horiz-adv-x="1071" 
d="M500 1184q-44 0 -72.5 31.5t-28.5 84.5q0 92 46 177t133 149q16 11 30.5 -4.5t-2.5 -30.5q-53 -50 -75.5 -90t-36.5 -92q-6 -25 16 -25q37 0 60.5 -27t23.5 -71q0 -45 -26 -73.5t-68 -28.5zM948 983q40 0 46 -21q5 -16 -15 -24q-22 -11 -50.5 -16.5t-67 -8.5t-58.5 -6
q72 -46 115 -127.5t43 -165.5q0 -131 -70 -229.5t-191 -144.5q133 -27 207 -101t74 -172q0 -148 -124 -232.5t-329 -84.5q-93 0 -172.5 22.5t-131.5 58t-89 80t-53 87t-16 79.5q0 25 13.5 41.5t41.5 16.5q18 0 31 -14t21.5 -37.5t21.5 -53t27.5 -60.5t41.5 -60.5t62 -53
t91.5 -37.5t127.5 -14q138 0 226.5 69t88.5 179q0 114 -82.5 183.5t-220.5 72.5q-16 -2 -49 -2q-174 0 -297 114.5t-123 276.5q0 177 119.5 291.5t316.5 114.5q54 0 160 -10.5t264 -10.5zM532 262q137 0 222.5 89.5t85.5 221.5q0 157 -96 266t-244 109q-129 0 -210 -88.5
t-81 -218.5q0 -156 92 -267.5t231 -111.5z" />
    <glyph glyph-name="Hbar" unicode="&#x126;" horiz-adv-x="1558" 
d="M1456 1171q13 0 22 -6t9 -16v-19q0 -9 -9.5 -14.5t-21.5 -5.5h-110v-995q0 -21 11.5 -36t26 -21.5t26 -15t11.5 -19.5v-3q0 -20 -39 -20h-192q-39 0 -39 20v3q0 11 11.5 19.5t24.5 15t24.5 21.5t11.5 36v596h-889v-596q0 -21 11.5 -36t25.5 -21.5t25.5 -15t11.5 -19.5v-3
q0 -20 -37 -20h-195q-37 0 -37 20v3q0 11 11 19.5t24 15t24 21.5t11 36v995h-119q-11 0 -19 5.5t-8 14.5v19q0 10 8 16t19 6h119v168q0 21 -11 36.5t-24 22t-24 15.5t-11 19v2q0 20 37 20h195q37 0 37 -20v-2q0 -10 -11.5 -19t-25.5 -15.5t-25.5 -22t-11.5 -36.5v-168h889
v168q0 21 -11.5 36.5t-24.5 22t-24.5 15.5t-11.5 19v2q0 20 39 20h192q39 0 39 -20v-2q0 -10 -11.5 -19t-26 -15.5t-26 -22t-11.5 -36.5v-168h110zM1223 778v332h-889l-2 -332h891z" />
    <glyph glyph-name="hbar" unicode="&#x127;" horiz-adv-x="1136" 
d="M1004 121q1 -23 13 -38.5t25 -21t24 -13.5t11 -19v-9q0 -20 -39 -20h-190q-39 0 -39 20v9q0 11 12 19t26 13.5t25.5 20.5t10.5 37l-21 430q-7 189 -86.5 291t-202.5 102q-117 0 -199.5 -76.5t-94.5 -193.5v-555q0 -22 11.5 -36.5t26 -20t26 -13t11.5 -18.5v-6
q0 -9 -11 -16t-28 -7h-192q-18 0 -28.5 6.5t-10.5 16.5v6q0 11 11.5 18.5t25.5 13t25.5 20t11.5 36.5v1024h-160q-29 0 -29 20v23q0 20 29 20h160v137q0 26 -11.5 44.5t-25.5 26.5t-25.5 17t-11.5 17v4q0 16 25 29l116 51q25 11 38 3.5t13 -28.5v-301h279q27 0 27 -22v-19
q0 -22 -27 -22h-279l-2 -322q48 85 133.5 135t188.5 50q163 0 269 -116.5t118 -340.5z" />
    <glyph glyph-name="Itilde" unicode="&#x128;" horiz-adv-x="538" 
d="M121 1815q42 0 89 -19t80.5 -42.5t72.5 -42.5t67 -19q39 0 68.5 23t44.5 63q8 22 28 22h11q24 0 18 -28q-44 -168 -184 -168q-41 0 -85.5 19.5t-77 43t-72.5 43t-72 19.5q-38 0 -68 -24.5t-45 -66.5q-11 -28 -27 -28h-14q-8 0 -13.5 8.5t-2.5 21.5q16 77 62 126t120 49z
M137 18v5q0 10 11 18.5t24 14.5t24 21t11 36v1226q0 21 -11 36.5t-24 22t-24 15.5t-11 19v2q0 20 37 20h193q39 0 39 -20v-2q0 -10 -12 -19t-26 -15.5t-26 -22t-12 -36.5v-1226q0 -21 12 -36t26 -21t26 -14.5t12 -18.5v-5q0 -20 -39 -20h-193q-37 0 -37 20z" />
    <glyph glyph-name="itilde" unicode="&#x129;" horiz-adv-x="450" 
d="M76 1434q42 0 88.5 -19t80.5 -42.5t72 -42.5t66 -19q81 0 113 86q11 22 28 22h13q25 0 16 -28q-40 -168 -182 -168q-41 0 -85.5 19.5t-77 43t-73 43t-72.5 19.5q-76 0 -114 -91q-8 -28 -25 -28h-14q-8 0 -15 9t-4 22q16 76 63 125t122 49zM135 0q-17 0 -28 7t-11 16v8
q0 10 11.5 18t25.5 14t25.5 20.5t11.5 35.5v686q0 25 -11 44t-25 28.5t-25 19t-11 16.5v7q0 3 1 5t4 4.5t5 4t7.5 4.5t7.5 4l110 55q28 11 42 4t14 -28v-854q0 -21 12 -35.5t26 -20.5t26 -14t12 -18v-8q0 -9 -11 -16t-28 -7h-191z" />
    <glyph glyph-name="Imacron" unicode="&#x12a;" horiz-adv-x="538" 
d="M-2 1675q-14 0 -22.5 7.5t-8.5 19.5v35q0 24 31 24h526q31 0 31 -24v-35q0 -12 -8.5 -19.5t-22.5 -7.5h-526zM137 18v5q0 10 11 18.5t24 14.5t24 21t11 36v1226q0 21 -11 36.5t-24 22t-24 15.5t-11 19v2q0 20 37 20h193q39 0 39 -20v-2q0 -10 -12 -19t-26 -15.5t-26 -22
t-12 -36.5v-1226q0 -21 12 -36t26 -21t26 -14.5t12 -18.5v-5q0 -20 -39 -20h-193q-37 0 -37 20z" />
    <glyph glyph-name="imacron" unicode="&#x12b;" horiz-adv-x="450" 
d="M-25 1257q-30 0 -30 25v35q0 24 30 24h525q30 0 30 -24v-35q0 -25 -30 -25h-525zM135 0q-17 0 -28 7t-11 16v8q0 10 11.5 18t25.5 14t25.5 20.5t11.5 35.5v686q0 25 -11 44t-25 28.5t-25 19t-11 16.5v7q0 3 1 5t4 4.5t5 4t7.5 4.5t7.5 4l110 55q28 11 42 4t14 -28v-854
q0 -21 12 -35.5t26 -20.5t26 -14t12 -18v-8q0 -9 -11 -16t-28 -7h-191z" />
    <glyph glyph-name="Iogonek" unicode="&#x12e;" horiz-adv-x="538" 
d="M406 1432q0 -10 -12 -19t-26 -15.5t-26 -22t-12 -36.5v-1226q0 -21 12 -36t26 -21t26 -14.5t12 -18.5v-5q0 -20 -39 -20h-64q-63 -57 -105 -124.5t-42 -125.5q0 -48 24.5 -75t63.5 -27q26 0 61 12q17 7 26.5 -4.5t7 -28.5t-14.5 -22q-39 -23 -95 -23q-70 0 -120 41.5
t-50 110.5q0 68 52 140.5t129 125.5h-66q-37 0 -37 20v5q0 10 11 18.5t24 14.5t24 21t11 36v1226q0 21 -11 36.5t-24 22t-24 15.5t-11 19v2q0 20 37 20h193q39 0 39 -20v-2z" />
    <glyph glyph-name="iogonek" unicode="&#x12f;" horiz-adv-x="450" 
d="M219 1202q-47 0 -76.5 27.5t-29.5 73.5q0 47 29.5 75.5t76.5 28.5q45 0 72.5 -28.5t27.5 -75.5q0 -45 -27.5 -73t-72.5 -28zM289 119q0 -21 12 -35.5t26 -20.5t26 -14t12 -18v-8q0 -9 -11 -16t-28 -7h-45q-65 -57 -108.5 -125t-43.5 -127q0 -48 24.5 -75t63.5 -27
q27 0 62 12q24 10 31 -14q7 -23 -8 -37q-3 -3 -7 -4q-36 -23 -92 -23q-71 0 -120.5 41.5t-49.5 110.5t53 142t131 126h-82q-17 0 -28 7t-11 16v8q0 10 11.5 18t25.5 14t25.5 20.5t11.5 35.5v686q0 25 -11 44t-25 28.5t-25 19t-11 16.5v7q0 3 1 5t4 4.5t5 4t7.5 4.5t7.5 4
l110 55q28 11 42 4t14 -28v-854z" />
    <glyph glyph-name="Idotaccent" unicode="&#x130;" horiz-adv-x="538" 
d="M274 1606q-47 0 -75.5 27t-28.5 73t28.5 74t75.5 28q44 0 71.5 -28t27.5 -74t-27.5 -73t-71.5 -27zM137 18v5q0 10 11 18.5t24 14.5t24 21t11 36v1226q0 21 -11 36.5t-24 22t-24 15.5t-11 19v2q0 20 37 20h193q39 0 39 -20v-2q0 -10 -12 -19t-26 -15.5t-26 -22t-12 -36.5
v-1226q0 -21 12 -36t26 -21t26 -14.5t12 -18.5v-5q0 -20 -39 -20h-193q-37 0 -37 20z" />
    <glyph glyph-name="dotlessi" unicode="&#x131;" horiz-adv-x="448" 
d="M135 0q-17 0 -28 7t-11 16v8q0 10 11.5 18t25.5 14t25.5 20.5t11.5 35.5v686q0 25 -11 44t-25 28.5t-25 19t-11 16.5v7q0 3 1 5t4 4.5t5 4t7.5 4.5t7.5 4l110 55q28 11 42 4t14 -28v-854q0 -21 12 -35.5t26 -20.5t26 -14t12 -18v-8q0 -9 -11 -16t-28 -7h-191z" />
    <glyph glyph-name="IJ" unicode="&#x132;" horiz-adv-x="1544" 
d="M137 18v5q0 10 11 18.5t24 14.5t24 21t11 36v1226q0 21 -11 36.5t-24 22t-24 15.5t-11 19v2q0 20 37 20h193q39 0 39 -20v-2q0 -10 -12 -19t-26 -15.5t-26 -22t-12 -36.5v-1226q0 -21 12 -36t26 -21t26 -14.5t12 -18.5v-5q0 -20 -39 -20h-193q-37 0 -37 20zM1233 1339
q0 21 -11.5 36.5t-24.5 22t-24.5 15.5t-11.5 19v2q0 20 39 20h195q37 0 37 -20v-2q0 -10 -11.5 -19t-25.5 -15.5t-25.5 -22t-11.5 -36.5l-4 -860q-1 -110 -22 -196t-58 -142t-89 -93t-111 -52.5t-128 -15.5q-81 0 -150 22t-114 56t-77 76.5t-46 83.5t-14 77q0 29 17 47
t46 18q25 0 42 -17.5t27.5 -45t21.5 -61t29 -67.5t45.5 -61.5t76.5 -45t115 -17.5q114 0 191 101.5t77 293.5v899z" />
    <glyph glyph-name="ij" unicode="&#x133;" horiz-adv-x="905" 
d="M219 1202q-47 0 -76.5 27.5t-29.5 73.5q0 47 29.5 75.5t76.5 28.5q45 0 72.5 -28.5t27.5 -75.5q0 -45 -27.5 -73t-72.5 -28zM686 1202q-47 0 -76.5 27.5t-29.5 73.5q0 47 29.5 75.5t76.5 28.5q45 0 72.5 -28.5t27.5 -75.5q0 -45 -28 -73t-72 -28zM135 0q-17 0 -28 7
t-11 16v8q0 10 11.5 18t25.5 14t25.5 20.5t11.5 35.5v686q0 25 -11 44t-25 28.5t-25 19t-11 16.5v7q0 3 1 5t4 4.5t5 4t7.5 4.5t7.5 4l110 55q28 11 42 4t14 -28v-854q0 -21 12 -35.5t26 -20.5t26 -14t12 -18v-8q0 -9 -11 -16t-28 -7h-191zM553 -367q-85 0 -139 42t-54 104
q0 27 15.5 43t42.5 16q28 0 44 -23t21.5 -50.5t26.5 -50.5t59 -23q44 0 72.5 33.5t28.5 85.5q0 42 -16.5 114.5t-16.5 110.5v770q0 26 -11 44.5t-24 26.5t-24 17.5t-11 19.5v5q0 13 25 24l115 55q26 11 39.5 4t13.5 -28v-959q0 -82 -3.5 -121t-15.5 -98q-14 -74 -62.5 -118
t-125.5 -44z" />
    <glyph glyph-name="uni0136" unicode="&#x136;" horiz-adv-x="1361" 
d="M1288 119q18 -27 38.5 -44.5t33 -23t21 -12t8.5 -16.5v-3q0 -20 -33 -20h-219q-35 0 -35 20v3q0 12 21 25t32 24t-4 41l-485 727l-336 -330v-391q0 -22 12 -38t27 -22.5t27 -15.5t12 -20v-3q0 -20 -41 -20h-193q-37 0 -37 20v3q0 11 11 20t24 15.5t24 22.5t11 38v1220
q0 21 -11 36.5t-24 22t-24 15.5t-11 19v2q0 20 37 20h193q39 0 39 -20v-2q0 -10 -12 -19t-26 -15.5t-26 -22t-12 -36.5v-737l739 727q21 20 21.5 37t-11 26t-23.5 20t-12 20v2q0 20 39 20h172q41 0 41 -20v-2q0 -12 -19 -24.5t-53.5 -33t-58.5 -45.5l-417 -409zM774 -147
q41 0 68.5 -31.5t27.5 -85.5q0 -90 -45 -174t-129 -146q-11 -8 -23 -3t-14 15t9 21q52 48 74 87t36 93q6 25 -14 25q-37 0 -61.5 27t-24.5 69q0 45 27 74t69 29z" />
    <glyph glyph-name="uni0137" unicode="&#x137;" horiz-adv-x="1024" 
d="M938 98q13 -16 32 -28t33 -16.5t24.5 -12.5t10.5 -18v-5q0 -18 -24 -18h-215q-10 0 -17.5 5t-7.5 13v5q0 11 11 19.5t21 13.5t14 16t-11 26l-358 430l-175 -159v-252q0 -22 12 -36.5t26 -20t26 -13t12 -18.5v-6q0 -10 -10.5 -16.5t-28.5 -6.5h-190q-37 0 -37 23v6
q0 11 11 18.5t24 13t24 20t11 36.5v1222q0 26 -11.5 45t-25.5 27t-25.5 17.5t-11.5 17.5v4q0 16 24 25l115 55q26 11 40.5 3t14.5 -28v-1048l457 409q19 15 15.5 29t-15.5 22t-25.5 19.5t-13.5 21.5v7q0 18 27 18h199q24 0 24 -18v-4q0 -13 -18.5 -25.5t-51.5 -31t-55 -38.5
l-287 -264zM532 -147q43 0 71 -31.5t28 -85.5q0 -90 -45 -174t-129 -146q-11 -8 -23.5 -3t-14.5 15t9 21q52 49 74.5 88.5t36.5 91.5q6 25 -17 25q-36 0 -60 27t-24 69q0 45 26 74t68 29z" />
    <glyph glyph-name="kgreenlandic" unicode="&#x138;" horiz-adv-x="1028" 
d="M950 98q13 -16 31.5 -28t32 -16.5t23.5 -12.5t10 -18v-5q0 -18 -25 -18h-211q-10 0 -17.5 5t-7.5 13v5q0 11 10.5 19.5t20.5 13t14 15.5t-10 27l-362 432l-174 -159v-254q0 -22 11.5 -36.5t26 -20t26 -13t11.5 -18.5v-6q0 -10 -10 -16.5t-28 -6.5h-193q-18 0 -28.5 6.5
t-10.5 16.5v6q0 11 11 18.5t25 13t25 20t11 36.5v884q0 26 -12 45t-26 27.5t-26 17.5t-12 17v4q0 14 27 27l116 53q26 11 41 3t15 -28v-710l456 409q19 15 15.5 29t-15.5 22t-25.5 19.5t-13.5 21.5v7q0 18 27 18h199q24 0 24 -18v-4q0 -13 -18.5 -25.5t-51.5 -31t-55 -38.5
l-286 -262z" />
    <glyph glyph-name="Lacute" unicode="&#x139;" horiz-adv-x="1155" 
d="M94 1610q-31 -7 -39 16q-3 10 2.5 20t14.5 15l409 168q43 19 56 -23l12 -45q5 -15 -4.5 -27.5t-28.5 -15.5zM174 0q-37 0 -37 20v3q0 11 11 19.5t24 15t24 22t11 37.5v1220q0 24 -11 40t-24 21.5t-24 14t-11 19.5v2q0 20 37 20h195q37 0 37 -20v-2q0 -11 -11.5 -19.5
t-25.5 -14t-25.5 -21.5t-11.5 -40v-1212q0 -59 53 -59h537q28 0 51.5 20.5t39.5 50t30.5 59t30 50t32.5 20.5h12q25 0 17 -30l-50 -195q-7 -21 -17 -31t-30 -10h-864z" />
    <glyph glyph-name="lacute" unicode="&#x13a;" horiz-adv-x="442" 
d="M4 1620q-29 -7 -39 16q-6 22 19 35l409 168q41 18 56 -22l10 -45q6 -15 -3 -27.5t-28 -15.5zM127 0q-18 0 -28.5 6.5t-10.5 16.5v6q0 11 11 18.5t25 13t25 20t11 36.5v1222q0 26 -11 45t-25 27t-25 17.5t-11 17.5v4q0 14 25 25l110 55q28 11 43 3t15 -28v-1388
q0 -22 11.5 -36.5t26 -20t26 -13t11.5 -18.5v-6q0 -9 -11.5 -16t-29.5 -7h-188z" />
    <glyph glyph-name="uni013B" unicode="&#x13b;" horiz-adv-x="1155" 
d="M174 0q-37 0 -37 20v3q0 11 11 19.5t24 15t24 22t11 37.5v1220q0 24 -11 40t-24 21.5t-24 14t-11 19.5v2q0 20 37 20h195q37 0 37 -20v-2q0 -11 -11.5 -19.5t-25.5 -14t-25.5 -21.5t-11.5 -40v-1212q0 -59 53 -59h537q28 0 51.5 20.5t39.5 50t30.5 59t30 50t32.5 20.5h12
q25 0 17 -30l-50 -195q-7 -21 -17 -31t-30 -10h-864zM561 -584q-10 -8 -21.5 -3t-14.5 15t7 21q52 48 74.5 87.5t36.5 92.5q6 25 -14 25q-37 0 -61.5 27t-24.5 69q0 45 27 74t69 29q43 0 70.5 -31.5t27.5 -85.5q0 -90 -45.5 -174t-130.5 -146z" />
    <glyph glyph-name="uni013C" unicode="&#x13c;" horiz-adv-x="442" 
d="M127 0q-18 0 -28.5 6.5t-10.5 16.5v6q0 11 11 18.5t25 13t25 20t11 36.5v1222q0 26 -11 45t-25 27t-25 17.5t-11 17.5v4q0 14 25 25l110 55q28 11 43 3t15 -28v-1388q0 -22 11.5 -36.5t26 -20t26 -13t11.5 -18.5v-6q0 -9 -11.5 -16t-29.5 -7h-188zM160 -543
q-16 -11 -31 4.5t2 30.5q52 48 74.5 87.5t36.5 92.5q7 25 -15 25q-37 0 -61.5 27t-24.5 69q0 44 27 72.5t70 28.5q42 0 70 -31t28 -84q0 -90 -45.5 -174t-130.5 -148z" />
    <glyph glyph-name="Lcaron" unicode="&#x13d;" horiz-adv-x="1159" 
d="M698 1059l-8 6q-15 15 8 47q125 166 125 393q0 14 7.5 24.5t17.5 10.5h45q12 0 19.5 -10t7.5 -25q0 -255 -177 -436q-25 -25 -45 -10zM174 0q-37 0 -37 20v3q0 11 11 19.5t24 15t24 22t11 37.5v1220q0 24 -11 40t-24 21.5t-24 14t-11 19.5v2q0 20 37 20h195q37 0 37 -20
v-2q0 -11 -11.5 -19.5t-25.5 -14t-25.5 -21.5t-11.5 -40v-1212q0 -59 53 -59h537q28 0 51.5 20.5t39.5 50t30.5 59t30 50t32.5 20.5h12q25 0 17 -30l-50 -195q-7 -21 -17 -31t-30 -10h-864z" />
    <glyph glyph-name="lcaron" unicode="&#x13e;" horiz-adv-x="473" 
d="M350 1180l-8 6q-18 15 6 45q127 169 127 395q0 14 7.5 24.5t17.5 10.5h45q12 0 19 -10t7 -25q0 -258 -178 -436q-25 -25 -43 -10zM127 0q-18 0 -28.5 6.5t-10.5 16.5v6q0 11 11 18.5t25 13t25 20t11 36.5v1222q0 26 -11 45t-25 27t-25 17.5t-11 17.5v4q0 14 25 25l110 55
q28 11 43 3t15 -28v-1388q0 -22 11.5 -36.5t26 -20t26 -13t11.5 -18.5v-6q0 -9 -11.5 -16t-29.5 -7h-188z" />
    <glyph glyph-name="Ldot" unicode="&#x13f;" horiz-adv-x="1159" 
d="M174 0q-37 0 -37 20v3q0 11 11 19.5t24 15t24 22t11 37.5v1220q0 24 -11 40t-24 21.5t-24 14t-11 19.5v2q0 20 37 20h195q37 0 37 -20v-2q0 -11 -11.5 -19.5t-25.5 -14t-25.5 -21.5t-11.5 -40v-1212q0 -59 53 -59h537q28 0 51.5 20.5t39.5 50t30.5 59t30 50t32.5 20.5h12
q25 0 17 -30l-50 -195q-7 -21 -17 -31t-30 -10h-864zM784 688q-44 0 -73 26.5t-29 71.5q0 49 28.5 76t73.5 27q46 0 75.5 -27t29.5 -76q0 -45 -30 -71.5t-75 -26.5z" />
    <glyph glyph-name="ldot" unicode="&#x140;" horiz-adv-x="538" 
d="M127 0q-18 0 -28.5 6.5t-10.5 16.5v6q0 11 11 18.5t25 13t25 20t11 36.5v1222q0 26 -11 45t-25 27t-25 17.5t-11 17.5v4q0 14 25 25l110 55q28 11 43 3t15 -28v-1388q0 -22 11.5 -36.5t26 -20t26 -13t11.5 -18.5v-6q0 -9 -11.5 -16t-29.5 -7h-188zM465 690
q-44 0 -73.5 26.5t-29.5 71.5q0 49 29 77t74 28q46 0 75 -27.5t29 -77.5q0 -45 -29.5 -71.5t-74.5 -26.5z" />
    <glyph glyph-name="Lslash" unicode="&#x141;" horiz-adv-x="1208" 
d="M1171 266q25 0 17 -30l-49 -195q-7 -21 -17 -31t-30 -10h-865q-37 0 -37 20v3q0 11 11 19.5t24 15t24 22t11 37.5v491l-168 -96q-29 -16 -41 6l-6 12q-10 23 21 39l194 111v657q0 24 -11 40t-24 21.5t-24 14t-11 19.5v2q0 20 37 20h195q37 0 37 -20v-2q0 -11 -11.5 -19.5
t-25.5 -14t-25.5 -21.5t-11.5 -40v-585l223 127q26 15 37 -7l8 -14q10 -21 -18 -35l-250 -143v-555q0 -59 53 -59h537q28 0 51.5 20.5t39.5 50t30.5 59t30 50t32.5 20.5h12z" />
    <glyph glyph-name="lslash" unicode="&#x142;" horiz-adv-x="550" 
d="M518 942q9 -18 -12 -33l-160 -106v-686q0 -22 12 -36.5t26 -20t26 -13t12 -18.5v-6q0 -9 -11 -16t-28 -7h-190q-37 0 -37 23v6q0 11 11 18.5t23.5 13t23.5 20t11 36.5v606l-143 -96q-17 -12 -31 2l-14 20q-13 17 8 31l180 123v536q0 26 -11 45t-23.5 27t-23.5 17.5
t-11 17.5v4q0 16 24 25l111 55q26 11 40.5 3t14.5 -28v-620l119 80q26 19 41 -2z" />
    <glyph glyph-name="Nacute" unicode="&#x143;" horiz-adv-x="1527" 
d="M600 1610q-31 -8 -39 16q-6 21 17 35l409 168q43 19 55 -23l13 -45q5 -15 -4.5 -27.5t-28.5 -15.5zM1366 1454q39 0 39 -22v-2q0 -9 -12.5 -17.5t-27.5 -15t-27.5 -22.5t-12.5 -38v-1294q0 -43 -37 -43h-28q-23 0 -56 47l-919 1258v-1180q0 -24 13 -41.5t29 -24.5t29 -16
t13 -20v-3q0 -20 -39 -20h-160q-39 0 -39 20v3q0 11 12 20t26 16t26 24.5t12 41.5v1210q0 22 -12 37t-26 20.5t-26 13t-12 17.5v9q0 22 39 22h109q38 0 61 -33l907 -1251v1167q0 22 -13 38t-28 22.5t-28 15t-13 17.5v2q0 22 41 22h160z" />
    <glyph glyph-name="nacute" unicode="&#x144;" horiz-adv-x="1146" 
d="M414 1149q-28 -12 -41 8q-11 20 10 37l365 254q36 25 57 -12l20 -41q9 -14 3 -27.5t-23 -21.5zM1016 121q1 -23 12.5 -38.5t25 -21.5t25 -14t11.5 -18v-9q0 -20 -41 -20h-191q-37 0 -37 20v9q0 10 11.5 18t25 14t25 21t10.5 37l-19 426q-9 193 -87.5 295t-202.5 102
q-117 0 -200 -76.5t-95 -193.5v-555q0 -21 12 -35.5t26 -20.5t26 -14t12 -18v-9q0 -20 -39 -20h-193q-39 0 -39 20v9q0 10 11.5 18t25.5 14t25.5 20.5t11.5 35.5v692q0 29 -12 48t-26 25.5t-26 14.5t-12 18v5q0 14 27 26l108 51q25 11 38.5 3.5t13.5 -29.5v-166
q47 91 133.5 145t193.5 54q163 0 269 -117t118 -344z" />
    <glyph glyph-name="uni0145" unicode="&#x145;" horiz-adv-x="1527" 
d="M1366 1454q39 0 39 -22v-2q0 -9 -12.5 -17.5t-27.5 -15t-27.5 -22.5t-12.5 -38v-1294q0 -43 -37 -43h-28q-23 0 -56 47l-919 1258v-1180q0 -24 13 -41.5t29 -24.5t29 -16t13 -20v-3q0 -20 -39 -20h-160q-39 0 -39 20v3q0 11 12 20t26 16t26 24.5t12 41.5v1210
q0 22 -12 37t-26 20.5t-26 13t-12 17.5v9q0 22 39 22h109q38 0 61 -33l907 -1251v1167q0 22 -13 38t-28 22.5t-28 15t-13 17.5v2q0 22 41 22h160zM809 -147q43 0 70.5 -31.5t27.5 -85.5q0 -90 -45.5 -174t-130.5 -146q-10 -8 -21.5 -3t-14.5 15t7 21q52 48 74.5 87.5
t36.5 92.5q6 25 -14 25q-37 0 -61.5 27t-24.5 69q0 45 27 74t69 29z" />
    <glyph glyph-name="uni0146" unicode="&#x146;" horiz-adv-x="1146" 
d="M1016 121q1 -23 12.5 -38.5t25 -21.5t25 -14t11.5 -18v-9q0 -20 -41 -20h-191q-37 0 -37 20v9q0 10 11.5 18t25 14t25 21t10.5 37l-19 426q-9 193 -87.5 295t-202.5 102q-117 0 -200 -76.5t-95 -193.5v-555q0 -21 12 -35.5t26 -20.5t26 -14t12 -18v-9q0 -20 -39 -20h-193
q-39 0 -39 20v9q0 10 11.5 18t25.5 14t25.5 20.5t11.5 35.5v692q0 29 -12 48t-26 25.5t-26 14.5t-12 18v5q0 14 27 26l108 51q25 11 38.5 3.5t13.5 -29.5v-166q47 91 133.5 145t193.5 54q163 0 269 -117t118 -344zM600 -147q43 0 70.5 -31.5t27.5 -85.5q0 -90 -45.5 -174
t-130.5 -146q-15 -12 -30 3t2 30q52 48 74 87t36 93q6 25 -14 25q-37 0 -61.5 27t-24.5 69q0 45 27 74t69 29z" />
    <glyph glyph-name="Ncaron" unicode="&#x147;" horiz-adv-x="1527" 
d="M461 1774q-20 18 -1 34q20 18 44 2l262 -194l262 194q22 17 42 0q18 -16 2 -33q-1 -2 -3 -3l-240 -220q-25 -22 -51 -22h-28q-27 0 -52 22zM1366 1454q39 0 39 -22v-2q0 -9 -12.5 -17.5t-27.5 -15t-27.5 -22.5t-12.5 -38v-1294q0 -43 -37 -43h-28q-23 0 -56 47l-919 1258
v-1180q0 -24 13 -41.5t29 -24.5t29 -16t13 -20v-3q0 -20 -39 -20h-160q-39 0 -39 20v3q0 11 12 20t26 16t26 24.5t12 41.5v1210q0 22 -12 37t-26 20.5t-26 13t-12 17.5v9q0 22 39 22h109q38 0 61 -33l907 -1251v1167q0 22 -13 38t-28 22.5t-28 15t-13 17.5v2q0 22 41 22h160
z" />
    <glyph glyph-name="ncaron" unicode="&#x148;" horiz-adv-x="1146" 
d="M516 1167l-237 222q-13 13 -8 26.5t20 16.5t31 -5l262 -196l262 196q15 11 30.5 6t18.5 -18t-8 -26l-240 -222q-25 -22 -51 -22h-29q-26 0 -51 22zM1016 121q1 -23 12.5 -38.5t25 -21.5t25 -14t11.5 -18v-9q0 -20 -41 -20h-191q-37 0 -37 20v9q0 10 11.5 18t25 14t25 21
t10.5 37l-19 426q-9 193 -87.5 295t-202.5 102q-117 0 -200 -76.5t-95 -193.5v-555q0 -21 12 -35.5t26 -20.5t26 -14t12 -18v-9q0 -20 -39 -20h-193q-39 0 -39 20v9q0 10 11.5 18t25.5 14t25.5 20.5t11.5 35.5v692q0 29 -12 48t-26 25.5t-26 14.5t-12 18v5q0 14 27 26
l108 51q25 11 38.5 3.5t13.5 -29.5v-166q47 91 133.5 145t193.5 54q163 0 269 -117t118 -344z" />
    <glyph glyph-name="napostrophe" unicode="&#x149;" horiz-adv-x="1189" 
d="M0 1518q43 0 71.5 -32.5t28.5 -86.5q0 -93 -46.5 -179.5t-133.5 -150.5q-18 -12 -32.5 3t3.5 32q53 50 76.5 90.5t36.5 93.5q6 25 -14 25q-38 0 -63 28t-25 72q0 46 27 75.5t71 29.5zM1059 121q1 -23 13 -38.5t25.5 -21.5t24.5 -14t11 -18v-9q0 -20 -39 -20h-191
q-39 0 -39 20v9q0 10 12 18t25.5 14t24.5 21t10 37l-18 426q-9 192 -87.5 294.5t-201.5 102.5q-128 0 -212.5 -89t-84.5 -220v-516q0 -21 12 -35.5t27 -20.5t27 -14t12 -18v-9q0 -20 -41 -20h-193q-39 0 -39 20v9q0 10 11.5 18t25.5 14t25.5 20.5t11.5 35.5v692q0 29 -12 48
t-26 25.5t-26 14.5t-12 18v5q0 14 27 26l108 51q26 11 39 4t13 -30v-168q45 92 132.5 146.5t196.5 54.5q163 0 268 -117t117 -344z" />
    <glyph glyph-name="Eng" unicode="&#x14a;" horiz-adv-x="1527" 
d="M1364 1454q41 0 41 -20v-2q0 -10 -13 -20t-28 -17.5t-28 -25t-13 -40.5v-1259q0 -211 -95 -332t-272 -121q-83 0 -153 30.5t-112 77.5t-65.5 98t-23.5 97q0 31 17.5 48.5t46.5 17.5q24 0 39.5 -17t24.5 -44t18.5 -60t25 -66t39 -60t66.5 -44t102 -17q113 0 182 93t78 249
l-954 1283v-1178q0 -24 12.5 -41.5t27.5 -24.5t27.5 -16t12.5 -20v-3q0 -20 -37 -20h-160q-41 0 -41 20v3q0 11 12 20t27 16t27 24.5t12 41.5v1204q0 23 -12 40t-27 24.5t-27 17t-12 19.5v2q0 22 41 22h104q36 0 62 -33l907 -1241v1149q0 23 -12 40.5t-26 25t-26 17.5
t-12 20v2q0 20 37 20h160z" />
    <glyph glyph-name="eng" unicode="&#x14b;" horiz-adv-x="1126" 
d="M1020 25q5 -115 -14 -230q-13 -75 -62.5 -121.5t-128.5 -46.5q-75 0 -132.5 42.5t-57.5 107.5q0 25 16.5 41t42.5 16q29 0 44.5 -23.5t21 -51t26 -51t58.5 -23.5q44 0 71 34t27 91q0 41 -16.5 113.5t-18.5 123.5l-25 481q-10 201 -87.5 307.5t-204.5 106.5
q-116 0 -197.5 -76t-95.5 -194l2 -553q0 -22 12 -37t26 -21t26 -14t12 -18v-9q0 -20 -39 -20h-193q-39 0 -39 20v9q0 10 11.5 18t25.5 14t25.5 21t11.5 37v684q0 23 -12 41.5t-26 28.5t-26 21t-12 21v5q0 14 27 26l108 51q49 22 49 -26l3 -160q43 91 127.5 142t191.5 51
q164 0 272 -120t121 -356z" />
    <glyph glyph-name="Omacron" unicode="&#x14c;" horiz-adv-x="1589" 
d="M528 1675q-30 0 -30 27v35q0 24 30 24h525q30 0 30 -24v-35q0 -12 -8.5 -19.5t-21.5 -7.5h-525zM815 -20q-156 0 -293.5 63t-232 167.5t-149 241t-54.5 281.5q0 155 53 292t145.5 236t225.5 156.5t287 57.5q201 0 363.5 -102t252.5 -274t90 -378q0 -194 -89 -364
t-248.5 -273.5t-350.5 -103.5zM840 47q115 0 217.5 51.5t173 135.5t111 194t40.5 225q0 155 -46.5 293.5t-127.5 240t-199 161t-253 59.5q-158 0 -283.5 -80.5t-194.5 -218.5t-69 -307q0 -146 47 -282.5t128.5 -241t201 -167.5t254.5 -63z" />
    <glyph glyph-name="omacron" unicode="&#x14d;" horiz-adv-x="1142" 
d="M305 1257q-31 0 -31 25v35q0 24 31 24h524q31 0 31 -24v-35q0 -25 -31 -25h-524zM590 -18q-147 0 -265.5 72.5t-183.5 193t-65 262.5q0 210 139 350.5t350 140.5q214 0 357 -149.5t143 -370.5q0 -216 -133 -357.5t-342 -141.5zM610 35q142 0 238 115.5t96 291.5
q0 143 -50.5 258.5t-141.5 181.5t-205 66q-151 0 -250.5 -113.5t-99.5 -289.5q0 -135 51 -251t147 -187.5t215 -71.5z" />
    <glyph glyph-name="Ohungarumlaut" unicode="&#x150;" horiz-adv-x="1589" 
d="M551 1556q-15 15 4 43l240 314q22 37 49 10l28 -27q15 -12 14.5 -27.5t-14.5 -27.5l-276 -274q-27 -23 -45 -11zM901 1556q-16 11 4 41l240 316q21 35 49 10l29 -29q15 -12 14.5 -27.5t-14.5 -27.5l-277 -274q-25 -22 -45 -9zM815 -20q-156 0 -293.5 63t-232 167.5
t-149 241t-54.5 281.5q0 155 53 292t145.5 236t225.5 156.5t287 57.5q201 0 363.5 -102t252.5 -274t90 -378q0 -194 -89 -364t-248.5 -273.5t-350.5 -103.5zM840 47q115 0 217.5 51.5t173 135.5t111 194t40.5 225q0 155 -46.5 293.5t-127.5 240t-199 161t-253 59.5
q-158 0 -283.5 -80.5t-194.5 -218.5t-69 -307q0 -146 47 -282.5t128.5 -241t201 -167.5t254.5 -63z" />
    <glyph glyph-name="ohungarumlaut" unicode="&#x151;" horiz-adv-x="1142" 
d="M356 1141q-20 13 4 41l238 315q24 35 49 10l29 -26q31 -28 0 -56l-277 -274q-10 -12 -23 -15t-20 5zM705 1139q-15 15 4 41l239 315q24 35 49 10l31 -26q29 -29 -2 -56l-276 -274q-23 -23 -45 -10zM590 -18q-147 0 -265.5 72.5t-183.5 193t-65 262.5q0 210 139 350.5
t350 140.5q214 0 357 -149.5t143 -370.5q0 -216 -133 -357.5t-342 -141.5zM610 35q142 0 238 115.5t96 291.5q0 143 -50.5 258.5t-141.5 181.5t-205 66q-151 0 -250.5 -113.5t-99.5 -289.5q0 -135 51 -251t147 -187.5t215 -71.5z" />
    <glyph glyph-name="OE" unicode="&#x152;" horiz-adv-x="2320" 
d="M2257 258q26 0 18 -31l-51 -188q-7 -39 -45 -39h-829q-39 0 -39 23v2q0 10 11 18.5t24.5 15t24.5 22.5t11 38v209q-87 -163 -238.5 -255.5t-338.5 -92.5q-147 0 -280 58.5t-230.5 158t-155 239.5t-57.5 297q0 163 52 301.5t144 235t222 151t282 54.5q190 0 349 -102.5
t251 -272.5v235q0 29 -18 46.5t-35.5 28.5t-17.5 22v4q0 18 39 18h768q36 0 45 -39l49 -182q4 -16 -2 -25.5t-19 -9.5h-10q-15 0 -32.5 30t-33.5 66.5t-43.5 66.5t-58.5 30h-481q-49 0 -49 -58v-557h481q29 0 44.5 27t23.5 53.5t18 26.5h12q10 0 16.5 -10.5t6.5 -28.5v-195
q0 -17 -7 -29t-16 -12h-12q-10 0 -18 26t-23.5 52.5t-44.5 26.5h-479l-2 -586q0 -59 59 -59h531q34 0 62.5 29.5t44 65.5t33.5 65.5t32 29.5h12zM834 47q153 0 278 78t196.5 217t71.5 311q0 191 -83.5 364.5t-229.5 281.5t-315 108q-155 0 -281 -79.5t-197 -218.5t-71 -308
q0 -197 83.5 -370.5t229.5 -278.5t318 -105z" />
    <glyph glyph-name="oe" unicode="&#x153;" horiz-adv-x="1880" 
d="M1759 303q11 24 37.5 17.5t20.5 -33.5q-28 -128 -137 -217.5t-273 -89.5q-129 0 -235.5 69.5t-167.5 190.5q-58 -120 -168 -189t-250 -69q-136 0 -253 69.5t-187 191.5t-70 267q0 211 140 351t357 140q131 0 244 -70.5t176 -191.5q57 123 165.5 194t250.5 71
q82 0 156 -28.5t124 -74t79.5 -102.5t29.5 -115q0 -59 -82 -82l-643 -192q33 -153 133.5 -246.5t239.5 -93.5q107 0 191 62.5t122 170.5zM1386 948q-143 0 -234 -119.5t-91 -289.5q0 -24 4 -74l571 170q45 15 45 63q0 36 -22.5 79.5t-60.5 81.5t-94.5 63.5t-117.5 25.5z
M614 37q144 0 237 115t93 282q0 133 -50 249.5t-144 189.5t-211 73q-147 0 -244.5 -114t-97.5 -279q0 -141 52.5 -258.5t149 -187.5t215.5 -70z" />
    <glyph glyph-name="Racute" unicode="&#x154;" horiz-adv-x="1290" 
d="M477 1610q-31 -8 -39 16q-6 22 19 35l409 168q41 20 54 -23l12 -45q5 -15 -4 -27.5t-27 -15.5zM1147 115q17 -22 40 -37.5t39 -21.5t28 -14t12 -19v-3q0 -20 -37 -20h-213q-37 0 -37 20v3q0 10 12 19.5t23.5 15.5t15 20.5t-13.5 36.5l-354 460q-54 -4 -82 -4l-248 -2
v-454q0 -21 11.5 -36t25.5 -21.5t25.5 -15t11.5 -19.5v-3q0 -20 -37 -20h-195q-37 0 -37 20v3q0 11 11 19.5t24 15t24 21.5t11 36v1224q0 21 -11 36.5t-24 22t-24 15.5t-11 19v2q0 20 37 20h377q130 0 240 -27t195 -80t133.5 -139.5t49.5 -199.5q0 -154 -101.5 -264.5
t-287.5 -151.5zM571 635q212 0 341.5 95t129.5 255q0 103 -40 182.5t-109.5 127t-157 71t-190.5 23.5h-168q-25 0 -35 -14.5t-10 -43.5v-620q0 -76 69 -76h170z" />
    <glyph glyph-name="racute" unicode="&#x155;" horiz-adv-x="731" 
d="M260 1149q-31 -12 -43 8q-9 22 10 37l365 254q38 27 57 -12l23 -41q7 -14 0.5 -27.5t-23.5 -21.5zM537 1004q87 0 135.5 -42t48.5 -102q0 -28 -14.5 -45.5t-42.5 -17.5q-21 0 -34.5 13.5t-22.5 32t-20 37.5t-36 32.5t-62 13.5q-92 0 -149 -89.5t-57 -224.5v-495
q0 -22 13 -37t28 -20.5t28 -13.5t13 -19v-7q0 -20 -41 -20h-191q-39 0 -39 20v7q0 11 11.5 19t25.5 13.5t25.5 20.5t11.5 37v692q0 25 -12 43t-26 25.5t-26 16.5t-12 19v7q0 14 27 26l110 51q45 19 45 -24v-172q34 98 103 150.5t160 52.5z" />
    <glyph glyph-name="uni0156" unicode="&#x156;" horiz-adv-x="1290" 
d="M1147 115q17 -22 40 -37.5t39 -21.5t28 -14t12 -19v-3q0 -20 -37 -20h-213q-37 0 -37 20v3q0 10 12 19.5t23.5 15.5t15 20.5t-13.5 36.5l-354 460q-54 -4 -82 -4l-248 -2v-454q0 -21 11.5 -36t25.5 -21.5t25.5 -15t11.5 -19.5v-3q0 -20 -37 -20h-195q-37 0 -37 20v3
q0 11 11 19.5t24 15t24 21.5t11 36v1224q0 21 -11 36.5t-24 22t-24 15.5t-11 19v2q0 20 37 20h377q130 0 240 -27t195 -80t133.5 -139.5t49.5 -199.5q0 -154 -101.5 -264.5t-287.5 -151.5zM571 635q212 0 341.5 95t129.5 255q0 103 -40 182.5t-109.5 127t-157 71
t-190.5 23.5h-168q-25 0 -35 -14.5t-10 -43.5v-620q0 -76 69 -76h170zM659 -139q43 0 71 -31.5t28 -85.5q0 -90 -45 -173.5t-129 -145.5q-11 -8 -23.5 -3.5t-14.5 14.5t9 21q51 49 74 89t37 92q6 24 -17 24q-37 0 -60.5 26.5t-23.5 69.5q0 45 26 74t68 29z" />
    <glyph glyph-name="uni0157" unicode="&#x157;" horiz-adv-x="731" 
d="M537 1004q87 0 135.5 -42t48.5 -102q0 -28 -14.5 -45.5t-42.5 -17.5q-21 0 -34.5 13.5t-22.5 32t-20 37.5t-36 32.5t-62 13.5q-92 0 -149 -89.5t-57 -224.5v-495q0 -22 13 -37t28 -20.5t28 -13.5t13 -19v-7q0 -20 -41 -20h-191q-39 0 -39 20v7q0 11 11.5 19t25.5 13.5
t25.5 20.5t11.5 37v692q0 25 -12 43t-26 25.5t-26 16.5t-12 19v7q0 14 27 26l110 51q45 19 45 -24v-172q34 98 103 150.5t160 52.5zM233 -147q41 0 69 -31.5t28 -85.5q0 -90 -45 -174t-129 -146q-11 -8 -23.5 -3t-14.5 15t9 21q52 48 74.5 87.5t36.5 92.5q6 25 -15 25
q-37 0 -61.5 27t-24.5 69q0 45 27 74t69 29z" />
    <glyph glyph-name="Rcaron" unicode="&#x158;" horiz-adv-x="1290" 
d="M362 1774q-19 18 -1 34q19 17 43 3q1 0 2 -1l262 -194l262 194q22 17 42 0q18 -16 2 -33q-1 -2 -3 -3l-240 -220q-25 -22 -51 -22h-29q-26 0 -51 22zM1147 115q17 -22 40 -37.5t39 -21.5t28 -14t12 -19v-3q0 -20 -37 -20h-213q-37 0 -37 20v3q0 10 12 19.5t23.5 15.5
t15 20.5t-13.5 36.5l-354 460q-54 -4 -82 -4l-248 -2v-454q0 -21 11.5 -36t25.5 -21.5t25.5 -15t11.5 -19.5v-3q0 -20 -37 -20h-195q-37 0 -37 20v3q0 11 11 19.5t24 15t24 21.5t11 36v1224q0 21 -11 36.5t-24 22t-24 15.5t-11 19v2q0 20 37 20h377q130 0 240 -27t195 -80
t133.5 -139.5t49.5 -199.5q0 -154 -101.5 -264.5t-287.5 -151.5zM571 635q212 0 341.5 95t129.5 255q0 103 -40 182.5t-109.5 127t-157 71t-190.5 23.5h-168q-25 0 -35 -14.5t-10 -43.5v-620q0 -76 69 -76h170z" />
    <glyph glyph-name="rcaron" unicode="&#x159;" horiz-adv-x="731" 
d="M690 1427q16 11 32 6t19 -18t-8 -26l-241 -222q-25 -22 -52 -22h-28q-28 0 -50 22l-239 222q-13 13 -7.5 26.5t20.5 16.5t30 -5l262 -196zM537 1004q87 0 135.5 -42t48.5 -102q0 -28 -14.5 -45.5t-42.5 -17.5q-21 0 -34.5 13.5t-22.5 32t-20 37.5t-36 32.5t-62 13.5
q-92 0 -149 -89.5t-57 -224.5v-495q0 -22 13 -37t28 -20.5t28 -13.5t13 -19v-7q0 -20 -41 -20h-191q-39 0 -39 20v7q0 11 11.5 19t25.5 13.5t25.5 20.5t11.5 37v692q0 25 -12 43t-26 25.5t-26 16.5t-12 19v7q0 14 27 26l110 51q45 19 45 -24v-172q34 98 103 150.5t160 52.5z
" />
    <glyph glyph-name="Sacute" unicode="&#x15a;" horiz-adv-x="1226" 
d="M481 1610q-29 -7 -39 16q-6 22 19 35l409 168q41 18 56 -23l10 -45q6 -15 -3 -27.5t-28 -15.5zM637 -20q-114 0 -212 27t-161 68t-108 90.5t-64.5 93.5t-19.5 77q0 27 14 43t41 16q21 0 39 -20t34.5 -51t36.5 -68.5t52.5 -75t76.5 -68t115 -50t160 -19.5q167 0 271 83.5
t104 215.5q0 88 -31 150t-83 95.5t-119 54.5t-142 33.5t-149.5 26t-141.5 38t-119 63.5t-83 109.5t-31 168.5q0 174 132 283t359 109q100 0 186.5 -21.5t144.5 -56t100 -78t61.5 -86t19.5 -80.5q0 -59 -57 -59q-26 0 -46 23.5t-33.5 59t-40.5 77t-63.5 77t-108 59
t-167.5 23.5q-169 0 -265.5 -86t-96.5 -223q0 -81 31 -138.5t83 -88.5t119 -50.5t142 -33t149.5 -28t141.5 -42t119 -69t83 -115.5t31 -175q0 -170 -144 -276t-360 -106z" />
    <glyph glyph-name="sacute" unicode="&#x15b;" horiz-adv-x="944" 
d="M301 1149q-31 -12 -43 8q-9 22 10 37l365 254q38 27 57 -12l23 -41q7 -14 0.5 -27.5t-23.5 -21.5zM473 -20q-99 0 -180 24.5t-127.5 61.5t-71 75.5t-24.5 71.5q0 55 57 55q23 0 39.5 -17.5t26 -43.5t29 -56.5t46 -56.5t79.5 -43.5t126 -17.5q121 0 200 53.5t79 146.5
q0 52 -22.5 89.5t-60.5 59t-87 37t-103.5 26.5t-109 23t-103.5 32t-87 48t-60.5 75t-22.5 110q0 114 103.5 192.5t263.5 78.5q173 0 280 -77.5t107 -162.5q0 -25 -14 -39t-37 -14q-24 0 -40.5 24.5t-33 59.5t-42 70.5t-81 60t-135.5 24.5q-103 0 -176.5 -56.5t-73.5 -141.5
q0 -63 36 -104t94 -61t127.5 -33.5t139.5 -31.5t128 -46t94 -84.5t36 -139.5q0 -115 -110 -193.5t-289 -78.5z" />
    <glyph glyph-name="Scedilla" unicode="&#x15e;" horiz-adv-x="1226" 
d="M1141 362q0 -164 -133.5 -268.5t-337.5 -113.5l-6 -99q88 0 145 -38t57 -101q0 -64 -59.5 -104.5t-149.5 -40.5q-95 0 -163 45q-22 13 -15 39q6 23 23 20q5 -1 10 -4q22 -14 59.5 -26.5t69.5 -12.5q52 0 90 23t37 63q-1 25 -14.5 42t-36.5 25.5t-44 11.5t-44 3
q-25 0 -36.5 16.5t-6.5 44.5l20 93q-108 3 -200.5 31.5t-152 69.5t-102 89.5t-61 90.5t-18.5 75q0 27 14 43t41 16q21 0 39 -20t34.5 -51t36.5 -68.5t52.5 -75t76.5 -68t115 -50t160 -19.5q167 0 271 83.5t104 215.5q0 88 -31 150t-83 95.5t-119 54.5t-142 33.5t-149.5 26
t-141.5 38t-119 63.5t-83 109.5t-31 168.5q0 174 132 283t359 109q100 0 186.5 -21.5t144.5 -56t100 -78t61.5 -86t19.5 -80.5q0 -59 -57 -59q-26 0 -46 23.5t-33.5 59t-40.5 77t-63.5 77t-108 59t-167.5 23.5q-169 0 -265.5 -86t-96.5 -223q0 -81 31 -138.5t83 -88.5
t119 -50.5t142 -33t149.5 -28t141.5 -42t119 -69t83 -115.5t31 -175z" />
    <glyph glyph-name="scedilla" unicode="&#x15f;" horiz-adv-x="944" 
d="M872 252q0 -110 -101.5 -187.5t-268.5 -84.5l-6 -99q88 0 145 -38t57 -101q0 -64 -58.5 -104.5t-147.5 -40.5q-96 0 -164 45q-23 13 -16 39q5 23 24 20q5 -1 10 -4q20 -14 58 -26.5t71 -12.5q51 0 88.5 23t36.5 63q-1 32 -26 52t-52 25t-59 5q-25 0 -37 16.5t-6 44.5
l18 93q-90 4 -164 30t-116.5 62t-65 73t-22.5 68q0 55 57 55q23 0 39.5 -17.5t26 -43.5t29 -56.5t46 -56.5t79.5 -43.5t126 -17.5q121 0 200 53.5t79 146.5q0 52 -22.5 89.5t-60.5 59t-87 37t-103.5 26.5t-109 23t-103.5 32t-87 48t-60.5 75t-22.5 110q0 114 103.5 192.5
t263.5 78.5q173 0 280 -77.5t107 -162.5q0 -25 -14 -39t-37 -14q-24 0 -40.5 24.5t-33 59.5t-42 70.5t-81 60t-135.5 24.5q-103 0 -176.5 -56.5t-73.5 -141.5q0 -63 36 -104t94 -61t127.5 -33.5t139.5 -31.5t128 -46t94 -84.5t36 -139.5z" />
    <glyph glyph-name="Scaron" unicode="&#x160;" horiz-adv-x="1226" 
d="M328 1774q-20 18 -1 34q20 18 44 2l262 -194l262 194q22 17 42 0q18 -16 2 -33q-1 -2 -3 -3l-240 -220q-25 -22 -51 -22h-29q-26 0 -51 22zM242 1102q0 -81 31 -138.5t83 -88.5t119 -50.5t142 -33t149.5 -28t141.5 -42t119 -69t83 -115.5t31 -175q0 -170 -144 -276
t-360 -106q-114 0 -212 27t-161 68t-108 90.5t-64.5 93.5t-19.5 77q0 27 14 43t41 16q21 0 39 -20t34.5 -51t36.5 -68.5t52.5 -75t76.5 -68t115 -50t160 -19.5q167 0 271 83.5t104 215.5q0 88 -31 150t-83 95.5t-119 54.5t-142 33.5t-149.5 26t-141.5 38t-119 63.5
t-83 109.5t-31 168.5q0 174 132 283t359 109q100 0 186.5 -21.5t144.5 -56t100 -78t61.5 -86t19.5 -80.5q0 -59 -57 -59q-26 0 -46 23.5t-33.5 59t-40.5 77t-63.5 77t-108 59t-167.5 23.5q-169 0 -265.5 -86t-96.5 -223z" />
    <glyph glyph-name="scaron" unicode="&#x161;" horiz-adv-x="944" 
d="M403 1167l-239 222q-13 13 -7.5 26.5t20.5 16.5t30 -5l262 -196l262 196q16 11 32 6t19 -18t-8 -26l-242 -222q-25 -22 -51 -22h-28q-28 0 -50 22zM217 752q0 -63 36 -104t94 -61t127.5 -33.5t139.5 -31.5t128 -46t94 -84.5t36 -139.5q0 -115 -110 -193.5t-289 -78.5
q-99 0 -180 24.5t-127.5 61.5t-71 75.5t-24.5 71.5q0 55 57 55q23 0 39.5 -17.5t26 -43.5t29 -56.5t46 -56.5t79.5 -43.5t126 -17.5q121 0 200 53.5t79 146.5q0 52 -22.5 89.5t-60.5 59t-87 37t-103.5 26.5t-109 23t-103.5 32t-87 48t-60.5 75t-22.5 110q0 114 103.5 192.5
t263.5 78.5q173 0 280 -77.5t107 -162.5q0 -25 -14 -39t-37 -14q-24 0 -40.5 24.5t-33 59.5t-42 70.5t-81 60t-135.5 24.5q-103 0 -176.5 -56.5t-73.5 -141.5z" />
    <glyph glyph-name="uni0162" unicode="&#x162;" horiz-adv-x="1222" 
d="M1200 1208q8 -32 -18 -32h-15q-14 0 -31.5 33t-33 72t-42.5 72t-59 33h-337v-1271q0 -21 11.5 -36t25 -21.5t25 -15t11.5 -19.5v-3q0 -20 -39 -20h-63l-6 -119q88 0 145 -38t57 -101q0 -64 -59 -104.5t-149 -40.5q-96 0 -164 45q-22 13 -15 39q6 23 23 20q5 -1 10 -4
q22 -14 59.5 -26.5t69.5 -12.5q52 0 90 23t37 63q-1 25 -14.5 42t-36.5 25.5t-44 11.5t-44 3q-25 0 -36.5 16.5t-6.5 44.5l24 113h-69q-37 0 -37 20v3q0 11 11.5 19.5t24.5 15t24.5 21.5t11.5 36v1271h-338q-31 0 -55 -33t-36 -72t-27 -72t-30 -33h-14q-23 0 -18 34l32 205
q6 39 45 39h1006q38 0 47 -39z" />
    <glyph glyph-name="uni0163" unicode="&#x163;" horiz-adv-x="698" 
d="M449 -119q88 0 145 -38t57 -101q0 -64 -59.5 -104.5t-149.5 -40.5q-95 0 -163 45q-22 13 -15 39q6 23 23 20q5 -1 10 -4q22 -14 60 -26.5t69 -12.5q52 0 90 23t37 63q-1 25 -14.5 42t-36.5 25.5t-44 11.5t-44 3q-25 0 -36 16.5t-5 44.5l18 97q-92 12 -144 83t-52 199v654
h-158q-11 0 -18 7t-7 17v14q0 25 25 25h86q64 0 92 49.5t33 141.5q3 38 28 38h13q14 0 19 -9t5 -29l4 -191h306q10 0 17 -7t7 -18v-14q0 -10 -6.5 -17t-17.5 -7h-306v-654q0 -94 37.5 -143t102.5 -49q69 0 110.5 37t44.5 98q4 15 18 20.5t27 -1t13 -23.5q0 -86 -59 -151
t-156 -72z" />
    <glyph glyph-name="Tcaron" unicode="&#x164;" horiz-adv-x="1222" 
d="M301 1774q-21 18 -2 34.5t41 2.5q1 0 2 -1l262 -194l262 194q24 16 43 0t3 -33q-1 -2 -3 -3l-241 -220q-25 -22 -50 -22h-28q-26 0 -51 22zM1200 1208q8 -32 -18 -32h-15q-14 0 -31.5 33t-33 72t-42.5 72t-59 33h-337v-1271q0 -21 11.5 -36t25 -21.5t25 -15t11.5 -19.5
v-3q0 -20 -39 -20h-192q-37 0 -37 20v3q0 11 11.5 19.5t24.5 15t24.5 21.5t11.5 36v1271h-338q-31 0 -55 -33t-36 -72t-27 -72t-30 -33h-14q-23 0 -18 34l32 205q6 39 45 39h1006q38 0 47 -39z" />
    <glyph glyph-name="tcaron" unicode="&#x165;" horiz-adv-x="698" 
d="M475 1092l-8 6q-16 14 8 45q125 170 125 393q0 15 7.5 26t17.5 11h45q26 0 26 -37q0 -254 -176 -434q-25 -25 -45 -10zM432 -18q-111 0 -174 71t-63 213v654h-158q-11 0 -18 7t-7 17v14q0 25 25 25h86q64 0 92 49.5t33 141.5q3 38 28 38h13q14 0 19 -9t5 -29l4 -191h306
q10 0 17 -7t7 -18v-14q0 -10 -6.5 -17t-17.5 -7h-306v-654q0 -94 37.5 -143t102.5 -49q69 0 110.5 37t44.5 98q4 15 18 20.5t27 -1t13 -23.5q0 -91 -66 -157t-172 -66z" />
    <glyph glyph-name="Tbar" unicode="&#x166;" horiz-adv-x="1230" 
d="M1206 1208q8 -32 -18 -32h-14q-14 0 -31.5 33t-33 72t-42.5 72t-59 33h-338v-622h211q28 0 28 -23v-18q0 -13 -6.5 -18t-21.5 -5h-211v-585q0 -21 11.5 -36t25 -21.5t25 -15t11.5 -19.5v-3q0 -20 -36 -20h-195q-37 0 -37 20v3q0 11 11.5 19.5t24.5 15t24.5 21.5t11.5 36
v585h-223q-27 0 -27 21v22q0 21 27 21h223v622h-336q-32 0 -56.5 -33t-36.5 -72t-27 -72t-30 -33h-14q-21 0 -16 34l30 205q6 39 45 39h1006q38 0 47 -39z" />
    <glyph glyph-name="tbar" unicode="&#x167;" horiz-adv-x="735" 
d="M647 209q3 15 16.5 20.5t26 -1t12.5 -23.5q0 -91 -65 -157t-170 -66q-111 0 -175.5 71t-64.5 213v297h-166q-28 0 -28 23v20q0 21 28 21h166v293h-155q-25 0 -25 24v14q0 25 25 25h86q64 0 92 49.5t31 141.5q3 38 28 38h13q26 0 26 -38l2 -191h305q11 0 19 -7.5t8 -17.5
v-14q0 -10 -8 -17t-19 -7h-305v-293h268q13 0 20 -6.5t7 -14.5v-20q0 -23 -27 -23h-268v-297q0 -94 37.5 -143t101.5 -49q70 0 112.5 37t45.5 98z" />
    <glyph glyph-name="Utilde" unicode="&#x168;" horiz-adv-x="1472" 
d="M610 1815q42 0 89 -19t80.5 -42.5t72 -42.5t66.5 -19q77 0 114 86q8 22 29 22h10q25 0 16 -28q-40 -168 -182 -168q-41 0 -85.5 19.5t-77 43t-72.5 43t-72 19.5q-38 0 -68 -24.5t-45 -66.5q-11 -28 -26 -28h-15q-8 0 -14.5 8.5t-3.5 21.5q16 76 63 125.5t121 49.5z
M748 -20q-166 0 -294.5 74.5t-199 208.5t-70.5 306v768q0 22 -11.5 38t-25 22.5t-25 15t-11.5 17.5v4q0 20 41 20h192q39 0 39 -20v-4q0 -9 -12 -17.5t-26 -15t-26 -22.5t-12 -38v-768q0 -231 128 -376.5t329 -145.5q123 0 223.5 62.5t160.5 182.5t60 277v768q0 22 -11.5 38
t-26 22.5t-26 15t-11.5 17.5v4q0 20 38 20h156q41 0 41 -20v-4q0 -9 -12.5 -17.5t-27.5 -15t-27.5 -22.5t-12.5 -38v-768q0 -261 -151 -425t-389 -164z" />
    <glyph glyph-name="utilde" unicode="&#x169;" horiz-adv-x="1134" 
d="M233 1229q-9 0 -15 9t-3 22q16 77 62.5 125.5t121.5 48.5q53 0 112 -31t110 -61.5t86 -30.5q80 0 112 86q8 22 29 22h12q23 0 17 -28q-44 -168 -185 -168q-40 0 -84 19.5t-76.5 43t-72.5 43t-72 19.5q-77 0 -115 -91l-7.5 -16.5t-6.5 -8.5t-10 -3h-15zM963 158
q0 -49 19 -74t42 -28t42 -9.5t19 -21.5q0 -22 -21.5 -29.5t-76.5 -7.5q-140 0 -135 151l-6 33q-44 -91 -129 -141.5t-195 -50.5q-175 0 -277 129.5t-102 359.5v369q0 24 -11.5 41t-25 24t-25 16.5t-11.5 20.5v2q0 20 24 27l127 28q20 6 31.5 2t11.5 -22l-2 -516
q0 -197 74 -307.5t207 -110.5q129 0 215 95.5t86 250.5v449q0 24 -12 40.5t-27 23.5t-27 17t-12 21v2q0 22 22 27l134 28q20 6 30.5 2t10.5 -22v-819z" />
    <glyph glyph-name="Umacron" unicode="&#x16a;" horiz-adv-x="1472" 
d="M481 1675q-13 0 -21.5 7.5t-8.5 19.5v35q0 24 30 24h525q30 0 30 -24v-35q0 -27 -30 -27h-525zM748 -20q-166 0 -294.5 74.5t-199 208.5t-70.5 306v768q0 22 -11.5 38t-25 22.5t-25 15t-11.5 17.5v4q0 20 41 20h192q39 0 39 -20v-4q0 -9 -12 -17.5t-26 -15t-26 -22.5
t-12 -38v-768q0 -231 128 -376.5t329 -145.5q123 0 223.5 62.5t160.5 182.5t60 277v768q0 22 -11.5 38t-26 22.5t-26 15t-11.5 17.5v4q0 20 38 20h156q41 0 41 -20v-4q0 -9 -12.5 -17.5t-27.5 -15t-27.5 -22.5t-12.5 -38v-768q0 -261 -151 -425t-389 -164z" />
    <glyph glyph-name="umacron" unicode="&#x16b;" horiz-adv-x="1134" 
d="M299 1257q-31 0 -31 25v35q0 24 31 24h524q31 0 31 -24v-35q0 -25 -31 -25h-524zM963 158q0 -49 19 -74t42 -28t42 -9.5t19 -21.5q0 -22 -21.5 -29.5t-76.5 -7.5q-140 0 -135 151l-6 33q-44 -91 -129 -141.5t-195 -50.5q-175 0 -277 129.5t-102 359.5v369q0 24 -11.5 41
t-25 24t-25 16.5t-11.5 20.5v2q0 20 24 27l127 28q20 6 31.5 2t11.5 -22l-2 -516q0 -197 74 -307.5t207 -110.5q129 0 215 95.5t86 250.5v449q0 24 -12 40.5t-27 23.5t-27 17t-12 21v2q0 22 22 27l134 28q20 6 30.5 2t10.5 -22v-819z" />
    <glyph glyph-name="Uring" unicode="&#x16e;" horiz-adv-x="1472" 
d="M750 1565q-93 0 -154 57.5t-61 138.5q0 85 61 143t156 58t157 -58t62 -139q0 -86 -61.5 -143t-159.5 -57zM752 1620q59 0 96 40.5t37 102.5q0 60 -37 101t-96 41q-58 0 -94.5 -40t-36.5 -102q0 -60 37 -101.5t94 -41.5zM748 -20q-166 0 -294.5 74.5t-199 208.5t-70.5 306
v768q0 22 -11.5 38t-25 22.5t-25 15t-11.5 17.5v4q0 20 41 20h192q39 0 39 -20v-4q0 -9 -12 -17.5t-26 -15t-26 -22.5t-12 -38v-768q0 -231 128 -376.5t329 -145.5q123 0 223.5 62.5t160.5 182.5t60 277v768q0 22 -11.5 38t-26 22.5t-26 15t-11.5 17.5v4q0 20 38 20h156
q41 0 41 -20v-4q0 -9 -12.5 -17.5t-27.5 -15t-27.5 -22.5t-12.5 -38v-768q0 -261 -151 -425t-389 -164z" />
    <glyph glyph-name="uring" unicode="&#x16f;" horiz-adv-x="1134" 
d="M559 1124q-94 0 -154.5 57t-60.5 140q0 85 61 142t156 57t157 -57t62 -140q0 -85 -61.5 -142t-159.5 -57zM561 1464q-59 0 -95 -40t-36 -101q0 -62 36 -103.5t95 -41.5t96 40.5t37 104.5q0 59 -37 100t-96 41zM963 158q0 -49 19 -74t42 -28t42 -9.5t19 -21.5
q0 -22 -21.5 -29.5t-76.5 -7.5q-140 0 -135 151l-6 33q-44 -91 -129 -141.5t-195 -50.5q-175 0 -277 129.5t-102 359.5v369q0 24 -11.5 41t-25 24t-25 16.5t-11.5 20.5v2q0 20 24 27l127 28q20 6 31.5 2t11.5 -22l-2 -516q0 -197 74 -307.5t207 -110.5q129 0 215 95.5
t86 250.5v449q0 24 -12 40.5t-27 23.5t-27 17t-12 21v2q0 22 22 27l134 28q20 6 30.5 2t10.5 -22v-819z" />
    <glyph glyph-name="Uhungarumlaut" unicode="&#x170;" horiz-adv-x="1472" 
d="M504 1556q-15 15 4 43l240 314q22 37 49 10l28 -27q15 -12 14.5 -27.5t-14.5 -27.5l-276 -274q-27 -23 -45 -11zM854 1556q-16 11 4 41l240 316q21 35 49 10l29 -29q15 -12 14.5 -27.5t-14.5 -27.5l-277 -274q-25 -22 -45 -9zM748 -20q-166 0 -294.5 74.5t-199 208.5
t-70.5 306v768q0 22 -11.5 38t-25 22.5t-25 15t-11.5 17.5v4q0 20 41 20h192q39 0 39 -20v-4q0 -9 -12 -17.5t-26 -15t-26 -22.5t-12 -38v-768q0 -231 128 -376.5t329 -145.5q123 0 223.5 62.5t160.5 182.5t60 277v768q0 22 -11.5 38t-26 22.5t-26 15t-11.5 17.5v4
q0 20 38 20h156q41 0 41 -20v-4q0 -9 -12.5 -17.5t-27.5 -15t-27.5 -22.5t-12.5 -38v-768q0 -261 -151 -425t-389 -164z" />
    <glyph glyph-name="uhungarumlaut" unicode="&#x171;" horiz-adv-x="1134" 
d="M289 1141q-18 12 4 41l237 315q24 35 52 10l28 -26q31 -28 0 -56l-276 -274q-26 -26 -45 -10zM639 1139q-16 14 4 41l240 315q22 37 49 10l29 -26q15 -14 13.5 -29t-16.5 -27l-274 -274q-26 -23 -45 -10zM963 158q0 -49 19 -74t42 -28t42 -9.5t19 -21.5
q0 -22 -21.5 -29.5t-76.5 -7.5q-140 0 -135 151l-6 33q-44 -91 -129 -141.5t-195 -50.5q-175 0 -277 129.5t-102 359.5v369q0 24 -11.5 41t-25 24t-25 16.5t-11.5 20.5v2q0 20 24 27l127 28q20 6 31.5 2t11.5 -22l-2 -516q0 -197 74 -307.5t207 -110.5q129 0 215 95.5
t86 250.5v449q0 24 -12 40.5t-27 23.5t-27 17t-12 21v2q0 22 22 27l134 28q20 6 30.5 2t10.5 -22v-819z" />
    <glyph glyph-name="Uogonek" unicode="&#x172;" horiz-adv-x="1472" 
d="M1327 1454q41 0 41 -20v-4q0 -9 -12.5 -17.5t-27.5 -15t-27.5 -22.5t-12.5 -38v-768q0 -235 -124 -393.5t-328 -189.5q-60 -55 -99 -119.5t-39 -120.5q0 -48 24.5 -76t63.5 -28q22 0 62 14q17 7 26.5 -5t6 -29t-16.5 -23q-38 -21 -92 -21q-71 0 -120.5 41t-49.5 109
q0 65 44.5 132.5t113.5 119.5h-12q-166 0 -294.5 74.5t-199 208.5t-70.5 306v768q0 22 -11.5 38t-25 22.5t-25 15t-11.5 17.5v4q0 20 41 20h192q39 0 39 -20v-4q0 -9 -12 -17.5t-26 -15t-26 -22.5t-12 -38v-768q0 -231 128 -376.5t329 -145.5q123 0 223.5 62.5t160.5 182.5
t60 277v768q0 22 -11.5 38t-26 22.5t-26 15t-11.5 17.5v4q0 20 38 20h156z" />
    <glyph glyph-name="uogonek" unicode="&#x173;" horiz-adv-x="1134" 
d="M977 -12q-54 -53 -88.5 -113t-34.5 -113q0 -48 24.5 -76t63.5 -28q22 0 62 14q16 7 25.5 -5t6.5 -29t-16 -23q-38 -21 -92 -21q-71 0 -120.5 41t-49.5 109q0 66 46 135t118 121q-73 30 -70 139l-6 33q-44 -91 -129 -141.5t-195 -50.5q-175 0 -277 129.5t-102 359.5v369
q0 24 -11.5 41t-25 24t-25 16.5t-11.5 20.5v2q0 20 24 27l127 28q20 6 31.5 2t11.5 -22l-2 -516q0 -197 74 -307.5t207 -110.5q129 0 215 95.5t86 250.5v449q0 24 -12 40.5t-27 23.5t-27 17t-12 21v2q0 22 22 27l134 28q20 6 30.5 2t10.5 -22v-819q0 -49 19 -74t42 -28
t42 -9.5t19 -21.5q0 -22 -21.5 -29.5t-76.5 -7.5h-10z" />
    <glyph glyph-name="Wcircumflex" unicode="&#x174;" horiz-adv-x="1980" 
d="M793 1569q-24 -16 -42.5 3t5.5 42l225 194q25 25 51 25h25q23 0 51 -25l231 -194q24 -22 9 -42.5t-45 -2.5l-261 170zM1927 1454q35 0 35 -18v-4q0 -11 -11 -19t-25.5 -14t-30 -22t-23.5 -40l-412 -1300q-12 -37 -59 -37q-35 0 -49 37l-322 924l-342 -924
q-13 -37 -57 -37q-34 0 -49 37l-490 1298q-10 27 -27.5 44t-32 22t-25.5 13t-11 20v4q0 16 33 16h217q35 0 35 -20v-2q0 -12 -13.5 -21t-27.5 -14.5t-22 -21t3 -40.5l434 -1173l338 907l-94 268q-8 26 -24.5 43t-31 23t-25.5 13.5t-11 17.5v4q0 16 31 16h225q31 0 31 -16v-4
q0 -10 -14.5 -18t-30 -13.5t-25 -22.5t-0.5 -43l401 -1177l365 1177q7 22 -2 37t-24 21t-28.5 14t-13.5 18v5q0 22 37 22h168z" />
    <glyph glyph-name="wcircumflex" unicode="&#x175;" horiz-adv-x="1523" 
d="M524 1149q-24 -16 -41.5 2t6.5 41l226 197q27 24 51 24h25q24 0 51 -24l231 -197q24 -22 8.5 -42.5t-45.5 -0.5l-260 168zM1491 983q25 0 25 -20v-5q0 -11 -9 -18.5t-21.5 -12.5t-27.5 -21t-24 -42l-297 -827q-8 -21 -17 -29t-28 -8h-25q-40 0 -49 37l-252 784l-254 -784
q-12 -37 -45 -37h-16q-37 0 -52 37l-321 827q-9 24 -22.5 40.5t-24 22t-18 13.5t-7.5 18v5q0 20 27 20h198q25 0 25 -20v-5q0 -10 -12.5 -17.5t-25.5 -13.5t-20.5 -21.5t3.5 -41.5l270 -749l270 837q9 29 29 29h41q9 0 14 -4t7 -8.5t6 -16.5l264 -843l264 749
q10 27 0.5 43.5t-24.5 23t-29.5 15t-14.5 18.5v5q0 20 25 20h168z" />
    <glyph glyph-name="Ycircumflex" unicode="&#x176;" horiz-adv-x="1329" 
d="M426 1569q-24 -16 -41.5 3t6.5 42l225 194q25 25 52 25h24q23 0 51 -25l232 -194q24 -22 8.5 -42.5t-45.5 -2.5l-260 170zM1268 1454q37 0 37 -18v-4q0 -10 -9.5 -17.5t-23 -13.5t-32 -22t-32.5 -40l-473 -753v-471q0 -21 12 -36t26 -21.5t26 -15t12 -19.5v-3
q0 -20 -39 -20h-192q-39 0 -39 20v3q0 11 11 19.5t24.5 15t24.5 21.5t11 36v465l-493 759q-16 26 -43 43t-44.5 27t-17.5 23v2q0 20 39 20h217q39 0 39 -20v-2q0 -10 -14 -19.5t-27.5 -17t-20.5 -22t7 -34.5l442 -702l437 702q15 22 6.5 37t-24.5 21.5t-32 15.5t-16 19v2
q0 20 35 20h166z" />
    <glyph glyph-name="ycircumflex" unicode="&#x177;" horiz-adv-x="1042" 
d="M291 1151q-24 -16 -42.5 2t5.5 41l225 197q27 24 51 24h27q25 0 49 -24l232 -197q16 -13 14.5 -28.5t-15.5 -20t-36 5.5l-260 168zM1014 983q24 0 24 -20v-5q0 -15 -13 -24t-35.5 -28.5t-39.5 -55.5l-387 -862q-78 -178 -119 -244q-103 -168 -241 -176h-13
q-94 0 -159.5 54.5t-65.5 109.5q0 27 14.5 43t40.5 16q21 0 36.5 -17t27 -41.5t26 -49t41.5 -41.5t66 -17q133 0 268 344l-387 881q-12 27 -28.5 46t-29.5 25.5t-22.5 15.5t-9.5 21v5q0 20 25 20h207q24 0 24 -20v-5q0 -14 -17 -27t-25 -26t5 -55l322 -766l330 758
q15 32 6 51.5t-26.5 27t-34.5 16.5t-17 21v5q0 20 27 20h180z" />
    <glyph glyph-name="Ydieresis" unicode="&#x178;" horiz-adv-x="1329" 
d="M510 1636q-44 0 -71 27t-27 70q0 44 27 71t71 27q43 0 68.5 -27t25.5 -71q0 -43 -26 -70t-68 -27zM860 1636q-44 0 -71 27t-27 70q0 44 27 71t71 27q42 0 69 -27t27 -71q0 -43 -27 -70t-69 -27zM1268 1454q37 0 37 -18v-4q0 -10 -9.5 -17.5t-23 -13.5t-32 -22t-32.5 -40
l-473 -753v-471q0 -21 12 -36t26 -21.5t26 -15t12 -19.5v-3q0 -20 -39 -20h-192q-39 0 -39 20v3q0 11 11 19.5t24.5 15t24.5 21.5t11 36v465l-493 759q-16 26 -43 43t-44.5 27t-17.5 23v2q0 20 39 20h217q39 0 39 -20v-2q0 -10 -14 -19.5t-27.5 -17t-20.5 -22t7 -34.5
l442 -702l437 702q15 22 6.5 37t-24.5 21.5t-32 15.5t-16 19v2q0 20 35 20h166z" />
    <glyph glyph-name="Zacute" unicode="&#x179;" horiz-adv-x="1216" 
d="M436 1610q-31 -8 -39 16q-6 21 17 35l411 168q41 20 54 -23l12 -45q5 -15 -4.5 -27.5t-28.5 -15.5zM1165 264q16 0 24.5 -8.5t2.5 -24.5l-55 -190q-14 -41 -47 -41h-1006q-15 0 -25 9.5t-10 23.5v8q0 17 21 45l923 1305h-729q-30 0 -56.5 -31t-42.5 -67.5t-35 -67.5
t-36 -31h-8q-28 0 -20 39l51 182q10 39 47 39h932q15 0 24.5 -9.5t9.5 -23.5v-14q0 -14 -20 -47l-920 -1297h785q35 0 65.5 31.5t47.5 69t37 69t36 31.5h4z" />
    <glyph glyph-name="zacute" unicode="&#x17a;" horiz-adv-x="948" 
d="M348 1149q-29 -11 -43 8q-9 22 10 37l365 254q38 26 59 -12l21 -41q8 -13 1.5 -27.5t-24.5 -21.5zM903 250q13 0 19 -9.5t0 -27.5l-56 -172q-14 -41 -47 -41h-729q-15 0 -25 9.5t-10 23.5v8q0 12 19 45l649 844h-444q-32 0 -60.5 -30t-44.5 -65.5t-35 -65.5t-35 -30h-8
q-30 0 -18 39l51 166q7 20 16.5 29.5t28.5 9.5h643q15 0 25 -9.5t10 -23.5v-14q0 -15 -25 -47l-645 -836h520q36 0 66 31t47 67.5t38 67.5t40 31h10z" />
    <glyph glyph-name="Zdotaccent" unicode="&#x17b;" horiz-adv-x="1216" 
d="M631 1606q-46 0 -75.5 27.5t-29.5 72.5t29.5 73.5t75.5 28.5q44 0 71 -28t27 -74t-27 -73t-71 -27zM1165 264q16 0 24.5 -8.5t2.5 -24.5l-55 -190q-14 -41 -47 -41h-1006q-15 0 -25 9.5t-10 23.5v8q0 17 21 45l923 1305h-729q-30 0 -56.5 -31t-42.5 -67.5t-35 -67.5
t-36 -31h-8q-28 0 -20 39l51 182q10 39 47 39h932q15 0 24.5 -9.5t9.5 -23.5v-14q0 -14 -20 -47l-920 -1297h785q35 0 65.5 31.5t47.5 69t37 69t36 31.5h4z" />
    <glyph glyph-name="zdotaccent" unicode="&#x17c;" horiz-adv-x="948" 
d="M518 1202q-49 0 -77.5 27.5t-28.5 73.5q0 48 28.5 76t77.5 28q45 0 72.5 -28.5t27.5 -75.5q0 -45 -28 -73t-72 -28zM903 250q13 0 19 -9.5t0 -27.5l-56 -172q-14 -41 -47 -41h-729q-15 0 -25 9.5t-10 23.5v8q0 12 19 45l649 844h-444q-32 0 -60.5 -30t-44.5 -65.5
t-35 -65.5t-35 -30h-8q-30 0 -18 39l51 166q7 20 16.5 29.5t28.5 9.5h643q15 0 25 -9.5t10 -23.5v-14q0 -15 -25 -47l-645 -836h520q36 0 66 31t47 67.5t38 67.5t40 31h10z" />
    <glyph glyph-name="Zcaron" unicode="&#x17d;" horiz-adv-x="1216" 
d="M322 1774q-20 17 -3 34q17 16 40 4q1 -1 3 -2l263 -194l262 194q24 16 43 0t3 -33q-1 -2 -3 -3l-242 -220q-25 -22 -49 -22h-29q-26 0 -51 22zM1165 264q16 0 24.5 -8.5t2.5 -24.5l-55 -190q-14 -41 -47 -41h-1006q-15 0 -25 9.5t-10 23.5v8q0 17 21 45l923 1305h-729
q-30 0 -56.5 -31t-42.5 -67.5t-35 -67.5t-36 -31h-8q-28 0 -20 39l51 182q10 39 47 39h932q15 0 24.5 -9.5t9.5 -23.5v-14q0 -14 -20 -47l-920 -1297h785q35 0 65.5 31.5t47.5 69t37 69t36 31.5h4z" />
    <glyph glyph-name="zcaron" unicode="&#x17e;" horiz-adv-x="948" 
d="M449 1167l-238 222q-13 13 -7.5 26.5t20.5 16.5t30 -5l262 -196l262 196q15 11 31 6t19.5 -18t-7.5 -26l-241 -222q-25 -22 -52 -22h-28q-26 0 -51 22zM903 250q13 0 19 -9.5t0 -27.5l-56 -172q-14 -41 -47 -41h-729q-15 0 -25 9.5t-10 23.5v8q0 12 19 45l649 844h-444
q-32 0 -60.5 -30t-44.5 -65.5t-35 -65.5t-35 -30h-8q-30 0 -18 39l51 166q7 20 16.5 29.5t28.5 9.5h643q15 0 25 -9.5t10 -23.5v-14q0 -15 -25 -47l-645 -836h520q36 0 66 31t47 67.5t38 67.5t40 31h10z" />
    <glyph glyph-name="Ohorn" unicode="&#x1a0;" horiz-adv-x="1589" 
d="M815 -20q-156 0 -293.5 63t-232 167.5t-149 241t-54.5 281.5q0 155 53 292t145.5 236t225.5 156.5t287 57.5q143 0 266 -54q13 -2 28.5 -4.5t25.5 -4t13 -1.5q104 -8 158 31q71 54 19 86q-4 3 -32 15.5t-38.5 25t-11.5 33.5q-2 37 26 58t72 9q63 -19 79 -84.5t-30 -134.5
q-61 -85 -190 -92q149 -102 235 -270.5t86 -366.5q0 -194 -89 -364t-248.5 -273.5t-350.5 -103.5zM840 47q115 0 217.5 51.5t173 135.5t111 194t40.5 225q0 155 -46.5 293.5t-127.5 240t-199 161t-253 59.5q-158 0 -283.5 -80.5t-194.5 -218.5t-69 -307q0 -146 47 -282.5
t128.5 -241t201 -167.5t254.5 -63z" />
    <glyph glyph-name="ohorn" unicode="&#x1a1;" horiz-adv-x="1142" 
d="M590 -18q-147 0 -265.5 72.5t-183.5 193t-65 262.5q0 210 139 350.5t350 140.5q113 0 211 -45q102 -8 156 31q71 53 18 86q-4 3 -32 15.5t-38.5 25t-11.5 33.5q-2 37 26.5 58t72.5 9q63 -19 79 -84.5t-30 -134.5q-55 -74 -158 -88q97 -72 152 -183t55 -243
q0 -216 -133 -357.5t-342 -141.5zM610 35q142 0 238 115.5t96 291.5q0 143 -50.5 258.5t-141.5 181.5t-205 66q-151 0 -250.5 -113.5t-99.5 -289.5q0 -135 51 -251t147 -187.5t215 -71.5z" />
    <glyph glyph-name="Uhorn" unicode="&#x1af;" horiz-adv-x="1472" 
d="M1454 1450q-52 -75 -166 -90v-791q0 -261 -151 -425t-389 -164q-166 0 -294.5 74.5t-199 208.5t-70.5 306v768q0 22 -11.5 38t-25 22.5t-25 15t-11.5 17.5v4q0 20 41 20h192q39 0 39 -20v-4q0 -9 -12 -17.5t-26 -15t-26 -22.5t-12 -38v-768q0 -231 128 -376.5t329 -145.5
q123 0 223.5 62.5t160.5 182.5t60 277v768q0 22 -11.5 38t-26 22.5t-26 15t-11.5 17.5v4q0 20 38 20h76q41 0 41 -20v-23q43 6 82 31q71 54 19 86q-4 3 -32 15.5t-38.5 25t-11.5 33.5q-2 37 26 58t72 9q63 -19 79 -84.5t-30 -134.5z" />
    <glyph glyph-name="uhorn" unicode="&#x1b0;" horiz-adv-x="1134" 
d="M963 158q0 -49 19 -74t42 -28t42 -9.5t19 -21.5q0 -22 -21.5 -29.5t-76.5 -7.5q-140 0 -135 151l-6 33q-44 -91 -129 -141.5t-195 -50.5q-175 0 -277 129.5t-102 359.5v369q0 24 -11.5 41t-25 24t-25 16.5t-11.5 20.5v2q0 20 24 27l127 28q20 6 31.5 2t11.5 -22l-2 -516
q0 -197 74 -307.5t207 -110.5q129 0 215 95.5t86 250.5v449q0 24 -12 40.5t-27 23.5t-27 17t-12 21v2q0 22 22 27l134 28q20 6 30.5 2t10.5 -22v-21q42 6 81 31q71 54 19 86q-4 3 -32 15.5t-38.5 25t-11.5 33.5q-2 37 26 58t72 9q63 -19 79 -84.5t-30 -134.5
q-54 -76 -165 -90v-747z" />
    <glyph glyph-name="uni01EA" unicode="&#x1ea;" horiz-adv-x="1589" 
d="M893 -16q-59 -57 -97 -121t-38 -119q0 -47 24.5 -74.5t63.5 -27.5q21 0 61 14q16 7 25.5 -5t7 -29t-15.5 -23q-41 -23 -95 -23q-69 0 -118 42t-49 110q0 65 44 132.5t113 119.5h-4q-156 0 -293.5 63t-232 167.5t-149 241t-54.5 281.5q0 155 53 292t145.5 236t225.5 156.5
t287 57.5q201 0 363.5 -102t252.5 -274t90 -378q0 -181 -78 -342t-218.5 -267.5t-313.5 -127.5zM209 801q0 -146 47 -282.5t128.5 -241t201 -167.5t254.5 -63q115 0 217.5 51.5t173 135.5t111 194t40.5 225q0 155 -46.5 293.5t-127.5 240t-199 161t-253 59.5
q-158 0 -283.5 -80.5t-194.5 -218.5t-69 -307z" />
    <glyph glyph-name="uni01EB" unicode="&#x1eb;" horiz-adv-x="1142" 
d="M647 -14q-55 -55 -90 -116t-35 -114q0 -47 24.5 -74.5t63.5 -27.5q30 0 62 14q17 7 26.5 -5.5t6 -29.5t-16.5 -22q-41 -23 -92 -23q-70 0 -120 42t-50 110q0 60 41 125t106 117q-143 4 -257.5 77.5t-177 192.5t-62.5 258q0 210 139 350.5t350 140.5q214 0 357 -149.5
t143 -370.5q0 -199 -115.5 -337t-302.5 -158zM197 545q0 -135 51 -251t147 -187.5t215 -71.5q142 0 238 115.5t96 291.5q0 143 -50.5 258.5t-141.5 181.5t-205 66q-151 0 -250.5 -113.5t-99.5 -289.5z" />
    <glyph glyph-name="AEacute" unicode="&#x1fc;" horiz-adv-x="1878" 
d="M969 1610q-31 -8 -39 16q-6 23 18 35l410 168q40 19 53 -23l12 -45q5 -15 -3.5 -27.5t-26.5 -15.5zM1817 258q24 0 16 -31l-49 -188q-10 -39 -47 -39h-832q-39 0 -39 20v3q0 13 11.5 22.5t25.5 15.5t25.5 21t11.5 37v282h-559l-172 -286q-14 -20 -7 -34.5t20.5 -21
t27.5 -15.5t14 -19v-2q0 -23 -41 -23h-194q-39 0 -39 23v2q0 10 10 17.5t24 13.5t33 22t33 39l729 1196q18 26 13.5 46t-16.5 30t-25 21t-13 20v4q0 20 35 20h862q38 0 47 -39l47 -182q9 -35 -16 -35h-10q-16 0 -35.5 30t-36.5 66.5t-46.5 66.5t-61.5 30h-461q-47 0 -47 -64
v-545h463q29 0 46.5 26t27.5 52.5t22 26.5h6q25 0 25 -41v-195q0 -16 -7 -27.5t-18 -11.5h-6q-12 0 -22 26t-27.5 51.5t-46.5 25.5h-463v-586q0 -30 16 -48t43 -18h512q34 0 63.5 30.5t46.5 67t36.5 67t35.5 30.5h9zM420 467h520v866z" />
    <glyph glyph-name="aeacute" unicode="&#x1fd;" horiz-adv-x="1667" 
d="M725 1149q-29 -14 -43 8q-10 21 10 37l365 252q38 30 57 -10l23 -41q7 -14 0.5 -27.5t-23.5 -21.5zM1548 307q11 22 35.5 16t18.5 -32q-28 -131 -136 -220t-274 -89q-131 0 -234.5 69t-162.5 185q-20 -108 -109 -182t-223 -74q-170 0 -275.5 84t-105.5 223
q0 138 102 220.5t275 82.5t270 -94l-6 67q-18 192 -87 289.5t-202 97.5q-55 0 -96.5 -16.5t-62.5 -41.5t-38 -53.5t-27 -53.5t-26 -41.5t-37 -16.5q-29 0 -44 16.5t-15 44.5q0 78 105 147t241 69q129 0 221 -62.5t140 -177.5q58 113 164 178.5t241 65.5q161 0 271 -100.5
t110 -219.5q0 -74 -78 -96l-641 -191q35 -148 133 -237.5t238 -89.5q108 0 192.5 62.5t122.5 170.5zM1174 952q-95 0 -171 -56.5t-116.5 -149.5t-40.5 -203q0 -45 6 -88l565 176q47 14 47 65q0 37 -22 81t-59.5 83t-93 65.5t-115.5 26.5zM483 35q114 0 188 79t77 177l-7 76
q-18 71 -88.5 118t-173.5 47q-123 0 -198.5 -60t-75.5 -157q0 -124 76.5 -202t201.5 -78z" />
    <glyph glyph-name="Oslashacute" unicode="&#x1fe;" horiz-adv-x="1624" 
d="M637 1610q-31 -7 -39 16q-6 22 16 35l410 168q43 19 55 -23l13 -45q5 -15 -4.5 -27.5t-28.5 -15.5zM1362 1208q162 -211 162 -487q0 -194 -89 -364t-249 -273.5t-352 -103.5q-155 0 -290 61.5t-235 169.5l-164 -156q-15 -12 -28 -2l-23 23q-14 11 8 30l164 156
q-160 213 -160 471q0 155 53 292t145.5 236t225.5 156.5t287 57.5q149 0 277.5 -57t224.5 -161l127 121q21 24 37 8l18 -18q16 -13 -6 -35zM227 801q0 -250 127 -455l881 832q-85 108 -203 168.5t-256 60.5q-158 0 -284 -80.5t-195.5 -218.5t-69.5 -307zM858 47
q116 0 219 51.5t173.5 135.5t111.5 194t41 225q0 266 -129 469l-881 -831q88 -114 207.5 -179t257.5 -65z" />
    <glyph glyph-name="oslashacute" unicode="&#x1ff;" horiz-adv-x="1165" 
d="M426 1149q-28 -12 -41 8q-11 20 10 37l365 254q36 25 57 -12l23 -41q7 -14 0.5 -27.5t-23.5 -21.5zM1085 956q14 -14 -6 -34l-112 -109q108 -139 108 -332q0 -216 -133 -357.5t-342 -141.5q-207 0 -352 139l-129 -123q-15 -12 -29 0l-18 20q-16 12 6 31l125 121
q-117 145 -117 340q0 210 139 350.5t350 140.5q208 0 347 -139l110 107q8 9 19 10t20 -6zM209 545q0 -164 76 -297l565 547q-112 153 -293 153q-150 0 -249 -113.5t-99 -289.5zM954 442q0 167 -67 295l-565 -544q56 -74 132.5 -116t166.5 -42q142 0 237.5 115.5t95.5 291.5z
" />
    <glyph glyph-name="uni0218" unicode="&#x218;" horiz-adv-x="1226" 
d="M637 -20q-114 0 -212 27t-161 68t-108 90.5t-64.5 93.5t-19.5 77q0 27 14 43t41 16q21 0 39 -20t34.5 -51t36.5 -68.5t52.5 -75t76.5 -68t115 -50t160 -19.5q167 0 271 83.5t104 215.5q0 88 -31 150t-83 95.5t-119 54.5t-142 33.5t-149.5 26t-141.5 38t-119 63.5
t-83 109.5t-31 168.5q0 174 132 283t359 109q100 0 186.5 -21.5t144.5 -56t100 -78t61.5 -86t19.5 -80.5q0 -59 -57 -59q-26 0 -46 23.5t-33.5 59t-40.5 77t-63.5 77t-108 59t-167.5 23.5q-169 0 -265.5 -86t-96.5 -223q0 -81 31 -138.5t83 -88.5t119 -50.5t142 -33
t149.5 -28t141.5 -42t119 -69t83 -115.5t31 -175q0 -170 -144 -276t-360 -106zM575 -584q-15 -12 -30 3t2 30q52 48 74 87t36 93q6 25 -14 25q-37 0 -61.5 27t-24.5 69q0 45 27 74t69 29q43 0 71 -31.5t28 -85.5q0 -90 -46 -174t-131 -146z" />
    <glyph glyph-name="uni0219" unicode="&#x219;" horiz-adv-x="944" 
d="M473 -20q-99 0 -180 24.5t-127.5 61.5t-71 75.5t-24.5 71.5q0 55 57 55q23 0 39.5 -17.5t26 -43.5t29 -56.5t46 -56.5t79.5 -43.5t126 -17.5q121 0 200 53.5t79 146.5q0 52 -22.5 89.5t-60.5 59t-87 37t-103.5 26.5t-109 23t-103.5 32t-87 48t-60.5 75t-22.5 110
q0 114 103.5 192.5t263.5 78.5q173 0 280 -77.5t107 -162.5q0 -25 -14 -39t-37 -14q-24 0 -40.5 24.5t-33 59.5t-42 70.5t-81 60t-135.5 24.5q-103 0 -176.5 -56.5t-73.5 -141.5q0 -63 36 -104t94 -61t127.5 -33.5t139.5 -31.5t128 -46t94 -84.5t36 -139.5
q0 -115 -110 -193.5t-289 -78.5zM410 -584q-11 -8 -23.5 -3t-14.5 15t9 21q52 49 74.5 88.5t36.5 91.5q6 25 -17 25q-36 0 -60 27t-24 69q0 45 26 74t68 29q43 0 71 -31.5t28 -85.5q0 -90 -45 -174t-129 -146z" />
    <glyph glyph-name="uni021A" unicode="&#x21a;" horiz-adv-x="1222" 
d="M506 0q-37 0 -37 20v3q0 11 11.5 19.5t24.5 15t24.5 21.5t11.5 36v1271h-338q-31 0 -55 -33t-36 -72t-27 -72t-30 -33h-14q-23 0 -18 34l32 205q6 39 45 39h1006q38 0 47 -39l47 -207q8 -32 -18 -32h-15q-14 0 -31.5 33t-33 72t-42.5 72t-59 33h-337v-1271
q0 -21 11.5 -36t25 -21.5t25 -15t11.5 -19.5v-3q0 -20 -39 -20h-192zM545 -584q-11 -8 -23.5 -3t-14.5 15t9 21q52 49 74.5 88.5t36.5 91.5q6 25 -17 25q-36 0 -60 27t-24 69q0 45 26.5 74t68.5 29q43 0 70.5 -31.5t27.5 -85.5q0 -90 -45 -174t-129 -146z" />
    <glyph glyph-name="uni021B" unicode="&#x21b;" horiz-adv-x="698" 
d="M432 -18q-111 0 -174 71t-63 213v654h-158q-11 0 -18 7t-7 17v14q0 25 25 25h86q64 0 92 49.5t33 141.5q3 38 28 38h13q14 0 19 -9t5 -29l4 -191h306q10 0 17 -7t7 -18v-14q0 -10 -6.5 -17t-17.5 -7h-306v-654q0 -94 37.5 -143t102.5 -49q69 0 110.5 37t44.5 98
q4 15 18 20.5t27 -1t13 -23.5q0 -91 -66 -157t-172 -66zM350 -567q-10 -8 -21.5 -3.5t-13.5 14.5t9 21q51 49 73.5 89t34.5 92q6 24 -14 24q-37 0 -60.5 27t-23.5 70q0 45 26 73.5t68 28.5q43 0 70.5 -31.5t27.5 -85.5q0 -90 -45.5 -173.5t-130.5 -145.5z" />
    <glyph glyph-name="uni0237" unicode="&#x237;" horiz-adv-x="454" 
d="M102 -367q-85 0 -138.5 42t-53.5 104q0 27 15 43t42 16q24 0 38 -15t21 -37t15 -43.5t27.5 -36.5t50.5 -15q44 0 72 33t28 86q0 42 -16.5 114.5t-16.5 110.5v770q0 26 -11 44.5t-23.5 26.5t-23.5 17.5t-11 19.5v5q0 13 24 24l115 55q26 11 39.5 4t13.5 -28v-959
q0 -126 -18 -219q-14 -74 -63 -118t-126 -44z" />
    <glyph glyph-name="circumflex" unicode="&#x2c6;" 
d="M696 1192q25 -22 10 -42.5t-47 -2.5l-260 170l-249 -170q-24 -14 -42.5 4t5.5 41l225 197q25 22 51 22h27q23 0 51 -22z" />
    <glyph glyph-name="caron" unicode="&#x2c7;" 
d="M668 1423q15 12 30.5 7t19 -18t-6.5 -26l-242 -221q-27 -24 -51 -24h-29q-24 0 -51 24l-238 221q-13 13 -7.5 26t20.5 16t30 -5l263 -196z" />
    <glyph glyph-name="breve" unicode="&#x2d8;" 
d="M467 1174q-118 0 -202 68.5t-99 166.5q-4 19 8.5 30t27.5 8.5t19 -15.5q22 -77 89.5 -123.5t156.5 -46.5q88 0 156.5 47t91.5 123q5 13 19.5 15.5t26.5 -8.5t9 -30q-14 -98 -98.5 -166.5t-204.5 -68.5z" />
    <glyph glyph-name="dotaccent" unicode="&#x2d9;" 
d="M301 1202q-49 0 -77.5 27.5t-28.5 73.5q0 48 28.5 76t77.5 28q45 0 72.5 -28.5t27.5 -75.5q0 -45 -27.5 -73t-72.5 -28z" />
    <glyph glyph-name="ring" unicode="&#x2da;" 
d="M434 1120q-93 0 -155 58t-62 139q0 85 62 143t157 58t157 -58t62 -139q0 -86 -62 -143.5t-159 -57.5zM436 1176q59 0 96 40.5t37 102.5q0 60 -37 101.5t-96 41.5t-96 -40.5t-37 -102.5q0 -60 37 -101.5t96 -41.5z" />
    <glyph glyph-name="ogonek" unicode="&#x2db;" 
d="M653 -424q-69 0 -118.5 41t-49.5 109q0 73 55 148t136 128h61q-66 -57 -110.5 -127t-44.5 -131q0 -49 23.5 -76.5t62.5 -27.5q23 0 63 14q16 7 25 -5t6.5 -29t-14.5 -23q-37 -21 -95 -21z" />
    <glyph glyph-name="tilde" unicode="&#x2dc;" 
d="M352 1432q42 0 88.5 -19t80.5 -42.5t72 -42.5t66 -19q77 0 115 84q8 24 29 24h10q25 0 16 -31q-41 -167 -182 -167q-41 0 -85.5 19.5t-77 42.5t-72.5 42.5t-72 19.5q-38 0 -68 -24t-45 -64q-6 -17 -11.5 -22.5t-14.5 -5.5h-15q-9 0 -15 8t-3 22q16 76 63 125.5t121 49.5z
" />
    <glyph glyph-name="hungarumlaut" unicode="&#x2dd;" 
d="M102 1139q-16 11 4 41l238 313q25 37 49 10l31 -26q14 -12 13.5 -28t-15.5 -26l-277 -276q-24 -24 -43 -8zM453 1137q-18 12 4 41l237 315q24 35 49 10l31 -28q14 -12 13 -27.5t-15 -26.5l-276 -274q-21 -24 -43 -10z" />
    <glyph glyph-name="gravecomb" unicode="&#x300;" horiz-adv-x="0" 
d="M-557 1143l-389 198q-17 7 -24 22t1 28l23 41q19 39 57 12l365 -254q20 -16 10 -37q-13 -21 -43 -10z" />
    <glyph glyph-name="acutecomb" unicode="&#x301;" horiz-adv-x="0" 
d="M-627 1145q-28 -11 -41 10q-5 10 -2 20t11 17l364 252q38 27 59 -10l21 -41q8 -13 1.5 -28.5t-24.5 -21.5z" />
    <glyph glyph-name="uni0302" unicode="&#x302;" horiz-adv-x="0" 
d="M-117 1192q25 -22 10 -42.5t-47 -2.5l-260 170l-250 -170q-24 -14 -42 4t6 41l225 197q25 22 51 22h27q23 0 51 -22z" />
    <glyph glyph-name="tildecomb" unicode="&#x303;" horiz-adv-x="0" 
d="M-877 1432q53 0 112.5 -31t110.5 -61.5t85 -30.5q76 0 114 84q8 24 29 24h10q11 0 16 -8.5t1 -22.5q-19 -79 -65.5 -123t-117.5 -44q-41 0 -85.5 19.5t-77 42.5t-72.5 42.5t-72 19.5q-38 0 -67.5 -24t-44.5 -64q-6 -17 -12 -22.5t-15 -5.5h-14q-9 0 -15.5 8t-3.5 22
q16 76 63 125.5t121 49.5z" />
    <glyph glyph-name="uni0304" unicode="&#x304;" horiz-adv-x="0" 
d="M-879 1253q-13 0 -21.5 7.5t-8.5 19.5v35q0 11 8.5 17.5t21.5 6.5h527q13 0 21.5 -6.5t8.5 -17.5v-35q0 -12 -8.5 -19.5t-21.5 -7.5h-527z" />
    <glyph glyph-name="uni0306" unicode="&#x306;" horiz-adv-x="0" 
d="M-690 1174q-118 0 -202 68.5t-99 166.5q-4 19 8.5 30t27.5 8.5t19 -15.5q22 -77 89.5 -123.5t156.5 -46.5q88 0 156.5 47t91.5 123q5 13 19.5 15.5t26.5 -8.5t9 -30q-14 -98 -98.5 -166.5t-204.5 -68.5z" />
    <glyph glyph-name="uni0307" unicode="&#x307;" horiz-adv-x="0" 
d="M-297 1202q-49 0 -77.5 27.5t-28.5 73.5q0 48 28.5 76t77.5 28q45 0 72.5 -28.5t27.5 -75.5q0 -45 -27.5 -73t-72.5 -28z" />
    <glyph glyph-name="uni0308" unicode="&#x308;" horiz-adv-x="0" 
d="M-838 1206q-45 0 -72.5 26t-27.5 68q0 44 28 71.5t72 27.5q43 0 69 -27.5t26 -71.5q0 -43 -26 -68.5t-69 -25.5zM-489 1206q-43 0 -70 26t-27 68q0 44 27 71.5t70 27.5q42 0 69 -27.5t27 -71.5q0 -42 -27 -68t-69 -26z" />
    <glyph glyph-name="uni030A" unicode="&#x30a;" horiz-adv-x="0" 
d="M-510 1120q-93 0 -155 58t-62 139q0 85 62 143t157 58t157 -58t62 -139q0 -86 -62 -143.5t-159 -57.5zM-508 1176q59 0 96 40.5t37 102.5q0 60 -37 101.5t-96 41.5t-96 -40.5t-37 -102.5q0 -60 37 -101.5t96 -41.5z" />
    <glyph glyph-name="uni030B" unicode="&#x30b;" horiz-adv-x="0" 
d="M-766 1139q-16 11 4 41l238 313q25 37 49 10l31 -26q14 -12 13.5 -28t-15.5 -26l-277 -276q-24 -24 -43 -8zM-416 1137q-18 12 4 41l238 315q24 35 49 10l31 -28q14 -12 13 -27.5t-15 -26.5l-277 -274q-21 -24 -43 -10z" />
    <glyph glyph-name="uni030C" unicode="&#x30c;" horiz-adv-x="0" 
d="M-145 1423q15 12 30.5 7t19 -18t-6.5 -26l-242 -221q-27 -24 -51 -24h-29q-24 0 -51 24l-238 221q-13 13 -7.5 26t20.5 16t30 -5l262 -196z" />
    <glyph glyph-name="uni0312" unicode="&#x312;" horiz-adv-x="0" 
d="M-348 1022q-11 -7 -23.5 -1.5t-14.5 15.5t9 21q53 48 75 88t36 94q7 25 -15 25q-37 0 -61.5 27t-24.5 69q0 46 27 74t70 28t70.5 -31t27.5 -85q0 -90 -45.5 -175t-130.5 -149z" />
    <glyph glyph-name="uni0326" unicode="&#x326;" horiz-adv-x="0" 
d="M-463 -584q-10 -8 -21.5 -3t-13.5 15t9 21q51 48 72.5 87t35.5 93q6 25 -14 25q-37 0 -60.5 26.5t-23.5 69.5q0 45 26 74t68 29q43 0 70.5 -31.5t27.5 -85.5q0 -90 -45.5 -174t-130.5 -146z" />
    <glyph glyph-name="uni0327" unicode="&#x327;" horiz-adv-x="0" 
d="M-561 -119q88 0 145.5 -38t57.5 -101q0 -64 -59.5 -104.5t-149.5 -40.5q-96 0 -164 45q-22 13 -15 39q6 23 23 20q5 -1 10 -4q22 -14 59.5 -26.5t69.5 -12.5q52 0 90 23t37 63q-1 25 -14.5 42t-36.5 25.5t-44 11.5t-44 3q-25 0 -36.5 16.5t-6.5 44.5l25 113h59z" />
    <glyph glyph-name="uni0328" unicode="&#x328;" horiz-adv-x="0" 
d="M-575 -424q-69 0 -118.5 41t-49.5 109q0 73 55 148t135 128h61q-66 -57 -110.5 -127t-44.5 -131q0 -49 23.5 -76.5t62.5 -27.5q23 0 63 14q16 7 25 -5t6.5 -29t-14.5 -23q-37 -21 -94 -21z" />
    <glyph glyph-name="uni0335" unicode="&#x335;" horiz-adv-x="0" 
d="M-864 563q-29 0 -29 23v22q0 19 29 19h555q28 0 28 -21v-18q0 -25 -28 -25h-555z" />
    <glyph glyph-name="uni0336" unicode="&#x336;" horiz-adv-x="0" 
d="M-1399 541q-11 0 -18.5 5.5t-7.5 14.5v21q0 20 26 20h1368q29 0 29 -20v-21q0 -9 -9 -14.5t-20 -5.5h-1368z" />
    <glyph glyph-name="uni0337" unicode="&#x337;" horiz-adv-x="0" 
d="M-840 385q-15 -10 -30 2l-13 21q-16 16 6 30l420 285q27 17 41 -2l13 -21q10 -17 -11 -32z" />
    <glyph glyph-name="uni0338" unicode="&#x338;" horiz-adv-x="0" 
d="M-1130 59l-21 19q-13 14 6 33l955 919q22 22 38 2l17 -14q14 -18 -6 -35l-961 -924q-14 -14 -28 0z" />
    <glyph glyph-name="Wgrave" unicode="&#x1e80;" horiz-adv-x="1980" 
d="M778 1739q-39 9 -30 45l14 45q12 39 55 20l404 -182q10 -5 15 -15t1 -20q-7 -20 -39 -16zM1927 1454q35 0 35 -18v-4q0 -11 -11 -19t-25.5 -14t-30 -22t-23.5 -40l-412 -1300q-12 -37 -59 -37q-35 0 -49 37l-322 924l-342 -924q-13 -37 -57 -37q-34 0 -49 37l-490 1298
q-10 27 -27.5 44t-32 22t-25.5 13t-11 20v4q0 16 33 16h217q35 0 35 -20v-2q0 -12 -13.5 -21t-27.5 -14.5t-22 -21t3 -40.5l434 -1173l338 907l-94 268q-8 26 -24.5 43t-31 23t-25.5 13.5t-11 17.5v4q0 16 31 16h225q31 0 31 -16v-4q0 -10 -14.5 -18t-30 -13.5t-25 -22.5
t-0.5 -43l401 -1177l365 1177q7 22 -2 37t-24 21t-28.5 14t-13.5 18v5q0 22 37 22h168z" />
    <glyph glyph-name="wgrave" unicode="&#x1e81;" horiz-adv-x="1523" 
d="M571 1339q-39 16 -22 50l22 41q9 19 25 21.5t33 -11.5l364 -252q8 -6 11.5 -17t-0.5 -20q-14 -21 -43 -10zM1491 983q25 0 25 -20v-5q0 -11 -9 -18.5t-21.5 -12.5t-27.5 -21t-24 -42l-297 -827q-8 -21 -17 -29t-28 -8h-25q-40 0 -49 37l-252 784l-254 -784
q-12 -37 -45 -37h-16q-37 0 -52 37l-321 827q-9 24 -22.5 40.5t-24 22t-18 13.5t-7.5 18v5q0 20 27 20h198q25 0 25 -20v-5q0 -10 -12.5 -17.5t-25.5 -13.5t-20.5 -21.5t3.5 -41.5l270 -749l270 837q9 29 29 29h41q9 0 14 -4t7 -8.5t6 -16.5l264 -843l264 749
q10 27 0.5 43.5t-24.5 23t-29.5 15t-14.5 18.5v5q0 20 25 20h168z" />
    <glyph glyph-name="Wacute" unicode="&#x1e82;" horiz-adv-x="1980" 
d="M858 1610q-31 -8 -39 16q-6 21 17 35l411 168q40 19 53 -23l13 -45q5 -15 -4.5 -27.5t-28.5 -15.5zM1927 1454q35 0 35 -18v-4q0 -11 -11 -19t-25.5 -14t-30 -22t-23.5 -40l-412 -1300q-12 -37 -59 -37q-35 0 -49 37l-322 924l-342 -924q-13 -37 -57 -37q-34 0 -49 37
l-490 1298q-10 27 -27.5 44t-32 22t-25.5 13t-11 20v4q0 16 33 16h217q35 0 35 -20v-2q0 -12 -13.5 -21t-27.5 -14.5t-22 -21t3 -40.5l434 -1173l338 907l-94 268q-8 26 -24.5 43t-31 23t-25.5 13.5t-11 17.5v4q0 16 31 16h225q31 0 31 -16v-4q0 -10 -14.5 -18t-30 -13.5
t-25 -22.5t-0.5 -43l401 -1177l365 1177q7 22 -2 37t-24 21t-28.5 14t-13.5 18v5q0 22 37 22h168z" />
    <glyph glyph-name="wacute" unicode="&#x1e83;" horiz-adv-x="1523" 
d="M612 1147q-27 -15 -41 8q-11 19 11 37l364 254q37 26 58 -12l20 -41q9 -14 3 -28t-23 -22zM1491 983q25 0 25 -20v-5q0 -11 -9 -18.5t-21.5 -12.5t-27.5 -21t-24 -42l-297 -827q-8 -21 -17 -29t-28 -8h-25q-40 0 -49 37l-252 784l-254 -784q-12 -37 -45 -37h-16
q-37 0 -52 37l-321 827q-9 24 -22.5 40.5t-24 22t-18 13.5t-7.5 18v5q0 20 27 20h198q25 0 25 -20v-5q0 -10 -12.5 -17.5t-25.5 -13.5t-20.5 -21.5t3.5 -41.5l270 -749l270 837q9 29 29 29h41q9 0 14 -4t7 -8.5t6 -16.5l264 -843l264 749q10 27 0.5 43.5t-24.5 23t-29.5 15
t-14.5 18.5v5q0 20 25 20h168z" />
    <glyph glyph-name="Wdieresis" unicode="&#x1e84;" horiz-adv-x="1980" 
d="M874 1636q-43 0 -70.5 27t-27.5 70q0 44 27.5 71t70.5 27t69 -27t26 -71q0 -43 -26 -70t-69 -27zM1225 1636q-44 0 -71.5 27t-27.5 70q0 44 27.5 71t71.5 27q42 0 69 -27t27 -71q0 -43 -27.5 -70t-68.5 -27zM1927 1454q35 0 35 -18v-4q0 -11 -11 -19t-25.5 -14t-30 -22
t-23.5 -40l-412 -1300q-12 -37 -59 -37q-35 0 -49 37l-322 924l-342 -924q-13 -37 -57 -37q-34 0 -49 37l-490 1298q-10 27 -27.5 44t-32 22t-25.5 13t-11 20v4q0 16 33 16h217q35 0 35 -20v-2q0 -12 -13.5 -21t-27.5 -14.5t-22 -21t3 -40.5l434 -1173l338 907l-94 268
q-8 26 -24.5 43t-31 23t-25.5 13.5t-11 17.5v4q0 16 31 16h225q31 0 31 -16v-4q0 -10 -14.5 -18t-30 -13.5t-25 -22.5t-0.5 -43l401 -1177l365 1177q7 22 -2 37t-24 21t-28.5 14t-13.5 18v5q0 22 37 22h168z" />
    <glyph glyph-name="wdieresis" unicode="&#x1e85;" horiz-adv-x="1523" 
d="M610 1202q-44 0 -71 26.5t-27 69.5q0 44 27 71.5t71 27.5q43 0 69 -27.5t26 -71.5q0 -43 -26 -69.5t-69 -26.5zM961 1202q-44 0 -71.5 26.5t-27.5 69.5q0 44 27.5 71.5t71.5 27.5q42 0 69 -27.5t27 -71.5q0 -42 -27 -69t-69 -27zM1491 983q25 0 25 -20v-5q0 -11 -9 -18.5
t-21.5 -12.5t-27.5 -21t-24 -42l-297 -827q-8 -21 -17 -29t-28 -8h-25q-40 0 -49 37l-252 784l-254 -784q-12 -37 -45 -37h-16q-37 0 -52 37l-321 827q-9 24 -22.5 40.5t-24 22t-18 13.5t-7.5 18v5q0 20 27 20h198q25 0 25 -20v-5q0 -10 -12.5 -17.5t-25.5 -13.5
t-20.5 -21.5t3.5 -41.5l270 -749l270 837q9 29 29 29h41q9 0 14 -4t7 -8.5t6 -16.5l264 -843l264 749q10 27 0.5 43.5t-24.5 23t-29.5 15t-14.5 18.5v5q0 20 25 20h168z" />
    <glyph glyph-name="uni1E9E" unicode="&#x1e9e;" horiz-adv-x="1320" 
d="M846 848q173 -16 287 -132.5t114 -303.5q0 -129 -66 -224t-174.5 -141.5t-244.5 -46.5q-19 0 -27.5 17t-1.5 34t25 17q72 0 135.5 19t115 57.5t81.5 104.5t30 152q0 105 -37.5 194t-116 146.5t-182.5 57.5q-29 0 -33 28.5t15 36.5l283 254q0 123 -102.5 206.5
t-282.5 84.5q-172 1 -277.5 -115t-105.5 -307v-862q0 -25 13 -42t29 -23.5t29 -16t13 -20.5v-7q0 -16 -25 -16h-236q-26 0 -26 16v7q0 11 12 20t27 15.5t27 24t12 42.5v860q0 220 142 355t372 135q217 0 352.5 -97.5t144.5 -236.5q3 -35 -22 -54z" />
    <glyph glyph-name="uni1EA0" unicode="&#x1ea0;" horiz-adv-x="1343" 
d="M608 -436q-43 0 -70.5 26t-27.5 68q0 43 27.5 69.5t70.5 26.5q41 0 67.5 -26.5t26.5 -69.5q0 -42 -26 -68t-68 -26zM1249 115q10 -22 26.5 -37.5t30.5 -21t24.5 -14t10.5 -19.5v-3q0 -20 -38 -20h-209q-39 0 -39 20v3q0 11 13.5 19.5t28 15t23 21t-1.5 36.5l-117 282
h-704l-109 -282q-9 -22 -0.5 -36.5t23 -21t28 -15t13.5 -19.5v-3q0 -20 -39 -20h-160q-37 0 -37 20v3q0 11 10.5 19.5t24.5 14t30 21t25 37.5l478 1218q10 24 -5.5 42t-36 32t-20.5 25v4q0 18 25 18h78q30 0 48 -13t32 -44zM322 465h651l-338 817z" />
    <glyph glyph-name="uni1EA1" unicode="&#x1ea1;" horiz-adv-x="1005" 
d="M465 -436q-43 0 -70.5 26t-27.5 68q0 43 27.5 69.5t70.5 26.5q41 0 67.5 -26.5t26.5 -69.5q0 -42 -26 -68t-68 -26zM881 145q3 -41 22.5 -63t41 -26t39 -11t17.5 -22q0 -35 -100 -35q-66 0 -97 30t-34 121q-36 -74 -115 -116.5t-192 -42.5q-172 0 -275.5 83t-103.5 224
q-1 143 103.5 223t273.5 80q175 0 268 -96l-6 69q-18 192 -86 289.5t-201 97.5q-66 0 -113 -23t-70.5 -55t-39.5 -64.5t-31.5 -55.5t-36.5 -23q-57 0 -57 55q0 35 23 72.5t64.5 71t110 55t150.5 21.5q180 0 284.5 -115t123.5 -324zM485 35q119 0 193 67.5t72 169.5l-7 62
q-2 83 -75 142t-189 59q-123 0 -198.5 -63t-75.5 -165q0 -120 77 -196t203 -76z" />
    <glyph glyph-name="uni1EA2" unicode="&#x1ea2;" horiz-adv-x="1343" 
d="M602 1632q-4 34 13.5 60t54.5 57q37 27 56 50.5t19 55.5q0 38 -24 62.5t-78 24.5q-27 0 -46 -7t-29.5 -20t-15.5 -23t-9 -24q-10 -43 -45 -43q-20 0 -32.5 10.5t-12.5 30.5q0 41 52.5 81t137.5 40q84 0 137.5 -35t53.5 -103q0 -11 -2 -22t-5 -20t-9 -18.5t-10 -15.5
t-13 -14.5t-13.5 -12.5t-15 -12t-14 -10t-15 -9.5t-12.5 -8.5q-3 -2 -11.5 -7t-10.5 -7t-9 -6.5t-9 -6.5t-7 -6t-7 -7l-5 -7.5t-4 -8t-2 -8.5t-1 -10q0 -26 -24 -26q-27 0 -33 26zM1249 115q10 -22 26.5 -37.5t30.5 -21t24.5 -14t10.5 -19.5v-3q0 -20 -38 -20h-209
q-39 0 -39 20v3q0 11 13.5 19.5t28 15t23 21t-1.5 36.5l-117 282h-704l-109 -282q-9 -22 -0.5 -36.5t23 -21t28 -15t13.5 -19.5v-3q0 -20 -39 -20h-160q-37 0 -37 20v3q0 11 10.5 19.5t24.5 14t30 21t25 37.5l478 1218q10 24 -5.5 42t-36 32t-20.5 25v4q0 18 25 18h78
q30 0 48 -13t32 -44zM322 465h651l-338 817z" />
    <glyph glyph-name="uni1EA3" unicode="&#x1ea3;" horiz-adv-x="1005" 
d="M412 1171q-4 35 13.5 60.5t53.5 56.5q37 27 56.5 51t19.5 56q0 86 -102 86q-81 0 -101 -74q-10 -43 -45 -43q-20 0 -32.5 10.5t-12.5 30.5q0 41 53 81t138 40q84 0 137 -34.5t53 -102.5q0 -21 -8 -41t-14.5 -31t-26.5 -28.5t-24 -20t-28 -18.5q-5 -3 -7 -5
q-3 -2 -11.5 -7t-10.5 -7t-9 -6.5t-9 -6.5t-7 -6t-7 -7l-5 -7.5t-4 -8t-2 -8.5t-1 -10q0 -26 -25 -26q-26 0 -32 26zM881 145q3 -41 22.5 -63t41 -26t39 -11t17.5 -22q0 -35 -100 -35q-66 0 -97 30t-34 121q-36 -74 -115 -116.5t-192 -42.5q-172 0 -275.5 83t-103.5 224
q-1 143 103.5 223t273.5 80q175 0 268 -96l-6 69q-18 192 -86 289.5t-201 97.5q-66 0 -113 -23t-70.5 -55t-39.5 -64.5t-31.5 -55.5t-36.5 -23q-57 0 -57 55q0 35 23 72.5t64.5 71t110 55t150.5 21.5q180 0 284.5 -115t123.5 -324zM485 35q119 0 193 67.5t72 169.5l-7 62
q-2 83 -75 142t-189 59q-123 0 -198.5 -63t-75.5 -165q0 -120 77 -196t203 -76z" />
    <glyph glyph-name="uni1EA4" unicode="&#x1ea4;" horiz-adv-x="1343" 
d="M940 1802q-28 -12 -41 6q-14 14 4 37l287 269q34 27 61 -7l25 -39q9 -10 5 -25t-19 -24zM412 1569q-24 -16 -42.5 3t5.5 42l225 194q25 25 51 25h25q23 0 51 -25l231 -194q24 -22 9 -42.5t-45 -2.5l-260 170zM1249 115q10 -22 26.5 -37.5t30.5 -21t24.5 -14t10.5 -19.5
v-3q0 -20 -38 -20h-209q-39 0 -39 20v3q0 11 13.5 19.5t28 15t23 21t-1.5 36.5l-117 282h-704l-109 -282q-9 -22 -0.5 -36.5t23 -21t28 -15t13.5 -19.5v-3q0 -20 -39 -20h-160q-37 0 -37 20v3q0 11 10.5 19.5t24.5 14t30 21t25 37.5l478 1218q10 24 -5.5 42t-36 32t-20.5 25
v4q0 18 25 18h78q30 0 48 -13t32 -44zM322 465h651l-338 817z" />
    <glyph glyph-name="uni1EA5" unicode="&#x1ea5;" horiz-adv-x="1005" 
d="M721 1384q-27 -12 -41 7q-14 14 4 36l287 269q35 27 61 -6l25 -39q9 -10 4.5 -25t-19.5 -24zM881 145q3 -41 22.5 -63t41 -26t39 -11t17.5 -22q0 -35 -100 -35q-66 0 -97 30t-34 121q-36 -74 -115 -116.5t-192 -42.5q-172 0 -275.5 83t-103.5 224q-1 143 103.5 223
t273.5 80q175 0 268 -96l-6 69q-18 192 -86 289.5t-201 97.5q-66 0 -113 -23t-70.5 -55t-39.5 -64.5t-31.5 -55.5t-36.5 -23q-57 0 -57 55q0 35 23 72.5t64.5 71t110 55t150.5 21.5q180 0 284.5 -115t123.5 -324zM485 35q119 0 193 67.5t72 169.5l-7 62q-2 83 -75 142
t-189 59q-123 0 -198.5 -63t-75.5 -165q0 -120 77 -196t203 -76zM195 1151q-24 -16 -42.5 3t5.5 42l225 195q24 24 51 24h25q24 0 51 -24l231 -195q24 -22 9 -42.5t-45 -2.5l-261 170z" />
    <glyph glyph-name="uni1EA6" unicode="&#x1ea6;" horiz-adv-x="1343" 
d="M1018 1802l-322 217q-15 9 -19 24t5 25l25 39q27 34 61 7l287 -269q18 -23 4 -37q-13 -18 -41 -6zM412 1569q-24 -16 -42.5 3t5.5 42l225 194q25 25 51 25h25q23 0 51 -25l231 -194q24 -22 9 -42.5t-45 -2.5l-260 170zM1249 115q10 -22 26.5 -37.5t30.5 -21t24.5 -14
t10.5 -19.5v-3q0 -20 -38 -20h-209q-39 0 -39 20v3q0 11 13.5 19.5t28 15t23 21t-1.5 36.5l-117 282h-704l-109 -282q-9 -22 -0.5 -36.5t23 -21t28 -15t13.5 -19.5v-3q0 -20 -39 -20h-160q-37 0 -37 20v3q0 11 10.5 19.5t24.5 14t30 21t25 37.5l478 1218q10 24 -5.5 42
t-36 32t-20.5 25v4q0 18 25 18h78q30 0 48 -13t32 -44zM322 465h651l-338 817z" />
    <glyph glyph-name="uni1EA7" unicode="&#x1ea7;" horiz-adv-x="1005" 
d="M801 1384l-322 218q-15 9 -19 24t5 25l24 39q26 34 62 6l287 -269q18 -22 4 -36q-14 -19 -41 -7zM881 145q3 -41 22.5 -63t41 -26t39 -11t17.5 -22q0 -35 -100 -35q-66 0 -97 30t-34 121q-36 -74 -115 -116.5t-192 -42.5q-172 0 -275.5 83t-103.5 224q-1 143 103.5 223
t273.5 80q175 0 268 -96l-6 69q-18 192 -86 289.5t-201 97.5q-66 0 -113 -23t-70.5 -55t-39.5 -64.5t-31.5 -55.5t-36.5 -23q-57 0 -57 55q0 35 23 72.5t64.5 71t110 55t150.5 21.5q180 0 284.5 -115t123.5 -324zM485 35q119 0 193 67.5t72 169.5l-7 62q-2 83 -75 142
t-189 59q-123 0 -198.5 -63t-75.5 -165q0 -120 77 -196t203 -76zM195 1151q-24 -16 -42.5 3t5.5 42l225 195q24 24 51 24h25q24 0 51 -24l231 -195q24 -22 9 -42.5t-45 -2.5l-261 170z" />
    <glyph glyph-name="uni1EA8" unicode="&#x1ea8;" horiz-adv-x="1343" 
d="M905 1823q-4 34 13.5 59.5t54.5 56.5q37 27 56.5 51t19.5 56q0 38 -24.5 62t-78.5 24q-27 0 -46 -7t-29.5 -20t-15.5 -23t-9 -24q-10 -43 -45 -43q-20 0 -32.5 10.5t-12.5 30.5q0 41 52.5 81t137.5 40q84 0 137.5 -34.5t53.5 -102.5q0 -34 -18.5 -63.5t-36.5 -43.5
t-46 -32q-5 -3 -8 -5t-11 -7t-11 -7l-9 -6t-8.5 -6.5t-7.5 -6.5t-6.5 -6.5t-4.5 -7t-4 -8t-2 -8.5t-1 -10q0 -27 -25 -27q-27 0 -33 27zM412 1569q-24 -16 -42.5 3t5.5 42l225 194q25 25 51 25h25q23 0 51 -25l231 -194q24 -22 9 -42.5t-45 -2.5l-260 170zM1249 115
q10 -22 26.5 -37.5t30.5 -21t24.5 -14t10.5 -19.5v-3q0 -20 -38 -20h-209q-39 0 -39 20v3q0 11 13.5 19.5t28 15t23 21t-1.5 36.5l-117 282h-704l-109 -282q-9 -22 -0.5 -36.5t23 -21t28 -15t13.5 -19.5v-3q0 -20 -39 -20h-160q-37 0 -37 20v3q0 11 10.5 19.5t24.5 14t30 21
t25 37.5l478 1218q10 24 -5.5 42t-36 32t-20.5 25v4q0 18 25 18h78q30 0 48 -13t32 -44zM322 465h651l-338 817z" />
    <glyph glyph-name="uni1EA9" unicode="&#x1ea9;" horiz-adv-x="1005" 
d="M688 1405q-4 34 13.5 60t54.5 57q37 27 56 50.5t19 55.5q0 86 -102 86q-27 0 -46 -7t-29.5 -20t-15.5 -23t-9 -24q-10 -43 -45 -43q-20 0 -32.5 10.5t-12.5 30.5q0 41 52.5 81t137.5 40q84 0 137.5 -34.5t53.5 -102.5q0 -11 -2 -22t-5 -20t-9 -18.5t-10 -15.5t-13 -14.5
t-13.5 -12.5t-15 -12t-14 -10t-15 -9.5t-12.5 -8.5q-3 -2 -11.5 -7t-10.5 -7t-9 -6.5t-9 -6.5t-7 -6t-7 -7l-5 -7.5t-4 -8t-2 -8.5t-1 -10q0 -27 -24 -27q-27 0 -33 27zM881 145q3 -41 22.5 -63t41 -26t39 -11t17.5 -22q0 -35 -100 -35q-66 0 -97 30t-34 121
q-36 -74 -115 -116.5t-192 -42.5q-172 0 -275.5 83t-103.5 224q-1 143 103.5 223t273.5 80q175 0 268 -96l-6 69q-18 192 -86 289.5t-201 97.5q-66 0 -113 -23t-70.5 -55t-39.5 -64.5t-31.5 -55.5t-36.5 -23q-57 0 -57 55q0 35 23 72.5t64.5 71t110 55t150.5 21.5
q180 0 284.5 -115t123.5 -324zM485 35q119 0 193 67.5t72 169.5l-7 62q-2 83 -75 142t-189 59q-123 0 -198.5 -63t-75.5 -165q0 -120 77 -196t203 -76zM195 1151q-24 -16 -42.5 3t5.5 42l225 195q24 24 51 24h25q24 0 51 -24l231 -195q24 -22 9 -42.5t-45 -2.5l-261 170z
" />
    <glyph glyph-name="uni1EAA" unicode="&#x1eaa;" horiz-adv-x="1343" 
d="M358 1911q-8 0 -14.5 9t-3.5 22q16 77 62.5 125.5t121.5 48.5q42 0 88.5 -19t80 -42.5t72 -42.5t66.5 -19q81 0 113 86q8 22 29 22h12q22 0 16 -28q-44 -168 -182 -168q-41 0 -85.5 19.5t-77 43t-72.5 43t-72 19.5q-77 0 -115 -91q-8 -28 -24 -28h-15zM412 1569
q-24 -16 -42.5 3t5.5 42l225 194q25 25 51 25h25q23 0 51 -25l231 -194q24 -22 9 -42.5t-45 -2.5l-260 170zM1249 115q10 -22 26.5 -37.5t30.5 -21t24.5 -14t10.5 -19.5v-3q0 -20 -38 -20h-209q-39 0 -39 20v3q0 11 13.5 19.5t28 15t23 21t-1.5 36.5l-117 282h-704
l-109 -282q-9 -22 -0.5 -36.5t23 -21t28 -15t13.5 -19.5v-3q0 -20 -39 -20h-160q-37 0 -37 20v3q0 11 10.5 19.5t24.5 14t30 21t25 37.5l478 1218q10 24 -5.5 42t-36 32t-20.5 25v4q0 18 25 18h78q30 0 48 -13t32 -44zM322 465h651l-338 817z" />
    <glyph glyph-name="uni1EAB" unicode="&#x1eab;" horiz-adv-x="1005" 
d="M141 1493q-8 0 -14.5 9t-3.5 22q16 77 62.5 125.5t121.5 48.5q42 0 88.5 -19t80 -42.5t72 -42.5t66.5 -19q81 0 113 86q8 22 29 22h12q22 0 16 -28q-44 -168 -182 -168q-41 0 -85.5 19.5t-77 43t-72.5 43t-72 19.5q-77 0 -115 -90q-9 -29 -24 -29h-15zM881 145
q3 -41 22.5 -63t41 -26t39 -11t17.5 -22q0 -35 -100 -35q-66 0 -97 30t-34 121q-36 -74 -115 -116.5t-192 -42.5q-172 0 -275.5 83t-103.5 224q-1 143 103.5 223t273.5 80q175 0 268 -96l-6 69q-18 192 -86 289.5t-201 97.5q-66 0 -113 -23t-70.5 -55t-39.5 -64.5
t-31.5 -55.5t-36.5 -23q-57 0 -57 55q0 35 23 72.5t64.5 71t110 55t150.5 21.5q180 0 284.5 -115t123.5 -324zM485 35q119 0 193 67.5t72 169.5l-7 62q-2 83 -75 142t-189 59q-123 0 -198.5 -63t-75.5 -165q0 -120 77 -196t203 -76zM195 1151q-24 -16 -42.5 3t5.5 42
l225 195q24 24 51 24h25q24 0 51 -24l231 -195q24 -22 9 -42.5t-45 -2.5l-261 170z" />
    <glyph glyph-name="uni1EAC" unicode="&#x1eac;" horiz-adv-x="1343" 
d="M608 -436q-43 0 -70.5 26t-27.5 68q0 43 27.5 69.5t70.5 26.5q41 0 67.5 -26.5t26.5 -69.5q0 -42 -26 -68t-68 -26zM412 1569q-24 -16 -42.5 3t5.5 42l225 194q25 25 51 25h25q23 0 51 -25l231 -194q24 -22 9 -42.5t-45 -2.5l-260 170zM1249 115q10 -22 26.5 -37.5
t30.5 -21t24.5 -14t10.5 -19.5v-3q0 -20 -38 -20h-209q-39 0 -39 20v3q0 11 13.5 19.5t28 15t23 21t-1.5 36.5l-117 282h-704l-109 -282q-9 -22 -0.5 -36.5t23 -21t28 -15t13.5 -19.5v-3q0 -20 -39 -20h-160q-37 0 -37 20v3q0 11 10.5 19.5t24.5 14t30 21t25 37.5l478 1218
q10 24 -5.5 42t-36 32t-20.5 25v4q0 18 25 18h78q30 0 48 -13t32 -44zM322 465h651l-338 817z" />
    <glyph glyph-name="uni1EAD" unicode="&#x1ead;" horiz-adv-x="1005" 
d="M465 -436q-43 0 -70.5 26t-27.5 68q0 43 27.5 69.5t70.5 26.5q41 0 67.5 -26.5t26.5 -69.5q0 -42 -26 -68t-68 -26zM881 145q3 -41 22.5 -63t41 -26t39 -11t17.5 -22q0 -35 -100 -35q-66 0 -97 30t-34 121q-36 -74 -115 -116.5t-192 -42.5q-172 0 -275.5 83t-103.5 224
q-1 143 103.5 223t273.5 80q175 0 268 -96l-6 69q-18 192 -86 289.5t-201 97.5q-66 0 -113 -23t-70.5 -55t-39.5 -64.5t-31.5 -55.5t-36.5 -23q-57 0 -57 55q0 35 23 72.5t64.5 71t110 55t150.5 21.5q180 0 284.5 -115t123.5 -324zM485 35q119 0 193 67.5t72 169.5l-7 62
q-2 83 -75 142t-189 59q-123 0 -198.5 -63t-75.5 -165q0 -120 77 -196t203 -76zM195 1151q-24 -16 -42.5 3t5.5 42l225 195q24 24 51 24h25q24 0 51 -24l231 -195q24 -22 9 -42.5t-45 -2.5l-261 170z" />
    <glyph glyph-name="uni1EAE" unicode="&#x1eae;" horiz-adv-x="1343" 
d="M635 1892q-28 -12 -41 6q-14 14 4 37l287 269q35 27 61 -6l25 -39q9 -10 4.5 -25.5t-19.5 -24.5zM666 1608q-117 0 -201.5 68.5t-99.5 166.5q-3 20 9.5 31t27 8.5t18.5 -14.5q22 -78 89.5 -125t156.5 -47t157 47t90 125q5 12 20 14.5t27 -8.5t9 -31q-14 -98 -98 -166.5
t-205 -68.5zM1249 115q10 -22 26.5 -37.5t30.5 -21t24.5 -14t10.5 -19.5v-3q0 -20 -38 -20h-209q-39 0 -39 20v3q0 11 13.5 19.5t28 15t23 21t-1.5 36.5l-117 282h-704l-109 -282q-9 -22 -0.5 -36.5t23 -21t28 -15t13.5 -19.5v-3q0 -20 -39 -20h-160q-37 0 -37 20v3
q0 11 10.5 19.5t24.5 14t30 21t25 37.5l478 1218q10 24 -5.5 42t-36 32t-20.5 25v4q0 18 25 18h78q30 0 48 -13t32 -44zM322 465h651l-338 817z" />
    <glyph glyph-name="uni1EAF" unicode="&#x1eaf;" horiz-adv-x="1005" 
d="M418 1460q-28 -12 -41 6q-14 14 4 37l287 269q34 27 61 -7l25 -39q9 -10 4.5 -25t-19.5 -24zM449 1178q-119 0 -203 67.5t-99 165.5q-4 20 8.5 31.5t28 9t19.5 -15.5q22 -78 89.5 -125t156.5 -47q88 0 156 47t91 125q5 12 20 14.5t27 -8.5t9 -31q-14 -98 -98.5 -165.5
t-204.5 -67.5zM881 145q3 -41 22.5 -63t41 -26t39 -11t17.5 -22q0 -35 -100 -35q-66 0 -97 30t-34 121q-36 -74 -115 -116.5t-192 -42.5q-172 0 -275.5 83t-103.5 224q-1 143 103.5 223t273.5 80q175 0 268 -96l-6 69q-18 192 -86 289.5t-201 97.5q-66 0 -113 -23t-70.5 -55
t-39.5 -64.5t-31.5 -55.5t-36.5 -23q-57 0 -57 55q0 35 23 72.5t64.5 71t110 55t150.5 21.5q180 0 284.5 -115t123.5 -324zM485 35q119 0 193 67.5t72 169.5l-7 62q-2 83 -75 142t-189 59q-123 0 -198.5 -63t-75.5 -165q0 -120 77 -196t203 -76z" />
    <glyph glyph-name="uni1EB0" unicode="&#x1eb0;" horiz-adv-x="1343" 
d="M711 1892l-322 217q-15 9 -19 24.5t5 25.5l24 39q26 34 62 6l287 -269q18 -23 4 -37q-13 -18 -41 -6zM666 1608q-117 0 -201.5 68.5t-99.5 166.5q-3 20 9.5 31t27 8.5t18.5 -14.5q22 -78 89.5 -125t156.5 -47t157 47t90 125q5 12 20 14.5t27 -8.5t9 -31
q-14 -98 -98 -166.5t-205 -68.5zM1249 115q10 -22 26.5 -37.5t30.5 -21t24.5 -14t10.5 -19.5v-3q0 -20 -38 -20h-209q-39 0 -39 20v3q0 11 13.5 19.5t28 15t23 21t-1.5 36.5l-117 282h-704l-109 -282q-9 -22 -0.5 -36.5t23 -21t28 -15t13.5 -19.5v-3q0 -20 -39 -20h-160
q-37 0 -37 20v3q0 11 10.5 19.5t24.5 14t30 21t25 37.5l478 1218q10 24 -5.5 42t-36 32t-20.5 25v4q0 18 25 18h78q30 0 48 -13t32 -44zM322 465h651l-338 817z" />
    <glyph glyph-name="uni1EB1" unicode="&#x1eb1;" horiz-adv-x="1005" 
d="M494 1462l-322 217q-15 9 -19 24.5t5 25.5l24 38q27 34 62 7l286 -269q19 -23 5 -37q-13 -18 -41 -6zM449 1178q-119 0 -203 67.5t-99 165.5q-4 20 8.5 31.5t28 9t19.5 -15.5q22 -78 89.5 -125t156.5 -47q88 0 156 47t91 125q5 12 20 14.5t27 -8.5t9 -31
q-14 -98 -98.5 -165.5t-204.5 -67.5zM881 145q3 -41 22.5 -63t41 -26t39 -11t17.5 -22q0 -35 -100 -35q-66 0 -97 30t-34 121q-36 -74 -115 -116.5t-192 -42.5q-172 0 -275.5 83t-103.5 224q-1 143 103.5 223t273.5 80q175 0 268 -96l-6 69q-18 192 -86 289.5t-201 97.5
q-66 0 -113 -23t-70.5 -55t-39.5 -64.5t-31.5 -55.5t-36.5 -23q-57 0 -57 55q0 35 23 72.5t64.5 71t110 55t150.5 21.5q180 0 284.5 -115t123.5 -324zM485 35q119 0 193 67.5t72 169.5l-7 62q-2 83 -75 142t-189 59q-123 0 -198.5 -63t-75.5 -165q0 -120 77 -196t203 -76z
" />
    <glyph glyph-name="uni1EB2" unicode="&#x1eb2;" horiz-adv-x="1343" 
d="M641 1913q-4 34 13.5 60t54.5 57q37 27 56 50.5t19 55.5q0 86 -102 86q-27 0 -46 -7t-29.5 -20t-15.5 -23t-9 -24q-10 -43 -45 -43q-20 0 -32.5 10.5t-12.5 30.5q0 41 52.5 81t137.5 40q84 0 137 -34.5t53 -102.5q0 -34 -18 -63t-35.5 -42.5t-46.5 -32.5q-5 -3 -8 -5
t-11.5 -7t-10.5 -7t-9 -6.5t-9 -6.5t-7 -6t-7 -7l-5 -7.5t-4 -8t-2 -8.5t-1 -10q0 -27 -24 -27q-27 0 -33 27zM666 1608q-117 0 -201.5 68.5t-99.5 166.5q-3 20 9.5 31t27 8.5t18.5 -14.5q22 -78 89.5 -125t156.5 -47t157 47t90 125q5 12 20 14.5t27 -8.5t9 -31
q-14 -98 -98 -166.5t-205 -68.5zM1249 115q10 -22 26.5 -37.5t30.5 -21t24.5 -14t10.5 -19.5v-3q0 -20 -38 -20h-209q-39 0 -39 20v3q0 11 13.5 19.5t28 15t23 21t-1.5 36.5l-117 282h-704l-109 -282q-9 -22 -0.5 -36.5t23 -21t28 -15t13.5 -19.5v-3q0 -20 -39 -20h-160
q-37 0 -37 20v3q0 11 10.5 19.5t24.5 14t30 21t25 37.5l478 1218q10 24 -5.5 42t-36 32t-20.5 25v4q0 18 25 18h78q30 0 48 -13t32 -44zM322 465h651l-338 817z" />
    <glyph glyph-name="uni1EB3" unicode="&#x1eb3;" horiz-adv-x="1005" 
d="M422 1483q-4 34 13.5 59.5t53.5 56.5q37 27 56.5 51t19.5 56q0 86 -102 86q-81 0 -101 -74q-10 -43 -45 -43q-20 0 -32.5 10.5t-12.5 30.5q0 41 53 81t138 40q84 0 137 -34.5t53 -102.5q0 -21 -8 -41t-14.5 -31t-26.5 -28.5t-24 -20t-28 -18.5q-5 -3 -7 -5
q-3 -2 -13.5 -8.5t-13.5 -8.5t-10.5 -7.5t-10 -8.5t-7.5 -8t-6.5 -9.5t-3 -10.5t-1.5 -12q0 -27 -24 -27q-27 0 -33 27zM449 1178q-119 0 -203 67.5t-99 165.5q-4 20 8.5 31.5t28 9t19.5 -15.5q22 -78 89.5 -125t156.5 -47q88 0 156 47t91 125q5 12 20 14.5t27 -8.5t9 -31
q-14 -98 -98.5 -165.5t-204.5 -67.5zM881 145q3 -41 22.5 -63t41 -26t39 -11t17.5 -22q0 -35 -100 -35q-66 0 -97 30t-34 121q-36 -74 -115 -116.5t-192 -42.5q-172 0 -275.5 83t-103.5 224q-1 143 103.5 223t273.5 80q175 0 268 -96l-6 69q-18 192 -86 289.5t-201 97.5
q-66 0 -113 -23t-70.5 -55t-39.5 -64.5t-31.5 -55.5t-36.5 -23q-57 0 -57 55q0 35 23 72.5t64.5 71t110 55t150.5 21.5q180 0 284.5 -115t123.5 -324zM485 35q119 0 193 67.5t72 169.5l-7 62q-2 83 -75 142t-189 59q-123 0 -198.5 -63t-75.5 -165q0 -120 77 -196t203 -76z
" />
    <glyph glyph-name="uni1EB4" unicode="&#x1eb4;" horiz-adv-x="1343" 
d="M530 2163q42 0 89 -19t80.5 -42.5t72 -42.5t66.5 -19q77 0 114 86q8 22 29 22h10q11 0 16 -7.5t1 -20.5q-19 -80 -65 -124t-118 -44q-41 0 -85.5 19.5t-77 43t-72.5 43t-72 19.5q-38 0 -67.5 -24t-44.5 -66q-12 -29 -27 -29h-14q-8 0 -15 9t-4 22q16 76 63 125t121 49z
M666 1608q-117 0 -201.5 68.5t-99.5 166.5q-3 20 9.5 31t27 8.5t18.5 -14.5q22 -78 89.5 -125t156.5 -47t157 47t90 125q5 12 20 14.5t27 -8.5t9 -31q-14 -98 -98 -166.5t-205 -68.5zM1249 115q10 -22 26.5 -37.5t30.5 -21t24.5 -14t10.5 -19.5v-3q0 -20 -38 -20h-209
q-39 0 -39 20v3q0 11 13.5 19.5t28 15t23 21t-1.5 36.5l-117 282h-704l-109 -282q-9 -22 -0.5 -36.5t23 -21t28 -15t13.5 -19.5v-3q0 -20 -39 -20h-160q-37 0 -37 20v3q0 11 10.5 19.5t24.5 14t30 21t25 37.5l478 1218q10 24 -5.5 42t-36 32t-20.5 25v4q0 18 25 18h78
q30 0 48 -13t32 -44zM322 465h651l-338 817z" />
    <glyph glyph-name="uni1EB5" unicode="&#x1eb5;" horiz-adv-x="1005" 
d="M313 1731q42 0 89 -19t80.5 -42.5t72 -42.5t66.5 -19q77 0 114 86q8 22 29 22h10q11 0 16 -7.5t1 -20.5q-19 -80 -65 -124t-118 -44q-41 0 -85.5 19.5t-77 43t-72.5 43t-72 19.5q-38 0 -68 -24.5t-45 -66.5q-11 -28 -26 -28h-15q-8 0 -14.5 8.5t-3.5 21.5q16 76 63 125.5
t121 49.5zM449 1178q-119 0 -203 67.5t-99 165.5q-4 20 8.5 31.5t28 9t19.5 -15.5q22 -78 89.5 -125t156.5 -47q88 0 156 47t91 125q5 12 20 14.5t27 -8.5t9 -31q-14 -98 -98.5 -165.5t-204.5 -67.5zM881 145q3 -41 22.5 -63t41 -26t39 -11t17.5 -22q0 -35 -100 -35
q-66 0 -97 30t-34 121q-36 -74 -115 -116.5t-192 -42.5q-172 0 -275.5 83t-103.5 224q-1 143 103.5 223t273.5 80q175 0 268 -96l-6 69q-18 192 -86 289.5t-201 97.5q-66 0 -113 -23t-70.5 -55t-39.5 -64.5t-31.5 -55.5t-36.5 -23q-57 0 -57 55q0 35 23 72.5t64.5 71t110 55
t150.5 21.5q180 0 284.5 -115t123.5 -324zM485 35q119 0 193 67.5t72 169.5l-7 62q-2 83 -75 142t-189 59q-123 0 -198.5 -63t-75.5 -165q0 -120 77 -196t203 -76z" />
    <glyph glyph-name="uni1EB6" unicode="&#x1eb6;" horiz-adv-x="1343" 
d="M608 -436q-43 0 -70.5 26t-27.5 68q0 43 27.5 69.5t70.5 26.5q41 0 67.5 -26.5t26.5 -69.5q0 -42 -26 -68t-68 -26zM666 1608q-117 0 -201.5 68.5t-99.5 166.5q-3 20 9.5 31t27 8.5t18.5 -14.5q22 -78 89.5 -125t156.5 -47t157 47t90 125q5 12 20 14.5t27 -8.5t9 -31
q-14 -98 -98 -166.5t-205 -68.5zM1249 115q10 -22 26.5 -37.5t30.5 -21t24.5 -14t10.5 -19.5v-3q0 -20 -38 -20h-209q-39 0 -39 20v3q0 11 13.5 19.5t28 15t23 21t-1.5 36.5l-117 282h-704l-109 -282q-9 -22 -0.5 -36.5t23 -21t28 -15t13.5 -19.5v-3q0 -20 -39 -20h-160
q-37 0 -37 20v3q0 11 10.5 19.5t24.5 14t30 21t25 37.5l478 1218q10 24 -5.5 42t-36 32t-20.5 25v4q0 18 25 18h78q30 0 48 -13t32 -44zM322 465h651l-338 817z" />
    </font>
</defs>
</svg>
